<?xml version="1.0" encoding="utf-8"?>
<!-- Generator: Adobe Illustrator 18.1.1, SVG Export Plug-In . SVG Version: 6.00 Build 0)  -->
<!DOCTYPE svg PUBLIC "-//W3C//DTD SVG 1.1//EN" "http://www.w3.org/Graphics/SVG/1.1/DTD/svg11.dtd">
<svg version="1.1" id="Layer_1" xmlns="http://www.w3.org/2000/svg" xmlns:xlink="http://www.w3.org/1999/xlink" x="0px" y="0px"
	 viewBox="0 0 178.4 98.3" enable-background="new 0 0 178.4 98.3" xml:space="preserve">
<path fill="#FFFFFF" d="M178.4,88.8c0-2.4-0.9-4.9-2.8-6.8L96.3,2.8c-2-2-4.6-2.9-7.2-2.8c-0.1,0-0.3,0-0.4,0
	c-2.4,0-4.9,0.9-6.8,2.8L2.8,82c-3.7,3.7-3.7,9.8,0,13.5c1.9,1.9,4.3,2.8,6.8,2.8c2.4,0,4.9-0.9,6.8-2.8l72.9-72.9L162,95.5
	c3.7,3.7,9.8,3.7,13.5,0C177.4,93.7,178.4,91.2,178.4,88.8z"/>
</svg>
