<svg xmlns="http://www.w3.org/2000/svg" viewBox="0 0 58.1 28" enable-background="new 0 0 58.1 28"><style type="text/css">.st0{fill:#FFFFFF;}</style><path d="M58.1 0c-1 1.2-2.1 2.4-3.2 3.6l-3.3 3.5-3.3 3.4c-1.1 1.1-2.2 2.2-3.4 3.3-4.6 4.4-9.2 8.6-14 12.8l-1.6 1.4-1.6-1.4c-2.4-2.1-4.9-4.1-7.2-6.3-2.4-2.1-4.7-4.3-7.1-6.5-1.2-1.1-2.3-2.2-3.4-3.3l-3.5-3.4c-1.1-1.1-2.2-2.3-3.3-3.5-1.1-1.2-2.2-2.4-3.2-3.6 1.4.8 2.8 1.7 4.1 2.6 1.4.9 2.7 1.8 4 2.7l3.9 2.7 3.9 2.8c2.6 1.9 5.1 3.9 7.6 5.9 2.5 2 5 4 7.4 6.1h-3.2c4.8-4.1 9.7-8.1 14.7-11.9 1.3-1 2.5-1.9 3.8-2.8l3.9-2.8 3.9-2.7c1.3-.9 2.7-1.8 4.1-2.6z"/></svg>