<?xml version="1.0" encoding="utf-8"?>
<!-- Generator: Adobe Illustrator 18.1.1, SVG Export Plug-In . SVG Version: 6.00 Build 0)  -->
<!DOCTYPE svg PUBLIC "-//W3C//DTD SVG 1.1//EN" "http://www.w3.org/Graphics/SVG/1.1/DTD/svg11.dtd">
<svg version="1.1" xmlns="http://www.w3.org/2000/svg" xmlns:xlink="http://www.w3.org/1999/xlink" x="0px" y="0px"
	 viewBox="0 0 612 233.5" enable-background="new 0 0 612 233.5" xml:space="preserve">
<g id="waves">
	<path id="behind_wave" fill="#1C75BC" d="M0,144.6c27.2,24.9,36.5,24.6,67.1-2.3c29,26.6,42.5,29.5,70.6-1.2
		c22.7,26,46.2,32.3,69.9-0.7c23.6,28.5,47.2,31.1,70,0.9c26.8,25,40,32.1,70.6,0.9c35.5,27.6,42.2,27.6,70.9-1.1
		c22.7,27.5,46.3,30.9,69.2,0.5c34.5,28.7,40.8,28.7,71.5-0.3c14.5,17.8,31.6,26.4,52.2,18.2c0,12.9,0,25.8,0,38.6
		c-20.7,9-37.8,0.9-51.9-18.3c-29.9,29.9-39.6,29.9-68.1,3.6c-13.8,6.7-25.7,17.1-37.7,17c-12.1-0.1-24.2-10.4-38.2-17.2
		c-28,26.1-39.2,26.1-67.9-3.2c-26.3,29.7-38.5,29.8-69.9,0.6c-29.8,28.8-38.9,28.9-70.3,0.3c-29.7,28.4-40.5,28.4-70.3-0.2
		c-30.7,29.2-39.6,29.2-70.2-0.3c-30.4,28.1-41.2,28.6-67.5,3C0,170.4,0,157.5,0,144.6z"/>
</g>
<g id="boat">
	<polygon id="flag" fill="#42BEAC" points="79.5,0 90.9,154.8 85.2,154.8 76.2,18.2 57.5,10.8 	"/>
	<path id="bottom" fill="#F9C852" d="M164.8,131.9L26.7,143.4l17.6,34.3l82.7-5.3C127,172.4,163.9,147.8,164.8,131.9z"/>
	<path id="sail_1_" fill="#D54B2D" d="M74.2,30.1l4.7,99.8l-61.7,5.8C17.1,135.6,7.3,85.1,74.2,30.1z"/>
	<polygon id="sail" fill="#D54B2D" points="84.6,22.5 95.8,128.5 176.5,121.3 	"/>
</g>
<g id="middle_wave_1_">
	<g id="middle_wave">
		<path fill="#27AAE1" d="M612,208c0,0-4.7-0.1-19.8-17.7c-26.9,31.6-41.2,31.8-67.2,3.4c-13.5,7.1-25.8,18.6-38.1,18.7
			c-12,0.1-24.1-11.6-37.6-18.9c-26.7,28.5-37.6,28.5-68.2-2.9c-26.4,31.3-40.5,31.3-67.4,2.9c-13.3,7.3-25.1,18.9-37,19
			c-12.1,0.1-24.2-11.2-35.8-17.3c-10.8,5.7-23.1,17.2-35.4,17.2c-12,0-24-11.9-37.2-19.2c-27.3,28.6-39.6,28.6-68-2.9
			c-2.2,2.6-4.4,5.4-6.7,8.1c-15.9,18.6-32.8,20.3-50.7,5.3c-3.2-2.7-6.6-5.3-9.8-8c0-13.4,0-26.9,0-40.3c8,5.2,15.6,12.2,24.1,15.4
			c17.5,6.5,31.2-4.4,42.7-20.8c31.4,30.4,42.8,30.4,70.7,0.6c31.2,29.7,40.5,29.7,70.4,0.1c32.2,29.6,43.2,29.6,67.9,1.8
			c12.8,7.2,24.7,18.8,36.8,19.2c12,0.4,24.2-10.6,37-16.9c9.5,5.1,21.5,16.5,33.7,16.8c12,0.2,24.1-10.8,35.9-16.8
			c10.5,5.3,22.2,13.7,34.8,17c13.9,3.7,24.3-9,34.8-22.4c22.6,27.9,46.1,33.9,70.1,0.1c15.4,18.1,20.2,18.2,20.2,18.2
			C612,181.1,612,194.5,612,208z"/>
		<path fill="#27AAE1" d="M33,155.5c-9,6.3-16.5,23.9-33,18.8c0,13.4,0,26.9,0,40.3c21.5,14.1,17.8-1.2,33-18.8V155.5z"/>
	</g>
</g>
<g id="front_wave_1_">
	<path id="front_wave" fill="#2B3990" d="M0,233.5c0-10.2,0-47.4,0-57.7c15.8,12.2,32.4,20,52,8.9c5.3-3,9.9-7.6,15.5-12
		c22.5,20.7,45.6,25.5,67.2,2.2c13.3,5.3,25.3,13.7,37.4,14c12,0.3,24.2-7.7,36.9-12.3c9.8,3.8,21.8,12.2,34,12.3
		c12,0.1,24.1-8,38.4-13.3c31,20.5,35.5,20.4,67.2-2.6c30.8,22.5,41.7,22.7,70.4,0.3c22.4,20.7,45.8,24.3,69.6-0.6
		c23.5,21.2,47.2,25.2,70.8-0.7c14.6,16,32.1,21.3,52.5,15.7c0,10.2,0,35.6,0,45.9"/>
</g>
</svg>
