<?xml version="1.0" encoding="utf-8"?>
<!-- Generator: Adobe Illustrator 18.1.1, SVG Export Plug-In . SVG Version: 6.00 Build 0)  -->
<!DOCTYPE svg PUBLIC "-//W3C//DTD SVG 1.1//EN" "http://www.w3.org/Graphics/SVG/1.1/DTD/svg11.dtd">
<svg version="1.1" id="Layer_1" xmlns="http://www.w3.org/2000/svg" xmlns:xlink="http://www.w3.org/1999/xlink" x="0px" y="0px"
	 viewBox="0 0 135.2 97.9" enable-background="new 0 0 135.2 97.9" xml:space="preserve">
<path fill="#C7A975" stroke="#7F6D4F" stroke-miterlimit="10" d="M84.1,61.1c9,8.7,12.6,21.5,19.8,31.7c-0.4-2.1,0.5-4.4,2.2-5.7
	c-0.5-1.7-1-3.5-1.5-5.2c2.2,1.5,4.6,2.7,7.2,3.4c0.7,0.2,1.5,0.3,1.9-0.3c0.3-0.4,0.2-0.8,0.2-1.3c-0.4-3-0.8-5.9-1.2-8.9
	c1.2,1,2.5,1.9,3.7,2.9c0-3.7-0.4-7.3-1.3-10.9c2.4,0.4,3.9,3,4.6,5.4c0.7,2.4,0.9,5,2.4,7s5,2.7,6.3,0.6
	c-0.9-6.8-5.4-12.6-8.9-18.6c-4.2-7.2-7.2-15-9.2-23.1c4.5,10.3,10.3,20,17.1,28.9c0.3-2.5,0.6-5,0.8-7.5c1.6,0.1,3.3,0.2,4.9,0.2
	c2-1.1,2-4.2,0.8-6.1c-1.2-2-3.2-3.3-4.6-5.1c-2.1-2.7-3-6.1-4.5-9.2c-2.7-5.1-7.4-8.9-10.7-13.7c-5.7-8.2-7.4-19.8-16.1-24.8
	c0.3,4.8-4.5,8.5-9.2,9.2s-9.5-0.5-14.2-0.9C70,8.9,65.2,9.4,60.9,7.8c-1.6-0.6-2-1.1-3.5-1.9c-0.6-0.3-0.9-0.1-1.8,0
	C52,5.8,48.5,5,44,6.1c-4,1-7.1,4-10.3,6.6C23.8,20.8,11.8,26.3,3,35.6C2,36.7,1,38,0.6,39.4s0.1,3.3,1.5,4
	c6.3-9.2,16.2-15.2,25.8-20.8c-4.7,5.2-8.4,11.4-10.7,18.1c-0.6,1.7-1.1,3.5-2.1,5c-1.1,1.8-2.8,3.1-4.3,4.5
	c-2.5,2.4-4.6,5.1-6.2,8.1c1.3,0.1,2.6,0.2,3.9,0.3c0.5,4.5-0.2,9.2-2,13.4c1.4-1.6,3.1-3,5.2-3.5c2.1-0.5,4.5,0.2,5.6,2
	C21,60,24.8,49.2,32.5,41.1c-2.1,6.5-5.9,12.3-8.4,18.7s-3.6,13.9-0.4,19.8c2.6-11.4,7.1-22.4,13.3-32.3c-1.8,11.9-4.5,23.6-8,35.1
	c-0.4,1.4-0.8,3,0,4.2c0.8,1.2,3.3,0.6,2.9-0.8c0.5,2,1.5,3.9,2.8,5.5c1.7,0.3,2.6-2.2,4.3-2.5c2.4-0.4,3.9,3.6,6.2,3.2
	c2.3-10.4,4.7-20.9,7-31.3c0.8-3.6,1.6-7.2,2.7-10.8c1.8,14.1,0.6,28.5-3.5,42.1c2.5-0.9,5.4,2.4,7.7,0.9c0.3-0.2,0.6-0.5,1-0.6
	c0.7-0.1,1.1,0.7,1.8,1c1.5,0.8,3.4-1.2,5-0.7c2.3,0.7,2.4,5.4,4.7,4.9c2.4-0.5,1.1-5.6,3.5-5.8c0.9,0.7,1.6,1.7,1.9,2.8
	C79.5,83.3,81.8,72.2,84.1,61.1z"/>
</svg>
