<?xml version="1.0" encoding="utf-8"?>
<!-- Generator: Adobe Illustrator 18.1.1, SVG Export Plug-In . SVG Version: 6.00 Build 0)  -->
<!DOCTYPE svg PUBLIC "-//W3C//DTD SVG 1.1//EN" "http://www.w3.org/Graphics/SVG/1.1/DTD/svg11.dtd">
<svg version="1.1" id="Layer_1" xmlns="http://www.w3.org/2000/svg" xmlns:xlink="http://www.w3.org/1999/xlink" x="0px" y="0px"
	 viewBox="0 90 612 612" enable-background="new 0 90 612 612" xml:space="preserve">
<g>
	<g>
		<path fill="#35914C" stroke="#296735" stroke-miterlimit="10" d="M373.1,627.9v43.4c0,9.2-37.9,16.3-84.8,16.3
			s-84.8-7.3-84.8-16.3v-43.4c0-9.2,37.9-16.3,84.8-16.3S373.1,618.9,373.1,627.9z"/>
		<ellipse fill="#35914C" stroke="#296735" stroke-miterlimit="10" cx="288.3" cy="625.4" rx="84.8" ry="13.3"/>
	</g>
	<path fill="#745B3E" stroke="#443526" stroke-miterlimit="10" d="M401.4,272.7c0,0-12.4-8.8-18.6-8.8c0,0-11-45.3-32-67.7
		c0,0-5.7-7.7-23.4-4.1c0,0,9.2-23.4,8-36.9c0,0,12.4-12.6,8.4-25.3s-19.8-9.6-19.8-9.6s-31.6-0.6-38.1,24.5s-12,49.5-12,49.5
		s-10.4,3.3-18.6,16.3c-8.2,13-16.7,22.8-20.4,28.3c-3.7,5.5-25.3,35.7-16.5,51.2c6.7,12,19.2,15.1,47.9,14.9l-12,34.2l14.7,135
		c0,0,0,10.2-5.3,32c-5.3,21.8,5.3,69.5,5.3,69.5l-7.5,52.2h49.7c-0.2-6.7,0-14.7,1.2-24.1c5.5-42,24.3-71.3,25.3-104
		c0,0,7.5-10.6,7.1-32c0,0,27.1-108.7,8.6-158.8c-18.6-50.1-2.9-64.8-2.9-64.8l14.5,41c0,0,26.9,16.3,47.3-0.4 M262.8,284.6
		c-9.2-4.5-20.2-5.9-20.2-5.9s9.2-21.8,21.2-24.5l11.4,27.7l-2,5.5C269.1,286.8,265.5,285.8,262.8,284.6z"/>
	<path fill="#100F11" d="M322.6,184.5c0,0,14.9-12.2,13-28.1c0,0,17.9-12,14.5-28.9c-3.5-16.9-13.5-27.9-29.6-23.2
		c0,0-32.8-8.2-34.5,19.2s-27.5,46.9-27.5,46.9s-13.5,8.2-3.7,23.4c0,0,5.3,10.6,3.3,13.5c0,0,8-15.5,13.7-7.3
		c5.7,8.2,5.1,17.9,15.5,19.8c10.4,1.8,3.3,5.5,6.7,12c3.5,6.5,5.9,9,8.6,6.1c2.7-2.9-2-7.3-1.6-11c0.4-3.7,2.4-9.4-2.2-14.3
		c-4.7-4.9-11.8-21-7.1-38.3s-0.6-37.9-0.6-37.9s20.4-13.5,39.3-10.8c19,2.7,7.3,27.1,7.3,27.1s-2.2,3.1,2.7,11
		c4.9,8,7.7-5.1,13,3.9c5.3,9,4.5,20.8,4.5,20.8s6.5,9.2,10,27.5c0,0,2,4.7,5.1,6.7c3.1,2-5.9,17.7-12.6-2
		c-6.7-19.8-4.1-21-9.2-24.5C345.8,192.8,323.6,189.6,322.6,184.5z"/>
	<path fill="#D3C8C7" d="M283.6,125.3l1.6-6.3c0.4-1.2,1.8-1.8,3.1-1l12.2,8.8c1,0.8,1,2.2,0,3.1l-0.4,0.2c-1.4,1.2-0.6,3.5,1.2,3.5
		l0,0c1.4,0,2.2,1.4,1.8,2.7l-4.5,12c-0.2,0.6-0.8,1-1.4,1.2l-12.8,2.4c-1.2,0.2-2.4-0.8-2.2-2.2l1-6.1c0.2-1-0.6-2.2-1.8-2.2
		l-5.9-0.4c-1.2,0-2-1.2-1.6-2.4l3.3-11.2c0.4-1.2,1.8-1.8,3.1-1l0.4,0.4C281.8,127.4,283.4,126.8,283.6,125.3z"/>
	<path fill="#DDA4B0" d="M285.4,130c1.2-1.4,3.1-1.6,4.9-1.8c0.2,0,0.4,0,0.6,0.2s0.2,0.6,0.4,1s0.6,0.6,0.8,0.8
		c1.4,1.2,0.2,3.5,1,5.1c0.2,0.4,0.6,0.8,0.8,1.2c0.4,1-0.4,2.4-1.4,3.1c-2,1.4-4.9,1.4-7.1,0.4c-0.6-0.2-1-0.6-1.4-1
		c-1.6-1.4-1.6-3.9-1.4-6.1c0-0.4,0.2-0.6,0.4-1c0.4-0.4,1.2-0.4,1.6-0.8C285,130.6,285.2,130.2,285.4,130z"/>
	<path fill="#C7A975" stroke="#7F6D4F" stroke-miterlimit="10" d="M320.7,417.5c18.3,17.7,25.7,43.8,40.4,64.6
		c-0.8-4.3,1-9,4.5-11.6c-1-3.5-2-7.1-3.1-10.6c4.5,3.1,9.4,5.5,14.7,6.9c1.4,0.4,3.1,0.6,3.9-0.6c0.6-0.8,0.4-1.6,0.4-2.7
		c-0.8-6.1-1.6-12-2.4-18.1c2.4,2,5.1,3.9,7.5,5.9c0-7.5-0.8-14.9-2.7-22.2c4.9,0.8,8,6.1,9.4,11c1.4,4.9,1.8,10.2,4.9,14.3
		s10.2,5.5,12.8,1.2c-1.8-13.9-11-25.7-18.1-37.9c-8.6-14.7-14.7-30.6-18.8-47.1c9.2,21,21,40.8,34.9,58.9
		c0.6-5.1,1.2-10.2,1.6-15.3c3.3,0.2,6.7,0.4,10,0.4c4.1-2.2,4.1-8.6,1.6-12.4c-2.4-4.1-6.5-6.7-9.4-10.4
		c-4.3-5.5-6.1-12.4-9.2-18.8c-5.5-10.4-15.1-18.1-21.8-27.9c-11.6-16.7-15.1-40.4-32.8-50.6c0.6,9.8-9.2,17.3-18.8,18.8
		c-9.6,1.4-19.4-1-28.9-1.8c-9.4-0.6-19,0.4-27.7-3.1c-3.3-1.2-4.1-2.2-7.1-3.9c-1.2-0.6-1.8-0.2-3.7,0c-7.5,0.2-14.7-1.6-23.9,0.8
		c-8.2,2-14.5,8.2-21,13.5c-20.2,16.5-44.6,27.5-62.6,46.7c-2,2.2-4.3,4.7-4.9,7.7s0.2,6.7,3.1,8.2c12.8-18.8,33-31,52.6-42.4
		c-9.6,10.6-17.1,23.2-21.8,36.9c-1.2,3.5-2.2,7.1-4.3,10.2c-2.2,3.7-5.7,6.3-8.8,9.2c-5.1,4.9-9.4,10.4-12.6,16.5
		c2.7,0.2,5.3,0.4,8,0.6c1,9.2-0.4,18.8-4.1,27.3c2.9-3.3,6.3-6.1,10.6-7.1c4.3-1,9.2,0.4,11.4,4.1c7.3-21.4,15.3-43.4,30.8-59.7
		c-4.3,13.3-12,25.1-17.1,38.1c-5.1,13-7.3,28.3-0.8,40.4c5.3-23.2,14.5-45.7,27.1-65.8c-3.7,24.3-9.2,48.1-16.3,71.6
		c-0.8,2.9-1.6,6.1,0,8.6c1.6,2.4,6.7,1.2,5.9-1.6c1,4.1,3.1,8,5.7,11.2c3.5,0.6,5.3-4.5,8.8-5.1c4.9-0.8,8,7.3,12.6,6.5
		c4.7-21.2,9.6-42.6,14.3-63.8c1.6-7.3,3.3-14.7,5.5-22c3.7,28.7,1.2,58.1-7.1,85.8c5.1-1.8,11,4.9,15.7,1.8c0.6-0.4,1.2-1,2-1.2
		c1.4-0.2,2.2,1.4,3.7,2c3.1,1.6,6.9-2.4,10.2-1.4c4.7,1.4,4.9,11,9.6,10c4.9-1,2.2-11.4,7.1-11.8c1.8,1.4,3.3,3.5,3.9,5.7
		C311.3,462.7,316,440.1,320.7,417.5z"/>
	<g>
		<path d="M354.8,256.6l51-12.2c1-0.2,2-0.6,2.9-1l14.3-6.5c0.8-0.4,1.6-0.8,2.2-1.2c5.3-3.5,29.4-19,32.4-9.2c0,0,10.8,8,2.4,13.7
			c0,0,4.1,6.9-10.4,10.6c-11.2,2.9-22,2-26.5,1.6c-1.4-0.2-2.9,0-4.3,0.4L359,273.1c0,0-2.7,22.8-35.3,22.8c-4.1,0-8,1.6-10.8,4.7
			c-6.3,6.9-19.6,17.9-34.7,9.8c-9-4.7-14.5-14.1-15.9-24.1c-2.9-21.8,16.1-33.2,34.5-29.4c5.5,1.2,11.2,0,16.1-3.1
			C323.6,247.2,342.1,239.5,354.8,256.6z"/>
		<path fill="#C7A975" d="M352.3,273.8c0,0-2.2,19-31,19c-3.7,0-6.9,1.4-9.4,3.9c-5.5,5.7-17.1,14.9-30.4,8.2
			c-8-3.9-12.8-11.6-13.9-19.8c-2.4-17.9,14.3-27.3,30.4-24.3c4.9,1,10,0,14.1-2.4c9.2-5.5,25.5-12,36.5,2.2
			C348.4,260.3,352.3,264.6,352.3,273.8z"/>
		<path d="M329.5,284.4c1.8,0.2,3.7-0.8,4.7-2.4c1-1.6,1.4-3.3,1.6-5.1c0.4-2,0.4-4.3,0-6.5c-0.4-2-1.4-4.1-3.3-5.5
			c-2-1.4-4.9-1.6-7.3-1.6c-0.4,0-0.6,0-1,0.2c-0.4,0.2-0.8,0.6-1.2,0.8c-1,0.8-2,1.8-2.7,3.1s-0.8,2.4-0.8,3.7
			c-0.2,1.6-0.4,3.5,0.2,4.9c0.4,1,1,1.8,1.8,2.7c1.4,1.6,3.3,3.1,5.1,4.3C327.4,283.7,328.5,284.4,329.5,284.4z"/>
		<line fill="none" stroke="#353535" stroke-width="0.2" stroke-miterlimit="10" x1="285.9" y1="283.1" x2="451" y2="234.8"/>
		<line fill="none" stroke="#353535" stroke-width="0.2" stroke-miterlimit="10" x1="285.9" y1="284.6" x2="451" y2="236.2"/>
		<line fill="none" stroke="#353535" stroke-width="0.2" stroke-miterlimit="10" x1="285.9" y1="286" x2="451" y2="237.7"/>
		<line fill="none" stroke="#353535" stroke-width="0.2" stroke-miterlimit="10" x1="285.9" y1="287.2" x2="451" y2="239.1"/>
		<line fill="none" stroke="#353535" stroke-width="0.2" stroke-miterlimit="10" x1="285.9" y1="288.6" x2="451" y2="240.5"/>
	</g>
	<path fill="#745B3E" stroke="#443526" stroke-miterlimit="10" d="M412.5,285.2c20.4-16.7,7.7-38.9,7.7-38.9s-5.5-11.4-17.1,14.5
		l-1.6,12"/>
	<path fill="#745B3E" stroke="#443526" stroke-miterlimit="10" d="M218.8,290.1c8.8,15.5,26.9,16.1,77.5,13.9c0,0,24.9,2.9,34-15.5
		s-3.9-13.5-11.4-10.4c-7.5,2.9-24.9,11.4-24.9,11.4s-22-0.4-31.2-4.9"/>
</g>
</svg>
