<?xml version="1.0" encoding="utf-8"?>
<!-- Generator: Adobe Illustrator 18.1.1, SVG Export Plug-In . SVG Version: 6.00 Build 0)  -->
<!DOCTYPE svg PUBLIC "-//W3C//DTD SVG 1.1//EN" "http://www.w3.org/Graphics/SVG/1.1/DTD/svg11.dtd">
<svg version="1.1" id="Layer_1" xmlns="http://www.w3.org/2000/svg" xmlns:xlink="http://www.w3.org/1999/xlink" x="0px" y="0px"
	 viewBox="0 0 153.9 287.4" enable-background="new 0 0 153.9 287.4" xml:space="preserve">
<g>
	<path fill="#35914C" stroke="#296735" stroke-miterlimit="10" d="M109.8,257.5v21.3c0,4.5-18.6,8-41.6,8c-23,0-41.6-3.6-41.6-8
		v-21.3c0-4.5,18.6-8,41.6-8C91.2,249.5,109.8,253.1,109.8,257.5z"/>
	<ellipse fill="#35914C" stroke="#296735" stroke-miterlimit="10" cx="68.2" cy="256.3" rx="41.6" ry="6.5"/>
</g>
<path fill="#745B3E" stroke="#443526" stroke-miterlimit="10" d="M123.7,83.3c0,0-6.1-4.3-9.1-4.3c0,0-5.4-22.2-15.7-33.2
	c0,0-2.8-3.8-11.5-2c0,0,4.5-11.5,3.9-18.1c0,0,6.1-6.2,4.1-12.4c-2-6.2-9.7-4.7-9.7-4.7s-15.5-0.3-18.7,12
	c-3.2,12.3-5.9,24.3-5.9,24.3s-5.1,1.6-9.1,8c-4,6.4-8.2,11.2-10,13.9c-1.8,2.7-12.4,17.5-8.1,25.1c3.3,5.9,9.4,7.4,23.5,7.3
	L51.5,116l7.2,66.2c0,0,0,5-2.6,15.7c-2.6,10.7,2.6,34.1,2.6,34.1l-3.7,25.6l24.4,0c-0.1-3.3,0-7.2,0.6-11.8
	c2.7-20.6,11.9-35,12.4-51c0,0,3.7-5.2,3.5-15.7c0,0,13.3-53.3,4.2-77.9c-9.1-24.6-1.4-31.8-1.4-31.8l7.1,20.1c0,0,13.2,8,23.2-0.2
	 M55.7,89.1c-4.5-2.2-9.9-2.9-9.9-2.9s4.5-10.7,10.4-12l5.6,13.6l-1,2.7C58.8,90.2,57,89.7,55.7,89.1z"/>
<path fill="#100F11" d="M85,40c0,0,7.3-6,6.4-13.8c0,0,8.8-5.9,7.1-14.2S91.9-1.7,84,0.6c0,0-16.1-4-16.9,9.4S53.6,33,53.6,33
	S47,37,51.8,44.5c0,0,2.6,5.2,1.6,6.6c0,0,3.9-7.6,6.7-3.6s2.5,8.8,7.6,9.7c5.1,0.9,1.6,2.7,3.3,5.9c1.7,3.2,2.9,4.4,4.2,3
	s-1-3.6-0.8-5.4c0.2-1.8,1.2-4.6-1.1-7c-2.3-2.4-5.8-10.3-3.5-18.8c2.3-8.5-0.3-18.6-0.3-18.6s10-6.6,19.3-5.3s3.6,13.3,3.6,13.3
	s-1.1,1.5,1.3,5.4s3.8-2.5,6.4,1.9c2.6,4.4,2.2,10.2,2.2,10.2s3.2,4.5,4.9,13.5c0,0,1,2.3,2.5,3.3s-2.9,8.7-6.2-1s-2-10.3-4.5-12
	C96.4,44.1,85.5,42.5,85,40z"/>
<path fill="#D3C8C7" d="M65.9,11l0.8-3.1c0.2-0.6,0.9-0.9,1.5-0.5l6,4.3c0.5,0.4,0.5,1.1,0,1.5L74,13.3c-0.7,0.6-0.3,1.7,0.6,1.7h0
	c0.7,0,1.1,0.7,0.9,1.3l-2.2,5.9c-0.1,0.3-0.4,0.5-0.7,0.6L66.3,24c-0.6,0.1-1.2-0.4-1.1-1.1l0.5-3c0.1-0.5-0.3-1.1-0.9-1.1
	l-2.9-0.2c-0.6,0-1-0.6-0.8-1.2l1.6-5.5c0.2-0.6,0.9-0.9,1.5-0.5l0.2,0.2C65,12,65.8,11.7,65.9,11z"/>
<path fill="#DDA4B0" d="M66.8,13.3c0.6-0.7,1.5-0.8,2.4-0.9c0.1,0,0.2,0,0.3,0.1c0.1,0.1,0.1,0.3,0.2,0.5c0.1,0.2,0.3,0.3,0.4,0.4
	c0.7,0.6,0.1,1.7,0.5,2.5c0.1,0.2,0.3,0.4,0.4,0.6c0.2,0.5-0.2,1.2-0.7,1.5c-1,0.7-2.4,0.7-3.5,0.2c-0.3-0.1-0.5-0.3-0.7-0.5
	c-0.8-0.7-0.8-1.9-0.7-3c0-0.2,0.1-0.3,0.2-0.5c0.2-0.2,0.6-0.2,0.8-0.4C66.6,13.6,66.7,13.4,66.8,13.3z"/>
<path fill="#C7A975" stroke="#7F6D4F" stroke-miterlimit="10" d="M84.1,154.3c9,8.7,12.6,21.5,19.8,31.7c-0.4-2.1,0.5-4.4,2.2-5.7
	c-0.5-1.7-1-3.5-1.5-5.2c2.2,1.5,4.6,2.7,7.2,3.4c0.7,0.2,1.5,0.3,1.9-0.3c0.3-0.4,0.2-0.8,0.2-1.3c-0.4-3-0.8-5.9-1.2-8.9
	c1.2,1,2.5,1.9,3.7,2.9c0-3.7-0.4-7.3-1.3-10.9c2.4,0.4,3.9,3,4.6,5.4c0.7,2.4,0.9,5,2.4,7s5,2.7,6.3,0.6
	c-0.9-6.8-5.4-12.6-8.9-18.6c-4.2-7.2-7.2-15-9.2-23.1c4.5,10.3,10.3,20,17.1,28.9c0.3-2.5,0.6-5,0.8-7.5c1.6,0.1,3.3,0.2,4.9,0.2
	c2-1.1,2-4.2,0.8-6.1c-1.2-2-3.2-3.3-4.6-5.1c-2.1-2.7-3-6.1-4.5-9.2c-2.7-5.1-7.4-8.9-10.7-13.7c-5.7-8.2-7.4-19.8-16.1-24.8
	c0.3,4.8-4.5,8.5-9.2,9.2s-9.5-0.5-14.2-0.9c-4.6-0.3-9.3,0.2-13.6-1.5c-1.6-0.6-2-1.1-3.5-1.9c-0.6-0.3-0.9-0.1-1.8,0
	C52,99,48.5,98.1,44,99.3c-4,1-7.1,4-10.3,6.6C23.8,114,11.8,119.4,3,128.8c-1,1.1-2.1,2.3-2.4,3.8s0.1,3.3,1.5,4
	c6.3-9.2,16.2-15.2,25.8-20.8c-4.7,5.2-8.4,11.4-10.7,18.1c-0.6,1.7-1.1,3.5-2.1,5c-1.1,1.8-2.8,3.1-4.3,4.5
	c-2.5,2.4-4.6,5.1-6.2,8.1c1.3,0.1,2.6,0.2,3.9,0.3c0.5,4.5-0.2,9.2-2,13.4c1.4-1.6,3.1-3,5.2-3.5c2.1-0.5,4.5,0.2,5.6,2
	c3.6-10.5,7.5-21.3,15.1-29.3c-2.1,6.5-5.9,12.3-8.4,18.7c-2.5,6.4-3.6,13.9-0.4,19.8c2.6-11.4,7.1-22.4,13.3-32.3
	c-1.8,11.9-4.5,23.6-8,35.1c-0.4,1.4-0.8,3,0,4.2c0.8,1.2,3.3,0.6,2.9-0.8c0.5,2,1.5,3.9,2.8,5.5c1.7,0.3,2.6-2.2,4.3-2.5
	c2.4-0.4,3.9,3.6,6.2,3.2c2.3-10.4,4.7-20.9,7-31.3c0.8-3.6,1.6-7.2,2.7-10.8c1.8,14.1,0.6,28.5-3.5,42.1c2.5-0.9,5.4,2.4,7.7,0.9
	c0.3-0.2,0.6-0.5,1-0.6c0.7-0.1,1.1,0.7,1.8,1c1.5,0.8,3.4-1.2,5-0.7c2.3,0.7,2.4,5.4,4.7,4.9c2.4-0.5,1.1-5.6,3.5-5.8
	c0.9,0.7,1.6,1.7,1.9,2.8C79.5,176.5,81.8,165.4,84.1,154.3z"/>
<g>
	<path d="M100.8,75.4l25-6c0.5-0.1,1-0.3,1.4-0.5l7-3.2c0.4-0.2,0.8-0.4,1.1-0.6c2.6-1.7,14.4-9.3,15.9-4.5c0,0,5.3,3.9,1.2,6.7
		c0,0,2,3.4-5.1,5.2c-5.5,1.4-10.8,1-13,0.8c-0.7-0.1-1.4,0-2.1,0.2l-29.3,10c0,0-1.3,11.2-17.3,11.2c-2,0-3.9,0.8-5.3,2.3
		c-3.1,3.4-9.6,8.8-17,4.8c-4.4-2.3-7.1-6.9-7.8-11.8c-1.4-10.7,7.9-16.3,16.9-14.4c2.7,0.6,5.5,0,7.9-1.5
		C85.5,70.8,94.6,67,100.8,75.4z"/>
	<path fill="#C7A975" d="M99.6,83.8c0,0-1.1,9.3-15.2,9.3c-1.8,0-3.4,0.7-4.6,1.9c-2.7,2.8-8.4,7.3-14.9,4c-3.9-1.9-6.3-5.7-6.8-9.7
		c-1.2-8.8,7-13.4,14.9-11.9c2.4,0.5,4.9,0,6.9-1.2c4.5-2.7,12.5-5.9,17.9,1.1C97.7,77.2,99.6,79.3,99.6,83.8z"/>
	<path d="M88.4,89c0.9,0.1,1.8-0.4,2.3-1.2s0.7-1.6,0.8-2.5c0.2-1,0.2-2.1,0-3.2c-0.2-1-0.7-2-1.6-2.7c-1-0.7-2.4-0.8-3.6-0.8
		c-0.2,0-0.3,0-0.5,0.1c-0.2,0.1-0.4,0.3-0.6,0.4c-0.5,0.4-1,0.9-1.3,1.5c-0.3,0.6-0.4,1.2-0.4,1.8c-0.1,0.8-0.2,1.7,0.1,2.4
		c0.2,0.5,0.5,0.9,0.9,1.3c0.7,0.8,1.6,1.5,2.5,2.1C87.4,88.7,87.9,89,88.4,89z"/>
	<line fill="none" stroke="#353535" stroke-width="0.2" stroke-miterlimit="10" x1="67" y1="88.4" x2="148" y2="64.7"/>
	<line fill="none" stroke="#353535" stroke-width="0.2" stroke-miterlimit="10" x1="67" y1="89.1" x2="148" y2="65.4"/>
	<line fill="none" stroke="#353535" stroke-width="0.2" stroke-miterlimit="10" x1="67" y1="89.8" x2="148" y2="66.1"/>
	<line fill="none" stroke="#353535" stroke-width="0.2" stroke-miterlimit="10" x1="67" y1="90.4" x2="148" y2="66.8"/>
	<line fill="none" stroke="#353535" stroke-width="0.2" stroke-miterlimit="10" x1="67" y1="91.1" x2="148" y2="67.5"/>
</g>
<path fill="#745B3E" stroke="#443526" stroke-miterlimit="10" d="M129.1,89.4c10-8.2,3.8-19.1,3.8-19.1s-2.7-5.6-8.4,7.1l-0.8,5.9"
	/>
<path fill="#745B3E" stroke="#443526" stroke-miterlimit="10" d="M34.1,91.8c4.3,7.6,13.2,7.9,38,6.8c0,0,12.2,1.4,16.7-7.6
	s-1.9-6.6-5.6-5.1C79.5,87.3,71,91.5,71,91.5s-10.8-0.2-15.3-2.4"/>
</svg>
