<?xml version="1.0" encoding="utf-8"?>
<!-- Generator: Adobe Illustrator 18.1.1, SVG Export Plug-In . SVG Version: 6.00 Build 0)  -->
<!DOCTYPE svg PUBLIC "-//W3C//DTD SVG 1.1//EN" "http://www.w3.org/Graphics/SVG/1.1/DTD/svg11.dtd">
<svg version="1.1" id="Layer_1" xmlns="http://www.w3.org/2000/svg" xmlns:xlink="http://www.w3.org/1999/xlink" x="0px" y="0px"
	 viewBox="0 284.8 792 577.4" enable-background="new 0 284.8 792 577.4" xml:space="preserve">
<path fill="#D84802" d="M57.7,746.7h676.5c31.9,0,57.7,25.9,57.7,57.7v0c0,31.9-25.9,57.7-57.7,57.7H57.7
	C25.9,862.2,0,836.3,0,804.4v0C0,772.6,25.9,746.7,57.7,746.7z"/>
<path fill="#D84802" d="M57.7,515.7h676.5c31.9,0,57.7,25.9,57.7,57.7v0c0,31.9-25.9,57.7-57.7,57.7H57.7
	C25.9,631.2,0,605.4,0,573.5v0C0,541.6,25.9,515.7,57.7,515.7z"/>
<path fill="#D84802" d="M57.7,284.8h676.5c31.9,0,57.7,25.9,57.7,57.7v0c0,31.9-25.9,57.7-57.7,57.7H57.7
	C25.9,400.3,0,374.4,0,342.5v0C0,310.6,25.9,284.8,57.7,284.8z"/>
</svg>
