<?xml version="1.0" encoding="utf-8"?>
<!-- Generator: Adobe Illustrator 18.1.1, SVG Export Plug-In . SVG Version: 6.00 Build 0)  -->
<!DOCTYPE svg PUBLIC "-//W3C//DTD SVG 1.1//EN" "http://www.w3.org/Graphics/SVG/1.1/DTD/svg11.dtd">
<svg version="1.1" id="Layer_1" xmlns="http://www.w3.org/2000/svg" xmlns:xlink="http://www.w3.org/1999/xlink" x="0px" y="0px"
	 viewBox="0 284.8 792 577.4" enable-background="new 0 284.8 792 577.4" xml:space="preserve">
<symbol  id="New_Symbol" viewBox="-396 -288.7 792 577.4">
	<path fill="#D84802" d="M-338.3-173.2h676.5c31.9,0,57.7-25.9,57.7-57.7v0c0-31.9-25.9-57.7-57.7-57.7h-676.5
		c-31.9,0-57.7,25.9-57.7,57.7v0C-396-199.1-370.1-173.2-338.3-173.2z"/>
	<path fill="#D84802" d="M-338.3,57.7h676.5C370.1,57.7,396,31.9,396,0v0c0-31.9-25.9-57.7-57.7-57.7h-676.5
		C-370.1-57.7-396-31.9-396,0v0C-396,31.9-370.1,57.7-338.3,57.7z"/>
	<path fill="#D84802" d="M-338.3,288.7h676.5c31.9,0,57.7-25.9,57.7-57.7v0c0-31.9-25.9-57.7-57.7-57.7h-676.5
		c-31.9,0-57.7,25.9-57.7,57.7v0C-396,262.8-370.1,288.7-338.3,288.7z"/>
</symbol>
<use xlink:href="#New_Symbol"  width="792" height="577.4" x="-396" y="-288.7" transform="matrix(1 0 0 -1 396 573.479)" overflow="visible"/>
</svg>
