<?xml version="1.0" encoding="utf-8"?>
<!-- Generator: Adobe Illustrator 18.1.1, SVG Export Plug-In . SVG Version: 6.00 Build 0)  -->
<!DOCTYPE svg PUBLIC "-//W3C//DTD SVG 1.1//EN" "http://www.w3.org/Graphics/SVG/1.1/DTD/svg11.dtd">
<svg version="1.1" id="Layer_1" xmlns="http://www.w3.org/2000/svg" xmlns:xlink="http://www.w3.org/1999/xlink" x="0px" y="0px"
	 viewBox="0 0 791.9 577.3" enable-background="new 0 0 791.9 577.3" xml:space="preserve">
<path fill="#FFFFFF" d="M57.7,461.9h676.5c31.9,0,57.7,25.9,57.7,57.7l0,0c0,31.9-25.9,57.7-57.7,57.7H57.7
	C25.9,577.4,0,551.5,0,519.6l0,0C0,487.8,25.9,461.9,57.7,461.9z"/>
<path fill="#FFFFFF" d="M57.7,230.9h676.5c31.9,0,57.7,25.9,57.7,57.7l0,0c0,31.9-25.9,57.7-57.7,57.7H57.7
	C25.9,346.4,0,320.6,0,288.7l0,0C0,256.8,25.9,230.9,57.7,230.9z"/>
<path fill="#FFFFFF" d="M57.7,0h676.5c31.9,0,57.7,25.9,57.7,57.7l0,0c0,31.9-25.9,57.7-57.7,57.7H57.7C25.9,115.5,0,89.6,0,57.7
	l0,0C0,25.8,25.9,0,57.7,0z"/>
</svg>
