<?xml version="1.0" encoding="utf-8"?>
<!-- Generator: Adobe Illustrator 18.1.1, SVG Export Plug-In . SVG Version: 6.00 Build 0)  -->
<!DOCTYPE svg PUBLIC "-//W3C//DTD SVG 1.1//EN" "http://www.w3.org/Graphics/SVG/1.1/DTD/svg11.dtd">
<svg version="1.1" id="Layer_1" xmlns="http://www.w3.org/2000/svg" xmlns:xlink="http://www.w3.org/1999/xlink" x="0px" y="0px"
	 viewBox="0 0 800 800" enable-background="new 0 0 800 800" xml:space="preserve">
<g>
	<path fill="#0E4099" d="M801,125c0,20.3,0,40.7,0,61c-1.3,0.7-2.6,1.4-3.9,2.1c-31.6,17-63.2,34-94.8,51
		c-30,16.2-59.9,32.5-89.8,48.7c-3.2,0.8-5.8,2.6-8.2,4.8c3.4-0.5,6.7-1.5,9.5-3.6c4.6-1.7,9.3-3.4,13.8-5.1
		c21.2-8.2,42.3-16.5,63.5-24.7c23.5-9.1,47-18.2,70.5-27.2c13.1-5,26.2-10,39.3-14.9c0,7,0,14,0,21c-9.4,3-18.8,6-28.2,9
		c-15.9,5.1-31.7,10.1-47.6,15.2c-13.8,4.4-27.7,8.7-41.5,13.1c-4.4,1.3-8.8,2.6-13.3,4c-1,0.3-2.8,0.4-2.2,2c0.6,1.8,2,0.1,2.9,0
		c5.7-0.8,11.4-2.2,16.8-4.2c4-0.9,8.1-1.8,12.1-2.8c12.2-3,24.4-6.1,36.5-9.2c11.9-3,23.7-6,35.6-9c9.6-2.4,19.3-4.7,28.9-7
		c0,40.7,0,81.3,0,122c-2.6,0-5.2-0.1-7.9-0.1c-0.4-0.2-0.9-0.4-1.3-0.7c-0.9-0.8-2-1.1-3.2-1.1c-11,0-21.9-0.1-32.9-0.1
		c-5.6,0-11.2-0.1-16.8-0.1c-1-0.2-2.1-0.5-3.1-0.7c-0.9-0.8-2.1-1-3.2-1c-10.6,0-21.3-0.1-31.9-0.1c-7-0.1-14-0.1-20.9-0.2
		c0-0.7-0.3-1.4-1-1.4c-7.6-0.1-15.3-1.4-22.9,0.4c-2.3,0.1-4.6,0.2-6.9,0.3c-4.6-0.5-9.1-1.6-13.7-0.9c-2.9-0.1-5.7-0.2-8.6-0.3
		c-0.9-0.2-1.8-0.4-2.7-0.6c-8-2.1-16-2-24-0.5c-0.1,0.1-0.2,0.3-0.3,0.4c0,0.1,0,0.3,0.1,0.4c5.4,1.4,10.9,1.9,16.5,1.2
		c10.5,2.8,21.5,2.4,32.2,4c10.4,1.6,21,2.1,31.5,3.3c13.1,1.5,26.1,3.8,39.3,4.6c14.7,1,29.2,3.4,43.9,4.7
		c12.7,1.1,25.2,3.1,38,3.4c0,15.7,0,31.3,0,47c-9-2.2-18-4.2-27-6.5c-14.5-3.7-29-7.6-43.6-11.3c-15.8-4-31.7-7.8-47.5-11.6
		c-15.7-3.7-31.1-8.4-47-11.4c-4.6-2.6-9.9-2.9-13.1-3.3c2.7,2.6,7.9,4.6,13.3,6.1c11.1,4.7,22.1,9.4,33.2,14.1
		c23.4,9.8,46.7,19.7,70.1,29.5c20.5,8.6,41.1,17,61.6,25.5c0,27,0,54,0,81c-1-0.5-2-1.1-3-1.6c-34.6-16.5-69.3-32.9-103.9-49.4
		c-2-0.9-3.8-1.5-6.6-0.6c38.2,24.4,75.9,48.5,113.6,72.6c0,27,0,54,0,81c-4.8-0.2-7.9-3.8-11.7-5.9c-23.5-13.2-46.5-27.3-69.9-40.8
		c-16.6-9.6-33-19.5-49.5-29.2c-1-0.6-1.9-1.2-2.9-1.9c-0.2-0.2-0.5-0.3-0.8-0.3c-1.9-1.8-4.2-3-6.5-4c-2.7-2.1-5.6-3.8-8.8-4.9
		c2.5,2.3,4.6,5,7.9,6.2c2,1.5,4.1,3,6.1,4.6c15.3,11.4,30.7,22.9,46,34.3c22.7,16.9,45.3,33.8,68,50.5c7.2,5.3,13.9,11.4,22,15.5
		c0,14.7,0,29.3,0,44c-0.5-0.1-1.1,0-1.4-0.3c-15.9-13.9-31.8-27.8-47.8-41.6c-17.9-15.4-35.9-30.7-53.9-46.1
		c-5.4-4.7-10.8-9.4-16.2-14.1c-4.6-4-9.2-8.1-13.7-12.1c-3-3-5.8-6.3-10-7.9c0,0,0,0,0,0c2.7,3.3,5.5,6.3,8.9,8.8
		c4.4,4.5,8.6,9.1,13.8,12.8c5.9,5.8,11.7,11.8,18.2,17c0.4,0.5,0.7,1.1,1.1,1.5c26.7,25.6,53.4,51.2,80.2,76.6
		c6.8,6.5,13.2,13.4,20.7,19.2c0,16.7,0,33.3,0,50c-2.1-0.1-2.9-2-4-3.3c-21.5-24.4-42.8-49-64.3-73.4
		c-12.4-14.1-25.2-27.8-37.4-42.1c-19.8-23.3-40.3-46.1-60.4-69.2c-2.5-2.8-4.3-6.3-8.6-8.8c1.7,4.7,4.1,7.7,6.7,10.7
		c1,1.5,1.9,3,2.9,4.5c21.3,31.7,42.5,63.5,63.9,95.2c14.7,21.8,29.7,43.5,44.4,65.4c9.6,14.3,19.8,28.2,28.8,43
		c-17.7,0-35.3,0-53,0c-0.6-1.3-1.1-2.8-1.9-4c-12.9-21.6-25.9-43.1-38.6-64.8c-22.3-37.8-44.5-75.6-66.8-113.4
		c-1.8-3.3-3.4-6.7-5.5-8.8c-0.8,3.7,1.6,7.3,3.8,11c0.1,0.6,0.1,1.3,0.4,1.9c7.2,16.8,14.4,33.6,21.6,50.4
		c12.3,28.9,24.6,57.8,36.8,86.8c5.8,13.6,11.4,27.3,17.2,40.9c-20,0-40,0-60,0c-0.5-0.8-1.2-1.6-1.6-2.5
		c-12.8-33.5-25.6-67.1-38.4-100.6c-0.4-1-0.6-2.2-2.2-2.1c0,2.8,0.5,5.3,1.2,7.9c3.2,11.6,6,23.3,9.1,34.9c3,11.7,6.2,23.3,9.2,35
		c2.3,9.1,4.5,18.3,6.8,27.4c-65.3,0-130.7,0-196,0c0.4-13.3-2.2-26.5-3.2-39.7c-1.7-20.5-4.3-41-5.7-61.5c-0.1-1.3,0.2-3.2-1.4-3.3
		c-1.6-0.1-1.6,1.7-1.6,3c0,10.1-2.3,20-3.3,30.1c-2.3,23.9-5.8,47.6-8.7,71.4c-14.7,0-29.3,0-44,0c-0.3-11.9,2.3-23.6,3.2-35.4
		c1.1-14.8,3.1-29.5,4.8-44.3c1.1-9.7,2.4-19.3,3.4-29c0.7-6.4,1-12.8,1.4-19.3c1.1-2.6,1.3-5.4,1.2-8.2c0.8-4.1,1.6-8.3,0.5-12.6
		c-0.5,2.8-1,5.7-1.5,8.5c-1,4.1-1.9,8.3-2.9,12.4c-2.9,12.5-5.7,25.1-8.6,37.6c-4.4,18.9-9,37.8-13.5,56.7
		c-2.7,11.2-4.6,22.6-8.1,33.6c-24,0-48,0-72,0c-0.5-3.1,1-5.8,1.8-8.7c7.1-27.1,14.1-54.2,21.1-81.3c1.2-3.2,2.8-6.4,1.8-10.5
		c-3.3,2.2-2.9,5.7-4.3,8.2c-4.5,12.3-9.1,24.7-13.5,37c-6.6,18.4-13.2,36.8-19.9,55.2c-7.3,0-14.7,0-22,0c0.1-0.6,0-1.3,0.2-1.9
		c6.9-18.6,13.8-37.1,20.6-55.7c8.8-23.8,17.4-47.7,26.2-71.5c6.5-17.6,13.2-35.2,19.8-52.9c7.9-21.3,15.8-42.6,23.6-64
		c1.7-4.8,3.9-9.5,4.5-15.2c-0.9,0.7-1.4,1-1.6,1.4c-16.7,33.1-33.4,66.2-50,99.4c-15.8,31.4-31.5,62.9-47.2,94.3
		c-11,22-22,44.1-33,66.1c-27.3,0-54.7,0-82,0c-0.1-1.1,0.5-1.8,1-2.7c15-23.9,30.1-47.8,45.1-71.7c18.2-29.1,36.2-58.4,54.7-87.3
		c15.3-23.9,30.5-47.8,45.3-72.1c4.1-4.8,6.9-10.4,10.1-15.9c2.9-3,4.6-6.7,5.9-10.7c-2.3,3.4-4.6,6.8-7,10.2
		c-3.6,5.1-7.3,10.1-10.9,15.2c-4,5.4-8,10.8-11.9,16.2c-19.2,26.4-38.4,52.9-57.6,79.3c-13.1,18.1-26.4,36-39.4,54.2
		c-15.1,21-30.4,41.9-45.3,63C85.5,786.1,79.5,793,75,801c-17.7,0-35.3,0-53,0c0.5-1.2,0.8-2.6,1.6-3.5
		c12.3-14.8,24.6-29.5,36.9-44.3c14.3-17.2,28.5-34.5,42.7-51.8c13.9-16.8,27.7-33.7,41.5-50.5c10.6-12.9,21.4-25.6,31.9-38.5
		c20.9-25.6,41.7-51.3,62.7-76.8c11.6-14.2,23.7-28.1,35.3-42.3c3.7-4.5,8.4-8.3,10.6-14c5-3.6,8.3-8.5,11.5-13.7
		c-4.6,4.2-9.5,8.1-13.2,13.2c-15.8,16.3-31.5,32.6-47.3,48.9c-23.4,24.3-46.8,48.6-70.2,72.8c-30.5,31.7-61.1,63.4-91.6,95.1
		C58.1,712.3,42,729.2,25.8,746c-8.2,8.4-16.5,16.7-24.8,25c0-32.7,0-65.3,0-98c10.4-9.6,20.7-19.2,31.1-28.9
		c17.5-16.4,35-32.9,52.6-49.3c20.6-19.3,41.3-38.6,61.9-58c22.9-21.5,45.8-42.9,68.7-64.4c3.4-2.7,6.6-5.6,9.1-9.2
		c-3.5,2.2-7.9,3.4-9.2,8.1c-2-1.2-3,0.5-4.3,1.4c-8.1,5.9-16.1,11.8-24.2,17.8c-27.4,20.2-54.7,40.3-82.1,60.5
		c-24.1,17.8-48.2,35.8-72.4,53.5C21.9,612.2,11.4,619.5,1,627c0-8.3,0-16.7,0-25c15.1-10.5,30.3-20.8,45.4-31.4
		c14.7-10.3,29.1-21,43.8-31.3c17.2-12.2,34.6-24.2,51.9-36.3c4.6-3.7,10.5-5.5,13.8-10.8c4.5-0.5,7.1-4,10.3-6.5
		c-3.9,1.4-7.7,3-10.2,6.5c-5.6,2-10.4,5.1-15,8.9c-8.5,5.2-17,10.4-25.4,15.7C80.6,538.5,45.8,560.3,10.9,582
		c-3.1,1.9-5.7,5.1-9.9,5c0-19.3,0-38.7,0-58c2.5,0.6,4.1-1.3,5.8-2.4c18.4-11.7,36.7-23.7,55.1-35.3c25.7-16.3,51.5-32.4,77.2-48.6
		c3.5-2.2,7.1-4.5,10.6-6.7c-0.2-0.4-0.4-0.8-0.6-1.1c-4.5,1.7-8.9,3.5-13,6.2c-0.2,0-0.4,0-0.5,0c-40.3,19-80.6,38-121,56.9
		c-4.3,2-8.2,5.5-13.5,5c0-33,0-66,0-99c5.9-1,11.7-2,17.6-2.9c11.6-1.6,23.2-3.1,34.8-4.6c13.6-1.8,27-4.7,40.6-5.8
		c1.2,0.3,2.4,0.4,3.2-0.7c3.3-0.4,6.7-0.7,10-1.1c3.5,0.6,6.4-1.5,9.5-2.4c-4.4-0.7-8.8-0.7-13.1,0.4c-2.6,0.5-5.5-0.7-8,1.1
		c-2.6,0-5.2,0.1-7.9,0.1c-2,0-4-0.4-6-0.1c-11.7,1.9-23.6,2.7-35.4,3c-5.9,0.3-12.1-1.6-17.7,1.8c-4.6,0.7-9.4-0.9-13.8,1.3
		c-4.7,0-9.4-0.1-14-0.1c0-3.7,0-7.3,0-11c0.8,0,1.6,0,2.5,0c6.8,0.1,13.6,0.8,20.3-0.9c3.1-1.9,6.5-0.7,9.7-1.1
		c7.9,0.6,15.8,0.2,23.5-1.8c4.2,0,8.3-0.1,12.5-0.1c6.6,0.2,13.1,0.5,19.6-0.8c1.5-1.3,3.4-1.2,5.2-1.2c9.5,0.2,18.7-1.8,29.4-2.3
		c-8.4-2-15.7-1.4-22.8-1.9c-1.1-1.6-2.8-1.7-4.4-1.7c-4.6-0.1-9.3,0-13.9-0.1c-4.2,0-8.4-0.1-12.6-0.1c-5.5-1.2-11.1-1-16.7-0.9
		c-4.6-1.9-9.4-0.5-14.1-1.2c-1.2-1.3-2.7-1.7-4.4-1.8c-5.1,0-10.1,0-15.2-0.1c-6.2-0.1-12.4,0.4-18.5-1c0-10.3,0-20.7,0-31
		c3.5-0.2,6.9,0.7,10.3,0.9c18,1,35.9,2.9,53.9,3.8c17.7,1,35.2,3.4,53,3.3c8,2.2,16.1,2.3,24.3,0.9c-5.8-0.9-11.7-1.7-17.5-2.6
		c-13.9-1.9-27.8-3.9-41.7-6.3c-15.4-2.6-31-4.6-46.4-6.9c-11.9-1.8-23.9-3.5-35.8-5.3c0-31.3,0-62.7,0-94
		c6.1-0.8,11.7,1.8,17.5,2.9c13.8,2.7,27.4,6,41.1,9.1c10.6,2.4,21.3,4.8,31.9,7.2c8.8,1.9,17.7,3.8,26.5,5.7
		c3.5,0.9,7,1.8,10.4,2.7c0.9,0.2,2,0.9,2.5-0.4c0.4-1.1-0.5-1.9-1.4-2.3c-2.8-1-5.6-1.8-8.4-2.6c-3.5-1.1-6.9-2.2-10.4-3.2
		c-13.8-4.4-27.6-8.7-41.4-13.1c-13.6-4.3-27.2-8.8-40.9-12.9c-9.1-2.8-18-6.5-27.4-8c0-14.3,0-28.7,0-43c1.4-0.6,2.7-0.1,3.9,0.4
		c15.9,6.9,31.7,13.8,47.6,20.6c25.5,11,51.1,22,76.7,33c3.4,2.2,6.9,3.9,10.3,3.8c-1-3.3-5.4-3.5-8.4-5.7
		c-8.7-5.3-17.4-10.7-26.1-16c-27.2-16.4-54.3-32.8-81.5-49.1C16,153.6,9.1,148.4,1,145c0-25.3,0-50.7,0-76c2.1-0.6,3,1.2,4.2,2.1
		c7.8,5.8,15.6,11.8,23.4,17.7c17.5,13.2,35,26.4,52.6,39.6c14.5,10.9,29.1,21.7,43.6,32.6c3.7,3.5,7.6,6.9,12.6,8.6
		c-2.2-4.8-6.7-7.4-10.4-10.6c-16.4-14.7-32.8-29.5-49.3-44.2C58.8,97.9,40,80.8,21,64.1C14.4,58.3,8.4,51.9,1,47C1,33,1,19,1,5
		c1.4-1.1,2.1,0.3,2.8,1c5.5,5.6,11,11.2,16.5,16.8C54.9,58,89.5,93.1,124.1,128.3c25,25.4,49.9,50.8,74.8,76.2c1,1,2.1,3.6,3.8,2.1
		c1.4-1.3-0.6-2.9-1.6-4.1c-10.7-13.2-21.4-26.5-32.1-39.8c-18.6-22.9-37.2-45.7-55.7-68.6c-19.6-24.3-39.1-48.6-58.5-73
		C49.4,14.4,43.6,8.2,39,1c28,0,56,0,84,0c-0.2,1.1,0.2,1.9,0.7,2.8c10.8,19,21.6,38,32.4,57c16.4,28.9,32.7,57.8,49.1,86.7
		c13.6,23.9,27.2,47.7,40.8,71.5c1.1,2.7,2.2,5.4,4.5,7.4c-0.8-3.2-1.6-6.3-3.4-9c-5-12-10-24-15.1-35.9
		c-11.6-26.9-23.3-53.7-34.8-80.6C186.1,75.1,175,49.2,164,23.3c-3.1-7.4-7-14.5-9-22.3c8.3,0,16.7,0,25,0
		c3.7,11.5,8.6,22.4,12.9,33.6c8.4,21.5,16.9,43,25.3,64.5c8.5,21.7,16.9,43.3,25.4,65c1.5,2,0.7,5.1,4.1,7.8c-1.1-4.1-1.9-7-2.7-10
		c0.3-2.8-1.3-5.1-1.9-7.7c-3.5-14.4-7-28.9-10.7-43.3c-4.4-17.3-9-34.5-13.5-51.8c-3.2-12.3-6.7-24.5-9.4-36.9
		C208,15.2,204.9,8.4,205,1c13.7,0,27.3,0,41,0c0,1.1,0.1,2.2,0.5,3.4c3.5,10.1,7.1,20.1,10.2,30.4c6.4,20.9,13.4,41.6,20.3,62.3
		c0.8,2.8,1.5,5.5,2.3,8.3c1.5,2.9,1.3,6.5,4.3,10.2c-1.1-4.9-1.8-8.6-2.6-12.3c0.3-2.2-0.8-4.1-1.2-6.2c-0.5-3.2-0.9-6.5-1.5-9.7
		c-2.4-12.9-4.9-25.9-7.4-38.8c-1.7-8.7-3.5-17.5-5.1-26.2c-1.3-7.1-2.6-14.2-3.8-21.3c17,0,34,0,51,0c-0.8,4.6,1.4,8.8,2.1,13.2
		c1.9,11.4,4.2,22.7,6.5,34.1c2.4,12.5,5,24.9,7.5,37.4c2.3,11.6,4.7,23.2,7,34.9c1.8,9.2,3.4,18.5,5.1,27.7c1,4.6,2,9.2,3.2,14.8
		c1.4-5.5-1.3-9.7-0.2-14c1-6,2.2-12.1-1.1-17.8c-0.7-16.7-1.5-33.4-2.2-50.1c0-7.8,1.1-15.7-1.2-23.4c-0.3-1.2-0.5-2.4-0.8-3.7
		c-0.1-3.1,0-6.3-0.2-9.4C338,30.2,336.5,15.6,337,1c44.7,0,89.3,0,134,0c0,2,0.2,4-0.1,6c-3,18-4.9,36.2-7.4,54.3
		c-2.9,20.6-5.4,41.2-8.1,61.9c-0.5,3.5-2.1,7-1.2,10.7c-1.3,3-1.3,5.9,0.1,9c0.8-2.8,1.7-5.6,2.5-8.4c2-6.8,4-13.5,6.1-20.3
		c5.9-19,12-38,17.9-57C486.6,38.5,492.3,19.7,498,1c7.7,0,15.3,0,23,0c-0.1,0.8-0.2,1.7-0.4,2.5c-5.1,16.5-10.4,33-15.4,49.5
		c-5.7,18.6-11,37.2-16.7,55.8c-5,16.5-10.3,33-15.4,49.5c-5.7,18.5-11.3,37.1-17,55.7c-0.8,4.6-4.1,8.8-2.7,15.1
		c2.4-5,4.4-8.8,5.5-13c0.7-1.5,1.4-3,2.1-4.5c6.3-14.7,12.5-29.4,18.8-44c10.4-24,20.8-48,31.1-72c10.4-24.2,20.9-48.3,31.2-72.6
		C545.2,15.6,549,8.7,551,1c12.7,0,25.3,0,38,0c0.3,1.6-0.5,2.8-1.2,4.1c-7,13.2-13.9,26.5-20.9,39.7
		c-19.6,37.3-39.2,74.5-58.8,111.7c-15,28.5-30.1,57-45.1,85.5c-4.6,7.8-9.5,15.5-11.2,22.4c5.1-4.1,8-12.3,12.7-19.3
		c4.2-7.1,8.5-14.1,12.8-21.2c20-32.8,40.1-65.6,60.1-98.4C563,84,588.5,42.5,614,1c48.3,0,96.7,0,145,0c1.4,1.8-0.4,2.7-1.3,3.6
		c-5.4,6-10.9,11.8-16.3,17.7c-28,30.3-56,60.5-84,90.9c-23.2,25.1-46.2,50.4-69.4,75.5c-9.6,10.5-19.3,20.9-29,31.4
		c-3.6,3.5-7.5,6.8-10.2,11.1c-4.7,5-9.5,10.1-14.2,15.1c0.2,0.2,0.4,0.4,0.6,0.6c4.7-4.6,9.4-9.1,14-13.7
		c4.8-3.5,8.6-7.9,12.6-12.2c0.3-0.1,0.6-0.2,0.8-0.5c32.1-31.7,64.2-63.4,96.4-95c34.3-33.7,68.7-67.4,103-101.1
		c7.8-7.7,15.3-15.5,23-23.3c4.2,0,8.4,0.2,12.5-0.1c3-0.2,3.6,0.6,3.6,3.6c-0.1,32.2-0.1,64.3-0.1,96.5c-7.2,4.2-13.3,10-19.8,15.2
		c-24.4,19.5-48.5,39.3-72.8,59c-27.8,22.6-55.6,45.2-83.4,67.8c-5.6,4.1-11.1,8.2-16.1,12.9c-2.8,2.1-5.5,4.2-8.3,6.3
		c0.3,0.3,0.5,0.7,0.8,1c2.8-2.1,5.6-4.2,8.4-6.3c5.8-3.9,11.8-7.5,17.2-12.1c10.3-7.2,20.5-14.5,30.9-21.6
		c30.6-20.7,60.5-42.3,91-63.1c16.3-11.1,32.4-22.6,48.6-33.9C798.5,125.6,799.5,124.5,801,125z M432.2,663.1
		c2.8,0.7,2.9-2.5,4.6-3.2c0.7,0.4,1.4,0.8,2,1.2c1.1,1.9,2.4,4.1,4.9,2.2c2.5-1.9-2.9-1.9-1.2-4.1c0.8-0.1,1.8-0.1,2.7-0.2
		c1.8-0.2,4.3,0.9,4.4-2.3c0.1-2.9-1.9-4.1-4.2-4.4c-2.5-0.3-4.9,0.2-6.2,2.8c-0.8,0.4-1.5,0.7-2.3,1.1c-2.4,0.5-1.6-3.4-4-2.9
		c-2.7-2.3-5.6-1.2-7.5,0.7c-2.8,2.6-1.5,6-0.3,9.1c1.5,2.4,3.3,3.8,5.9,1.2C431.4,663.8,431.8,663.5,432.2,663.1z M457.3,618
		c-0.2,0.3-0.4,0.6-0.6,0.9c-1.4,3.3-0.5,6.7-0.6,10.1c1.5,3,2.7,0.9,4-0.2c1.6-3.1,1.1-6.5,0.6-9.7
		C460.2,616.7,459.1,616.5,457.3,618z M384,251.5c2-5.9,0.9-11.9,0.9-17.9c0-1.5,0-2.9,0-4.7c-0.9,0.3-1.4,0.4-1.7,0.7
		c-4,3.3-9.1,3.3-13.1,1.8c-3-1.1-0.7-5.9-1.2-9.1c0-0.3,0-0.7,0-1c-0.3-3.6,1.7-4.6,4.9-4.5c5.6,0.2,10.4,2.7,15.1,5.4
		c2.6,1.5,4.2,2,4.1-2.1c-0.1-4.3-0.1-8.6,0.9-12.8c0.9-3.8-0.7-5.7-5.1-5.5c-8.5,0.3-16.9,0.2-25.4,0.1c-2.2,0-4.4-0.3-6.6-0.4
		c0.1,2.4,0.1,4.9,0.2,7.3c0,13.4,0,26.8,0,40.2c0.7,5.8-0.9,11.4-1.2,17.2c-0.6,8.8-1.1,8.8,7.9,8.7c7.8,0,15.6,0.1,23.4,0.1
		c0.7-0.1,1.4-0.1,2.1-0.2c5.9-4.9,5.1-12.7,7.9-19c0.2-0.4-0.3-1.4-0.7-1.6c-1-0.5-1.3,0.5-1.8,1.1c-1.9,2.8-4.7,4.5-7.6,6.1
		c-5.3,3.1-11.1,3.8-16.5,1.4c-4.9-2.2-1.6-7.4-2.5-11.2c-0.1-0.5-0.1-1,0-1.5c0.3-5.2,3.1-6.8,7.4-4c2.3,1.5,4.6,3.2,6.8,4.8
		C382.8,251.5,383.3,251.8,384,251.5z M271.9,306.3c2-5.5,1.9-11.1,0-16.6c-0.3-0.2-0.5-0.5-0.8-0.7c-1.5-9.7-7.1-16.8-15.2-17.8
		c-9.2-1.1-18.5-0.7-27.8,0.7c-12.5,1.8-24.8,4.4-37,7.1c-7.2,1.6-14.4,3.4-21.7,5.1c-3.5,0.8-3.2,2.4-1.3,4.7c4,4.8,7.8,9.7,11,15
		c0,6-0.1,12-0.1,17.9c0,30.9,0.1,61.8,0.1,92.7c0.5,6.8-2.7,12.8-4.2,19.2c-2.9,5.1-2.8,5.3,2.9,5.3c4.3,0.1,8.5,0.1,12.4-2
		c3.3,0,6.6-0.8,9.8-1c15.1-0.6,29.8-3,44.4-7c10.8-3,20.8-7.5,25.9-18.3c6.8-14.2,8.7-29.4,6.1-44.6c-2.5-15.3-9.6-24.2-27.2-25.3
		c-3.5-3.4-8.2-1.1-12.1-2.8c5.8-1.9,11.2-4.4,16.5-7.5c8.9-5.2,15.9-11.9,17.4-22.8C271.3,307.3,271.6,306.8,271.9,306.3z
		 M499.5,300c-0.1,0.4-0.2,0.7-0.3,1.1c-0.5,5,2.6,9.5,1.9,14.5c0,13.5,0,27.1,0,40.6c-0.1,3.2-0.1,6.4-0.2,9.6
		c-0.3,1.2-0.6,2.4-0.9,3.6c-1.3,6.5-1.6,13.1-0.1,19.6c-0.7,17.8-2.7,35.3-13.5,51.6c12.6-3.8,23.6-7.1,34.9-9.5
		c1.2-0.2,3.9,0.2,2.2-2.3c-2.1-3-2-6.5-3-9.8c-4.6-15.2-5-30.9-6.4-46.4c-0.4-4.3,1.5-6.2,5.8-5.7c6.6,0,13.1,0,19.7,0
		c3.2,1.8,3.4,5,3.6,8.1c0.8,16.4,1.1,32.7-8.3,47.9c6,0,11.1,0,16.3,0c0.8,0.2,1.6,0.3,2.4,0.7c3.1,1.5,7,2.6,9.4,0.6
		c2.7-2.2,0.7-6.1,0.2-9.3c0-2.6-0.1-5.2-0.1-7.8c0-5.1,0.1-10.2,0-15.3c-0.1-2.4,0.5-5-1.8-6.9c0-6.8-0.4-13.7,0.1-20.4
		c1-13.2,2.4-26.3,3.7-39.5c0.7-7.2,0.8-14.5,3.9-21.3c1.1-2.3,0-2.9-2.2-2.9c-7,0.1-14,0.2-21,0.3c-1.6,0-2.5,0.4-2,2.4
		c2.7,11,1,22.2,1.3,33.3c0.3,10.6-4.3,14.6-14.8,14.1c-5.7-0.2-7-1.6-7.3-7.2c-0.4-9.1,1.2-18.2,1.3-27.3
		c0.1-4.9,1.4-10.1,4.4-14.5c0.5-0.8,2-1.5,1-2.9c-1-1.3-2.4-1.5-3.6-1c-2.6,1-5.2,1-7.8,0.9C511.9,299.1,505.7,298.2,499.5,300z
		 M404,351.6c-0.3-0.9-0.6-1.8-0.9-2.7c-0.1-8.9-0.2-17.9,0.8-26.8c1-8.8,2.2-17.3,6.3-25.2c4.1-7.8,4-7.7-4.9-7.7
		c-11.1,0.1-22.3,0.9-33.3-1.9c-2.6-0.6-5-1.2-4.2,3.6c1.4,8.4-1.3,16.4-3.7,24.3c-4.2,14.1-8.7,28-13.1,42.1
		c-4.2,13.5-5.3,28.3-16.4,39c3.3,1.8,4.9-1.8,7.4-1.3c0.3,1,0.6,1.9,1,2.9c-6.7,9.5-17,10.2-26.9,9.7c-6.2-0.3-12.2-4.8-10.9-13.7
		c0.9-6.4,2.6-12.7,6.3-18.1c2.3-3.4,5.4-5.2,9.9-5.2c5,0,9.1,2,13.4,4.2c0-9.5,0-18.5,0-28.4c-6,5.4-12.1,9.2-19.4,10.4
		c-8.1,1.4-8.7,0.6-8.5-7.4c0.1-2,0.1-4,0.3-6c2.1-16.2,2.1-16.6,18-17.2c9.6-0.3,18.1,3.3,22.8,12.7c0.3,0.8,0.9,1.4,1.8,1.6
		c2.1-6.9,1.7-13.7,0.1-20.6c-0.3-1-0.6-2-0.9-3c0-2-0.1-4-0.1-6c0-1.9-0.7-2.7-2.7-2.5c-4,0.4-8,0.6-11.9,1.1
		c-16.3,2.2-32.6,5.3-49.1,6.3c-3.4,0.2-4,1.4-2.8,4.3c3.2,7.4,3.5,15.2,3.1,23c-1.1,20.4,0,40.8-1.5,61.2
		c-0.6,7.6-0.8,15.1-3.1,22.4c-2,6.4-1.3,6.8,5.9,6c13-1.5,26-2.6,39-3.8c7-0.3,14.2,1.1,21.1-1c0-0.3,0-0.6-0.2-0.9
		c0-1.3,0.1-2.6,0.1-3.9c0.1-7.1,0.8-14.2-1-21.2c-0.2-2.3-0.3-4.5-0.5-6.8c4.3-0.1,8.6-0.2,12.8-0.3c1.8-0.5,5.4,1.6,4.4-2.9
		c-1.6-7.4,0.7-14.3,2.1-21.4c0.5-2.6,2.2-3.5,4.6-3.5c5.8-0.1,11.6-0.1,17.4-0.2c0.1,7.5,0.1,15,0.2,22.5c0.9,6.1-3.2,10-6.3,14.3
		c-0.9,0.5-1.6,1.1-1.8,2.2c8.4,1.8,17,0.6,25.4,0.8c3,0.4,4.4,0.2,3.6-3.8c-2-10.5-2.7-21.1-3.1-31.8
		C405,364.7,405.8,358.1,404,351.6z M401.3,619c0,3.3-0.1,6.6-0.1,9.9c0,0.8-0.1,1.7,1,1.9c1.2,0.3,1.7-0.6,2.2-1.5
		c1.5-3.8,0.7-7.8,0.5-11.7c-0.1-1.3,0-3.3-1.4-3.3c-2,0-2.2,1.9-2,3.7C401.3,618.4,401.3,618.7,401.3,619z M555.7,663.2
		c1.2,1.2,2.4,2.3,3.2-0.4c0-5.8,0-11.7-0.1-17.5c-2.4-0.8-3.7,0.5-3.7,2.6C555,653,554.1,658.2,555.7,663.2z M349.5,446
		c-1.2,2-1,2.5,1,2.7c3.7,2.5,4.9,7,8.3,9.8c2.1,1.8,2.7,4.3,2.6,7.2c-0.3,8.5-0.3,17-0.4,25.5c-0.6,5.5-1.2,11.1-1.7,16.6
		c0,1.7,0.1,3.3-0.1,5c-1,14-2.2,27.9-3,41.9c-0.2,3.7-0.7,7.1-2.9,10.2c-1.9,2.7-4,5.3-5.4,8.2c-1,2.2-4.7,3.8-3.4,6
		c1.2,2.1,4.3-0.7,6.6,0c15.2,0,30.3,0,45.5-0.1c1.3,0,2.7-0.1,3.8-1c1-0.3,1.9-0.6,2.9-0.8c2-0.1,4,0.1,6-0.2
		c8.5-1.4,17.6-2.1,23.5-8.9c11.1-12.9,12.5-28.3,9.2-44.4c1.1-0.5,2.1-0.2,3,0.6c0.1,1.5,0.1,2.9,0.2,4.4
		c-1.1,3.2-1.1,6.5-0.7,10.7c0.7-3.3,1.2-5.8,1.7-8.2c1.9,6.6,5.8,11.9,11.3,16c9.3,6.9,19.3,11.2,31.2,8
		c9.9-2.7,15.3-10.4,20.3-18.4c10.6-16.9,6.4-49.5-4.5-63.3c-12.1-15.3-35.2-15-47.2,0.4c-7,8.9-10,19.5-12.1,30.4
		c-0.3,0.5-0.5,0.9-0.8,1.4c-1.2,1.5-0.9,3.4-1.1,5.1c-0.3,3,0.6,6.2-1.1,9c-0.3-0.1-0.5-0.3-0.7-0.4c-2.3-10-9.7-15.1-18.5-18.9
		c0.9-1.9,2.4-2.5,3.7-2.9c15.8-5.9,24.6-18,23.7-35.8c-0.4-8.8-6.5-16.5-15-18.7c-13-3.4-26.1-1.3-39.1-0.7c-9.6,0.4-19,3-28.7,2.8
		C361.3,445,355.3,444.1,349.5,446z M526.3,717c4.8-1,1.1,4.9,4.2,5.4c1.1-7.1,0.6-7.6-5.8-6.8c-3.4,4.1-3.4,4.1,1,6.5
		C525.9,720.2,526.1,718.6,526.3,717z M552.2,663.2c1-6.1,2-12.1-0.6-18.1c-1.2,0.3-2.4,0.4-2.6,2c0,5.2,0,10.5,0,15.7
		C549.9,664.7,551.1,663.9,552.2,663.2z M544.9,653.2c-0.3-0.3-0.7-0.9-1-0.9c-4.3,0.2-2.8,3.5-2.9,5.8c-0.1,2.4-0.7,5.5,3.3,5.5
		c0.2,0,0.4-0.5,0.5-0.7C544.9,659.7,544.9,656.4,544.9,653.2z M559,520.8c0,5.4,0,10.9,0,16.3c0.9,6-2.4,11.8-1.8,18.1
		c8.1-4,14.3-5.3,19.7-3.6c11,3.5,22.2,3.8,33.5,3.1c3.9-0.2,7.7-1.4,11.3-3.2c8.6-4.3,13.1-11.9,14.6-20.6
		c2.1-11.5-1.3-24.3-14.4-29.3c-6.3-2.4-13.1-3.3-19.9-3.7c-9.1-0.5-13.5-3-13-14.4c0.4-8.7,5.7-11.6,13.7-11
		c9.1,0.6,16.7,3.6,21.4,11.9c0.3,0.5,0.7,1.6,2.5,0.8c-0.3-9.4,1-18.9,2.4-28.4c0.2-1.3-0.4-1.8-1.6-1.9c-8.1,0-16.1-0.1-24.2,0
		c-1.7,0-3.7-0.5-5.1,1.2c-0.3,0.3-0.6,0.5-0.9,0.8c-0.7,0.1-1.4,0-2,0.3c-18.3,6.5-27,21.4-25.3,39.2c0.9,10.1,7.2,16.5,15.7,17.4
		c4.9,2.1,10,1,15.1,0.9c8.7,0.6,11.9,4.8,11.4,14.5c-0.5,8.9-3.2,12.3-12.6,11.7c-14.8-1-26.6-8.4-37.1-18.3
		c-0.7-1-1.2-2.3-2.1-3.1C559,518.4,559.2,520,559,520.8z M460.1,663.1c2.3-3.6,0.5-5.2-2.9-6.1c-2.1-3.2,0.9-1.7,1.7-1.8
		c0.9-0.1,1.7,0,1.9-1c0.1-0.4-0.3-1-0.6-1.2c-2.4-1.5-5.1-1.6-6.8,0.5c-1.4,1.7-1.5,4.3,1.5,5.4c0.3,0.1,0.7,0.2,1,0.3
		c1.1,1.1,0.7,2.1-0.5,2.7c-1,0.6-3,0.4-2.1,2.3c0.7,1.6,2.6,1.1,3.9,0.7C458.3,664.5,459.2,663.7,460.1,663.1z M580.8,662.9
		c0-3.3,0-6.5,0-9.8c-1.5-1.9-3.3-0.6-3.4,0.5c-0.5,3.1-1,6.3,0.2,9.3C578.1,664,579.7,664.5,580.8,662.9z M504,759.2
		c-1.4-1-2.7-1-2.8,0.9c-0.2,2.8-0.1,5.7-0.1,9c2.5-1.3,1.6-2.9,2-4c2.8,0.8,5,0.6,4.9-3.2C508,758.9,506.7,758,504,759.2z
		 M478,718.9c5.1-4.6,4.8,1.2,6.5,4.5c0.3-2.6,0.5-4,0.7-5.5c0.8,0.2,1.9,0.4,1.8,1.4c-0.3,3.2,1.6,3.6,4,3.3
		c2.2-0.3,3.7,1.3,5.4,2.1c2.7-1.1,5.5-2,7.4-4.4c0.7,1,1.1,2.3,2.5,2.7c1.8-1.4,0-5.4,3.2-5.3c2.4,0.1,0,3.7,2.4,4.9
		c1.7,1.5-0.4-6.5,3-1.6c1,1.8,2.6,2.7,4.5,1.6c2.2-1.2,1.7-3.5,1.3-5.3c-0.5-2.2-2.3-2.5-4.3-1.7c-0.9,0.9-1.9,1.7-2.9,2.7
		c-1.7-3.3-6.7-3.1-7.7-7.2c-2,1.9-0.8,4.8-2.1,7c-1.4-3.7-4.3-3-7.2-2.5c-3.9,0.1-8.1-1.8-11.5,1.6c-1.4-3.5-4.5-1.1-6.7-1.9
		c-1.7,1-2.7,2.4-2.5,4.5c0.1,0.8,0.3,1.9,1.3,1.5C477.8,720.9,477.8,719.7,478,718.9z M305.9,220.1c1.5-2.6,1-5.5,1-8.3
		c0-3.6,1.5-5.1,5.1-5c3.8,0.2,7.6,0.1,11.5,0.1c0.7,0.2,1.5,0.4,2.2,0.6c2,2.3,2,0,2.1-1c0.2-3.1,0.1-6.2,0.1-9.3
		c2.1-3.8,1.2-5.2-3.2-4.4c-5.7,1.1-11.3,2.8-17.2,2.1c-6.2,0.3-12.6-1.4-18.5,1.8c-0.5,0-1,0.1-1.5,0.1c-3.8,0.1-8.6-1.1-11.2,0.8
		c-3.1,2.3-0.8,7.4-0.9,11.3c-0.2,3.9-1.1,8,0.4,13c2.8-5.8,6.4-8.7,11.9-9.7c4.2-0.7,5.5,0.3,5.4,4.4c-0.2,8.6-0.3,17.2-1.1,25.8
		c-1.1,11-1.7,22.1-6.4,32.3c-1.1,2.5,0.4,2,1.7,1.9c4.6,0.1,9.1,0.3,13.7,0.3c3.3,0,3.7-0.7,2.5-3.2c-1.9-7.6-0.5-15.3-0.4-23
		c1.7-1,1.7-2.7,1.8-4.4c0-5.3,0-10.6,0-15.9c0-3.1,0.1-6.3,0.1-9.4C305.4,220.8,305.7,220.5,305.9,220.1z M411.2,631
		c2.3,0.1,4.4-0.5,6.1-2.1c3.5-4.3,2.5-10.2-2.1-10.6c-4.1-0.4-4.4-2.2-4.3-5.2c0.1-0.5,0.1-1,0.2-1.5c-3.5-1.4-4,1-4.1,3.5
		c-0.1,3.9,0,7.9,0,11.8C406.9,629.8,408.3,631.2,411.2,631z M420.1,655.1c0.6-0.3,1.1-0.7,0.8-1.4c-0.4-1-1.2-0.7-1.9-0.4
		c-3.1-1.2-4.6-0.5-4.1,3.1c0.2,1.6-0.1,3.3,0,4.9c0.1,1-0.5,2.7,1.3,2.5c1.2-0.1,1.9-1.2,1.8-2.5
		C417.8,658.9,418.2,656.7,420.1,655.1z M313.1,221c0,7.7,0,15.3,0,23c0,1.7,0.1,3.4,0.1,5c-0.3,5.5-0.4,10.9-1.6,16.4
		c-1.5,6.8-1.1,7.1,5.8,6.6c1-0.1,2-0.1,3,0c3.4,0.3,4.7-1,4.6-4.6c-0.2-8,0.1-16,0-24c0-3.9,2.1-5.4,5.5-5.4c3.4,0,6.4,1.1,6.6,5.2
		c0.5,9,0.3,17.9-3.8,26.3c-0.5,1.1-2,2.2-1.1,3.6c1.2,1.9,2.6-0.2,4-0.1c1.5,0.2,3-0.2,4.5-0.1c7.9,0.3,8.1-1.5,7.3-8.7
		c-2-17.6-1.2-35,0.9-52.5c0.4-3.1,0.5-5-3.6-3.4c-2.1,0.8-4.6,0.6-6.9,0.6c-2.6-0.1-3.5,0.9-3.3,3.5c0.2,4.3,0.2,8.7,0,13
		c-0.2,3.6-4.4,7.7-7.5,7.3c-4.6-0.6-3-4.3-3.3-7c-0.4-4.8,0.5-9.5,1.4-15.2c-3.5,2.4-6.6,2.7-9.6,3.3c-1.7,0.3-2.8,0.9-2.7,2.8
		C313.1,218.2,313.1,219.6,313.1,221z M593,663.9c2,1.6,3.6,0.3,3.6-1.3c0-2.6,2.5-5.9-1.4-7.9c-0.4-2.5-2.3-2.2-4-2.2
		c-1.7,0.1-3.5,0.3-5.2,0.5c-1.6,0.5-1.2,1.9-1,2.9c0.4,2.6-1.2,7.5,1,7.4c4-0.2,1.4-4.8,2-7.4c3.6-2.1,5.1-0.9,4.9,3.1
		C592.8,660.7,593,662.3,593,663.9z M497,625.6c-0.1,0.8-0.4,1.7-1.3,1.9c-1,0.2-2.9-1.2-2.6,1.3c0.2,1.6,1.7,1.8,3,2
		c1.5,0.2,3.3,0.2,3.8-1.4c0.6-1.8,2.4-3.9-0.5-5.5c-0.6-1.2-2.6-0.6-2.8-2.1c0.6-2.1,4,0.9,3.4-2c-0.4-2-2.8-1.5-4.6-1.1
		c-1.4,0.3-2.3,0.6-2.5,2.3C492.6,624.2,494.8,624.8,497,625.6z M566.9,664c1.3,1.9,2.7,2.1,4.1,0.1c2.6-1.4,4.7-7.8,2.7-10.5
		c-2.3-3.1-5.7-2.1-8.7-0.5c-3.3,1.2-2.7,4-2.6,6.5C562.6,662.4,564.1,664,566.9,664z M346.8,627.1c0.1,0.6,0.3,1.2,0.4,1.8
		c2.1,3.8,5,4.2,8.6,2.1c1.7-1,3.4-1.9,5.4-2.1c1.2,0.5,2.4,1.1,3.6,1.6c3.7,1.2,7.8-0.3,7.9-3.1c0.2-4.5,0.1-8.9,0-13.4
		c0-1.2-0.1-2.5-1.8-2.4c-1.5,0-2,1.1-1.9,2.3c0.2,3-1.2,4.3-4,4.2c-1-0.4-1.6,0-2,0.9l-0.2,0.1c-2,0.1-4,0.2-6,0.2
		c-3.6-1-7.3-2.6-9.9,1.7c-1.4,0-2.7,3.9-4.1,0.1c-2.6-4.3-6.2-2.8-9.7-1.8c-1.7,0.3-3.5,0.6-5.2,0.8c-1,0-2-0.1-3-0.1
		c-1.5-0.1-3.4-0.1-3.7,1.7c-0.3,1.8,1.6,1.1,2.6,1.4c1.1,0.3,1.2,1,1.2,1.8c0,0.8-0.1,1.5-1,2c-3.2,1.5-7.6-0.9-7.9-4.3
		c-0.6-6.5,0.7-7.8,7.3-8c1.2,0,3.3,0.8,3.5-1.3c0.2-1.6-1.5-1.9-2.8-2.2c-6.3-1.3-12,2.9-12.2,9.1c-0.2,7.2,4,10.7,12.8,10.7
		c3.8,0.4,7.8-0.8,11.6,0.8c1.5,0.6,2.8-0.2,3.6-1.7C342.7,630.1,343,624.4,346.8,627.1z M393.2,647c0.7,4.9-1.4,6.8-6.2,5.9
		c-0.6-0.1-1.3-0.1-2-0.1c0-1.5,0-3-0.1-4.5c-0.1-1.3,0.2-2.9-1.7-3c-1.8-0.1-2.1,1.3-2.1,2.7c0,4.3,0,8.6,0,12.9
		c0,1.5,0.3,2.7,2.1,2.6c2-0.1,1.8-1.6,1.8-2.9c0-1.6-0.2-3.3,1.1-4.6c6.7-0.2,6.7-0.2,7.2,6.7c1.6,1.7,3.3,1.2,3.4-0.9
		c0.3-4.9,0.3-9.8,0-14.7C396.6,644.8,395.5,644.8,393.2,647z M472.9,629c3.7-3.1,2.8-6.3,0.1-9.5c-3.9-2.2-7.7-1.9-9.6,2.2
		c-1.1,2.4-2.1,6.4,2.5,7.7C468.4,632.6,470.7,632.1,472.9,629z M602.6,659c0.4,0.9,1,1.8-0.6,2.1c-1,0.2-2.7-0.6-2.6,1.2
		c0.1,1.4,1.6,2,2.9,2.3c1.9,0.4,3.6,0,4.8-1.7c2.7-4.5-2.1-5.2-3.9-7.2c1.2-1.7,3.2,0.4,4-1.3c0.3-0.7-0.2-1.2-0.7-1.7
		c-1.5-1.3-3-0.9-4.5-0.2c-1.3,0.6-2.9,1-2.7,3C599.3,657.6,600.5,658.8,602.6,659z M445.9,619.3c-0.9,0.3-1.8,0.6-2.7,0.8
		c-2-3.5-4.8-2.4-7.5-1.4c-3.8,1.4-4.8,4.4-4.5,8.1c2.3,5.5,4.9,6.6,7.8,3.3c1.3-0.1,2.7-0.2,4-0.3c2.3,0.1,1.6-1.7,1.7-2.8
		c0.2-2.1-0.1-4.3,1.1-6.3c3.1,1.6,1.8,4.6,2.1,7.1c0.2,1.4,0.9,2.8,2.4,2.5c1.8-0.2,0.8-1.7,0.7-2.8c-0.1-2.8-1.5-6.3,2.9-7.1
		c-0.2-2.1-2.9-1.4-3.1-3.6c-0.4-3.6-2.1-2.1-3.2-0.3C447.1,617.5,447,618.7,445.9,619.3z M481.8,663.9c4.7-2.5,2.6-7,1.7-9.8
		c-1.1-3.3-5-2.6-8-1.4c-3.9,1.3-4.1,4.5-3.3,7.6c0.7,3,3.2,3.9,6.2,3.6C479.5,663.9,480.7,663.9,481.8,663.9z M530,654.1
		c-1-2.6-2-5.1-3-7.7c-0.6-1.4-1.7-1.5-2.8-0.9c-1.3,0.7-0.2,1.6,0,2.5c0.6,2.9,2.2,5,5,6c-2.4,4.1,0.6,6.7,2.7,10.2
		c2.4-5.4,4.7-10.1,6.7-14.9c0.5-1.2,1.7-3.1-0.2-3.9c-1.8-0.7-2.3,1.5-3,2.6c-1,1.9-1.7,3.9-2.5,5.9C532.1,656.2,531,655,530,654.1
		z M503.9,663c3.3,3.9,6.2,1.4,9.1-0.5c0-4.7,0.2-9.3,0.1-14c0-1.1,0.7-3-1.5-3c-1.3,0-1.9,1.3-1.7,2.6c0.4,2.9-0.6,3.8-3.7,4.1
		C501.6,652.8,500.5,659,503.9,663z M416.5,70c6.6-1.4,13.4-2.5,19.4-6c11.7-6.7,11.8-16.3,0.3-23.2c-6.6-3.9-13.9-5.1-21.3-6.4
		c-6-2.1-11.9-2.3-17.8,0.1c-1.1,0.2-2.3,0.3-3.4,0.6c-7,1.6-14.3,2.3-19.7,7.9l0,0c-7,3.6-8.5,10.4-3.5,16.2c2.7,3.1,6.1,5,9.8,6.6
		c4.9,2.2,10.2,2.9,15.3,4.1C402.6,71.6,409.5,71.5,416.5,70z M540.1,551.8c1.8-10.2,3.7-20.5,5.4-30.7c1-5.7,2-11.5,5.5-16.2
		c7.9-10.9,14.4-22.6,21-34.2c5.2-9.1,9.1-19,17.8-25.7c2-1.6,1.3-2.9-0.7-4.1c-6.1-3.9-12.9-5.5-19.9-7.8
		c-0.2,6.2-1.5,11.8-3.2,17.4c-4.4,14.9-14.4,26.9-21.2,40.6c-0.5,0.9-0.9,1.9-2.1,1.7c-1-0.1-1.2-1-1.5-1.8
		c-6-15.9-15.7-30.7-14.4-49.8c-8.6,5.9-17.6,8-26.7,9.8c-3.7,0.7-3.5,1.2-1.8,4.1c6.1,10.7,14.1,20.1,21.5,29.9
		c6.1,8.1,9.9,16.2,7.4,26.9c-2.5,10.6-3.3,21.5-5.3,32.2c-2.1,11.3-4.4,22.7-13,31.5c-0.2,0.2,0,0.9,0,1.6
		c8.9,0.3,17.6-0.5,26.4,1.7c7.3,1.8,7.4,1.2,5.7-6.1c-0.1-0.3,0-0.7,0-1C540.1,565,541.9,558.3,540.1,551.8z M450.3,304.8
		c-4.1-0.1-7.7,1.5-11.3,3.3c-12.7,6.2-18.2,17.9-21.8,30.4c-5.3,18.2-5.6,36.9-2.3,55.6c2.2,12.4,14,24,25.9,27.3
		c11.1,3,21.4,1,31.6-2.6c6.4-2.3,12.8-5.7,17.1-10.5c3.1-3.4,0.9-9.9,1.3-15c0-0.5,0-1,0-1.5c0-8.1,0-16.1,0-24.2
		c-1.4,0-1.4,0.8-1.6,1.3c-5.6,14.2-23.5,30.1-43.2,28.3c-4.7-0.4-7.7-2.5-9.1-6.9c-1.7-5.7-1-11.7-1.7-17.6
		c-1.1-9.3-0.1-18.7,2.1-27.7c1.6-6.8,2.5-14.1,10-17.8c7.6-3.8,20.4-4.1,27,5c2.3,3.2,4.7,6.4,6.9,9.6c0.5,0.8,0.6,2,1.9,1.6
		c0.9-0.3,1-1.3,1-2.1c0.4-9.4,0.7-18.9,3.3-28c0.4-1.3,0.1-2.4-1.4-2.6c-7.9-0.9-15.1-4.8-23-5.7
		C460.9,302.2,453.4,302.2,450.3,304.8z M390.6,630c0.7-1,1.5-1.6,1.9-2.5c2-4.4,3.9-8.7,5.8-13.1c0.4-1,1.3-2.3-0.4-2.9
		c-1.3-0.4-2.2,0.4-2.7,1.6c-0.7,1.5-1.5,3-2,4.5c-0.5,1.4-0.6,3.3-2.4,3.3c-1.7,0-1.5-1.9-2-3c-0.7-1.7-1.4-3.4-2.3-4.9
		c-0.6-0.9-1.5-2.1-2.8-1.5c-1.4,0.7-0.8,2.1-0.4,3.1c1.9,4.6,3.9,9.1,5.9,13.6C389.4,628.8,390,629.2,390.6,630z M498.9,659.3
		c0-6.5-0.8-7.3-6.8-6.5c-0.8,0.1-1.6,0.1-2.5,0.1c-1.5,0-2.8,0.3-2.5,2.1c0.4,2.8-1.4,6,1.1,8.4c0.8,0.8,2.3,0.3,2.6-1.2
		c0.2-1,0-2,0.1-3c0.1-1.7-0.5-4.1,2.4-4c2.7,0.1,1.5,2.4,1.9,3.8c0.4,1.7-1.2,4.6,2.1,4.5C500.1,663.4,498.5,660.7,498.9,659.3z
		 M404,659.9c2-2.7,8.6,2.1,7.1-4.7c-0.7-3.2-3.9-3.6-6.8-2.9c-3.4,0.9-5,5.1-3.4,8.8c1.5,3.6,3.9,3.3,6.6,1.3
		C406.5,661.2,404.5,661.8,404,659.9z M478,623.4c0,1.4,0.1,2.4,0,3.4c-0.1,1.3,0.2,2.8,1.4,2.8c1.6,0,1.8-1.6,1.8-2.9
		c0-0.7,0-1.3,0-2c0-1.8,0.6-3.5,2.7-3.5c2.2,0.1,2,2.1,2.2,3.7c0.1,1.7-0.8,4.6,1.5,4.6c2.7,0,1.5-3,1.7-4.8c0-0.3,0-0.7,0-1
		c0.1-2.9-0.2-5.8-4-4.9C482.3,619.4,476.4,616.6,478,623.4z M482.7,758.7c0.8-2.7-0.3-4-3.1-4.1c-4.5-0.1-3,3.5-3.3,5.6
		c-0.3,2.6,1.2,5.1,3.8,5.1C485.6,765.2,482.1,761,482.7,758.7z M466.8,723c0-3,1.4-6.1-1.2-7.2c-2.9-1.2-6.8-1.7-9.5,0.2
		c-1.7,1.2-1.6,4.2,0.9,7c-1.1-5.8,3.5-5.3,5.9-5.7C466.6,716.5,463.7,721,466.8,723z M525.6,764.8c-0.6-2.8,1.4-5.2-0.5-6.1
		c-2.9-1.4-6.2-1.1-9.7,0.4c2.2,1,3.1,2.2,3.8,4c0.3,0.7,0.8,1.7,1.4,1.9c1.5,0.4,1.3-1,1.5-1.9c0.2-0.8,0.3-1.8,1.4-1.6
		C524.6,761.6,524.3,763,525.6,764.8z M422.8,623.6c0,1.2-0.1,2.1,0,2.9c0.2,1.2-0.8,3.1,1.1,3.3c2,0.2,2.1-1.6,2.1-3.2
		c0-1.5-0.1-2.9,1-4.2c0.8-1.1,3.6-0.7,2.6-2.9c-0.8-1.7-2.7-0.2-4.1-0.5C420,618.1,424.4,622.7,422.8,623.6z M475.2,718.6
		c0.1-2-0.3-3.7-2.9-3.5c-2.3,0.2-3.6,1.5-3.5,3.9c0,2.3,1.3,3.8,3.6,3.9C475.1,722.8,475.2,720.6,475.2,718.6z M139.7,383.7
		c-6.5-0.6-12.8,0.4-19.1,2.2C127.3,387.7,133.3,383.7,139.7,383.7z M647.3,286.8c0.6,0.1,0.8,0.2,1,0.2c5-0.9,10.1-1.6,14.6-4.1
		C657.4,282.9,652.6,284.9,647.3,286.8z M142.8,258.4c-2.8-0.8-5.2-2.9-8.3-2.3c-0.1,0-0.2,1,0,1.3
		C136.8,260.2,139.9,258.5,142.8,258.4z M141.4,171.6c-0.3,0.3-0.7,0.6-1,1c1.5,3.7,6,3.8,7.9,7.1c0.3-0.4,0.7-0.8,1-1.2
		C146.6,176.2,144,173.9,141.4,171.6z M285.7,682c-2.2,2.6-3.2,5.8-3.2,9.3C284.7,688.6,285.3,685.4,285.7,682z M542.7,722.1
		c-0.6-1.9-3.4-0.2-3.7-2.6c-0.1-0.9,0.7-3-1.2-2.3c-1.6,0.5-1.2,2.6-0.3,3.7C538.8,722.4,540.5,724,542.7,722.1z M534.1,715.6
		c-1.3,2.3-1.4,4.5,0.1,7.7C535.4,720.1,535.3,717.8,534.1,715.6z M492.5,759.3c-1.8,1.4-1.7,3.1-1,5.5
		C491.9,762.5,492.2,760.9,492.5,759.3z"/>
	<path fill="#C29E3A" d="M285.1,479.3c-2.2,5.7-6.9,9.5-10.6,14c-11.6,14.3-23.6,28.1-35.3,42.3c-21,25.5-41.7,51.2-62.7,76.8
		c-10.6,12.9-21.3,25.6-31.9,38.5c-13.9,16.8-27.7,33.7-41.5,50.5c-14.2,17.3-28.4,34.5-42.7,51.8c-12.3,14.8-24.6,29.5-36.9,44.3
		c-0.8,1-1.1,2.3-1.6,3.5c-6.2,0-12.3-0.1-18.5,0.1c-2.2,0.1-2.6-0.4-2.6-2.6C1.1,789.3,1,780.2,1,771c8.3-8.3,16.6-16.6,24.8-25
		c16.2-16.8,32.3-33.6,48.5-50.4c30.5-31.7,61.1-63.4,91.6-95.1c23.4-24.3,46.8-48.6,70.2-72.8c15.7-16.3,31.5-32.6,47.3-48.9
		C284,478.9,284.5,479.1,285.1,479.3z"/>
	<path fill="#C29E3A" d="M215.3,472.4c-22.9,21.5-45.8,42.9-68.7,64.4c-20.6,19.3-41.3,38.6-61.9,58c-17.5,16.4-35,32.9-52.6,49.3
		C21.7,653.8,11.4,663.4,1,673c0-15.3,0-30.7,0-46c10.4-7.5,20.9-14.8,31.3-22.4c24.2-17.8,48.2-35.7,72.4-53.5
		c27.3-20.2,54.7-40.4,82.1-60.5c8-5.9,16.1-11.8,24.2-17.8c1.3-0.9,2.3-2.6,4.3-1.4C215.2,471.7,215.2,472.1,215.3,472.4z"/>
	<path fill="#C19E3B" d="M183,801c11-22,22-44.1,33-66.1c15.7-31.4,31.4-62.9,47.2-94.3c16.6-33.1,33.3-66.3,50-99.4
		c0.2-0.4,0.7-0.6,1.6-1.4c-0.5,5.8-2.7,10.5-4.5,15.2c-7.7,21.4-15.7,42.7-23.6,64c-6.5,17.6-13.2,35.2-19.8,52.9
		c-8.8,23.8-17.4,47.6-26.2,71.5c-6.8,18.6-13.7,37.1-20.6,55.7c-0.2,0.6-0.2,1.3-0.2,1.9C207.7,801,195.3,801,183,801z"/>
	<path fill="#C29E3A" d="M635,591c20.2,23,40.6,45.8,60.4,69.2c12.2,14.3,25,28,37.4,42.1c21.5,24.4,42.8,48.9,64.3,73.4
		c1.1,1.3,1.8,3.2,4,3.3c0,6.5-0.1,13,0.1,19.5c0.1,2.2-0.4,2.6-2.6,2.6c-8.5-0.2-17-0.1-25.5-0.1c-8.9-14.8-19.2-28.7-28.8-43
		c-14.7-21.9-29.7-43.5-44.4-65.4c-21.4-31.7-42.6-63.5-63.9-95.2c-1-1.5-2-3-2.9-4.5C633.4,592,634,591.3,635,591z"/>
	<path fill="#C19E3B" d="M39,1c4.6,7.2,10.4,13.4,15.7,20.1c19.5,24.4,39,48.7,58.5,73c18.5,22.9,37.1,45.7,55.7,68.6
		c10.7,13.2,21.4,26.5,32.1,39.8c1,1.2,3,2.8,1.6,4.1c-1.7,1.5-2.7-1-3.8-2.1c-25-25.4-49.9-50.8-74.8-76.2
		C89.5,93.1,54.9,58,20.3,22.8C14.8,17.2,9.3,11.6,3.8,6C3.1,5.3,2.4,3.9,1,5C0.3,1.7,1.4,0.8,4.9,0.9C16.3,1.2,27.6,1,39,1z"/>
	<path fill="#C09E3B" d="M155,1c2,7.9,5.9,14.9,9,22.3c11,25.9,22,51.8,33.2,77.6c11.6,26.9,23.3,53.7,34.8,80.6
		c5.1,11.9,10.1,23.9,15.1,35.9c-0.4,0.5-0.7,1.1-1.1,1.6c-13.6-23.8-27.3-47.7-40.8-71.5c-16.4-28.9-32.7-57.8-49.1-86.7
		c-10.8-19-21.6-38-32.4-57c-0.5-0.9-0.9-1.8-0.7-2.8C133.7,1,144.3,1,155,1z"/>
	<path fill="#C19E3B" d="M456.1,213.9c5.7-18.6,11.3-37.1,17-55.7c5.1-16.5,10.4-33,15.4-49.5c5.6-18.6,11-37.2,16.7-55.8
		c5-16.5,10.3-33,15.4-49.5c0.2-0.8,0.3-1.6,0.4-2.5c10,0,20,0,30,0c-2,7.7-5.8,14.6-8.9,21.9c-10.3,24.2-20.7,48.4-31.2,72.6
		c-10.4,24-20.8,48-31.1,72c-6.3,14.7-12.5,29.4-18.8,44c-0.6,1.5-1.4,3-2.1,4.5C458,215.3,457,214.6,456.1,213.9z"/>
	<path fill="#C09E3C" d="M247,567.2c-14.7,24.3-30,48.2-45.3,72.1c-18.5,28.9-36.4,58.2-54.7,87.3c-15,23.9-30,47.8-45.1,71.7
		c-0.6,0.9-1.1,1.6-1,2.7c-8.7,0-17.3,0-26,0c4.5-8,10.5-14.9,15.8-22.4c14.9-21.1,30.2-42,45.3-63c13-18.1,26.3-36.1,39.4-54.2
		c19.2-26.4,38.4-52.9,57.6-79.3c3.9-5.4,7.9-10.8,11.9-16.2C245.7,566.3,246.4,566.8,247,567.2z"/>
	<path fill="#C09E3C" d="M614,1c-25.5,41.5-51,83-76.5,124.6c-20.1,32.8-40.1,65.6-60.1,98.4c-4.3,7-8.5,14.1-12.7,21.2
		c-1.1-0.7-1.3-1.8-1.5-3c15-28.5,30.1-57,45.1-85.5c19.6-37.2,39.2-74.5,58.8-111.7c7-13.2,13.9-26.5,20.9-39.7
		c0.7-1.4,1.5-2.5,1.2-4.1C597.3,1,605.7,1,614,1z"/>
	<path fill="#C19E3B" d="M612.7,618.9c22.2,37.8,44.4,75.6,66.8,113.4c12.8,21.6,25.8,43.2,38.6,64.8c0.8,1.3,1.3,2.7,1.9,4
		c-11,0-22,0-33,0c-5.7-13.6-11.4-27.3-17.2-40.9c-12.3-28.9-24.5-57.9-36.8-86.8c-7.2-16.8-14.4-33.6-21.6-50.4
		c-0.3-0.6-0.3-1.3-0.4-1.9C611.6,620.3,612.1,619.6,612.7,618.9z"/>
	<path fill="#C09E3C" d="M785,1c-7.7,7.8-15.2,15.7-23,23.3c-34.3,33.7-68.7,67.4-103,101.1c-32.2,31.6-64.2,63.4-96.4,95
		c-0.2,0.2-0.6,0.3-0.8,0.5c-0.9-0.3-1.8-0.6-2.8-0.9c9.7-10.5,19.3-20.9,29-31.4c23.1-25.2,46.2-50.4,69.4-75.5
		c28-30.3,56-60.6,84-90.9c5.5-5.9,10.9-11.8,16.3-17.7c0.9-0.9,2.7-1.8,1.3-3.6C767.7,1,776.3,1,785,1z"/>
	<path fill="#C09E3B" d="M801,217c-13.1,5-26.2,9.9-39.3,14.9c-23.5,9-47,18.1-70.5,27.2c-21.2,8.2-42.4,16.5-63.5,24.7
		c-4.6,1.8-9.2,3.4-13.8,5.1c-0.4-0.4-0.9-0.8-1.3-1.2c29.9-16.2,59.8-32.5,89.8-48.7c31.6-17.1,63.2-34,94.8-51
		c1.3-0.7,2.6-1.4,3.9-2.1C801,196.3,801,206.7,801,217z"/>
	<path fill="#C29E3A" d="M635.9,392.1c15.9,3,31.3,7.7,47,11.4c15.9,3.8,31.7,7.6,47.5,11.6c14.6,3.7,29,7.6,43.6,11.3
		c9,2.3,18,4.4,27,6.5c0,10.3,0,20.7,0,31c-20.6-8.5-41.1-16.9-61.6-25.5c-23.4-9.8-46.8-19.6-70.1-29.5
		c-11.1-4.7-22.1-9.4-33.2-14.1C636,394,635.9,393,635.9,392.1z"/>
	<path fill="#C09E3C" d="M801,125c-1.5-0.5-2.5,0.6-3.5,1.4c-16.2,11.3-32.3,22.8-48.6,33.9c-30.5,20.8-60.4,42.4-91,63.1
		c-10.4,7-20.6,14.4-30.9,21.6c-1-0.3-1.7-0.9-2-1.9c27.8-22.6,55.6-45.2,83.4-67.8c24.2-19.7,48.4-39.5,72.8-59
		c6.5-5.2,12.5-11,19.8-15.2C801,109,801,117,801,125z"/>
	<path fill="#C09E3B" d="M243.6,164.1c-8.5-21.7-16.9-43.3-25.4-65c-8.4-21.5-16.9-43-25.3-64.5C188.6,23.4,183.7,12.5,180,1
		c8.3,0,16.7,0,25,0c-0.1,7.4,3,14.2,4.6,21.2c2.7,12.4,6.2,24.6,9.4,36.9c4.5,17.3,9.1,34.5,13.5,51.8c3.7,14.4,7.1,28.9,10.7,43.3
		c0.6,2.6,2.2,4.9,1.9,7.7C244.6,162.6,244.1,163.4,243.6,164.1z"/>
	<path fill="#C09E3C" d="M1,503c5.3,0.5,9.2-3,13.5-5c40.4-18.8,80.7-37.9,121-56.9c0.1-0.1,0.3,0,0.5,0c1.2,0.2,2.4,0.5,3,1.6
		c-25.7,16.2-51.5,32.3-77.2,48.6c-18.4,11.7-36.7,23.6-55.1,35.3c-1.7,1.1-3.3,3.1-5.8,2.4C1,520.3,1,511.7,1,503z"/>
	<path fill="#C29E3A" d="M498,1c-5.7,18.7-11.4,37.5-17.2,56.2c-5.9,19-11.9,38-17.9,57c-2.1,6.7-4.1,13.5-6.1,20.3
		c-0.9-0.2-1.7-0.4-2.6-0.6c-0.9-3.7,0.8-7.2,1.2-10.7c2.7-20.6,5.2-41.3,8.1-61.9C466,43.2,467.9,25,470.9,7c0.3-1.9,0.1-4,0.1-6
		C480,1,489,1,498,1z"/>
	<path fill="#C29E39" d="M337,1c-0.5,14.6,1,29.2,1.8,43.8c0.2,3.1,0.1,6.3,0.2,9.4c0.2,6.9-1.2,13.9,1.1,20.7
		c0.3,2.1,0.5,4.2,0.8,6.3c0.7,16.7,1.5,33.4,2.2,50.1c0,3.9,0,7.8,0,11.7c-0.4,1.9-0.2,4-2,5.3c-1.7-9.2-3.3-18.5-5.1-27.7
		c-2.3-11.6-4.6-23.3-7-34.9c-2.5-12.5-5-24.9-7.5-37.4c-2.2-11.4-4.6-22.7-6.5-34.1c-0.7-4.4-2.9-8.6-2.1-13.2C321,1,329,1,337,1z"
		/>
	<path fill="#C09E3C" d="M129.1,225c-25.6-11-51.1-22-76.7-33c-15.9-6.9-31.7-13.8-47.6-20.6c-1.2-0.5-2.5-1-3.9-0.4
		c0-8.7,0-17.3,0-26c8.1,3.4,15,8.6,22.4,13.1c27.2,16.3,54.4,32.7,81.5,49.1c8.7,5.3,17.4,10.7,26.1,16
		C130.7,224.1,130.1,224.7,129.1,225z"/>
	<path fill="#C09E3C" d="M670,571c16.5,9.7,32.9,19.7,49.5,29.2c23.3,13.5,46.3,27.6,69.9,40.8c3.8,2.1,6.9,5.7,11.7,5.9
		c0,8,0,16,0,24c-8.1-4.1-14.8-10.2-22-15.5c-22.8-16.7-45.4-33.6-68-50.5c-15.4-11.4-30.7-22.9-46-34.3c0.4-0.6,0.9-1.2,1.3-1.8
		c0.3,0,0.6,0.1,0.8,0.3C667.5,570.6,668.6,571.1,670,571z"/>
	<path fill="#C09E3C" d="M124.8,161c-14.5-10.9-29.1-21.7-43.6-32.6c-17.5-13.2-35-26.4-52.6-39.6C20.8,82.9,13.1,77,5.2,71.1
		C4,70.2,3.1,68.4,1,69c0-7.3,0-14.7,0-22c7.4,4.9,13.4,11.3,20,17.1c19,16.8,37.8,33.8,56.7,50.7c16.4,14.7,32.8,29.5,49.3,44.2
		C126.6,160.1,125.8,160.7,124.8,161z"/>
	<path fill="#C29E39" d="M626.6,364.9c2.9,0.1,5.7,0.2,8.6,0.3c4.5,2.1,9.3,2,14.1,1.5c5.9,0,11.9,0.1,17.8,0.1c4.2,0,8.5,0,12.7,0
		c7,0.1,14,0.1,20.9,0.2c2.1,0.2,4.1,0.4,6.2,0.7c0.4,1.4,1.6,1,2.4,1c9.9,0.1,19.8,0.2,29.6,0.2c5.6,0,11.2,0.1,16.8,0.1
		c1.4,0.2,2.7,0.4,4.1,0.5c0,0.3,0,0.5,0,0.8c0,0.1,0.3,0.1,0.5,0.1c10.9,0.5,21.9,0.9,32.8,0.4c2.6,0,5.2,0.1,7.9,0.1
		c0,5,0,10,0,15c-12.7-0.3-25.3-2.3-38-3.4c-14.7-1.3-29.2-3.7-43.9-4.7c-13.1-0.9-26.2-3.1-39.3-4.6c-10.5-1.2-21.1-1.7-31.5-3.3
		c-10.7-1.6-21.6-1.2-32.2-4C619.5,364.4,623.2,365.6,626.6,364.9z"/>
	<path fill="#C19E3B" d="M327,801c3.5-11,5.4-22.4,8.1-33.6c4.5-18.9,9-37.8,13.5-56.7c2.9-12.5,5.8-25.1,8.6-37.6
		c0.9,0,1.8,0,2.6,0c-0.5,6.4-0.8,12.9-1.4,19.3c-1,9.7-2.3,19.3-3.4,29c-1.7,14.8-3.7,29.5-4.8,44.3c-0.9,11.8-3.5,23.5-3.2,35.4
		C340.3,801,333.7,801,327,801z"/>
	<path fill="#BF9D3D" d="M801,566c-37.7-24.1-75.4-48.2-113.6-72.6c2.8-0.9,4.6-0.3,6.6,0.6c34.6,16.5,69.3,32.9,103.9,49.4
		c1,0.5,2,1.1,3,1.6C801,552,801,559,801,566z"/>
	<path fill="#C29E39" d="M391,801c3-23.8,6.5-47.5,8.7-71.4c1-10.1,3.3-20,3.3-30.1c0-1.4,0-3.1,1.6-3c1.6,0.1,1.3,2,1.4,3.3
		c1.5,20.5,4.1,41,5.7,61.5c1.1,13.2,3.7,26.3,3.2,39.7C407,801,399,801,391,801z"/>
	<path fill="#BD9C40" d="M1,587c4.2,0.1,6.8-3.1,9.9-5c34.9-21.7,69.8-43.5,104.7-65.2c8.5-5.3,16.9-10.5,25.4-15.7
		c0.4,0.6,0.7,1.3,1.1,1.9c-17.3,12.1-34.7,24.1-51.9,36.3c-14.7,10.4-29.1,21-43.8,31.3c-15,10.6-30.2,21-45.4,31.4
		C1,597,1,592,1,587z"/>
	<path fill="#BF9D3D" d="M1,214c9.5,1.6,18.3,5.3,27.4,8c13.7,4.1,27.3,8.6,40.9,12.9c13.8,4.4,27.6,8.7,41.4,13.1
		c3.5,1.1,6.9,2.2,10.4,3.2c-1,0.9-2.1,1.7-3.1,2.6c-8.8-1.9-17.7-3.7-26.5-5.7c-10.7-2.3-21.3-4.8-31.9-7.2
		c-13.7-3.1-27.3-6.4-41.1-9.1c-5.8-1.1-11.4-3.8-17.5-2.9C1,224,1,219,1,214z"/>
	<path fill="#C19E3B" d="M33.5,380.9c-3.2,0.4-6.6-0.8-9.7,1.1c-6.8,0-13.6-0.4-20.3,0.9c-0.8,0-1.6,0-2.5,0c0-5.7,0-11.3,0-17
		c6.1,1.5,12.3,0.9,18.5,1c6.4,2.6,13,2,19.6,1.8c4.7,0.6,9.5-0.7,14.1,1.2c5.5,1.7,11.1,0.9,16.7,0.9c4.2,0,8.4,0.1,12.6,0.1
		c5.9,3.3,12.2,1.6,18.3,1.8c7.2,0.5,14.5-0.1,22.8,1.9c-10.7,0.5-20,2.5-29.4,2.3c-1.8,0-3.6-0.1-5.2,1.2
		c-6.5-0.1-13.1-0.5-19.6,0.8c-4.2,0-8.3,0.1-12.5,0.1c-3.5,0-7-0.3-10.5,0C42.1,379.3,37.5,378.3,33.5,380.9z"/>
	<path fill="#BD9C40" d="M801,729c-7.5-5.8-13.9-12.7-20.7-19.2c-26.8-25.4-53.5-51.1-80.2-76.6c-0.5-0.4-0.8-1-1.1-1.5
		c-0.3-1.5-1.8-2.8-1-4.6c18,15.4,36,30.6,53.9,46.1c16,13.8,31.8,27.8,47.8,41.6c0.3,0.3,1,0.2,1.4,0.3
		C801,719.7,801,724.3,801,729z"/>
	<path fill="#BF9D3D" d="M611,801c-2.3-9.1-4.5-18.3-6.8-27.4c-3-11.7-6.1-23.3-9.2-35c-3-11.6-5.9-23.3-9.1-34.9
		c-0.7-2.6-1.2-5.1-1.2-7.9c1.7-0.1,1.9,1.1,2.2,2.1c12.8,33.5,25.6,67.1,38.4,100.6c0.3,0.9,1,1.7,1.6,2.5
		C621.7,801,616.3,801,611,801z"/>
	<path fill="#C09E3C" d="M262,1c1.3,7.1,2.5,14.2,3.8,21.3c1.7,8.8,3.4,17.5,5.1,26.2c2.5,12.9,5,25.9,7.4,38.8
		c0.6,3.2,1,6.4,1.5,9.7c-0.9,0-1.8,0-2.8,0c-6.9-20.7-14-41.4-20.3-62.3c-3.1-10.2-6.7-20.3-10.2-30.4C246.1,3.2,246,2.1,246,1
		C251.3,1,256.7,1,262,1z"/>
	<path fill="#C19E3B" d="M1,323c11.9,1.8,23.9,3.5,35.8,5.3c15.5,2.3,31,4.3,46.4,6.9c13.9,2.3,27.7,4.4,41.6,6.3
		c-2.1,1.4-4.4,1.4-6.8,1.6c-17.7,0.1-35.3-2.3-53-3.3c-18-1-35.9-2.9-53.9-3.8c-3.4-0.2-6.8-1.1-10.3-0.9C1,331,1,327,1,323z"/>
	<path fill="#BD9C40" d="M683.7,275.2c13.8-4.4,27.7-8.7,41.5-13.1c15.9-5,31.7-10.1,47.6-15.2c9.4-3,18.8-6,28.2-9
		c0,3.7,0,7.3,0,11c-9.6,2.3-19.3,4.6-28.9,7c-11.9,3-23.7,6-35.6,9c-12.2,3.1-24.3,6.2-36.5,9.2c-4,1-8,1.8-12.1,2.8
		C686.5,276.5,684.4,277.6,683.7,275.2z"/>
	<path fill="#BF9D3D" d="M277.9,711.1c-7,27.1-14,54.2-21.1,81.3c-0.8,2.9-2.3,5.6-1.8,8.7c-4.3,0-8.7,0-13,0
		c6.6-18.4,13.2-36.8,19.9-55.2c4.5-12.4,9-24.7,13.5-37C276.2,709.6,277,710.3,277.9,711.1z"/>
	<path fill="#BF9D3D" d="M15,394.1c4.4-2.2,9.2-0.6,13.8-1.3c6,0.8,11.9-0.2,17.7-1.8c11.9-0.3,23.7-1.1,35.4-3c1.9-0.3,4,0,6,0.1
		c2,0.9,4.1,1.7,6.1,2.6c-13.7,1.1-27.1,4-40.6,5.8c-11.6,1.6-23.2,3-34.8,4.6C12.7,402,6.9,403,1,404c0-3,0-6,0-9
		C5.7,395,10.4,395.5,15,394.1z"/>
	<path fill="#A4997C" d="M15,394.1c-4.6,1.3-9.3,0.8-14,0.9c0-0.3,0-0.7,0-1C5.7,394,10.4,394.1,15,394.1z"/>
	<path fill="#C39F38" d="M174.9,433.7c1.5-6.4,4.6-12.4,4.2-19.2c0.3-0.9,0.5-1.8,0.8-2.7c1.5-1.5,1-3.5,1-5.2c0-25.8,0-51.6,0-77.4
		c-0.1-8,1-16-0.9-23.9c-0.3-0.5-0.6-1-1-1.5c-3.3-5.3-7-10.3-11-15c-1.9-2.4-2.2-3.9,1.3-4.7c7.2-1.7,14.4-3.5,21.7-5.1
		c12.3-2.7,24.6-5.3,37-7.1c9.3-1.3,18.6-1.7,27.8-0.7c8.1,0.9,13.8,8.1,15.2,17.8c0,6.3,0,12.5,0,18.8
		c-1.5,10.9-8.5,17.5-17.4,22.8c-5.2,3.1-10.7,5.6-16.5,7.5c-0.2,0.2-0.5,0.3-0.7,0.5c-0.1,0.1,0,0.3,0.1,0.4
		c3.8,3.6,8.5,1.4,12.7,1.8c17.6,1.1,24.7,10,27.2,25.3c2.5,15.2,0.6,30.5-6.1,44.6c-5.2,10.8-15.1,15.2-25.9,18.3
		c-14.5,4-29.3,6.4-44.4,7c-3.2,0.1-6.5,0.9-9.8,1c-3.7,0-7.5-0.1-11.2,0C176.5,437.2,174.9,436.5,174.9,433.7z M215.9,351.8
		c-2.2,0.8-5-1.1-6.9,1.5c-1.2,8.5-2,17-2.1,25.6c-0.2,11.3,0,22.5,0.9,33.8c0.2,3,1.8,3.1,3.9,3c4.5-0.2,9-0.5,13.4-0.7
		c6.5-0.3,11.8-3.2,15.4-8.5c7.8-11.3,9.8-24.1,7.8-37.4c-1.6-10.6-6.6-15.5-14.5-16.1c0-0.7-0.2-1.5-0.9-1.5
		C227.3,351,221.5,350,215.9,351.8z M200.9,316.6c0.2,0,0.3,0,0.5,0c0,5.3,0.2,10.7-0.1,16c-0.2,4.7,2.2,4.8,5.6,3.9
		c4.3-1.1,8.6-2.4,12.9-3.5c15.8-4,21.9-13.4,19.1-29.3c-1.5-8.4-5.4-11.8-13.8-11.6c-7.8,0.2-15.2,3-22.7,4.9
		c-2.2,0.6-1.5,2.3-1.6,3.6C200.8,305.9,200.9,311.3,200.9,316.6z"/>
	<path fill="#C39F38" d="M441.9,523.5c3.2,16.1,1.9,31.6-9.2,44.4c-5.9,6.9-15.1,7.6-23.5,8.9c-2,0.3-4,0.1-6,0.2c-6,0-12,0-18,0
		c-9.8,0-19.6,0-29.4,0c-1.2,0-2.8-0.4-3.4,1.3c-0.5,0.2-0.9,0.4-1.4,0.6c-2.3-0.7-5.5,2-6.6,0c-1.2-2.2,2.4-3.8,3.4-6
		c1.4-2.9,3.5-5.6,5.4-8.2c2.2-3.1,2.7-6.5,2.9-10.2c0.8-14,2-27.9,3-41.9c0.1-1.7,0-3.3,0.1-5c0.4,0.8,0.8,1.7,1.4,2.9
		c0.3-6.8,0.8-13.1,0.3-19.5c0.1-8.5,0.1-17,0.4-25.5c0.1-2.9-0.4-5.4-2.6-7.2c-3.3-2.8-4.6-7.3-8.2-9.8c1.1-2.1,3.1-1.4,4.8-1.6
		c3-0.5,6.2,1,8.9-1.3c1-0.2,2-0.4,3-0.7c9.7,0.2,19.1-2.4,28.7-2.8c13-0.6,26.1-2.7,39.1,0.7c8.6,2.2,14.6,9.9,15,18.7
		c0.8,17.8-7.9,29.9-23.7,35.8c-1.3,0.5-2.8,1-3.7,2.9c8.8,3.7,16.2,8.9,18.5,18.9C440.9,520.7,441,522.2,441.9,523.5z M419.9,539.4
		c1.8-4.8,1.9-9.5-0.1-14.2c-0.3-0.7-0.5-1.5-0.8-2.2c0-5.3-2.6-9.4-7.1-11.5c-8-3.7-16.5-2.9-24.9-1.4c-2.8,0.5-4,2.1-4,5.2
		c0,4.6,0.6,9.3-1.1,13.7c-1.6,8.6-0.7,17.4-0.9,26c0,1.5-0.8,3.3,1,4.4c0.5,0.2,1,0.3,1.5,0.5c5,0.1,10,0.2,15,0.1
		c12.8-0.2,19.7-6.2,20.5-17.7C419.3,541.3,419.6,540.4,419.9,539.4z M391.6,456.1c-7.5,0-7.8,0.5-8.4,7.7c-0.7,8.7,1,17.6-1.9,26.2
		c-0.8,2.5,0.6,4.7,3.4,4c4.6-1.3,9.2-0.4,13.8-1.1c6.5-0.9,13.7-1,17.4-7.9c1.9-3.4,3.9-7,4.7-10.8c2.3-11-2-20-14.8-19.4
		C401.1,455,396.4,456.2,391.6,456.1z"/>
	<path fill="#C39F38" d="M518.2,299c2.6,0,5.3,0.1,7.8-0.9c1.2-0.5,2.6-0.3,3.6,1c1.1,1.5-0.4,2.1-1,2.9c-2.9,4.4-4.3,9.6-4.4,14.5
		c-0.1,9.1-1.8,18.2-1.3,27.3c0.3,5.6,1.6,6.9,7.3,7.2c10.5,0.4,15.1-3.6,14.8-14.1c-0.3-11.1,1.4-22.3-1.3-33.3
		c-0.5-2,0.5-2.3,2-2.4c7-0.1,14-0.2,21-0.3c2.2,0,3.2,0.6,2.2,2.9c-3.1,6.8-3.1,14.1-3.9,21.3c-1.4,13.2-2.8,26.3-3.7,39.5
		c-0.5,6.8-0.1,13.6-0.1,20.4c-0.7,7.5,0.1,14.9,1.8,22.3c0,2.6,0.1,5.2,0.1,7.8c-0.4,8-0.4,7.9-8.5,7.8c-1.1,0-2.3,0.1-3.4,0.1
		c-5.2,0-10.3,0-16.3,0c9.4-15.2,9.1-31.5,8.3-47.9c-0.2-3.2-0.4-6.3-3.6-8.1c-0.3-0.3-0.5-0.6-0.8-0.9c-5.2-2-10.4-1.6-15.7-0.1
		c-1.1,0.3-2.2,0.7-3.3,1c-4.3-0.6-6.2,1.4-5.8,5.7c1.4,15.6,1.7,31.3,6.4,46.4c1,3.2,0.8,6.7,3,9.8c1.8,2.5-1,2.1-2.2,2.3
		c-11.3,2.4-22.3,5.7-34.9,9.5c10.9-16.3,12.9-33.8,13.5-51.6c0.1-1.4,0.2-2.8,0.3-4.2c1.7-6.3,0.7-12.7,0.8-19.1
		c0.1-3.2,0.1-6.4,0.2-9.6c0.3-4.4,0.7-8.8,1-13.2c1.4-8.3,1.8-16.5-0.3-24.8c-0.3-0.9-0.5-1.7-0.8-2.6c0.7-5-2.4-9.5-1.9-14.5
		c5.4-0.6,10.9,1.2,16.1-1.3C516.3,299.6,517.2,299.3,518.2,299z"/>
	<path fill="#C29E39" d="M346.9,423.2c0,1.3-0.1,2.6-0.1,3.9c-6.2,0.4-12.5-1.5-18.6,1.1c-0.8,0.3-1.6,0.5-2.4,0.8
		c-13,1.2-26,2.3-39,3.8c-7.1,0.8-7.9,0.4-5.9-6c2.3-7.3,2.6-14.9,3.1-22.4c1.5-20.4,0.4-40.8,1.5-61.2c0.4-7.8,0-15.6-3.1-23
		c-1.2-2.8-0.6-4.1,2.8-4.3c16.5-1,32.7-4.1,49.1-6.3c3.9-0.5,7.9-0.7,11.9-1.1c2-0.2,2.7,0.6,2.7,2.5c-0.1,2,0,4,0.1,6
		c-0.8,7.3,1.1,14.8-1,22c-4.8-9.4-13.2-13-22.8-12.7c-15.9,0.6-15.9,1-18,17.2c-0.3,2-0.3,4-0.3,6c-0.2,8,0.4,8.8,8.5,7.4
		c7.3-1.2,13.4-5.1,19.4-10.4c0,9.9,0,18.9,0,28.4c-4.3-2.2-8.5-4.2-13.4-4.2c-4.5,0-7.6,1.8-9.9,5.2c-3.7,5.5-5.3,11.7-6.3,18.1
		c-1.3,8.9,4.7,13.4,10.9,13.7c9.9,0.5,20.2-0.2,26.9-9.7c0.3-0.3,0.6-0.6,1-0.9c1.9,3,0.6,6.4,1,9.6c0.6,4.2-0.9,8.5,1.2,12.5
		C346.4,420.5,346.7,421.8,346.9,423.2z"/>
	<path fill="#C29E3A" d="M462.8,304.8c7.9,0.9,15.1,4.8,23,5.7c1.5,0.2,1.8,1.2,1.4,2.6c-2.6,9.2-2.9,18.6-3.3,28
		c0,0.8-0.1,1.8-1,2.1c-1.3,0.4-1.4-0.8-1.9-1.6c-2.2-3.3-4.6-6.4-6.9-9.6c-6.5-9.1-19.4-8.8-27-5c-7.4,3.7-8.4,11.1-10,17.8
		c-2.1,9.1-3.2,18.5-2.1,27.7c0.7,5.9,0,11.9,1.7,17.6c1.3,4.4,4.4,6.5,9.1,6.9c19.7,1.8,37.6-14.1,43.2-28.3
		c0.2-0.6,0.2-1.3,1.6-1.3c0,8,0,16.1,0,24.2c0,0.5,0,1,0,1.5c-0.4,5.1,1.8,11.6-1.3,15c-4.3,4.8-10.7,8.3-17.1,10.5
		c-10.2,3.6-20.5,5.7-31.6,2.6c-11.8-3.2-23.6-14.8-25.9-27.3c-3.3-18.7-3-37.3,2.3-55.6c3.6-12.5,9.1-24.2,21.8-30.4
		c3.6-1.8,7.2-3.3,11.3-3.3C454.5,304.8,458.6,304.8,462.8,304.8z"/>
	<path fill="#C29E3A" d="M405,371.3c0.4,10.7,1.1,21.3,3.1,31.8c0.8,4-0.7,4.2-3.6,3.8c-0.5-0.3-1-0.6-1.5-0.9
		c-4.2-2.1-8.8-0.4-13.1-1.1c-3-0.5-6.3,1.2-9-1.1c3.1-4.3,7.2-8.2,6.3-14.3c0.3-0.9,0.5-1.8,0.8-2.7c1.6-6.6,2.1-13.2,0-19.8
		c-0.3,0-0.7-0.1-1-0.1c-5.8,0.1-11.6,0.1-17.4,0.2c-2.4,0-4.1,0.9-4.6,3.5c-1.5,7.1-3.8,14-2.1,21.4c1,4.4-2.6,2.4-4.4,2.9
		c-5.4-1.3-10.8-1.7-16.2,0c-2.5-0.5-4.1,3.1-7.4,1.3c11.1-10.7,12.2-25.5,16.4-39c4.4-14,8.9-28,13.1-42.1c2.4-7.9,5.2-16,3.7-24.3
		c-0.8-4.8,1.7-4.2,4.2-3.6c11,2.8,22.2,1.9,33.3,1.9c8.9-0.1,9-0.2,4.9,7.7c-4.1,7.9-5.4,16.5-6.3,25.2c-1,9-0.9,17.9-0.8,26.8
		c0.2,5.5-1,11.1,1.1,16.5C404.5,367.4,404.7,369.3,405,371.3z M384.6,313.2c-3.6,1.9-3.3,4.9-4.1,7.3c-3.1,9.2-6.2,18.5-9.2,27.7
		c-1.3,3.9,0.1,5.5,4.3,5.1c3.8-0.3,7.7-0.4,11.5-0.4c6.6-0.1,6.6,0,6.2-6.8C392.3,334.8,386.6,324.7,384.6,313.2z"/>
	<path fill="#C29E3A" d="M540.9,571.6c0,0.3-0.1,0.7,0,1c1.8,7.3,1.6,7.9-5.7,6.1c-8.7-2.1-17.5-1.3-26.4-1.7c0-0.7-0.2-1.4,0-1.6
		c8.6-8.7,10.8-20.1,13-31.5c2-10.7,2.8-21.6,5.3-32.2c2.5-10.7-1.2-18.8-7.4-26.9c-7.4-9.8-15.4-19.2-21.5-29.9
		c-1.6-2.9-1.9-3.3,1.8-4.1c9-1.8,18-3.9,26.7-9.8c-1.3,19.1,8.5,33.9,14.4,49.8c0.3,0.7,0.5,1.7,1.5,1.8c1.2,0.1,1.7-0.8,2.1-1.7
		c6.8-13.7,16.8-25.7,21.2-40.6c1.6-5.5,3-11.2,3.2-17.4c7,2.3,13.8,4,19.9,7.8c2,1.3,2.7,2.6,0.7,4.1c-8.7,6.7-12.7,16.6-17.8,25.7
		c-6.6,11.6-13.1,23.3-21,34.2c-3.5,4.8-4.5,10.5-5.5,16.2c-1.8,10.2-3.6,20.5-5.4,30.7c-0.6,1-0.8,2.1-0.3,3.2
		c-1.5,5.3-1.7,10.6,0.2,15.9C540.3,571.1,540.6,571.3,540.9,571.6z"/>
	<path fill="#C29E39" d="M585.8,513.9c-8.5-0.9-14.8-7.3-15.7-17.4c-1.6-17.8,7-32.8,25.3-39.2c0.6-0.2,1.3-0.2,2-0.3
		c8.4,0.1,16.8,0.1,25.2,0.2c1.5,0,3,0.1,4.1-1.2c0.3-0.3,0.6-0.6,0.9-0.9c1.2,0,1.8,0.5,1.6,1.9c-1.4,9.5-2.8,19-2.4,28.4
		c-1.7,0.8-2.2-0.2-2.5-0.8c-4.7-8.3-12.3-11.3-21.4-11.9c-8-0.5-13.3,2.3-13.7,11c-0.6,11.4,3.8,13.8,13,14.4
		c6.8,0.4,13.6,1.3,19.9,3.7c13,5,16.5,17.8,14.4,29.3c-1.6,8.8-6,16.3-14.6,20.6c-3.6,1.8-7.4,3-11.3,3.2
		c-11.3,0.7-22.6,0.3-33.5-3.1c-5.4-1.7-11.6-0.4-19.7,3.6c-0.5-6.4,2.7-12.1,1.8-18.1c0.2-0.6,0.3-1.3,0.5-1.9
		c2.4-1.5,1.2-3.9,1.5-5.9c0.3-2.2-0.6-4.7,1.6-6.5c10.5,9.9,22.3,17.3,37.1,18.3c9.4,0.6,12.1-2.8,12.6-11.7
		c0.5-9.7-2.6-13.9-11.4-14.5c0.4-0.6,0.6-1.5-0.3-1.5C595.6,513.2,590.6,512,585.8,513.9z"/>
	<path fill="#C29E39" d="M445.1,528.5c-0.1-1.5-0.1-2.9-0.2-4.4c0-6.7,0-13.3,0-20c2.1-10.9,5.1-21.5,12.1-30.4
		c12-15.4,35.1-15.6,47.2-0.4c10.9,13.7,15.1,46.3,4.5,63.3c-5,8-10.3,15.7-20.3,18.4c-12,3.2-22-1.1-31.2-8c-5.4-4-9.3-9.3-11.3-16
		C446.1,530,445.7,529.2,445.1,528.5z M497,500.4c0-3.7-0.3-7.3,0.1-11c0.6-6.5-3.9-11.4-12.1-13.3c-7.3-1.6-13.4,1.8-15.9,8.4
		c-5.5,14.2-6,29-5.8,43.9c0,2.9,1.6,5.2,3.6,7.4c4.8,5.1,10.7,5.1,16.4,3c6.1-2.4,10.2-7.2,11.7-13.8
		C496.8,516.9,497.4,508.7,497,500.4z"/>
	<path fill="#C29E39" d="M363.6,274.9c-9,0.1-8.5,0.1-7.9-8.7c0.4-5.7,2-11.4,1.2-17.2c0.1-1.1,0.3-2.3,0.4-3.4
		c1.2-0.4,1.3-1.4,1.3-2.4c0.1-10,0.2-19.9,0.2-29.9c0-1,0.3-2.4-1.3-2.9c-0.2-0.6-0.4-1.1-0.6-1.7c-0.1-2.4-0.1-4.9-0.2-7.3
		c2.2,0.2,4.4,0.4,6.6,0.4c8.5,0,17,0.2,25.4-0.1c4.4-0.2,6,1.7,5.1,5.5c-1,4.3-1.1,8.5-0.9,12.8c0.1,4-1.5,3.5-4.1,2.1
		c-4.7-2.7-9.5-5.2-15.1-5.4c-3.2-0.1-5.2,0.9-4.9,4.5c0,0.3-0.1,0.7,0,1c0.5,3.1-1.8,8,1.2,9.1c4,1.5,9.1,1.4,13.1-1.8
		c0.3-0.3,0.8-0.3,1.7-0.7c0,1.8,0,3.2,0,4.7c-0.2,1.2-0.5,2.4-0.7,3.5c-2.1,0.9-0.9,2.8-1.1,4.2c-0.5,3.2,0.3,6.5-0.9,9.6
		c-2.3-1.6-4.5-3.3-6.8-4.8c-4.3-2.7-7.2-1.2-7.4,4c0,0.5-0.1,1,0,1.5c0.8,3.8-2.4,8.9,2.5,11.2c5.4,2.4,11.3,1.7,16.5-1.4
		c2.8-1.6,5.6-3.3,7.6-6.1c0.5-0.7,0.8-1.7,1.8-1.1c0.4,0.2,0.8,1.2,0.7,1.6c-2.7,6.3-1.9,14-7.9,19c-7.6-3.5-15.2-2.2-22.9-0.6
		C365.4,274.5,364.5,274.7,363.6,274.9z"/>
	<path fill="#C29E39" d="M325.8,207.6c-0.7-0.2-1.5-0.4-2.2-0.6c-0.5-0.3-1.1-0.5-1.6-0.8c-4.6-2.1-9.4-1-14.1-1
		c-2.3,0-2.7,2.1-2.7,4c0,4,0,7.9-0.1,11.9c0,3.1-0.1,6.3-0.1,9.4c-1.4,6.7-2.7,13.4-1.8,20.3c-0.1,7.7-1.6,15.4,0.4,23
		c0,2.5-1.8,2.1-3.4,2.2c-4.2,0.3-8.6-0.9-12.7,0.8c-1.4,0.1-2.9,0.6-1.7-1.9c4.7-10.3,5.3-21.3,6.4-32.3c0.8-8.6,1-17.2,1.1-25.8
		c0.1-4-1.2-5.1-5.4-4.4c-5.5,1-9.2,3.9-11.9,9.7c-1.6-5-0.6-9.1-0.4-13c0.2-3.9-2.2-9,0.9-11.3c2.6-1.9,7.4-0.6,11.2-0.8
		c0.5,0,1-0.1,1.5-0.1c6.2,0,12.6,1.1,18.5-1.8c5.9,0.6,11.5-1,17.2-2.1c4.4-0.9,5.3,0.6,3.2,4.4
		C326.2,200.5,328.2,204.5,325.8,207.6z"/>
	<path fill="#C19E3B" d="M313.1,216.8c-0.1-1.9,1-2.5,2.7-2.8c3-0.6,6.1-0.9,9.6-3.3c-0.9,5.7-1.9,10.4-1.4,15.2
		c0.3,2.7-1.3,6.5,3.3,7c3.1,0.4,7.3-3.7,7.5-7.3c0.3-4.3,0.3-8.7,0-13c-0.1-2.6,0.7-3.6,3.3-3.5c2.3,0.1,4.8,0.2,6.9-0.6
		c4.2-1.6,4,0.4,3.6,3.4c-2.1,17.4-2.9,34.9-0.9,52.5c0.8,7.1,0.6,8.9-7.3,8.7c-1.5,0-3,0.3-4.5,0.1c-1.4-0.2-2.8,2-4,0.1
		c-0.9-1.4,0.6-2.5,1.1-3.6c4-8.4,4.3-17.3,3.8-26.3c-0.2-4.1-3.2-5.2-6.6-5.2c-3.4,0-5.6,1.4-5.5,5.4c0.1,8-0.2,16,0,24
		c0.1,3.6-1.2,4.9-4.6,4.6c-1-0.1-2-0.1-3,0c-6.9,0.4-7.3,0.2-5.8-6.6c1.2-5.4,1.3-10.9,1.6-16.4c1.3-1,1.8-2.4,1.8-3.9
		c0-8.1,0.1-16.3,0.1-24.4C315,219.1,314.5,217.7,313.1,216.8z"/>
	<path fill="#64749A" d="M374,43c5.3-5.7,12.7-6.4,19.7-7.9c1.1-0.2,2.3-0.4,3.4-0.6c5.9-0.5,11.9-0.5,17.8-0.1
		c7.4,1.3,14.7,2.5,21.3,6.4c11.6,6.9,11.4,16.5-0.3,23.2c-6,3.5-12.8,4.6-19.4,6c-7,0-13.9,0-20.9,0c-5.1-1.2-10.4-2-15.3-4.1
		c-3.7-1.6-7.1-3.5-9.8-6.6C365.5,53.4,367,46.6,374,43c0.1,1.1-0.7,1.7-1.3,2.5c-5.1,6.3-4.5,10.7,2.1,15.4c1.9,1.3,4,2.5,6.1,3.4
		c10.1,4,20.6,5.5,31.3,4.5c8.3-0.8,16.5-2.3,23.8-6.7c9.4-5.7,9.5-13.7,0.1-19.3c-5.5-3.3-11.4-5.5-17.8-5.8
		c-2.2-1.1-4.5-0.8-6.8-0.9c-0.7,0-1.4,0-2.1,0c-4.9,0.3-10-0.9-14.8,1c-2.3-0.2-4.5,0.5-6.8,0.9C382.8,38.8,378.8,42,374,43z"/>
	<path fill="#B7994B" d="M324.7,630.8c-8.8,0-13-3.5-12.8-10.7c0.2-6.2,5.9-10.4,12.2-9.1c1.3,0.3,3,0.6,2.8,2.2
		c-0.2,2.1-2.3,1.2-3.5,1.3c-6.7,0.2-7.9,1.5-7.3,8c0.3,3.5,4.7,5.9,7.9,4.3c1-0.5,1.1-1.2,1-2c0-0.9-0.1-1.6-1.2-1.8
		c-1-0.2-2.9,0.5-2.6-1.4c0.3-1.8,2.1-1.8,3.7-1.7c1,0,2,0.1,3,0.1C329.8,624.5,329.8,628.4,324.7,630.8z"/>
	<path fill="#A8955B" d="M390.6,630c-0.6-0.8-1.2-1.2-1.4-1.8c-2-4.5-4-9-5.9-13.6c-0.4-1-1-2.4,0.4-3.1c1.3-0.7,2.3,0.5,2.8,1.5
		c0.9,1.6,1.5,3.3,2.3,4.9c0.5,1.1,0.3,3.1,2,3c1.8,0,1.9-2,2.4-3.3c0.6-1.6,1.3-3,2-4.5c0.5-1.1,1.5-2,2.7-1.6
		c1.7,0.6,0.8,1.9,0.4,2.9c-1.9,4.4-3.8,8.8-5.8,13.1C392.1,628.4,391.4,629,390.6,630z"/>
	<path fill="#A8955B" d="M365,618c2.9,0.1,4.3-1.2,4-4.2c-0.1-1.3,0.5-2.3,1.9-2.3c1.6,0,1.7,1.3,1.8,2.4c0,4.5,0.2,8.9,0,13.4
		c-0.1,2.8-4.2,4.3-7.9,3.1c-1.2-0.4-2.4-1-3.6-1.6c-0.5-3.5-1.4-7,1.6-9.9c0,0,0.2-0.1,0.2-0.1C363.8,618.9,364.6,618.9,365,618z
		 M369,623.8c0-1.5,0.2-3.1-2.2-2.9c-2.2,0.2-2.7,1.8-2.8,3.4c-0.1,1.8,0.7,3.3,2.9,3.2C369.4,627.4,369,625.4,369,623.8z"/>
	<path fill="#A8955B" d="M498.9,659.3c-0.5,1.3,1.2,4.1-1.7,4.2c-3.3,0.1-1.7-2.9-2.1-4.5c-0.4-1.4,0.8-3.7-1.9-3.8
		c-2.8-0.1-2.2,2.3-2.4,4c-0.1,1,0,2-0.1,3c-0.2,1.6-1.7,2-2.6,1.2c-2.5-2.4-0.7-5.6-1.1-8.4c-0.3-1.8,1.1-2.1,2.5-2.1
		c0.8,0,1.7,0,2.5-0.1C498.1,652,498.9,652.8,498.9,659.3z"/>
	<path fill="#293959" d="M179,303.9c0.3,0.5,0.6,1,1,1.5c0,7.8,0.1,15.6,0.1,23.4c-0.1,27.7-0.2,55.4-0.3,83
		c-0.3,0.9-0.5,1.8-0.8,2.7c0-30.9-0.1-61.8-0.1-92.7C179,315.9,179,309.9,179,303.9z"/>
	<path fill="#B7994B" d="M404,659.9c0.5,1.8,2.5,1.3,3.5,2.5c-2.8,2-5.1,2.3-6.6-1.3c-1.5-3.7,0-7.9,3.4-8.8
		c2.9-0.8,6.1-0.3,6.8,2.9C412.6,662,406,657.2,404,659.9z"/>
	<path fill="#C39F38" d="M503.9,663c-3.5-4-2.3-10.3,2.3-10.8c3.1-0.4,4.1-1.2,3.7-4.1c-0.2-1.3,0.4-2.6,1.7-2.6
		c2.1,0,1.4,1.9,1.5,3c0.1,4.7,0,9.3-0.1,14c-1.6,0.5-2.7-0.4-3.8-1.4c0.8-0.8,0.7-1.8,0.6-2.8c-0.1-1.5,0.8-3.6-2-3.6
		c-2.4,0-3,1.5-3,3.6c0,1.4,0.4,2.5,1.2,3.6C505.4,662.3,504.7,662.7,503.9,663z"/>
	<path fill="#133F94" d="M362.9,619c-3,2.9-2.1,6.4-1.6,9.9c-2,0.2-3.7,1.1-5.4,2.1c-3.6,2.1-6.5,1.6-8.6-2.2
		c1.3-0.3,2.6,2.2,3.7,0.3c0.8-1.4-0.5-2.2-1.8-2.6c0-1.4,0.1-2.9,0.1-4.3c1.7-1.3,3.5-2.3,5.2-0.2c2.6,3.3-1.2,4.9-2.4,7.1
		c0.9,0.8,1.7,0.8,2.5,0.6c4.2-1.5,4.9-4.4,2.4-10.5C358.9,619.2,360.9,619.1,362.9,619z"/>
	<path fill="#B7994B" d="M530,654.1c1,0.8,2,2.1,2.9-0.1c0.8-2,1.5-4.1,2.5-5.9c0.6-1.1,1.2-3.3,3-2.6c1.9,0.7,0.7,2.7,0.2,3.9
		c-2,4.8-4.2,9.5-6.7,14.9c-2.1-3.5-5.1-6.1-2.7-10.2c0,0,0.4,0.2,0.4,0.2L530,654.1z"/>
	<path fill="#133F94" d="M324.7,630.8c5.1-2.4,5.1-6.3,3.1-10.8c1.7-0.3,3.5-0.6,5.2-0.8c-1.4,3-3.3,5.9-0.3,9
		c0.9,1,1.7,2.4,3.2,1.5c1.3-0.9,0.3-1.8-0.4-2.9c-1.1-1.7-1.4-4.1,0.3-5.4c2-1.5,3.7,0.1,5,1.7c0,1.9-0.7,3.3-2.2,4.6
		c-1.7,1.5-0.5,2.2,1.3,2.1c-0.8,1.4-2.1,2.3-3.6,1.7C332.5,630.1,328.6,631.2,324.7,630.8z"/>
	<path fill="#B7994B" d="M439.2,655c1.3-2.6,3.7-3.2,6.2-2.8c2.4,0.3,4.3,1.6,4.2,4.4c-0.1,3.2-2.7,2.1-4.4,2.3
		c-1,0.1-1.9,0.2-2.7,0.2c-1.7,2.2,3.7,2.2,1.2,4.1c-2.4,1.9-3.8-0.3-4.9-2.2C441.4,659.2,441.6,657.2,439.2,655z"/>
	<path fill="#BD9C40" d="M431.2,626.8c-0.3-3.7,0.7-6.7,4.5-8.1c2.8-1,5.6-2.1,7.5,1.4c-0.1,3.2-0.1,6.4-0.2,9.7
		c-1.3,0.1-2.7,0.2-4,0.3c-2.5-1.3-0.7-1.9,0.2-3c1.3-1.5,1-3.4,0.2-5.1c-0.6-1.2-1.8-1.4-3-0.8c-1.9,1-1.5,2.8-1.4,4.4
		c0,1.1,0.3,2.2,0.4,3C432.9,630.1,432.9,626.8,431.2,626.8z"/>
	<path fill="#C39F38" d="M478,623.4c-1.6-6.7,4.3-4,7.2-4.6c3.8-0.9,4.2,2,4,4.9c0,0.3,0,0.7,0,1c-0.3,1.8,0.9,4.8-1.7,4.8
		c-2.3,0-1.3-2.9-1.5-4.6c-0.1-1.7,0.1-3.7-2.2-3.7c-2-0.1-2.6,1.7-2.7,3.5c0,0.7,0,1.3,0,2c0,1.4-0.2,3-1.8,2.9
		c-1.2,0-1.5-1.5-1.4-2.8C478,625.8,478,624.8,478,623.4z"/>
	<path fill="#A8955B" d="M386.1,656.1c-1.3,1.3-1.2,3-1.1,4.6c0,1.3,0.2,2.8-1.8,2.9c-1.8,0.1-2.1-1.1-2.1-2.6c0-4.3,0-8.6,0-12.9
		c0-1.4,0.3-2.8,2.1-2.7c2,0.1,1.7,1.7,1.7,3c0.1,1.5,0.1,3,0.1,4.5C382.6,654.8,384.5,655.4,386.1,656.1z"/>
	<path fill="#C29E39" d="M481.8,663.9c-1.2,0-2.3-0.1-3.5,0c-2.9,0.3-5.4-0.6-6.2-3.6c-0.8-3.2-0.6-6.3,3.3-7.6
		c1.6,0.1,3.3,0.3,4.9,0.3c1.2,0.1,2.5,0.2,2.4,1.8C482.9,657.9,484,661.1,481.8,663.9z M480.7,658.1c0.2-1.9-0.2-3.4-2.5-3.3
		c-2.3,0-3.1,1.3-3.2,3.5c-0.1,2.1,1,3.2,2.9,3.3C480.2,661.7,481.1,660.3,480.7,658.1z"/>
	<path fill="#A8955B" d="M463.1,242.1c0.2,1.2,0.5,2.3,1.5,3c-4.7,7-7.6,15.2-12.7,19.3C453.6,257.6,458.5,249.9,463.1,242.1z"/>
	<path fill="#C09E3B" d="M410.9,613.1c-0.1,3,0.2,4.8,4.3,5.2c4.6,0.4,5.6,6.4,2.1,10.6c-0.9-0.3-1.7-0.6-2.6-0.9
		c0.3-0.4,0.5-0.8,0.9-1.1c1.6-1.5,1.4-3.2,0.4-4.8c-0.8-1.3-2.2-1.5-3.5-1.1c-2.4,0.6-1.1,2.7-1.4,4.1c-0.1,0.9,0.1,1.9,0.1,2.9
		c-0.5,0-1.3,0.1-1.3,0C409.2,623,407.5,617.9,410.9,613.1z"/>
	<path fill="#133F94" d="M496.5,724.7c-1.8-0.8-3.3-2.3-5.4-2.1c-2.5,0.3-4.3-0.1-4-3.3c0.1-1-1-1.2-1.8-1.4c-0.1-0.3-0.1-0.7,0-1
		c3.5-3.4,7.6-1.5,11.5-1.6C496.7,718.5,496.6,721.6,496.5,724.7z"/>
	<path fill="#B7994B" d="M697.9,627.1c-0.8,1.8,0.7,3,1,4.6c-6.5-5.2-12.3-11.2-18.2-17c0.3-0.5,0.7-1.1,1-1.6
		C687.1,617.7,692.5,622.4,697.9,627.1z"/>
	<path fill="#B7994B" d="M445.9,619.3c1.2-0.6,1.3-1.8,1.9-2.8c1.1-1.7,2.8-3.2,3.2,0.3c0.2,2.2,2.9,1.5,3.1,3.6
		c-4.5,0.8-3,4.3-2.9,7.1c0,1,1.1,2.5-0.7,2.8c-1.5,0.2-2.2-1.2-2.4-2.5c-0.4-2.5,1-5.4-2.1-7.1
		C445.9,620.2,445.9,619.8,445.9,619.3z"/>
	<path fill="#A8955B" d="M482.7,758.7c-0.6,2.3,2.9,6.5-2.5,6.6c-2.6,0-4.1-2.5-3.8-5.1c0.3-2.1-1.2-5.8,3.3-5.6
		C482.4,754.6,483.5,756,482.7,758.7z"/>
	<path fill="#A8955B" d="M496.5,724.7c0.1-3.1,0.1-6.2,0.2-9.3c2.9-0.5,5.8-1.2,7.2,2.5c0,0.8,0,1.6,0,2.3
		C502,722.7,499.2,723.6,496.5,724.7z"/>
	<path fill="#A8955B" d="M683.7,275.2c0.7,2.4,2.8,1.3,4.2,1.8c-5.5,2-11.1,3.4-16.8,4.2c-0.9,0.1-2.3,1.9-2.9,0
		c-0.5-1.6,1.2-1.7,2.2-2C674.9,277.8,679.3,276.5,683.7,275.2z"/>
	<path fill="#A8955B" d="M625,243.1c0.3,1,1,1.6,2,1.9c-5.3,4.6-11.3,8.2-17.2,12.1c-0.3-0.3-0.6-0.7-0.9-1
		C613.9,251.2,619.5,247.2,625,243.1z"/>
	<path fill="#B7994B" d="M340.9,623.2c-1.3-1.7-2.9-3.3-5-1.7c-1.8,1.3-1.5,3.6-0.3,5.4c0.7,1.1,1.6,2,0.4,2.9
		c-1.5,1-2.2-0.5-3.2-1.5c-3-3.1-1.1-6.1,0.3-9c3.5-1,7.2-2.5,9.7,1.8C342.2,621.8,341.5,622.5,340.9,623.2z"/>
	<path fill="#898D95" d="M118.2,343.1c2.3-0.3,4.7-0.2,6.8-1.6c5.9,0.9,11.7,1.7,17.6,2.6C134.2,345.3,126.1,345.3,118.2,343.1z"/>
	<path fill="#B7994B" d="M465.9,629.4c-4.6-1.3-3.6-5.3-2.5-7.7c1.9-4.1,5.7-4.5,9.6-2.2c-0.7,0.5-1.4,1-2.1,1.5
		c-4.6,0.1-5.7,1.4-4.1,5.3C467.4,627.9,468.2,628.9,465.9,629.4z"/>
	<path fill="#B7994B" d="M602.6,659c-2.1-0.2-3.2-1.4-3.4-3.5c-0.2-2,1.4-2.4,2.7-3c1.6-0.7,3.1-1,4.5,0.2c0.5,0.4,1,1,0.7,1.7
		c-0.9,1.7-2.9-0.4-4,1.3c1.8,2,6.7,2.7,3.9,7.2C604.6,662.7,605.1,659.1,602.6,659z"/>
	<path fill="#A4997C" d="M506,711c1,4.1,6,3.9,7.7,7.2c1-0.9,1.9-1.8,2.9-2.7c-0.5,1.8-1,3.6-1.5,5.4c-3.5-4.9-1.3,3.1-3,1.6
		c-2.4-1.2,0-4.8-2.4-4.9c-3.2-0.1-1.4,3.9-3.2,5.3C505.1,719,505.7,715,506,711z"/>
	<path fill="#BD9C40" d="M356.9,619.3c2.5,6.1,1.8,9-2.4,10.5c-0.8,0.3-1.6,0.2-2.5-0.6c1.2-2.2,5.1-3.8,2.4-7.1
		c-1.6-2.1-3.5-1.1-5.2,0.2c-0.8-0.4-1.5-0.9-2.3-1.3C349.6,616.7,353.3,618.2,356.9,619.3z"/>
	<path fill="#133F94" d="M431.2,626.8c1.7,0,1.7,3.3,4.2,1.9c-0.1-0.9-0.3-2-0.4-3c0-1.6-0.5-3.4,1.4-4.4c1.2-0.6,2.4-0.4,3,0.8
		c0.8,1.7,1.1,3.6-0.2,5.1c-1,1.1-2.8,1.8-0.2,3C436.1,633.4,433.5,632.3,431.2,626.8z"/>
	<path fill="#293959" d="M465.9,629.4c2.3-0.5,1.5-1.5,0.9-3c-1.6-4-0.5-5.3,4.1-5.3c2.4,2.2-0.8,5.9,2,8
		C470.7,632.1,468.4,632.6,465.9,629.4z"/>
	<path fill="#BF9D3D" d="M386.1,656.1c-1.6-0.7-3.5-1.3-1.1-3.3c0.7,0,1.3,0,2,0.1c4.8,0.9,7-1,6.2-5.9c2.9,5.3,1.5,10.6,0.1,15.8
		C392.8,656,392.8,656,386.1,656.1z"/>
	<path fill="#A8955B" d="M466.8,723c-3-1.9-0.1-6.5-3.9-5.8c-2.4,0.4-7-0.1-5.9,5.7c-2.5-2.7-2.7-5.7-0.9-7c2.7-1.9,6.6-1.4,9.5-0.2
		C468.2,716.9,466.8,720,466.8,723z"/>
	<path fill="#A8955B" d="M635.9,392.1c0,0.9,0.1,1.9,0.1,2.8c-5.4-1.6-10.6-3.5-13.3-6.1C626,389.2,631.2,389.5,635.9,392.1z"/>
	<path fill="#A8955B" d="M247,567.2c-0.6-0.4-1.3-0.8-1.9-1.3c3.6-5.1,7.3-10.1,10.9-15.2c0.4,0.2,0.7,0.4,1.1,0.5
		C253.9,556.8,251.1,562.4,247,567.2z"/>
	<path fill="#C39F38" d="M565,653.2c3-1.7,6.4-2.6,8.7,0.5c2,2.6-0.1,9.1-2.7,10.5c-2.4-1.1-1-2.3-0.4-3.9c1.5-4.1,0.1-5.6-4.4-5.1
		C565.9,654.5,565.4,653.9,565,653.2z"/>
	<path fill="#A8955B" d="M393.3,662.9c1.5-5.3,2.8-10.6-0.1-15.8c2.2-2.2,3.3-2.2,3.5,0.3c0.3,4.9,0.3,9.8,0,14.7
		C396.6,664.1,395,664.5,393.3,662.9z"/>
	<path fill="#C39F38" d="M346.9,621c0.8,0.4,1.5,0.9,2.3,1.3c0,1.4-0.1,2.9-0.1,4.3c-0.8,0.2-1.5,0.4-2.3,0.5
		c-3.8-2.7-4.1,3-6.9,2.8c-1.7,0-2.9-0.6-1.3-2.1c1.5-1.3,2.3-2.7,2.2-4.6c0.6-0.7,1.3-1.4,1.9-2.1C344.2,624.9,345.5,621,346.9,621
		z"/>
	<path fill="#898D95" d="M525.6,764.8c-1.3-1.8-1-3.2-2.2-3.4c-1.1-0.2-1.2,0.8-1.4,1.6c-0.2,0.9,0,2.3-1.5,1.9
		c-0.6-0.2-1.1-1.1-1.4-1.9c-0.7-1.8-1.6-3-3.8-4c3.5-1.5,6.8-1.8,9.7-0.4C526.9,759.6,525,762,525.6,764.8z"/>
	<path fill="#A8955B" d="M456.1,213.9c0.9,0.7,1.9,1.4,2.8,2c-1.1,4.2-3.1,8.1-5.5,13C452.1,222.7,455.4,218.5,456.1,213.9z"/>
	<path fill="#133F94" d="M566.3,655.2c4.4-0.4,5.9,1,4.4,5.1c-0.6,1.6-2.1,2.8,0.4,3.9c-1.4,2-2.8,1.8-4.1-0.1
		C567.6,661,563.2,658.4,566.3,655.2z"/>
	<path fill="#B7994B" d="M422.8,623.6c1.6-0.9-2.8-5.5,2.7-4.6c1.4,0.2,3.3-1.3,4.1,0.5c1,2.2-1.8,1.8-2.6,2.9c-1,1.3-0.9,2.8-1,4.2
		c0,1.6-0.2,3.4-2.1,3.2c-1.8-0.2-0.9-2.1-1.1-3.3C422.7,625.6,422.8,624.8,422.8,623.6z"/>
	<path fill="#293959" d="M351,579c0.5-0.2,0.9-0.4,1.4-0.6c10.9,0,21.8,0.3,32.8-0.5c5.1,0,10.1,0,15.2,0c-1.1,0.9-2.4,1-3.8,1
		C381.3,578.9,366.1,579,351,579z"/>
	<path fill="#133F94" d="M431,664.1c-2.6,2.6-4.3,1.2-5.9-1.2c1.3-0.2,2.4,1.8,3.6,0.5c1.4-1.6-0.8-2.1-1.3-3.1
		c-1.7-3.4,0-5.3,4.5-5.3c0.4,0.7,0.7,1.3,1.1,2c0,0.7,0,1.3,0,2c-0.2,0.6-0.3,1.3-0.5,1.9C431.2,661.6,428.2,661.5,431,664.1z"/>
	<path fill="#A8955B" d="M118,253.9c1-0.9,2.1-1.7,3.1-2.6c2.8,0.9,5.6,1.6,8.4,2.6c0.9,0.3,1.8,1.1,1.4,2.3
		c-0.5,1.4-1.6,0.7-2.5,0.4C125,255.7,121.5,254.8,118,253.9z"/>
	<path fill="#A8955B" d="M124.8,161c1.1-0.3,1.8-0.9,2.2-2c3.7,3.3,8.2,5.8,10.4,10.6C132.4,167.9,128.5,164.6,124.8,161z"/>
	<path fill="#A8955B" d="M475.2,718.6c0,2.1,0,4.3-2.8,4.3c-2.3,0-3.6-1.5-3.6-3.9c0-2.4,1.2-3.7,3.5-3.9
		C474.9,714.8,475.3,716.5,475.2,718.6z"/>
	<path fill="#A8955B" d="M139.1,442.7c-0.7-1.2-1.8-1.4-3-1.6c4.1-2.7,8.5-4.5,13-6.2c0.2,0.4,0.4,0.8,0.6,1.1
		C146.1,438.2,142.6,440.5,139.1,442.7z"/>
	<path fill="#A8955B" d="M559.1,220.1c0.9,0.3,1.8,0.6,2.8,0.9c-3.9,4.3-7.8,8.7-12.6,12.2c-0.1-0.7-0.3-1.3-0.4-2
		C551.6,226.9,555.5,223.6,559.1,220.1z"/>
	<path fill="#C09E3C" d="M431.9,655c-4.5,0-6.2,1.9-4.5,5.3c0.5,1,2.7,1.5,1.3,3.1c-1.2,1.3-2.3-0.7-3.6-0.5
		c-1.2-3.1-2.5-6.5,0.3-9.1c1.9-1.8,4.8-3,7.5-0.7C432.6,653.8,432.3,654.4,431.9,655z"/>
	<path fill="#A8955B" d="M142.1,502.9c-0.4-0.6-0.7-1.3-1.1-1.9c4.5-3.7,9.4-6.9,15-8.9l-0.1-0.1
		C152.6,497.4,146.6,499.2,142.1,502.9z"/>
	<path fill="#A4997C" d="M285.1,479.3c-0.6-0.2-1.2-0.3-1.7-0.5c3.7-5.1,8.6-9,13.2-13.2C293.4,470.7,290.1,475.7,285.1,479.3z"/>
	<path fill="#A4997C" d="M681.7,613c-0.3,0.5-0.6,1.1-1,1.6c-5.1-3.7-9.4-8.4-13.8-12.8c0.3-0.3,0.7-0.6,1-0.9
		C672.5,605,677.1,609,681.7,613z"/>
	<path fill="#898D95" d="M139.7,383.7c-6.5,0-12.4,4-19.1,2.2C126.9,384.1,133.2,383.1,139.7,383.7z"/>
	<path fill="#A8955B" d="M530,654.1l-0.4,0.1c0,0-0.4-0.2-0.4-0.2c-2.8-1.1-4.4-3.1-5-6c-0.2-0.9-1.3-1.8,0-2.5
		c1.1-0.6,2.3-0.5,2.8,0.9C528,649,529,651.6,530,654.1z"/>
	<path fill="#898D95" d="M626.6,364.9c-3.4,0.7-7-0.5-10.4,1c-5.6,0.7-11.1,0.1-16.5-1.2c-0.1,0-0.1-0.3-0.1-0.4
		c0-0.1,0.2-0.3,0.3-0.4c8,0.2,16,0.3,24,0.5C624.8,364.6,625.7,364.7,626.6,364.9z"/>
	<path fill="#B7994B" d="M497,625.6c-2.2-0.8-4.4-1.4-4.1-4.6c0.2-1.7,1-2.1,2.5-2.3c1.8-0.3,4.2-0.8,4.6,1.1c0.6,2.8-2.9-0.1-3.4,2
		c0.2,1.5,2.2,0.9,2.8,2.1C498.5,624.4,497.8,625,497,625.6z"/>
	<path fill="#A4997C" d="M497,625.6c0.8-0.6,1.6-1.1,2.3-1.7c2.9,1.5,1.1,3.7,0.5,5.5c-0.5,1.6-2.3,1.7-3.8,1.4
		c-1.3-0.2-2.8-0.5-3-2c-0.3-2.5,1.6-1,2.6-1.3C496.6,627.2,496.8,626.4,497,625.6z"/>
	<path fill="#898D95" d="M33.5,380.9c4.1-2.6,8.7-1.6,13.1-1.9c3.5-0.2,7,0,10.5,0C49.3,381.1,41.4,381.5,33.5,380.9z"/>
	<path fill="#C09E3C" d="M586,653c1.7-0.2,3.5-0.4,5.2-0.5c1.7-0.1,3.7-0.3,4,2.2c-1.2,3,1.7,6.9-2.2,9.2c-0.1-1.6-0.2-3.3-0.2-4.9
		c0.2-4-1.4-5.2-4.9-3.1C587.3,655,586.6,654,586,653z"/>
	<path fill="#A4997C" d="M313.1,216.8c1.4,0.9,1.8,2.3,1.8,3.9c0,8.1,0,16.3-0.1,24.4c0,1.6-0.5,3-1.8,3.9c0-1.7-0.1-3.4-0.1-5
		c1.6-7.7,1.6-15.3,0-23C313.1,219.6,313.1,218.2,313.1,216.8z"/>
	<path fill="#A4997C" d="M341.2,148.3c1.8-1.3,1.6-3.4,2-5.3c1.6,1.8,0.8,4.1,1.1,6.2c-1.1,4.3,1.6,8.4,0.2,14
		C343.1,157.4,342.1,152.9,341.2,148.3z"/>
	<path fill="#BD9C40" d="M420.1,655.1c-2,1.6-2.3,3.8-2.1,6.2c0.1,1.3-0.6,2.5-1.8,2.5c-1.8,0.1-1.2-1.5-1.3-2.5
		c-0.1-1.6,0.2-3.3,0-4.9c-0.5-3.6,1-4.3,4.1-3.1C419.4,653.9,419.8,654.5,420.1,655.1z"/>
	<path fill="#293959" d="M502.1,343c-0.3,4.4-0.7,8.8-1,13.2c0-13.5,0-27.1,0-40.6c0.3,0.9,0.5,1.7,0.8,2.6
		C501.9,326.5,502,334.7,502.1,343z"/>
	<path fill="#898D95" d="M647.3,286.8c5.3-2,10.1-4,15.6-3.9c-4.5,2.5-9.5,3.3-14.6,4.1C648.1,287.1,647.9,287,647.3,286.8z"/>
	<path fill="#A8955B" d="M455,658.8c-3.1-1.1-2.9-3.7-1.5-5.4c1.7-2.1,4.4-2,6.8-0.5c0.3,0.2,0.6,0.8,0.6,1.2c-0.1,1.1-1,0.9-1.9,1
		c-0.9,0.1-3.9-1.4-1.7,1.8C456.2,657.3,455.4,657.8,455,658.8z"/>
	<path fill="#A8955B" d="M515.1,720.9c0.5-1.8,1-3.6,1.5-5.4c2-0.8,3.8-0.5,4.3,1.7c0.4,1.8,0.9,4.1-1.3,5.3
		C517.7,723.5,516.1,722.7,515.1,720.9z"/>
	<path fill="#293959" d="M357,208.9c0.2,0.6,0.4,1.1,0.6,1.6c-0.1,11.7-0.1,23.4-0.2,35.2c-0.1,1.1-0.3,2.3-0.4,3.4
		C357,235.7,357,222.3,357,208.9z"/>
	<path fill="#A4997C" d="M548.9,231.2c0.1,0.7,0.3,1.3,0.4,2c-4.7,4.6-9.4,9.1-14,13.7c-0.2-0.2-0.4-0.4-0.6-0.6
		C539.4,241.2,544.1,236.2,548.9,231.2z"/>
	<path fill="#293959" d="M679.7,366.8c-4.2,0-8.5,0-12.7,0c-3.6-1.8-7.5-0.4-11.2-1.1c7.6-1.8,15.3-0.5,22.9-0.4
		C679.4,365.4,679.7,366.1,679.7,366.8z"/>
	<path fill="#A8955B" d="M612.7,618.9c-0.6,0.7-1.1,1.5-1.7,2.2c-2.2-3.7-4.6-7.3-3.8-11C609.3,612.1,610.9,615.6,612.7,618.9z"/>
	<path fill="#293959" d="M563,407.3c-1.7-7.3-2.5-14.7-1.8-22.3c2.3,1.9,1.7,4.5,1.8,6.9C563,397,563,402.2,563,407.3z"/>
	<path fill="#B7994B" d="M566.3,655.2c-3.1,3.2,1.4,5.9,0.6,8.9c-2.8-0.1-4.3-1.7-4.5-4.3c-0.2-2.5-0.8-5.3,2.6-6.5
		C565.4,653.9,565.9,654.5,566.3,655.2z"/>
	<path fill="#293959" d="M759.8,369.6c-1.4-0.2-2.7-0.4-4.1-0.5c11,0,21.9,0.1,32.9,0.1c1.2,0,2.3,0.2,3.2,1.1
		C781.2,370,770.5,369.8,759.8,369.6z"/>
	<path fill="#293959" d="M706.8,367.7c-2.1-0.2-4.1-0.4-6.2-0.7c10.6,0,21.2,0.1,31.9,0.1c1.2,0,2.3,0.2,3.3,1
		C726.1,368.1,716.5,367.9,706.8,367.7z"/>
	<path fill="#898D95" d="M759.8,369.6c10.7,0.2,21.3,0.4,32,0.7c0.4,0.2,0.9,0.4,1.3,0.7c-11,0.4-21.9,0.1-32.8-0.4
		c-0.2,0-0.4-0.1-0.5-0.1C759.8,370.1,759.8,369.8,759.8,369.6z"/>
	<path fill="#293959" d="M100.8,372.8c-6.2-0.2-12.5,1.6-18.3-1.8c4.6,0,9.3,0,13.9,0.1C98,371.1,99.7,371.2,100.8,372.8z"/>
	<path fill="#A8955B" d="M277.9,711.1c-0.8-0.7-1.7-1.5-2.5-2.2c1.4-2.6,1-6.1,4.3-8.2C280.6,704.6,279.1,707.8,277.9,711.1z"/>
	<path fill="#A4997C" d="M410.9,613.1c-3.4,4.8-1.7,9.9-1,14.9c0,0.1,0.9,0,1.3,0c1.2,0,2.3,0,3.5,0c0.9,0.3,1.7,0.6,2.6,0.9
		c-1.7,1.7-3.8,2.2-6.1,2.1c-1.2-1.1-3.4-1-3.2-3.6c0.3-4.3,0.1-8.6,0.1-12.9c0-2.1,1-3,3.1-2.9C411,612.1,411,612.6,410.9,613.1z"
		/>
	<path fill="#A8955B" d="M635,591c-1,0.3-1.6,1-1.9,1.9c-2.5-3-5-5.9-6.7-10.7C630.7,584.8,632.5,588.2,635,591z"/>
	<path fill="#898D95" d="M174.9,433.7c0.1,2.8,1.6,3.5,4.2,3.4c3.7-0.1,7.5,0,11.2,0c-3.9,2-8.2,2-12.4,2
		C172.1,439,172,438.9,174.9,433.7z"/>
	<path fill="#293959" d="M39.1,368.9c-6.6,0.2-13.3,0.8-19.6-1.8c5.1,0,10.1,0,15.2,0.1C36.4,367.1,37.9,367.5,39.1,368.9z"/>
	<path fill="#C39F38" d="M558.8,645.3c0,5.8,0,11.7,0.1,17.5c-2.4-0.4-1.9-2.3-1.9-3.8c0-4.4,0-8.8,0.1-13.2
		C557.6,645.7,558.2,645.5,558.8,645.3z"/>
	<path fill="#293959" d="M303.2,250.8c-0.9-6.9,0.4-13.6,1.8-20.3c0,5.3,0,10.6,0,15.9C304.9,248,304.9,249.7,303.2,250.8z"/>
	<path fill="#A8955B" d="M129.1,225c0.9-0.3,1.6-0.9,1.9-1.8c3,2.2,7.4,2.4,8.4,5.7C136.1,228.9,132.5,227.2,129.1,225z"/>
	<path fill="#898D95" d="M706.8,367.7c9.7,0.2,19.3,0.3,29,0.5c1,0.2,2.1,0.5,3.1,0.7c-9.9-0.1-19.8-0.1-29.6-0.2
		C708.4,368.7,707.2,369.1,706.8,367.7z"/>
	<path fill="#64749A" d="M305.1,221.1c0-4,0-7.9,0.1-11.9c0-1.9,0.5-4,2.7-4c4.7,0,9.5-1.2,14.1,1c-0.5,0-1,0-1.5,0
		c-14.4-0.3-14.4-0.3-14.6,14C305.7,220.5,305.4,220.8,305.1,221.1z"/>
	<path fill="#293959" d="M307.5,195.1c-5.9,2.9-12.3,1.9-18.5,1.8C295,193.6,301.4,195.3,307.5,195.1z"/>
	<path fill="#A4997C" d="M602.6,659c2.6,0,2,3.6,4.4,3.9c-1.2,1.7-2.9,2.2-4.8,1.7c-1.3-0.3-2.8-0.9-2.9-2.3c-0.1-1.8,1.6-1,2.6-1.2
		C603.6,660.8,603,659.9,602.6,659z"/>
	<path fill="#A8955B" d="M472.9,629c-2.8-2.1,0.4-5.8-2-8c0.7-0.5,1.4-1,2.1-1.5C475.7,622.7,476.6,625.9,472.9,629z"/>
	<path fill="#C39F38" d="M549.1,662.8c0-5.2,0-10.5,0-15.7c2,2.1,2.9,11.9,1.3,15.2C550.2,662.6,549.5,662.6,549.1,662.8z"/>
	<path fill="#A4997C" d="M142.8,258.4c-2.9,0-6,1.7-8.3-1.1c-0.2-0.3-0.1-1.2,0-1.3C137.6,255.6,140,257.6,142.8,258.4z"/>
	<path fill="#A4997C" d="M585.8,513.9c4.9-1.9,9.8-0.6,14.8-0.6c0.9,0,0.7,0.9,0.3,1.5C595.8,514.8,590.7,515.9,585.8,513.9z"/>
	<path fill="#BD9C40" d="M359.8,673c-0.9,0-1.8,0-2.6,0c1-4.1,1.9-8.3,2.9-12.4c0.3,1.4,0.7,2.8,1,4.1
		C361.1,667.6,360.9,670.4,359.8,673z"/>
	<path fill="#293959" d="M305.9,220.1c0.1-14.3,0.1-14.3,14.6-14c0.5,0,1,0,1.5,0c0.5,0.3,1,0.5,1.6,0.8c-3.8,0-7.6,0.1-11.5-0.1
		c-3.6-0.2-5.1,1.4-5.1,5C306.9,214.6,307.5,217.5,305.9,220.1z"/>
	<path fill="#C39F38" d="M456.1,629c0-3.4-0.8-6.8,0.6-10.1C460.3,621.7,459.9,627.4,456.1,629z"/>
	<path fill="#898D95" d="M551.1,423c1.1-0.1,2.3-0.2,3.4-0.1c8.1,0.1,8.1,0.1,8.5-7.8c0.6,3.2,2.6,7.1-0.2,9.3
		c-2.5,2-6.3,0.9-9.4-0.6C552.8,423.4,551.9,423.3,551.1,423z"/>
	<path fill="#293959" d="M344.2,149.2c-0.3-2.1,0.5-4.3-1.1-6.2c0-3.9,0-7.8,0-11.7C346.4,137.1,345.2,143.1,344.2,149.2z"/>
	<path fill="#A8955B" d="M485.2,717c-0.1,0.3,0,0.7,0,1c-0.2,1.4-0.4,2.9-0.7,5.5c-1.7-3.3-1.3-9.1-6.5-4.5c0.2-1.3,0.3-2.6,0.5-3.8
		C480.7,715.9,483.8,713.5,485.2,717z"/>
	<path fill="#A4997C" d="M215.3,472.4c0-0.4,0-0.7-0.1-1.1c1.3-4.7,5.6-5.9,9.2-8.1C221.9,466.9,218.6,469.7,215.3,472.4z"/>
	<path fill="#898D95" d="M626.6,455.9c-1.1,1.3-2.6,1.2-4.1,1.2c-8.4,0-16.8-0.1-25.2-0.2c0.3-0.3,0.6-0.5,0.9-0.8
		C607.7,456.1,617.2,456,626.6,455.9z"/>
	<path fill="#293959" d="M626.6,455.9c-9.5,0.1-18.9,0.2-28.4,0.3c1.4-1.7,3.3-1.2,5.1-1.2c8.1-0.1,16.1,0,24.2,0
		C627.2,455.3,626.9,455.6,626.6,455.9z"/>
	<path fill="#898D95" d="M155.9,492.2c2.6-3.5,6.3-5.2,10.2-6.5C162.9,488.1,160.4,491.6,155.9,492.2
		C155.9,492.1,155.9,492.2,155.9,492.2z"/>
	<path fill="#293959" d="M46.5,391c-5.8,1.6-11.7,2.6-17.7,1.8C34.4,389.4,40.6,391.3,46.5,391z"/>
	<path fill="#293959" d="M249.3,340.9c-4.3-0.5-8.9,1.7-12.7-1.8c-0.1-0.1-0.2-0.4-0.1-0.4c0.2-0.2,0.5-0.3,0.7-0.5
		C241.1,339.8,245.8,337.4,249.3,340.9z"/>
	<path fill="#898D95" d="M257.1,551.3c-0.4-0.2-0.7-0.4-1.1-0.5c2.3-3.4,4.6-6.8,7-10.2C261.7,544.6,260,548.3,257.1,551.3z"/>
	<path fill="#C09E3C" d="M433.1,659c0-0.7,0-1.3,0-2c1.3-0.3,2.6-0.6,3.9-0.9c0.8-0.4,1.5-0.7,2.3-1.1c2.3,2.1,2.2,4.2-0.3,6
		c-0.7-0.4-1.4-0.8-2-1.2C435.6,659.6,434.3,659.3,433.1,659z"/>
	<path fill="#293959" d="M462.8,304.8c-4.2,0-8.3,0-12.5,0C453.4,302.2,460.9,302.2,462.8,304.8z"/>
	<path fill="#A8955B" d="M454.2,133.8c0.9,0.2,1.7,0.4,2.6,0.6c-0.8,2.8-1.7,5.6-2.5,8.4C452.8,139.7,452.9,136.8,454.2,133.8z"/>
	<path fill="#A4997C" d="M504,759.2c2.7-1.1,4-0.3,4.1,2.7c0.1,3.8-2.1,3.9-4.9,3.2C503.8,763.1,505,761.3,504,759.2z"/>
	<path fill="#64749A" d="M444.9,504.1c0,6.7,0,13.3,0,20c-0.9-0.8-1.8-1.1-3-0.6c-0.9-1.3-1-2.7-0.8-4.2c0.2,0.1,0.5,0.3,0.7,0.4
		c2.2,1.9,2-0.2,2-1.3c0.1-4.3,0.2-8.6,0.2-12.8C444.4,505,444.6,504.5,444.9,504.1z"/>
	<path fill="#C39F38" d="M586,653c0.7,1,1.3,2,2,2.9c-0.6,2.6,2,7.1-2,7.4c-2.2,0.1-0.6-4.8-1-7.4C584.8,655,584.4,653.6,586,653z"
		/>
	<path fill="#64749A" d="M346.1,419.1c-2.1-4-0.6-8.4-1.2-12.5c-0.4-3.2,0.9-6.6-1-9.6c0-1,0.7-1.4,1.5-1.7c0.2,2.3,0.3,4.5,0.5,6.7
		C346,407.7,346.1,413.4,346.1,419.1z"/>
	<path fill="#898D95" d="M360.9,491.1c0.5,6.4,0,12.7-0.3,19.5c-0.6-1.2-1-2-1.4-2.9C359.8,502.2,360.4,496.7,360.9,491.1z"/>
	<path fill="#B7994B" d="M504,759.2c1,2.1-0.2,4-0.8,5.9c-0.4,1.1,0.4,2.7-2,4c0-3.3-0.2-6.2,0.1-9
		C501.3,758.2,502.6,758.1,504,759.2z"/>
	<path fill="#293959" d="M401.4,618.1c-0.3-1.7,0-3.7,2-3.7c1.4,0,1.4,2,1.4,3.3c0.2,3.9,1,7.8-0.5,11.7c-0.1-2.8-0.2-5.6-0.1-8.3
		C404.2,619,403.6,617.9,401.4,618.1z"/>
	<path fill="#293959" d="M411.1,611.6c-2-0.1-3.1,0.8-3.1,2.9c0,4.3,0.2,8.6-0.1,12.9c-0.2,2.7,2,2.6,3.2,3.6
		c-2.9,0.1-4.2-1.3-4.2-4.1c0-3.9-0.1-7.9,0-11.8C407.1,612.6,407.6,610.2,411.1,611.6z"/>
	<path fill="#898D95" d="M361.1,664.8c-0.3-1.4-0.7-2.8-1-4.1c0.5-2.8,1-5.7,1.6-8.5C362.6,656.5,361.9,660.6,361.1,664.8z"/>
	<path fill="#898D95" d="M366.3,274.2c7.7-1.6,15.4-2.8,22.9,0.6c-0.7,0.1-1.4,0.1-2.1,0.2c-1.3-1.5-3-1-4.6-1
		C377.1,274,371.7,274.1,366.3,274.2z"/>
	<path fill="#A4997C" d="M580.8,662.9c-1.1,1.6-2.7,1.2-3.2,0c-1.2-3-0.8-6.2-0.2-9.3c0.2-1.1,2-2.4,3.4-0.5
		C578.2,656.3,578,659.6,580.8,662.9z"/>
	<path fill="#898D95" d="M103.8,386.9c4.3-1.1,8.6-1.2,13.1-0.4c-3.2,0.9-6,3-9.5,2.4C106.7,387.1,105.1,387.3,103.8,386.9z"/>
	<path fill="#A4997C" d="M460.1,663.1c-0.9,0.6-1.8,1.5-2.8,1.7c-1.3,0.3-3.2,0.8-3.9-0.7c-0.9-1.9,1.1-1.7,2.1-2.3
		c1.2-0.6,1.6-1.6,0.5-2.7C459,658.6,458.6,661.9,460.1,663.1z"/>
	<path fill="#898D95" d="M281.1,103.2c0.8,3.7,1.6,7.4,2.6,12.3c-3-3.6-2.8-7.2-4.3-10.2C280.5,105,280.7,104.1,281.1,103.2z"/>
	<path fill="#293959" d="M445.9,619.3c0,0.5,0,0.9,0,1.4c-1.2,1.9-0.9,4.2-1.1,6.3c-0.1,1.1,0.6,3-1.7,2.8c0.1-3.2,0.1-6.5,0.2-9.7
		C444.1,619.9,445,619.6,445.9,619.3z"/>
	<path fill="#A4997C" d="M141.4,171.6c2.6,2.3,5.2,4.6,7.8,6.9c-0.3,0.4-0.7,0.8-1,1.2c-1.9-3.3-6.4-3.4-7.9-7.1
		C140.7,172.3,141.1,171.9,141.4,171.6z"/>
	<path fill="#293959" d="M402.9,406.1c0.5,0.3,1,0.6,1.5,0.9c-8.5-0.3-17,0.9-25.4-0.8C387,406.1,395,406.1,402.9,406.1z"/>
	<path fill="#A4997C" d="M612.6,287.9c0.4,0.4,0.9,0.8,1.3,1.2c-2.9,2-6.1,3-9.5,3.6C606.8,290.4,609.4,288.6,612.6,287.9z"/>
	<path fill="#898D95" d="M348.1,338.9c2.1-7.3,0.1-14.7,1-22c0.3,1,0.6,2,0.9,3c0,6.9,0,13.7-0.1,20.6
		C349,340.4,348.4,339.8,348.1,338.9z"/>
	<path fill="#A4997C" d="M562.5,522.7c-2.1,1.8-1.2,4.3-1.6,6.5c-0.3,2,0.9,4.4-1.5,5.9c0-4.8,1.1-9.7-0.5-14.4
		c0.2-0.7,0-2.4,1.5-1.1C561.4,520.4,561.9,521.7,562.5,522.7z"/>
	<path fill="#898D95" d="M544.9,662.9c-0.2,0.3-0.4,0.7-0.5,0.7c-4.1,0-3.4-3.1-3.3-5.5c0.1-2.3-1.4-5.6,2.9-5.8
		c0.3,0,0.6,0.6,1,0.9C542.1,656,542.1,659.9,544.9,662.9z"/>
	<path fill="#293959" d="M593,663.9c3.9-2.3,1-6.2,2.2-9.2c3.9,2,1.4,5.3,1.4,7.9C596.6,664.2,595,665.5,593,663.9z"/>
	<path fill="#898D95" d="M658.8,566.1c-3.3-1.2-5.4-3.9-7.9-6.2c3.3,1.1,6.2,2.8,8.8,4.9C659.4,565.3,659.1,565.7,658.8,566.1z"/>
	<path fill="#64749A" d="M402.9,406.1c-8,0-15.9,0-23.9,0c0.2-1.1,0.8-1.7,1.8-2.2c2.8,2.3,6,0.6,9,1.1
		C394.1,405.6,398.7,403.9,402.9,406.1z"/>
	<path fill="#293959" d="M623.9,364.4c-8-0.2-16-0.3-24-0.5C607.9,362.4,615.9,362.3,623.9,364.4z"/>
	<path fill="#293959" d="M287.4,276.8c4.2-1.7,8.5-0.5,12.7-0.8c1.7-0.1,3.4,0.3,3.4-2.2c1.2,2.5,0.8,3.2-2.5,3.3
		C296.5,277.1,291.9,276.9,287.4,276.8z"/>
	<path fill="#898D95" d="M549.1,662.8c0.5-0.2,1.2-0.2,1.3-0.5c1.6-3.2,0.7-13.1-1.3-15.2c0.2-1.6,1.4-1.7,2.6-2
		c1.1,6,0,12.1,0.6,18.1C551.1,663.9,549.9,664.7,549.1,662.8z"/>
	<path fill="#293959" d="M341,81.2c-0.3-2.1-0.5-4.2-0.8-6.3c-0.1-5.7-0.2-11.4-0.4-17.1C342.1,65.6,340.9,73.4,341,81.2z"/>
	<path fill="#C29E3A" d="M103.8,386.9c1.3,0.4,3,0.2,3.5,2c-3.3,0.4-6.7,0.7-10,1.1c-0.5-0.7-1-1.3-1.5-2
		C98.3,386.2,101.1,387.4,103.8,386.9z"/>
	<path fill="#898D95" d="M608.9,256c0.3,0.3,0.6,0.7,0.9,1c-2.8,2.1-5.6,4.2-8.4,6.3c-0.3-0.3-0.5-0.7-0.8-1
		C603.4,260.2,606.2,258.1,608.9,256z"/>
	<path fill="#A8955B" d="M524.7,715.5c6.4-0.8,6.9-0.2,5.8,6.8c-3.1-0.5,0.5-6.4-4.2-5.4C525.8,716.5,525.3,716,524.7,715.5z"/>
	<path fill="#898D95" d="M364.2,445.7c-2.7,2.3-5.9,0.8-8.9,1.3c-1.7,0.3-3.7-0.4-4.8,1.6c-2-0.2-2.2-0.7-1-2.7
		C354.4,445.9,359.3,445.8,364.2,445.7z"/>
	<path fill="#293959" d="M313.1,221c1.6,7.7,1.5,15.3,0,23C313.1,236.3,313.1,228.7,313.1,221z"/>
	<path fill="#B7994B" d="M281.1,103.2c-0.3,0.9-0.6,1.8-1.6,2.1c-0.8-2.8-1.5-5.5-2.3-8.3c0.9,0,1.8,0,2.8,0
		C280.2,99.1,281.4,101,281.1,103.2z"/>
	<path fill="#64749A" d="M285.7,682c-0.4,3.4-1,6.6-3.2,9.3C282.5,687.8,283.6,684.6,285.7,682z"/>
	<path fill="#64749A" d="M668,600.9c-0.3,0.3-0.7,0.6-1,0.9c-3.4-2.5-6.3-5.5-8.9-8.8l0,0C662.2,594.6,664.9,597.9,668,600.9z"/>
	<path fill="#898D95" d="M339.8,57.8c0.1,5.7,0.2,11.4,0.4,17.1c-2.3-6.8-0.9-13.8-1.1-20.7C339.3,55.4,339.6,56.6,339.8,57.8z"/>
	<path fill="#293959" d="M366.3,274.2c5.4-0.1,10.8-0.2,16.2-0.2c1.6,0,3.3-0.4,4.6,1c-7.8,0-15.6-0.1-23.4-0.1
		C364.5,274.7,365.4,274.5,366.3,274.2z"/>
	<path fill="#293959" d="M395.6,70c7,0,13.9,0,20.9,0C409.5,71.5,402.6,71.6,395.6,70z"/>
	<path fill="#293959" d="M386.8,367c0.3,0,0.7,0.1,1,0.1c0,6.6,0,13.2,0,19.8c-0.3,0.9-0.5,1.8-0.8,2.7
		C387,382,386.9,374.5,386.8,367z"/>
	<path fill="#293959" d="M346.1,419.1c-0.1-5.7-0.1-11.4-0.2-17.1c1.8,7,1.1,14.1,1,21.2C346.7,421.8,346.4,420.5,346.1,419.1z"/>
	<path fill="#A8955B" d="M658.8,566.1c0.3-0.4,0.6-0.8,0.9-1.2c2.3,1.1,4.6,2.2,6.5,4c-0.4,0.6-0.9,1.2-1.3,1.8
		C662.9,569.2,660.9,567.7,658.8,566.1z"/>
	<path fill="#293959" d="M349.9,340.6c0-6.9,0-13.7,0.1-20.6C351.5,326.8,351.9,333.7,349.9,340.6z"/>
	<path fill="#A4997C" d="M509.3,661.1c1.1,1,2.2,1.9,3.8,1.4c-2.9,1.9-5.9,4.4-9.1,0.5c0.7-0.3,1.5-0.7,2.2-1
		C507.2,661.7,508.2,661.4,509.3,661.1z"/>
	<path fill="#A4997C" d="M243.6,164.1c0.5-0.7,0.9-1.5,1.4-2.2c0.8,2.9,1.6,5.9,2.7,9.9C244.3,169.2,245.1,166.1,243.6,164.1z"/>
	<path fill="#293959" d="M3.5,383c6.7-1.3,13.5-0.9,20.3-0.9C17.1,383.8,10.2,383,3.5,383z"/>
	<path fill="#293959" d="M325.8,429c0.8-0.3,1.6-0.5,2.4-0.8c6.2-0.1,12.5-0.1,18.7-0.2C340,430,332.9,428.7,325.8,429z"/>
	<path fill="#898D95" d="M557,645.8c0,4.4-0.1,8.8-0.1,13.2c0,1.5-0.5,3.5,1.9,3.8c-0.8,2.6-2,1.6-3.2,0.4c0-2-0.1-4,0.2-5.9
		C556.3,653.5,554.7,649.4,557,645.8z"/>
	<path fill="#293959" d="M557,645.8c-2.4,3.6-0.7,7.6-1.1,11.5c-0.2,2-0.1,4-0.2,5.9c-1.6-5-0.7-10.2-0.6-15.3
		c0.1-2.1,1.3-3.4,3.7-2.6C558.2,645.5,557.6,645.7,557,645.8z"/>
	<path fill="#C39F38" d="M544.9,662.9c-2.8-2.9-2.8-6.9,0-9.7C544.9,656.4,544.9,659.7,544.9,662.9z"/>
	<path fill="#C39F38" d="M401.2,628.9c0-3.3,0.1-6.6,0.1-9.9C404,622.4,404.3,625.7,401.2,628.9z"/>
	<path fill="#A8955B" d="M542.7,722.1c-2.3,2-3.9,0.4-5.2-1.2c-0.9-1.1-1.3-3.2,0.3-3.7c1.9-0.7,1.1,1.4,1.2,2.3
		C539.3,721.8,542.1,720.2,542.7,722.1z"/>
	<path fill="#64749A" d="M481.8,663.9c2.2-2.8,1-6,1.1-9.1c0-1.6-1.2-1.7-2.4-1.8c-1.6-0.1-3.3-0.2-4.9-0.3c3-1.2,6.9-1.9,8,1.4
		C484.5,657,486.5,661.5,481.8,663.9z"/>
	<path fill="#898D95" d="M524.7,715.5c0.5,0.5,1,1,1.5,1.5c-0.2,1.6-0.3,3.3-0.5,5C521.3,719.6,521.3,719.6,524.7,715.5z"/>
	<path fill="#B7994B" d="M649.2,366.7c-4.8,0.4-9.6,0.6-14.1-1.5c4.6-0.7,9.2,0.5,13.7,0.9C649,366.3,649.1,366.5,649.2,366.7z"/>
	<path fill="#898D95" d="M346.9,428c-6.3,0.1-12.5,0.1-18.7,0.2c6.1-2.6,12.4-0.7,18.6-1.1C346.9,427.4,347,427.7,346.9,428z"/>
	<path fill="#293959" d="M405,371.3c-0.3-2-0.5-4-0.8-5.9c-0.1-4.6-0.2-9.2-0.2-13.8C405.8,358.1,405,364.7,405,371.3z"/>
	<path fill="#C09E3C" d="M580.8,662.9c-2.8-3.3-2.6-6.5,0-9.8C580.8,656.3,580.8,659.6,580.8,662.9z"/>
	<path fill="#293959" d="M500.1,385c-0.1,1.4-0.2,2.8-0.3,4.2c-1.5-6.6-1.2-13.1,0.1-19.6C500,374.7,500.1,379.8,500.1,385z"/>
	<path fill="#293959" d="M540.9,571.6c-0.3-0.2-0.6-0.5-0.9-0.7c-0.1-5.3-0.1-10.6-0.2-15.9c-0.6-1.1-0.4-2.2,0.3-3.2
		C541.9,558.3,540.1,565,540.9,571.6z"/>
	<path fill="#293959" d="M518.2,299c-1,0.3-1.9,0.5-2.8,0.8c-5.3,0.1-10.5,0.1-15.8,0.2C505.7,298.2,511.9,299.1,518.2,299z"/>
	<path fill="#898D95" d="M271.1,307.9c0-6.3,0-12.5,0-18.8c0.3,0.2,0.5,0.5,0.8,0.7c0,5.5,0,11.1,0,16.6
		C271.6,306.8,271.3,307.3,271.1,307.9z"/>
	<path fill="#64749A" d="M500.1,385c0-5.1-0.1-10.3-0.1-15.4c0.3-1.2,0.6-2.4,0.9-3.6C500.8,372.2,501.8,378.7,500.1,385z"/>
	<path fill="#293959" d="M519.8,367c1.1-0.3,2.2-0.7,3.3-1c5.2,0,10.4,0.1,15.7,0.1c0.3,0.3,0.5,0.6,0.8,0.9
		C533,367,526.4,367,519.8,367z"/>
	<path fill="#293959" d="M345.4,395.2c-0.8,0.4-1.5,0.8-1.5,1.7c-0.3,0.3-0.6,0.6-1,0.9c-0.3-1-0.6-1.9-1-2.9
		c5.4-1.7,10.8-1.3,16.2,0C354,395.1,349.7,395.2,345.4,395.2z"/>
	<path fill="#898D95" d="M69.9,370.9c-5.6,0.1-11.2,0.8-16.7-0.9C58.8,369.9,64.4,369.8,69.9,370.9z"/>
	<path fill="#293959" d="M69.4,379c6.5-1.4,13-1,19.6-0.8C82.5,379.5,76,379.2,69.4,379z"/>
	<path fill="#A4997C" d="M246,219.1c0.4-0.5,0.7-1.1,1.1-1.6c1.9,2.7,2.6,5.9,3.4,9C248.2,224.5,247.1,221.8,246,219.1z"/>
	<path fill="#898D95" d="M401.2,628.9c3.1-3.3,2.8-6.6,0.1-9.9c0-0.3,0-0.6,0.2-0.9c2.2-0.2,2.8,1,2.8,2.9c0,2.8,0.1,5.5,0.1,8.3
		c-0.4,0.9-0.9,1.8-2.2,1.5C401.1,630.6,401.1,629.7,401.2,628.9z"/>
	<path fill="#898D95" d="M499.5,300c5.3-0.1,10.5-0.1,15.8-0.2c-5.2,2.5-10.8,0.7-16.1,1.3C499.3,300.7,499.4,300.4,499.5,300z"/>
	<path fill="#293959" d="M364.2,445.7c-4.9,0.1-9.8,0.2-14.7,0.3c5.8-1.9,11.8-1,17.7-0.9C366.2,445.3,365.2,445.5,364.2,445.7z"/>
	<path fill="#898D95" d="M400.2,577.9c-5.1,0-10.1,0-15.2,0c0-0.3,0-0.5,0-0.8c6,0,12,0,18,0C402.2,577.3,401.2,577.6,400.2,577.9z"
		/>
	<path fill="#133F94" d="M414.9,34.3c-5.9-0.4-11.9-0.4-17.8,0.1C403,32.1,408.9,32.2,414.9,34.3z"/>
	<path fill="#293959" d="M444.1,505.5c-0.1,4.3-0.1,8.6-0.2,12.8c0,1.1,0.2,3.2-2,1.3c1.8-2.8,0.9-6,1.1-9
		C443.2,508.8,442.9,507,444.1,505.5z"/>
	<path fill="#A4997C" d="M95.8,388c0.5,0.7,1,1.3,1.5,2c-0.9,1.2-2,1.1-3.2,0.7c-2-0.9-4.1-1.7-6.1-2.6
		C90.5,388.1,93.2,388.1,95.8,388z"/>
	<path fill="#293959" d="M384.2,237.2c0.2-1.2,0.5-2.4,0.7-3.5c0,6,1.1,12-0.9,17.9C384.1,246.8,384.2,242,384.2,237.2z"/>
	<path fill="#C29E3A" d="M460.1,663.1c-1.5-1.2-1.1-4.4-4.2-4c-0.3-0.1-0.7-0.2-1-0.3c0.5-1,1.3-1.5,2.3-1.8
		C460.6,657.9,462.4,659.5,460.1,663.1z"/>
	<path fill="#898D95" d="M456.1,629c3.8-1.6,4.2-7.3,0.6-10.1c0.2-0.3,0.4-0.6,0.6-0.9c2.2-0.2,2.7,1.1,2.7,3c0,2.6,0.1,5.2,0.1,7.8
		C458.8,629.9,457.6,632,456.1,629z"/>
	<path fill="#64749A" d="M404,351.6c0.1,4.6,0.2,9.2,0.2,13.8c-2.1-5.4-0.9-11-1.1-16.5C403.4,349.8,403.7,350.7,404,351.6z"/>
	<path fill="#898D95" d="M384.2,237.2c-0.1,4.8-0.1,9.6-0.2,14.3c-0.7,0.3-1.3,0-1.7-0.6c1.1-3.1,0.4-6.4,0.9-9.6
		C383.4,240,382.2,238.1,384.2,237.2z"/>
	<path fill="#293959" d="M271.9,306.3c0-5.5,0-11.1,0-16.6C273.8,295.3,273.9,300.8,271.9,306.3z"/>
	<path fill="#293959" d="M552.2,663.2c-0.6-6,0.5-12.1-0.6-18.1C554.3,651,553.2,657.1,552.2,663.2z"/>
	<path fill="#898D95" d="M649.2,366.7c-0.1-0.2-0.2-0.4-0.4-0.6c2.3-0.1,4.6-0.2,6.9-0.3c3.7,0.6,7.6-0.7,11.2,1.1
		C661.1,366.8,655.2,366.8,649.2,366.7z"/>
	<path fill="#293959" d="M460.1,628.8c0-2.6-0.2-5.2-0.1-7.8c0-1.9-0.5-3.2-2.7-3c1.8-1.6,3-1.3,3.4,1.1
		C461.2,622.3,461.7,625.7,460.1,628.8z"/>
	<path fill="#293959" d="M445.1,528.5c0.7,0.7,1,1.5,0.9,2.5c-0.5,2.4-1,4.8-1.7,8.2C443.9,534.9,444,531.7,445.1,528.5z"/>
	<path fill="#293959" d="M506,711c-0.3,4-0.9,8,0.5,12c-1.4-0.4-1.8-1.6-2.5-2.7c0-0.8,0-1.6,0-2.3C505.3,715.8,504,712.9,506,711z"
		/>
	<path fill="#A8955B" d="M534.1,715.6c1.2,2.2,1.3,4.4,0.1,7.7C532.7,720.1,532.8,717.9,534.1,715.6z"/>
	<path fill="#898D95" d="M325.8,207.6c2.4-3.1,0.4-7.1,2.2-10.3c0,3.1,0,6.2-0.1,9.3C327.8,207.6,327.7,209.9,325.8,207.6z"/>
	<path fill="#293959" d="M559,520.8c1.6,4.8,0.5,9.6,0.5,14.4c-0.2,0.6-0.3,1.3-0.5,1.9C559,531.6,559,526.2,559,520.8z"/>
	<path fill="#B7994B" d="M433.1,659c1.3,0.3,2.6,0.6,3.8,0.9c-1.8,0.7-1.9,3.9-4.6,3.2c0.1-0.7,0.2-1.5,0.3-2.2
		C432.7,660.3,432.9,659.6,433.1,659z"/>
	<path fill="#293959" d="M478.5,715.1c-0.2,1.3-0.3,2.6-0.5,3.8c-0.2,0.8-0.3,2-0.7,2.2c-1,0.4-1.2-0.7-1.3-1.5
		C475.8,717.5,476.8,716.1,478.5,715.1z"/>
	<path fill="#B7994B" d="M437,656.1c-1.3,0.3-2.6,0.6-3.9,0.9c-0.4-0.7-0.7-1.3-1.1-2c0.3-0.6,0.7-1.3,1-1.9
		C435.3,652.7,434.5,656.6,437,656.1z"/>
	<path fill="#BD9C40" d="M346.8,627.1c0.8-0.2,1.5-0.4,2.3-0.5c1.3,0.4,2.7,1.2,1.8,2.6c-1.1,1.9-2.4-0.6-3.7-0.3
		C347.1,628.3,347,627.7,346.8,627.1z"/>
	<path fill="#C09E3C" d="M432.5,660.9c-0.1,0.7-0.2,1.5-0.3,2.2c-0.4,0.3-0.8,0.7-1.2,1C428.2,661.5,431.2,661.6,432.5,660.9z"/>
	<path fill="#A8955B" d="M492.5,759.3c-0.3,1.6-0.6,3.2-1,5.5C490.8,762.3,490.7,760.7,492.5,759.3z"/>
	<path fill="#A8955B" d="M670,571c-1.4,0-2.4-0.5-2.9-1.9C668,569.8,669,570.4,670,571z"/>
	<path fill="#133F94" d="M365,618c-0.4,0.9-1.2,0.8-2,0.9C363.4,618,364.1,617.6,365,618z"/>
	<path fill="#C39F38" d="M420.1,655.1c-0.4-0.6-0.8-1.3-1.1-1.9c0.8-0.3,1.5-0.5,1.9,0.4C421.2,654.4,420.8,654.8,420.1,655.1z"/>
	<path fill="#64749A" d="M658,593C658,593,658,593,658,593C658,593,658,593,658,593z"/>
	<path fill="#0E4099" d="M233.9,352.8c7.9,0.6,13,5.6,14.5,16.1c2,13.3-0.1,26.1-7.8,37.4c-3.6,5.3-8.9,8.2-15.4,8.5
		c-4.5,0.2-9,0.4-13.4,0.7c-2.2,0.1-3.7,0-3.9-3c-0.9-11.2-1.1-22.5-0.9-33.8c0.1-8.6,0.9-17.1,2.1-25.6c6.6-0.3,13.1-0.6,19.7-0.9
		C230.4,352.9,232.1,353.2,233.9,352.8z"/>
	<path fill="#0E4099" d="M200.9,316.6c0-5.3-0.1-10.7,0-16c0-1.3-0.7-3.1,1.6-3.6c7.5-1.9,14.8-4.7,22.7-4.9
		c8.4-0.2,12.3,3.3,13.8,11.6c2.8,15.9-3.4,25.3-19.1,29.3c-4.3,1.1-8.6,2.3-12.9,3.5c-3.4,0.9-5.9,0.8-5.6-3.9
		c0.3-5.3,0.1-10.7,0.1-16C201.2,316.6,201,316.6,200.9,316.6z"/>
	<path fill="#64749A" d="M179.9,411.8c0.1-27.7,0.2-55.4,0.3-83c0.2,0.2,0.5,0.3,0.8,0.5c0,25.8,0,51.6,0,77.4
		C180.9,408.4,181.4,410.3,179.9,411.8z"/>
	<path fill="#898D95" d="M180.9,329.3c-0.3-0.1-0.5-0.3-0.8-0.5c0-7.8-0.1-15.6-0.1-23.4C181.9,313.3,180.8,321.3,180.9,329.3z"/>
	<path fill="#64749A" d="M233.9,352.8c-1.8,0.4-3.5,0-5.2-0.4c-4.2-1.3-8.6,0-12.8-0.6c5.6-1.8,11.4-0.8,17.1-0.5
		C233.7,351.3,233.9,352.1,233.9,352.8z"/>
	<path fill="#293959" d="M215.9,351.8c4.3,0.6,8.6-0.6,12.8,0.6c-6.6,0.3-13.1,0.6-19.7,0.9C210.9,350.7,213.7,352.7,215.9,351.8z"
		/>
	<path fill="#0E4099" d="M419,542.3c-0.8,11.5-7.7,17.5-20.5,17.7c-5,0.1-10-0.1-15-0.1c-0.2-7-0.4-14-0.5-20.9
		c-1.9-3.2-0.4-6.7-1.1-10c1.7-4.5,1.1-9.2,1.1-13.7c0-3.1,1.2-4.7,4-5.2c8.4-1.5,16.9-2.2,24.9,1.4c4.5,2.1,7.1,6.2,7.1,11.5
		C419,529.4,419,535.8,419,542.3z"/>
	<path fill="#0E4099" d="M391.6,456.1c4.8,0.1,9.5-1.1,14.3-1.3c12.7-0.6,17.1,8.3,14.8,19.4c-0.8,3.8-2.8,7.4-4.7,10.8
		c-3.8,6.9-10.9,7-17.4,7.9c-4.6,0.6-9.2-0.2-13.8,1.1c-2.8,0.8-4.2-1.5-3.4-4c2.8-8.6,1.2-17.5,1.9-26.2
		C383.8,456.5,384.1,456,391.6,456.1z"/>
	<path fill="#A4997C" d="M385.1,577.1c0,0.3,0,0.5,0,0.8c-10.9,0.8-21.8,0.5-32.8,0.5c0.7-1.7,2.2-1.3,3.4-1.3
		C365.5,577.1,375.3,577.1,385.1,577.1z"/>
	<path fill="#A4997C" d="M381.9,528.9c0.7,3.3-0.8,6.9,1.1,10c-2,6.7-0.2,13.7-1,20.5c-1.9-1.1-1.1-3-1-4.4
		C381.2,546.3,380.3,537.6,381.9,528.9z"/>
	<path fill="#293959" d="M382,559.4c0.8-6.8-1-13.7,1-20.5c0.2,7,0.4,14,0.5,20.9C383,559.7,382.5,559.6,382,559.4z"/>
	<path fill="#293959" d="M419,542.3c0-6.5,0-12.9,0-19.4c0.3,0.7,0.5,1.5,0.8,2.2c0,4.7,0,9.5,0.1,14.3
		C419.6,540.4,419.3,541.3,419,542.3z"/>
	<path fill="#898D95" d="M419.9,539.4c0-4.8,0-9.5-0.1-14.3C421.8,529.9,421.7,534.6,419.9,539.4z"/>
	<path fill="#64749A" d="M502.1,343c-0.1-8.3-0.2-16.5-0.3-24.8C503.9,326.5,503.5,334.7,502.1,343z"/>
	<path fill="#64749A" d="M538.8,366.1c-5.2,0-10.4-0.1-15.7-0.1C528.3,364.5,533.6,364.1,538.8,366.1z"/>
	<path fill="#133F94" d="M384.6,313.2c2,11.5,7.8,21.6,8.5,32.9c0.5,6.8,0.4,6.8-6.2,6.8c-3.8,0-7.7,0.1-11.5,0.4
		c-4.1,0.3-5.5-1.2-4.3-5.1c3-9.2,6.1-18.5,9.2-27.7C381.2,318.1,380.9,315.1,384.6,313.2z"/>
	<path fill="#64749A" d="M387.8,386.9c0-6.6,0-13.2,0-19.8C390,373.7,389.4,380.3,387.8,386.9z"/>
	<path fill="#64749A" d="M539.9,555c0.1,5.3,0.1,10.6,0.2,15.9C538.2,565.6,538.4,560.3,539.9,555z"/>
	<path fill="#0E4099" d="M497,500.4c0.4,8.3-0.2,16.5-2.1,24.6c-1.5,6.6-5.6,11.5-11.7,13.8c-5.7,2.2-11.6,2.1-16.4-3
		c-2-2.1-3.5-4.5-3.6-7.4c-0.2-14.9,0.3-29.8,5.8-43.9c2.6-6.6,8.6-10,15.9-8.4c8.2,1.8,12.7,6.8,12.1,13.3
		C496.7,493,497,496.7,497,500.4z"/>
	<path fill="#A4997C" d="M357.4,245.7c0.1-11.7,0.1-23.5,0.2-35.2c1.6,0.4,1.3,1.8,1.3,2.9c0,10-0.1,19.9-0.2,29.9
		C358.7,244.2,358.6,245.3,357.4,245.7z"/>
	<path fill="#133F94" d="M374,43c4.8-1,8.8-4.2,13.7-5.1c2.3-0.4,4.4-1.1,6.8-0.9c3.6,0.9,8.3-2.5,10.7,2.9
		c-0.7,3.6-5.3,4.8-5.5,9.2c5-1.1,10-1.6,15.6,0c-1.5-3.6-3.4-5.8-5.9-7.3c0-2,0-3.9,0-5.9c0.7,0,1.4,0,2.1,0
		c2.1,1.3,4.5,0.8,6.9,0.9c6.5,0.4,12.4,2.5,17.8,5.8c9.4,5.6,9.3,13.6-0.1,19.3c-7.3,4.4-15.5,5.9-23.8,6.7
		c-10.8,1.1-21.3-0.5-31.3-4.5c-2.1-0.8-4.2-2-6.1-3.4c-6.7-4.7-7.2-9.1-2.1-15.4C373.2,44.7,374.1,44.1,374,43
		C374,43,374,43,374,43z M422.4,56.9c1.6,0.1,3.3,0.2,4.9,0.1c0.9,0,2-1,1.4-1.5c-4.6-3.4,2.2-6,0.3-8.7c-0.9,1.1-2.9,1.5-4.2,3
		c-1.5,1.8-4.4,1-6.1,0.4c-2.6-1-2.4-1.5-3.8,0.5c-7.3,0.3-14.5,1.4-21.7-0.7c1.7-2.5,0.5-3.5-1.9-3.9c1.4,0,3.4,0.4,3.3-1.5
		c-0.1-1.8-2.2-1.7-3.7-1.6c-4.1,0.5-10.7,6.4-11.7,10.6c-0.9,3.5,1.2,5.7,4.9,5.5c2-0.1,3.3-1.3,4.9-2.3c3,0.6,7-1.5,8.4,3.3
		c2.8,5.8,7.6,1.8,11.4,2.2c2.6,0.3,5.5,2.4,8.1-0.1c4,4,3.5-0.5,4.5-2.4C421.7,59,422.1,57.9,422.4,56.9z"/>
	<path fill="#293959" d="M405.1,39.9c-2.3-5.4-7.1-2.1-10.7-2.9c4.8-1.8,9.9-0.7,14.8-1c0,2,0,3.9,0,5.9
		C407.5,42,407.4,38.5,405.1,39.9z"/>
	<path fill="#293959" d="M418.2,36.9c-2.3-0.1-4.7,0.5-6.9-0.9C413.7,36,416.1,35.7,418.2,36.9z"/>
	<path fill="#133F94" d="M369,623.8c-0.1,1.6,0.4,3.5-2.1,3.7c-2.1,0.1-3-1.4-2.9-3.2c0.1-1.6,0.6-3.3,2.8-3.4
		C369.2,620.7,369,622.3,369,623.8z"/>
	<path fill="#133F94" d="M509.3,661.1c-1,0.3-2.1,0.6-3.1,0.9c-0.8-1.1-1.2-2.2-1.2-3.6c0-2.1,0.6-3.6,3-3.6c2.7,0,1.9,2.1,2,3.6
		C509.9,659.3,510.1,660.3,509.3,661.1z"/>
	<path fill="#133F94" d="M480.7,658.1c0.4,2.2-0.6,3.6-2.9,3.5c-1.9-0.1-2.9-1.2-2.9-3.3c0.1-2.2,0.9-3.5,3.2-3.5
		C480.6,654.7,480.9,656.2,480.7,658.1z"/>
	<path fill="#133F94" d="M414.7,628.1c-1.2,0-2.3,0-3.5,0c-0.1-1-0.3-2-0.1-2.9c0.2-1.4-1-3.5,1.4-4.1c1.3-0.4,2.7-0.2,3.5,1.1
		c1.1,1.7,1.3,3.3-0.4,4.8C415.2,627.3,415,627.7,414.7,628.1z"/>
	<path fill="#B7994B" d="M397.3,60.2c-1.4-4.7-5.4-2.7-8.4-3.3c0-0.7,0-1.4,0-2.1c2.5-1.3-0.4-4.6,2.2-5.8c0.7,0.4,1.4,0.8,2.1,1.2
		c7.2,2.1,14.5,1,21.7,0.7c1,2.8,2.4,4,5.6,2.7c3.1-1.2,2.2,0.9,1.5,2.5c-4.2,2.6-8.9,0.5-13.3,1.5
		C404.4,56.2,400.3,55.8,397.3,60.2z"/>
	<path fill="#A8955B" d="M388.9,54.8c0,0.7,0,1.4,0,2.1c-1.5,1-2.9,2.2-4.9,2.3c-3.6,0.2-5.8-2-4.9-5.5c1-4.1,7.6-10.1,11.7-10.6
		c1.5-0.2,3.5-0.3,3.7,1.6c0.1,1.9-1.9,1.6-3.3,1.5c-0.1,0.2-0.2,0.5-0.3,0.7c-2.6-0.4-3.6,1.8-5,3.3c-1.6,1.7-4.3,3.8-2.4,6.1
		C385.3,58.6,386.9,54.6,388.9,54.8z"/>
	<path fill="#293959" d="M397.3,60.2c3-4.4,7.1-4,11.4-2.6c-2,2.2-0.3,2.3,1.4,2.3c3.7,0,7.5,0,11.2,0c-0.9,1.8-0.4,6.4-4.4,2.4
		c-2.6,2.4-5.5,0.4-8.1,0.1C404.9,62,400.1,66,397.3,60.2z"/>
	<path fill="#898D95" d="M405.1,39.9c2.3-1.4,2.4,2.1,4.1,1.9c2.5,1.6,4.4,3.7,5.9,7.3c-5.6-1.6-10.6-1.1-15.6,0
		C399.8,44.7,404.4,43.5,405.1,39.9z"/>
	<path fill="#A8955B" d="M422,56.1c0.8-1.6,1.7-3.7-1.5-2.5c-3.3,1.3-4.7,0.1-5.6-2.7c1.4-2,1.2-1.5,3.8-0.5
		c1.7,0.7,4.6,1.4,6.1-0.4c1.3-1.5,3.3-1.9,4.2-3c1.9,2.6-4.9,5.2-0.3,8.7c0.6,0.4-0.5,1.4-1.4,1.5c-1.6,0-3.3-0.1-4.9-0.1
		C422.3,56.6,422.2,56.4,422,56.1z"/>
	<path fill="#64749A" d="M422,56.1c0.2,0.3,0.3,0.6,0.4,0.8c-0.4,1-0.7,2-1.1,3c-3.7,0-7.5,0-11.2,0c-1.6,0-3.3-0.1-1.4-2.3
		C413.1,56.6,417.8,58.7,422,56.1z"/>
	<path fill="#A8955B" d="M393.2,50.2c-0.7-0.4-1.4-0.8-2.1-1.2c0-0.7-0.1-1.3-0.1-2c0.1-0.2,0.2-0.5,0.3-0.7
		C393.7,46.7,395,47.7,393.2,50.2z"/>
	<path fill="#133F94" d="M391,47c0,0.7,0.1,1.3,0.1,2c-2.5,1.3,0.3,4.5-2.2,5.8c-2.1-0.2-3.6,3.8-5.4,1.6c-1.9-2.4,0.8-4.4,2.4-6.1
		C387.4,48.8,388.4,46.6,391,47z"/>
</g>
</svg>
