<svg xmlns="http://www.w3.org/2000/svg" viewBox="0 0 41.1 62.1" enable-background="new 0 0 41.1 62.1"><style type="text/css">.st0{fill:#939598;} .st1{fill:#6D6E71;}</style><path class="st1" d="M14.7 31.3l12.2-5.4c3-1.4 6.1-2.7 8.4-3.6 2.3-1 3.9-1.6 3.9-1.6s-1.5.7-3.8 1.7-5.3 2.4-8.4 3.7c-6.2 2.7-12.3 5.3-12.3 5.2zm0 0l11.4-7c2.8-1.8 5.7-3.5 7.8-4.8 2.2-1.3 3.6-2.1 3.6-2.1s-1.4.9-3.5 2.2c-2.1 1.3-5 3.1-7.8 4.8-5.8 3.5-11.5 7-11.5 6.9zm0 0s5.2-4.3 10.3-8.5c2.6-2.1 5.2-4.3 7.1-5.8 2-1.6 3.3-2.6 3.3-2.6s-1.3 1.1-3.2 2.7c-1.9 1.6-4.5 3.7-7.1 5.8-5.2 4.3-10.4 8.5-10.4 8.4zm0 0s4.5-4.9 9.1-9.8c2.3-2.5 4.5-4.9 6.3-6.7 1.7-1.8 2.9-3 2.9-3s-1.1 1.3-2.8 3.1c-1.7 1.9-4 4.3-6.3 6.7-4.6 4.9-9.2 9.8-9.2 9.7zm0 0s3.8-5.5 7.7-11c1.9-2.8 3.8-5.5 5.3-7.5l2.5-3.4s-.9 1.4-2.4 3.5c-1.4 2.1-3.4 4.8-5.3 7.5-3.9 5.5-7.8 11-7.8 10.9zm0 0s3.1-6 6.1-12c1.5-3 3.1-6 4.3-8.2 1.2-2.2 2-3.7 2-3.7s-.7 1.5-1.9 3.8c-1.1 2.3-2.7 5.2-4.3 8.2-3.1 6-6.2 12-6.2 11.9zm0 0s2.2-6.3 4.5-12.7c1.1-3.2 2.2-6.3 3.1-8.7.8-2.3 1.5-3.9 1.5-3.9s-.5 1.6-1.3 4-2 5.5-3.1 8.7c-2.4 6.3-4.7 12.7-4.7 12.6zm0 0s1.4-6.6 2.7-13.2c.7-3.3 1.4-6.6 1.9-9 .6-2.5 1-4.1 1-4.1s-.3 1.7-.8 4.1c-.5 2.5-1.2 5.8-1.9 9.1-1.5 6.6-2.9 13.2-2.9 13.1zm0 .1s.5-6.7.9-13.4c.2-3.4.5-6.7.7-9.2.2-2.5.4-4.2.4-4.2s-.1 1.7-.2 4.2-.4 5.9-.7 9.2c-.6 6.6-1.1 13.4-1.1 13.4zm0 0s-.4-6.7-.9-13.4c-.2-3.4-.4-6.7-.5-9.2-.1-2.5-.2-4.2-.2-4.2s.2 1.7.3 4.2c.2 2.5.4 5.9.6 9.2.3 6.6.7 13.4.7 13.4zm0 0s-1.3-6.6-2.7-13.2c-.7-3.3-1.3-6.6-1.8-9.1-.4-2.5-.7-4.2-.7-4.2s.4 1.6.9 4.1c.5 2.5 1.2 5.8 1.8 9.1 1.2 6.6 2.5 13.2 2.5 13.3zm0 0s-2.2-6.4-4.4-12.7c-1.1-3.2-2.2-6.4-3-8.8-.8-2.4-1.3-4-1.3-4s.6 1.6 1.4 4c.9 2.4 1.9 5.6 3 8.8 2.2 6.3 4.3 12.6 4.3 12.7zm0 0s-3-6-6.1-12c-1.5-3-3-6-4.1-8.3-1.1-2.3-1.8-3.8-1.8-3.8s.8 1.5 1.9 3.7c1.2 2.2 2.7 5.2 4.1 8.3 3 6 6 12 6 12.1z"/><path d="M14 31.2s6.1-2.1 12.2-4.1c3-1 6.1-2.1 8.4-2.8 2.3-.7 3.8-1.2 3.8-1.2s-1.5.6-3.8 1.3c-2.3.8-5.3 1.8-8.4 2.8-6 2.1-12.1 4.1-12.2 4zm0 0s5.7-2.9 11.5-5.7c2.9-1.4 5.7-2.9 7.9-3.9l3.6-1.7s-1.4.8-3.6 1.8c-2.1 1.1-5 2.5-7.9 3.9-5.7 2.9-11.4 5.7-11.5 5.6zm0 0l10.6-7.2c2.6-1.8 5.3-3.6 7.3-4.9 2-1.3 3.4-2.2 3.4-2.2s-1.3.9-3.3 2.3c-2 1.4-4.6 3.2-7.3 4.9-5.3 3.6-10.6 7.2-10.7 7.1zm0 0s4.8-4.3 9.5-8.6c2.4-2.2 4.8-4.3 6.6-5.9 1.8-1.6 3-2.6 3-2.6s-1.2 1.1-2.9 2.7c-1.8 1.6-4.2 3.8-6.6 5.9-4.7 4.3-9.5 8.6-9.6 8.5zm0 0s4.1-4.9 8.3-9.8c2.1-2.5 4.1-4.9 5.7-6.7 1.6-1.8 2.7-3 2.7-3s-1 1.3-2.5 3.1c-1.5 1.9-3.6 4.3-5.7 6.7-4.2 4.9-8.4 9.8-8.5 9.7zm0 0s3.4-5.4 6.8-10.9c1.7-2.7 3.4-5.4 4.8-7.4 1.3-2 2.2-3.3 2.2-3.3s-.8 1.4-2.1 3.4c-1.3 2.1-3 4.8-4.8 7.4-3.3 5.5-6.8 10.9-6.9 10.8zm0 0s2.7-5.8 5.3-11.7c1.3-2.9 2.7-5.8 3.7-8l1.8-3.6s-.6 1.5-1.6 3.7-2.3 5.1-3.7 8c-2.7 5.8-5.4 11.7-5.5 11.6zm0 0s1.8-6.2 3.7-12.3c.9-3.1 1.8-6.2 2.6-8.4.7-2.3 1.2-3.8 1.2-3.8s-.4 1.6-1.1 3.9c-.7 2.3-1.6 5.4-2.6 8.4-1.8 6.1-3.7 12.3-3.8 12.2zm0 0s1-6.3 2-12.7c.5-3.2 1-6.3 1.4-8.7.4-2.4.7-3.9.7-3.9s-.2 1.6-.6 4c-.3 2.4-.9 5.5-1.4 8.7-1 6.3-2 12.7-2.1 12.6zm0 0l.2-12.8c.1-3.2.1-6.4.2-8.8.1-2.4.2-4 .2-4v4c0 2.4-.1 5.6-.2 8.8-.1 6.4-.3 12.8-.4 12.8zm0 0s-.8-6.4-1.5-12.7c-.4-3.2-.8-6.4-1-8.8-.2-2.4-.4-4-.4-4l.5 4c.3 2.4.7 5.6 1 8.8.8 6.4 1.5 12.7 1.4 12.7zm0 .1l-3.2-12.4c-.8-3.1-1.6-6.2-2.2-8.6-.5-2.4-.9-3.9-.9-3.9s.4 1.5 1.1 3.9c.6 2.3 1.4 5.4 2.2 8.6 1.5 6.1 3.1 12.3 3 12.4zm0 0s-2.4-5.9-4.9-11.9c-1.2-3-2.4-5.9-3.3-8.2-.8-2.2-1.4-3.8-1.4-3.8s.7 1.5 1.6 3.7c.9 2.2 2.1 5.2 3.3 8.2 2.4 6 4.8 11.9 4.7 12zm0 0s-3.2-5.5-6.5-11.1c-1.6-2.8-3.2-5.5-4.4-7.7-1.1-2.1-1.8-3.5-1.8-3.5s.8 1.4 2.1 3.4l4.4 7.7c3.1 5.5 6.3 11.1 6.2 11.2zm1.1-1.1l-11.1 27.7 10.2-28.1z"/></svg>