<?xml version="1.0" encoding="utf-8"?>
<!-- Generator: Adobe Illustrator 18.1.1, SVG Export Plug-In . SVG Version: 6.00 Build 0)  -->
<!DOCTYPE svg PUBLIC "-//W3C//DTD SVG 1.1//EN" "http://www.w3.org/Graphics/SVG/1.1/DTD/svg11.dtd">
<svg version="1.1" id="Layer_1" xmlns="http://www.w3.org/2000/svg" xmlns:xlink="http://www.w3.org/1999/xlink" x="0px" y="0px"
	 viewBox="0 0 41.1 62.1" style="enable-background:new 0 0 41.1 62.1;" xml:space="preserve">
<style type="text/css">
	.st0{fill:#939598;}
	.st1{fill:#6D6E71;}
</style>
<g>
	<g>
		<path class="st1" d="M14.7,31.3c0,0,6.1-2.7,12.2-5.4c3-1.4,6.1-2.7,8.4-3.6c2.3-1,3.9-1.6,3.9-1.6l0,0c0,0-1.5,0.7-3.8,1.7
			c-2.3,1-5.3,2.4-8.4,3.7C20.8,28.8,14.7,31.4,14.7,31.3L14.7,31.3z"/>
	</g>
	<g>
		<path class="st1" d="M14.7,31.3c0,0,5.7-3.5,11.4-7c2.8-1.8,5.7-3.5,7.8-4.8c2.2-1.3,3.6-2.1,3.6-2.1l0,0c0,0-1.4,0.9-3.5,2.2
			c-2.1,1.3-5,3.1-7.8,4.8C20.4,27.9,14.7,31.4,14.7,31.3L14.7,31.3z"/>
	</g>
	<g>
		<path class="st1" d="M14.7,31.3c0,0,5.2-4.3,10.3-8.5c2.6-2.1,5.2-4.3,7.1-5.8c2-1.6,3.3-2.6,3.3-2.6l0,0c0,0-1.3,1.1-3.2,2.7
			c-1.9,1.6-4.5,3.7-7.1,5.8C19.9,27.2,14.7,31.4,14.7,31.3L14.7,31.3z"/>
	</g>
	<g>
		<path class="st1" d="M14.7,31.3c0,0,4.5-4.9,9.1-9.8c2.3-2.5,4.5-4.9,6.3-6.7c1.7-1.8,2.9-3,2.9-3l0,0c0,0-1.1,1.3-2.8,3.1
			c-1.7,1.9-4,4.3-6.3,6.7C19.3,26.5,14.7,31.4,14.7,31.3L14.7,31.3z"/>
	</g>
	<g>
		<path class="st1" d="M14.7,31.3c0,0,3.8-5.5,7.7-11c1.9-2.8,3.8-5.5,5.3-7.5c1.5-2,2.5-3.4,2.5-3.4l0,0c0,0-0.9,1.4-2.4,3.5
			c-1.4,2.1-3.4,4.8-5.3,7.5C18.6,25.9,14.7,31.4,14.7,31.3L14.7,31.3z"/>
	</g>
	<g>
		<path class="st1" d="M14.7,31.3c0,0,3.1-6,6.1-12c1.5-3,3.1-6,4.3-8.2c1.2-2.2,2-3.7,2-3.7l0,0c0,0-0.7,1.5-1.9,3.8
			c-1.1,2.3-2.7,5.2-4.3,8.2C17.8,25.4,14.7,31.4,14.7,31.3L14.7,31.3z"/>
	</g>
	<g>
		<path class="st1" d="M14.7,31.3c0,0,2.2-6.3,4.5-12.7c1.1-3.2,2.2-6.3,3.1-8.7C23.1,7.6,23.8,6,23.8,6l0,0c0,0-0.5,1.6-1.3,4
			c-0.8,2.4-2,5.5-3.1,8.7C17,25,14.7,31.4,14.7,31.3L14.7,31.3z"/>
	</g>
	<g>
		<path class="st1" d="M14.7,31.3c0,0,1.4-6.6,2.7-13.2c0.7-3.3,1.4-6.6,1.9-9c0.6-2.5,1-4.1,1-4.1l0,0c0,0-0.3,1.7-0.8,4.1
			c-0.5,2.5-1.2,5.8-1.9,9.1C16.1,24.8,14.7,31.4,14.7,31.3L14.7,31.3z"/>
	</g>
	<g>
		<path class="st1" d="M14.7,31.4c0,0,0.5-6.7,0.9-13.4c0.2-3.4,0.5-6.7,0.7-9.2c0.2-2.5,0.4-4.2,0.4-4.2l0,0c0,0-0.1,1.7-0.2,4.2
			c-0.1,2.5-0.4,5.9-0.7,9.2C15.2,24.6,14.7,31.4,14.7,31.4L14.7,31.4z"/>
	</g>
	<g>
		<path class="st1" d="M14.7,31.4c0,0-0.4-6.7-0.9-13.4c-0.2-3.4-0.4-6.7-0.5-9.2c-0.1-2.5-0.2-4.2-0.2-4.2l0,0c0,0,0.2,1.7,0.3,4.2
			c0.2,2.5,0.4,5.9,0.6,9.2C14.3,24.6,14.7,31.4,14.7,31.4L14.7,31.4z"/>
	</g>
	<g>
		<path class="st1" d="M14.7,31.4c0,0-1.3-6.6-2.7-13.2c-0.7-3.3-1.3-6.6-1.8-9.1C9.8,6.6,9.5,4.9,9.5,4.9l0,0c0,0,0.4,1.6,0.9,4.1
			c0.5,2.5,1.2,5.8,1.8,9.1C13.4,24.7,14.7,31.3,14.7,31.4L14.7,31.4z"/>
	</g>
	<g>
		<path class="st1" d="M14.7,31.4c0,0-2.2-6.4-4.4-12.7c-1.1-3.2-2.2-6.4-3-8.8C6.5,7.5,6,5.9,6,5.9l0,0c0,0,0.6,1.6,1.4,4
			c0.9,2.4,1.9,5.6,3,8.8C12.6,25,14.7,31.3,14.7,31.4L14.7,31.4z"/>
	</g>
	<g>
		<path class="st1" d="M14.7,31.4c0,0-3-6-6.1-12c-1.5-3-3-6-4.1-8.3C3.4,8.8,2.7,7.3,2.7,7.3l0,0c0,0,0.8,1.5,1.9,3.7
			c1.2,2.2,2.7,5.2,4.1,8.3C11.7,25.3,14.7,31.3,14.7,31.4L14.7,31.4z"/>
	</g>
	<g>
		<path d="M14,31.2c0,0,6.1-2.1,12.2-4.1c3-1,6.1-2.1,8.4-2.8c2.3-0.7,3.8-1.2,3.8-1.2l0,0c0,0-1.5,0.6-3.8,1.3
			c-2.3,0.8-5.3,1.8-8.4,2.8C20.2,29.3,14.1,31.3,14,31.2L14,31.2z"/>
	</g>
	<g>
		<path d="M14,31.2c0,0,5.7-2.9,11.5-5.7c2.9-1.4,5.7-2.9,7.9-3.9c2.2-1,3.6-1.7,3.6-1.7l0,0c0,0-1.4,0.8-3.6,1.8
			c-2.1,1.1-5,2.5-7.9,3.9C19.8,28.5,14.1,31.3,14,31.2L14,31.2z"/>
	</g>
	<g>
		<path d="M14,31.2c0,0,5.3-3.6,10.6-7.2c2.6-1.8,5.3-3.6,7.3-4.9c2-1.3,3.4-2.2,3.4-2.2l0,0c0,0-1.3,0.9-3.3,2.3
			c-2,1.4-4.6,3.2-7.3,4.9C19.4,27.7,14.1,31.3,14,31.2L14,31.2z"/>
	</g>
	<g>
		<path d="M14,31.2c0,0,4.8-4.3,9.5-8.6c2.4-2.2,4.8-4.3,6.6-5.9c1.8-1.6,3-2.6,3-2.6l0,0c0,0-1.2,1.1-2.9,2.7
			c-1.8,1.6-4.2,3.8-6.6,5.9C18.9,27,14.1,31.3,14,31.2L14,31.2z"/>
	</g>
	<g>
		<path d="M14,31.2c0,0,4.1-4.9,8.3-9.8c2.1-2.5,4.1-4.9,5.7-6.7c1.6-1.8,2.7-3,2.7-3l0,0c0,0-1,1.3-2.5,3.1
			c-1.5,1.9-3.6,4.3-5.7,6.7C18.3,26.4,14.1,31.3,14,31.2L14,31.2z"/>
	</g>
	<g>
		<path d="M14,31.2c0,0,3.4-5.4,6.8-10.9c1.7-2.7,3.4-5.4,4.8-7.4c1.3-2,2.2-3.3,2.2-3.3l0,0c0,0-0.8,1.4-2.1,3.4
			c-1.3,2.1-3,4.8-4.8,7.4C17.6,25.9,14.1,31.3,14,31.2L14,31.2z"/>
	</g>
	<g>
		<path d="M14,31.2c0,0,2.7-5.8,5.3-11.7c1.3-2.9,2.7-5.8,3.7-8c1-2.2,1.8-3.6,1.8-3.6l0,0c0,0-0.6,1.5-1.6,3.7
			c-1,2.2-2.3,5.1-3.7,8C16.8,25.4,14.1,31.3,14,31.2L14,31.2z"/>
	</g>
	<g>
		<path d="M14,31.2c0,0,1.8-6.2,3.7-12.3c0.9-3.1,1.8-6.2,2.6-8.4c0.7-2.3,1.2-3.8,1.2-3.8l0,0c0,0-0.4,1.6-1.1,3.9
			c-0.7,2.3-1.6,5.4-2.6,8.4C16,25.1,14.1,31.3,14,31.2L14,31.2z"/>
	</g>
	<g>
		<path d="M14,31.2c0,0,1-6.3,2-12.7c0.5-3.2,1-6.3,1.4-8.7c0.4-2.4,0.7-3.9,0.7-3.9l0,0c0,0-0.2,1.6-0.6,4
			c-0.3,2.4-0.9,5.5-1.4,8.7C15.1,24.9,14.1,31.3,14,31.2L14,31.2z"/>
	</g>
	<g>
		<path d="M14,31.2c0,0,0.1-6.4,0.2-12.8c0.1-3.2,0.1-6.4,0.2-8.8c0.1-2.4,0.2-4,0.2-4l0,0c0,0,0,1.6,0,4c0,2.4-0.1,5.6-0.2,8.8
			C14.3,24.8,14.1,31.2,14,31.2L14,31.2z"/>
	</g>
	<g>
		<path d="M14,31.2c0,0-0.8-6.4-1.5-12.7c-0.4-3.2-0.8-6.4-1-8.8c-0.2-2.4-0.4-4-0.4-4l0,0c0,0,0.2,1.6,0.5,4c0.3,2.4,0.7,5.6,1,8.8
			C13.4,24.9,14.1,31.2,14,31.2L14,31.2z"/>
	</g>
	<g>
		<path d="M14,31.3c0,0-1.6-6.2-3.2-12.4c-0.8-3.1-1.6-6.2-2.2-8.6C8.1,7.9,7.7,6.4,7.7,6.4l0,0c0,0,0.4,1.5,1.1,3.9
			c0.6,2.3,1.4,5.4,2.2,8.6C12.5,25,14.1,31.2,14,31.3L14,31.3z"/>
	</g>
	<g>
		<path d="M14,31.3c0,0-2.4-5.9-4.9-11.9c-1.2-3-2.4-5.9-3.3-8.2C5,9,4.4,7.4,4.4,7.4l0,0c0,0,0.7,1.5,1.6,3.7
			c0.9,2.2,2.1,5.2,3.3,8.2C11.7,25.3,14.1,31.2,14,31.3L14,31.3z"/>
	</g>
	<g>
		<path d="M14,31.3c0,0-3.2-5.5-6.5-11.1c-1.6-2.8-3.2-5.5-4.4-7.7C2,10.4,1.3,9,1.3,9l0,0c0,0,0.8,1.4,2.1,3.4
			c1.2,2.1,2.8,4.9,4.4,7.7C10.9,25.6,14.1,31.2,14,31.3L14,31.3z"/>
	</g>
	<g>
		<polygon points="15.1,30.2 4,57.9 14.2,29.8 		"/>
	</g>
</g>
</svg>
