<?xml version="1.0" encoding="utf-8"?>
<!-- Generator: Adobe Illustrator 18.1.1, SVG Export Plug-In . SVG Version: 6.00 Build 0)  -->
<!DOCTYPE svg PUBLIC "-//W3C//DTD SVG 1.1//EN" "http://www.w3.org/Graphics/SVG/1.1/DTD/svg11.dtd">
<svg version="1.1" id="Layer_1" xmlns="http://www.w3.org/2000/svg" xmlns:xlink="http://www.w3.org/1999/xlink" x="0px" y="0px"
	 viewBox="0 90 612 612" enable-background="new 0 90 612 612" xml:space="preserve">
<g>
	<path fill="#1C75BC" d="M519.9,194.3c1,0.8,0.8,0.6,1,0.8C518.8,193.3,519.9,194.3,519.9,194.3z"/>
	<path fill="#1C75BC" d="M496.7,180.7l0.5-0.2c0,0-1-0.3-1.9-0.5c-1-0.3-1.9-0.5-1.9-0.5s0.8,0.3,1.6,0.5
		C495.9,180.6,496.7,180.7,496.7,180.7z"/>
	<path fill="#1C75BC" d="M474.3,169.6c0.6,1.7,2.7,2.5,5.1,3.3c2.4,0.8,5.1,1.6,7,3l0.5,0.8c0,0,0.6-0.2,1.1-0.3
		c0.6-0.2,1.1-0.2,1.1-0.2C484.3,173.6,477.4,171.7,474.3,169.6z"/>
	<path fill="#1C75BC" d="M464.1,157.7c0.3,1.6-3-0.5,2.7,1.9c-0.2-0.3-0.3-0.3-0.5-0.5C465.8,158.8,465.2,158.3,464.1,157.7z"/>
	<path fill="#1C75BC" d="M466.5,158.9C468.9,160.2,465.2,157.2,466.5,158.9L466.5,158.9z"/>
	<path fill="#1C75BC" d="M455,153.9l3.5,0.5c-0.5-1.1-3.2-2.7-1.9-2.7C453.1,150.5,453.6,151.8,455,153.9z"/>
	<path fill="#1C75BC" d="M451.2,155l1.7,0.3C452.8,154.7,452.5,154.3,451.2,155z"/>
	<path fill="#1C75BC" d="M456.9,155.9l-3.8-0.6c0.3,0.8,0,1.9,1.7,0.3C454.2,156.4,455.2,155.8,456.9,155.9z"/>
	<path fill="#1C75BC" d="M458.7,157.4c1.6,1.6,3.8,3,0.2,2.5C465.2,162.3,465,159.9,458.7,157.4z"/>
	<path fill="#1C75BC" d="M472.2,171.5l2.2,1.7l2.4,0.2C475.5,173.3,472.2,170.7,472.2,171.5z"/>
	<path fill="#1C75BC" d="M435.3,142.4c-0.5,0.8,0.5,2.9,0.5,4h2.7C437.4,145.4,435.1,143.8,435.3,142.4z"/>
	<path fill="#1C75BC" d="M435.8,146.4h-4.1C435,148,435.8,147.5,435.8,146.4z"/>
	<path fill="#1C75BC" d="M449.5,158.5c0,0,1.7,0,3.3,0c1.6,0,3.3,0,3.3,0s-1.9-0.2-4-0.3c-1.9-0.2-4-0.2-4-0.2L449.5,158.5z"/>
	<path fill="#1C75BC" d="M421.3,136.2l2.7-1.4c0,0-1.1,0.5-2.2,1c-1.1,0.5-2.2,1-2.2,1L421.3,136.2z"/>
	<path fill="#1C75BC" d="M411.8,132.9c2.1-1.4-1.4-4.3,0.5-4.9c-2.7-0.6-5.4,0.3-7.6,1.1C407,129,409.2,130.2,411.8,132.9z"/>
	<path fill="#1C75BC" d="M400.8,130.5c1.1-0.2,2.5-0.6,3.8-1.3C403.3,129.2,402.1,129.5,400.8,130.5z"/>
	<path fill="#1C75BC" d="M425.6,143.5c-0.2-0.6-0.3-2.4-2.2-3.8l0.8,3.3C424.5,143,425.1,143.4,425.6,143.5z"/>
	<path fill="#1C75BC" d="M424.2,143L424.2,143c-1.6-0.8-2.7-1.3-3.2-1.4C421.5,141.8,422.4,142.2,424.2,143z"/>
	<path fill="#1C75BC" d="M425.9,143.7c-0.2,0-0.2-0.2-0.3-0.2C425.6,143.8,425.8,144,425.9,143.7z"/>
	<path fill="#1C75BC" d="M440.6,152.7c-2.5,0.3-7.3,0.3-3.7,3.8C439,155.4,436.7,153.4,440.6,152.7z"/>
	<path fill="#1C75BC" d="M426.9,147.7l3.8,2.1c0.2-0.6-0.3-1.9,1-2.2c0,0-1.1,0-2.4,0.2C428,147.5,426.9,147.7,426.9,147.7z"/>
	<polygon fill="#1C75BC" points="424.8,147.8 426.9,147.7 425.4,146.9 	"/>
	<path fill="#1C75BC" d="M407,135.7c-2.1,0.8-4,0.3-6.2-0.2c2.2,1.4,4.5,2.4,6.7,3.2C408.1,137.8,409.5,136.4,407,135.7z"/>
	<path fill="#1C75BC" d="M415.3,139.4c-0.2,0-0.3,0-0.5,0C415.1,139.9,415.3,140,415.3,139.4z"/>
	<path fill="#1C75BC" d="M379.3,129.5c0.2,0.3,0.2,0.5,0.3,0.8c0-0.2,0.2-0.3,0.2-0.6L379.3,129.5z"/>
	<path fill="#1C75BC" d="M407.9,139.2c1.6,1.1,2.7,0.8,4,0.2c-1.3-0.2-2.7-0.5-4.3-0.8C407.3,139.1,407.3,139.2,407.9,139.2z"/>
	<path fill="#1C75BC" d="M394.4,130c0.8,1,1.7,1.9,2.7,2.7C396.5,131.4,394.9,129.2,394.4,130z"/>
	<path fill="#1C75BC" d="M414.5,138.4c0.2,0,0.2,0,0.3,0C414.5,137.6,414.5,138,414.5,138.4z"/>
	<path fill="#1C75BC" d="M414.5,138.4c-1,0.2-1.9,0.6-2.7,1c1.1,0.2,2.1,0.2,3,0C414.8,139.2,414.6,138.7,414.5,138.4z"/>
	<path fill="#1C75BC" d="M369.6,151.6c0.8-3.5,5.7-5.7,9.1-1.6c4.1-1.7,3.5-12.9,1-19.9c-0.3,1.4-0.5,2.7-4.9,3.8
		c1.1,2.2,8.3,6,4.5,8.4c-5.6,0.8-4.1-1.9-6.5-4.3c0.8,2.4-1.1,3.5-3.2,5.1c-2.1,1.6-4.3,3.5-4.1,6.7c0,0,1.3-0.5,2.4-0.8
		c1.3-0.5,2.4-0.8,2.4-0.8C370.3,149.2,368.3,150.7,369.6,151.6z"/>
	<path fill="#1C75BC" d="M387.3,132.5h1.7c-1.7-1.1-3-2.7-5.1-5.9c-3,0.8-3.8,1.9-4.1,3c0,0,2.1,0.6,4.1,1.3s4.1,1.3,4.1,1.3
		L387.3,132.5z"/>
	<path fill="#1C75BC" d="M396.5,134.6c-1.9,2.9-6.2,3.3-4.5,7.5c4.8,1,3.8-1.9,7-2.5c-8-1.3,2.5-1.1-2.7-4.6c1.6-0.2,3,0.2,4.5,0.3
		c-1.3-0.8-2.5-1.7-3.8-2.7c0,0.2,0.2,0.2,0.2,0.3l0,0l0,0c0.3,0.5,0.3,0.8,0,0.5H397C397,134,396.8,134.3,396.5,134.6
		c-2.1-1.4-0.2-1,0.6-1.1c0-0.2,0.2-0.3,0.2-0.5l0,0c0,0-2.1-0.2-4.1-0.3s-4.1-0.2-4.1-0.2C390.6,133.5,392.8,134,396.5,134.6z"/>
	<path fill="#1C75BC" d="M431.5,160.4c-0.2-0.3-0.2-0.5-0.2-0.6C430.8,159.9,430.5,160.1,431.5,160.4z"/>
	<path fill="#1C75BC" d="M428.8,158c0.6-0.2,1.4-1.1,3-0.3c1.3,1.3-0.3,1.1-0.5,2.1c1.3-0.3,4.3-0.6,1.3-2.9L432,157
		c-2.9-1.7-5.9-6.4-5.2-6.5C427,153.2,427.4,155.3,428.8,158z"/>
	<path fill="#1C75BC" d="M412.4,147.5c0,0-1.7-0.2-3.3-0.2c-1.6-0.2-3.3-0.2-3.3-0.2l2.7,3.5l0.2-1.6
		C412.1,150.7,411.8,148.6,412.4,147.5z"/>
	<path fill="#1C75BC" d="M378.8,127.5l1.4-3.7c0,0-1.1,1.1-2.4,2.2c-1.1,1.1-2.4,2.2-2.4,2.2L378.8,127.5z"/>
	<polygon fill="#1C75BC" points="370.1,125.9 370.9,122.4 368.3,124 	"/>
	<path fill="#1C75BC" d="M138.7,440.1c0,0.2-0.2,0.2-0.2,0.2c0-0.2,0-0.2-0.2-0.3L138.7,440.1z"/>
	<path fill="#1C75BC" d="M276.6,120.6c-3-1.7-5.2-2.2-7.3-2.4C273.1,120.9,276.4,124.9,276.6,120.6z"/>
	<path fill="#1C75BC" d="M66.3,448.7c1.3,1.4,2.7,2.1,4.1,2.1C69.3,449.2,68.1,448.2,66.3,448.7z"/>
	<path fill="#1C75BC" d="M261.5,119.5c0.6,0.5,1.1,0.6,1.7,1c1.7-1.3,3.7-2.1,6.2-2.1c-1.4-1-2.9-1.7-4.3-1.7
		S262.4,117.4,261.5,119.5z"/>
	<path fill="#1C75BC" d="M369.1,636.7c0.2,0.2,0.3,0.3,0.5,0.5C369.8,637,369.5,636.9,369.1,636.7z"/>
	<path fill="#1C75BC" d="M442.1,673c-0.8,0-2.1-0.2-3.3-0.2C439.4,673,440.4,673,442.1,673z"/>
	<path fill="#1C75BC" d="M334.3,117.8C336.2,117.8,334.6,117.3,334.3,117.8L334.3,117.8z"/>
	<path fill="#1C75BC" d="M342.7,135.9c-0.5,0.5-0.8,1-0.8,2.1C342.1,136.8,342.3,136.2,342.7,135.9z"/>
	<path fill="#1C75BC" d="M251.1,156.2C251.1,156.2,251.3,156.2,251.1,156.2C251.8,156.9,251.9,157,251.1,156.2z"/>
	<path fill="#1C75BC" d="M337.2,120.1c-0.6-0.6-1.6-1.1-2.4-1.6C335.1,118.9,335.7,119.3,337.2,120.1z"/>
	<path fill="#1C75BC" d="M336.9,117.9c0.6,0.3,1.1,0.5,1.7,0.6C338.8,117.9,338.6,117.4,336.9,117.9z"/>
	<path fill="#1C75BC" d="M331.6,117.6c1.1,0,2.1,0.5,3.2,0.8c-0.3-0.3-0.5-0.6-0.5-0.8C333.7,117.8,332.9,117.8,331.6,117.6z"/>
	<path fill="#1C75BC" d="M234.9,586.3c0,0.2,0.2,0.3,0.2,0.6C237.5,586,236.7,585.8,234.9,586.3z"/>
	<path fill="#1C75BC" d="M149.3,462.7c-1.6-2.9-3-5.6-4.5-8.4c1.9,4,3.7,7.3,5.4,10C150,463.8,149.7,463.4,149.3,462.7z"/>
	<path fill="#1C75BC" d="M139.5,198.2L139.5,198.2L139.5,198.2L139.5,198.2z M139.5,198.2c0.2,0.2,0.2,0.3,0.3,0.3v-0.2
		C140.3,198.4,140.1,198.2,139.5,198.2z M139.8,198.7c-0.2,0.8-1.3,2.4,0.8,1C140.4,199.3,140.1,199,139.8,198.7z M457.4,673.5
		c2.2,0,0.6-0.3-1.1-1c-1.9-0.6-4.1-1.6-3.7-2.1c-2.4-0.2-5.4-1.3-8.6-2.7c-3.3-1.4-6.8-3.2-11-3c-1.6-1,1.6-0.3,0.8-1.1
		c-2.1,0.3-4.5,0-8.6-1.9l0.5-0.2c-11.9-3.5-16.7-6.4-29.4-12.6l0.5,2.5c-2.7-1.3-3.2-2.2-4.3-3.2c-4.1,2.2,7.8,3,4,5.6
		c-1.4-2.7-6.4-4.6-11.1-6.4c-4.8-1.7-9.4-3.7-9.9-7.3c-4.3-1.7,0.5,3.7-3.8,1.9l-0.6-2.2l-1.7,1.9c-2.7-1.4-3.5-4.3-3.2-5.9
		c0.6,0.5,2.1,0.3,2.9,0.5c-2.7-3.3-9.2-3.5-11-4.5l3.3,2.5c-6-1.4-12.4-4.3-18.8-6.8c-6.4-2.5-12.7-4.9-18.9-4.8l0.3,2.1
		c-9.5-0.2-6-4.8-15.9-7.2l0.5-0.3c-2.5,1.1-5.4,1.1-7.8-0.3c3.2-1.3-2.7-6.4,1.3-7.6c-5.2-0.2-6.5,0.2-7.8,1.1
		c-1.3,1-2.2,2.4-6.7,4.9v-4c-3.2,2.2-4,3.8-9.1,2.7c4.9-1.3-0.8-6.7,4.9-8.7c-3.2-6-7.3-5.9-10.8-5.7c-3.5,0.2-6.2,0.2-5.7-6.8
		c-8.7,8.1,5.6,9.7,2.4,10.7c0.6,4.3-6.8,5.9-9.4,3.5c-3-1.6,0.6-15.6-6.7-19.4c0.6,0.5,1.1-0.3,1.7,0.2c-1.4-4.1-7,0.8-8.3-5.6
		c-5.1,5.4-4.1-2.7-8.7,5.2l7.6,1.7c-4.8,0-13.4,8-17.3-0.3c1.4-1.4,4.5-2.5,6.4-3.2c-0.5-3.5-4.3-0.3-4.9-4c4.8-8,8.7,2.5,15.9-1.1
		L205,534.1c-17.5-15.3-37.4-39.9-52.3-65.5c-0.8-1.4-1.7-3-2.5-4.5L150,464c-1.7-2.9-3.5-6.2-5.4-10c0-0.2-0.2-0.3-0.2-0.5
		c-2.9-6.2-5.4-12.4-7.3-18.8c-1.1-3.5-2.1-7.2-3-10.8c-0.2-0.8-0.3-1.6-0.5-2.4c-4-17.7-4.9-35.3-4.1-51.4c0.2-2.2,0.2-4.3,0.3-6.4
		c0.5-7,1.3-13.7,2.2-19.7c0.8-5.1,1.7-9.9,2.7-14.3c1.3-6,2.7-11.3,4-15.7c2.1-7.5,3.8-12.2,4.5-13.7c0.2-0.3,0.2-0.5,0.2-0.5
		c0-0.2,0.2-0.3,0.2-0.5c0.5-1.3,1-2.4,1.6-3.5c1.1-2.5,2.4-5.1,3.7-7.6c0.2-0.3,0.3-0.5,0.5-0.8c2.2-4.1,4.6-8.1,7.3-12.1
		c3.2-4.8,6.5-9.4,10.2-14c0,0,0,0,0-0.2c1-1.3,1.9-2.4,2.9-3.7c0.3-0.3,0.5-0.6,0.8-1l0,0c1-1.3,1.9-2.4,3-3.7
		c0.8-1,1.6-1.9,2.5-2.9c6.4-7.5,13.4-14.6,20.8-21.8c0.8-0.8,1.6-1.6,2.5-2.4c3.2-3,6.4-5.9,9.7-8.9c1.7-1.6,3.5-3.2,5.4-4.6
		c5.9-5.1,12.2-10,18.6-14.8c0.3-0.3,0.6-0.5,1-0.8c1.9-1.4,4-2.9,5.9-4.3c18.3-13.2,30.5-23.9,36.7-30.9c0.2-0.2,0.2-0.2,0.3-0.3
		c1.4-1.6,2.5-3,3.3-4.3c5.2,5.7-4.9,2.1-0.2,9.5c-0.3-2.4,0.8-4.3,2.4-6c1.6-1.7,3.7-3.2,5.1-4.9c-1-3.5-3-3.5-5.1-2.2
		c-0.3,0.2-0.6,0.5-0.8,0.6c0.5-2.1-1.3-2.9-4.9-1.7c0.2-2.9,0.8-5.6,1.7-8.3c1.7-4.9,4.9-8.9,8.9-11.6c6.5-3,3.7,6,4.8,4.5
		c6.4,0.3,8.7-4,11-7.5s4.5-6.4,10-2.9c4.5,5.9,0.5,11.6,1.6,15.7c-1.3,0.6-2.5,0.6-3.5,0.5c-1.1-0.2-2.1-0.6-3-1.3
		c-1.9-1.1-3.7-2.5-5.4-2.2l4.6,2.5c-1.6,2.1-4.9,3.8-7,2.2c1,1.3,2.7,1.9,4.9,2.2c2.2,0.3,5.1,0.2,8,0.2c3,0,6,0,9.1,0.3
		c3,0.3,5.9,1,8.1,2.1c1.7-1.9,4.6-3.7,3.3-5.9l-3,0.6c-1.3-2.2,0.2-3.8,1.4-4.9c1.3-1.1,2.5-2.1,0.6-3.2c2.1-1.4,4.5-3.2,6.8-4.3
		c2.5-1.1,5.1-1.3,8,0.3l0.6,5.7c-0.3-1.6-3.3-3.3-5.1-2.1c1.3-0.8,3.3,1.3,5.2,2.9c2.1,1.6,4.3,2.5,5.9-1.1l-3.7-4.6
		c4.3-2.4,10.2-7.5,15.1-4.6c-1.7-5.9-1.3,0.3-4.3-6.8c2.4,8.3-12.2-2.1-9.4,5.7c-1.4-3.3-2.9-4.3-4.6-5.2c-1.7-1-3.7-1.9-6-5.7
		c0,2.1,1.6,4.1-2.9,2.5c-0.2,0.6-0.8,1.3-1.1,1.6c-0.2,0-0.2-0.2-0.3-0.2c0,0,0.2,0.2,0.3,0.3c-0.3,0.8-0.3,1,0,0.6
		c1,1,1.9,2.2,2.1,3.3c-2.4,4.5-9.4,3.5-11.8,5.9c-2.5-1.1,1.1-2.4-0.3-4.6c0,0-1,1-1.7,1.7c-1,0.8-1.7,1.7-1.7,1.7
		c-0.3-4.8-7.2-8.4-0.8-10.7c0,0-1.4-0.2-2.9-0.3c-1.4-0.2-2.9-0.3-2.9-0.3c-3.5-2.9-8.3-4.3-11.1-2.2c-2.9-1.1-6.7,5.4-4.5,1.6
		c0,0-0.5,0.2-1.4,0.5c-0.8,0.3-1.9,0.6-3,1.1c-2.2,0.8-4.5,1.7-4.5,1.7l-0.3-1.4c-4.6-0.3-9.1,2.2-13.7,3.7
		c-2.4,0.6-4.8,1.4-7.3,1.1c-2.5-0.2-5.4-1.1-8.4-3c-1.4,1-2.9,1.9-4.5,2.7c-1.7,0.6-3.8,1.1-6.5,0.8l-2.2-4.5
		c-1.7,1.3-5.1,0.6-8.1,0.5c-3-0.2-5.6,0.2-5.7,2.9c-2.1-2.9-4.6-4.1-7-4.5c-2.5-0.2-5.1,0.5-7.6,1.7c-1.3,0.6-2.5,1.3-3.8,1.9
		c-1.3,0.8-2.4,1.4-3.7,2.2c-2.4,1.3-4.5,2.4-6.5,2.5l2.7,6.2c-2.4,0.8-4.6,2.2-6.7,4c-2.1,1.7-4,4-6,6.7l3.3,5.1
		c-1.1,3.5-4.5,4-8.7,4.6c-2.4,0.3-4.9,0.6-7.5,1.3c-0.3,1-0.3,1.4-0.6,0.8c0.6,2.2-0.3,1.4-1.1,1.4l-1,1.6c0-1.3,0.5-1.6,1-1.6
		l1.4-2.1c-1.6,0.5-3.2,1.1-4.5,2.2c-0.5-1.3-0.2-1.9,0.6-2.4c-0.5-0.2-0.6-0.5-0.3-1.1c-2.5-0.3-4.6,0.3-6,1.6
		c-2.1,1.6-3.5,4.3-4.6,7.2c-0.6,1.7-1.3,3.3-1.9,4.9c-0.2,0.5-0.5,1-0.6,1.4c-0.3,0.5-0.6,1-1,1.4c-0.8,1-1.7,1.9-2.9,2.4
		c-1.1,0.5-2.5,0.8-4.3,0.5c-0.2,3.2-1.9,3.8-4.1,3.7c0.2-0.2,0.2-0.3,0.2-0.6c-0.2,0.2-0.5,0.3-0.8,0.6c-0.5,0-1,0-1.4-0.2h-0.2
		c-1.1-0.2-2.2-0.2-3.3-0.2c1.3,0.3,2.4,0.5,3.3,0.6h0.2c0.3,0,0.6,0,1,0c-0.3,0.3-0.6,0.8-1,1.3c-0.2,0.2-0.2,0.3-0.3,0.5l0,0
		c-0.2,0.3-0.5,0.6-0.6,1.1c-0.6,1.1-1.1,2.5-1.4,4l-5.9-4c-0.2,0.2-0.2,0.3-0.3,0.6c-3.8,0.2,1,3.8,5.9,6.4c0,1.1,0,2.2,0.3,3.3
		c0,0.3,0.2,0.6,0.3,1c0,0.3,0.2,0.6,0.3,0.8c-0.3-0.2-0.6-0.3-0.8-0.5s-0.3-0.2-0.6-0.3s-0.5-0.3-0.6-0.3l0,0
		c-0.8-0.3-1.4-0.5-1.9-0.5l0,0c-1.3,0-1.6,1.1-1.9,2.4c-0.5,1.9-1.1,3.7-5.9,1.4H139c-0.2-0.2-0.5-0.2-0.6-0.3c1,1.4,1,3.2,0.8,5.1
		c0,0,0,0.2,0,0.3c-0.2,0.8-0.3,1.4-0.3,2.2c0.8-1.4,1.4-2.5,1.4-2.5c-0.2,0-0.2,0-0.3,0c1.4-0.6,2.7-1.4,4-2.2
		c-0.8,1.1-1.6,2.2-2.2,3.8c5.2-3.3,0.8,6.2,5.2-0.5c-0.8,3.2,2.2,3.5-0.6,7.5c-4.6-0.2-3.2-4.1-5.1-7.2c-1.1,1.7-2.1,2.9-3,4
		c-0.2,2.9,0.3,6,3.2,9.2c0,0,0,0,0.2,0c0,0,0,0,0,0.2c0.5,0.6,1.1,1.3,1.7,1.7c-1.4-0.8-2.4-0.8-1.7-1.7l0,0
		c-1.1,0.6-2.4,1.1-3.2,1.9c5.2,1.6,9.7,4.5,9.7,7.5c-5.1,1.4-5.1,6.8-2.2,9.1c-1.4,0.6-1.9-1.6-2.7-2.1c0,0-0.2,1.3-0.3,2.5
		s-0.2,2.5-0.2,2.5c-3-1.3-3.8-4-4.5-6.5c-0.6-2.5-0.8-4.8-3.3-4.9c3-1.1,4.9,1.3,6.5-4.1c-0.3-2.4-2.1-2.1-4.1-1.4
		c0,0.6,0.2,1.4,0.5,2.4l-2.7-1.4c-1.1,0.5-2.2,1-3,1c0.2-1,0.3-1.7,0.3-2.4l-2.9-1.4c0,0,1.7,3,3.5,5.9c1.7,2.9,3.7,5.9,3.7,5.9
		c-6.7,0-10.3-0.3-14.3-7c0,0,0-0.2-0.2-0.2v0.2c1,3.2,1.6,5.2,1.9,6.8c0.3,1.6,0.3,2.5,0.3,3.5c0.2,1.9,0.2,3.7,3.2,9.5l-5.1-3.2
		c-1.3,2.4,4.3,9.9-1,8.9c-3.2,0-5.7,1.6-8.1,4.1c-2.2,2.5-4,6-5.9,9.9c-1,1.9-1.9,3.8-2.9,5.9c-1,2.1-1.9,4-3,5.9
		c-1.1,1.9-2.4,3.8-4,5.4c-1.4,1.7-3,3.3-4.9,4.6c9.1,1.4,6.7,2.5,3.5,3.8c-3.2,1.3-6.8,2.9-0.2,5.2c-4.5-0.5-7.5,1-10.2-2.5
		c0.8,4.3-1.6,6.7-3,9.1s-1.9,4.6,3.2,8.7c-4.5-0.2-5.7-3.2-8.4-3c0.8,0.8,3,3.3,0.3,3.5c-2.7,0.2-3.2-2.1-4.8-3.7
		c-0.8,4,2.2,7,6.8,9.4c4.6,2.4,10.8,4.1,17,5.9c-6.7,2.4-6.4,4.6,1.1,8.9c-4.3,0.5-9.1,1.7-9.5-3.2c-0.3,0.6-1.1,1.9-1.9,3.3
		c-0.8,1.6-1.4,3.3-1.9,5.2c-0.8,3.7-0.3,7.3,4.6,8.3c-2.7,0.3-1.4,3.5-0.3,4.5c-1.6,5.7-2.5,6.2-2.4,12.1l1.9-1.3
		c11.8,4,1.9,5.1,2.9,9.9l-1.3-0.3c-4.9,4.8-4,6-3.2,7.3c0.8,1.3,1.4,2.4-4.1,7.2l7.6,0.2c8.1,1.3,5.4,3.3,1.6,5.9
		c-3.8,2.5-9.1,5.7-6.2,9.1l4.5-1.9c2.7,1.9-3,3.7-9.7,5.6c-6.7,1.9-14.3,3.8-15.3,5.4c-1.4,0.6-2.2-1.3-3.2-2.4
		c-9.9,8.4,9.9,1.7,11.9,8.4c-5.4,1-13.5-2.2-14.6,2.2c-2.2,1.1,2.1,4.5,5.4,8.3c3.5,3.8,6.4,8.1,1.3,11c4.1-1.3,8.3-2.5,11.3,0.6
		c0.8,2.4-3.2,5.4-5.6,8.4c-1.3,1.6-2.1,3-1.9,4.5c0.2,1.3,1.6,3,4.9,4.1c-1.1,0.8-2.1,1.1-3.2,1.1c3.3,4.3,6.5,13.5,13.7,14.8
		c-12.2,3.5-8.1,10-3.3,14.8c1.1,1.3,2.4,2.4,3.3,3.5c1,1.1,1.7,2.1,1.9,3.2c0.5,1.9-1.1,3.8-6.5,5.7c0,0,0.3,0.8,0.8,1.9
		c0.5,1.1,1.3,2.5,2.1,4c0.8,1.4,1.4,2.9,2.1,4c0.6,1.1,1,1.7,1,1.7l-2.4,0.6c1.1,4.1,3.2,6.2,5.9,7.3c2.7,1,5.7,1,8.9,1
		c-0.5,2.4-3,2.2-4.1,2.5c0.3,3.2,1,5.4,1.6,7.3c0.6,1.7,1.6,3.2,2.9,4.1c2.5,1.9,6.7,2.5,14,2.9l-5.2,5.1c1.3-0.2,1.9,1.1,2.4,2.9
		c0.5,1.9,1,4.5,1.7,7.2c0.8,2.7,1.9,5.6,3.7,7.8c1.9,2.2,4.3,4,7.8,4.5c-0.6,0.5-1.7,1.3-3.2,1.3c3.8,0.6,6,3.3,7.8,6.2
		c1.7,3,3,6.7,4.6,9.7c3.2,6.2,7.3,9.9,16.9,1.6c0,0,0.6,0,1.6,0s2.2,0,3.5,0c2.5,0,4.9-0.2,4.9-0.2c-3.3-3.7-1.4-5.6,1.3-7.2
		c2.7-1.6,6-3.2,5.7-5.9c1.9,0.6,2.5,3.5,2.4,6s-1.4,4.8-3.7,3.8l0.2-1.4c-9.2,9.2,7.2,10.7,1.9,17.3c8.3,5.1,15.7,11.3,23.1,17.2
		c7.5,5.9,15,11.5,23.1,15.3l2.2-8.6c0,0,1.3,0.8,2.7,1.6c1.3,0.8,2.7,1.6,2.7,1.6c0.5,2.5-1.1,6.8-4.9,4.8c0,5.2,8.7-0.6,9.5-2.2
		c3.2,3.3,1.4,5.1-1.1,6.4c-2.4,1.3-5.4,1.7-4.1,2.4l3.7,0.8l-0.3-1.3c4.3-1.9,6-5.1,10.8-2.7c2.4,2.7-0.6,5.2,0.5,6
		c-0.3,0.5,0,1,1.7,1c0,0,1.7,1,3.5,1.7c1.7,0.8,3.5,1.7,3.5,1.7l-0.3-7c4.5-1.6,6.7,3,6.2-4.9c0.2,6,6.5,9.5,13,11.8
		c6.5,2.4,13.2,3.7,14.2,5.6c6-2.4,10.3-0.8,15.7,1.3c-1-1.4,0.3-7.5,4.8-5.2c-3,5.6-1.3,7.5,1.3,9.2c2.5,1.6,5.7,3,6.5,7
		c-0.5-4.9,14.3,2.5,11.3-5.9c3.7,1.9-1.1,4.1,1.1,7.3c5.6-0.8,10.7,1.1,15.9,3.3c5.4,2.2,11,4.5,17.2,5.1c0.5-1.1-1-3.3,2.1-4.5
		c0,0,1.1,1.7,2.4,3.5c1.3,1.7,2.4,3.3,2.4,3.3c2.5-0.2,4-5.7,7.3-1.3c-0.3-1-1-2.5,0.8-2.5c5.6,2.4,11.5,3.8,17.5,4.8
		s12.2,1.6,18.3,2.2c6,0.6,12.2,1.6,18.3,2.5c6,1,11.9,2.2,18,3.3c-3.2-0.8-1-0.8,1.6-0.6c-1.6-0.3,0.2-0.8,0-1.3
		c0,0,2.4,0.6,4.9,1.1c2.4,0.5,4.9,0.8,4.9,0.8c1-0.3,3.7-0.2,6.4,0c2.7,0.2,5.1,0.3,5.7,0.2L457.4,673.5z M240,578
		c0.6,0.3,1.4,0.8,2.1,1.1C240.8,579.3,239.7,579.3,240,578z M251.3,156.1C251.8,156.9,251.9,157,251.3,156.1
		C251.1,156.2,251.3,156.2,251.3,156.1z M222.8,128.4c0.6-0.8,1.3-1.4,1.3-1.4l-0.2,0.5c0,0-0.6,0.6-1.3,1.3c-0.5,0.5-1,1-1.1,1.1
		C221.9,129.7,222.3,129,222.8,128.4z M207.9,144.8l-2.4,1.3c-0.6-0.5,3-2.4,3.5-3.3L207.9,144.8z M216.6,132.4c0,0-0.2,0.6-0.3,1.1
		c-0.2,0.6-0.2,1.1-0.2,1.1l-1,0.2c-1.9,1.1-3.8,3.2-5.6,5.1c-1.7,1.7-3.3,3.5-5.1,3.3C207.9,141.3,212.3,135.9,216.6,132.4z
		 M185,158.6c0.6-1.3,1.4-2.5,1.7-3.2c-0.2,0.5-0.8,1.6-1.3,2.7c-0.6,1.6-1.3,3-1.3,3l-0.8,0.8C183.4,162,184.2,160.2,185,158.6z
		 M175.3,167.1c-1,3.7,1.9,2.7,1.9,4.9C172.4,173.9,174.6,169.4,175.3,167.1z M175.7,176.6l0.2-0.6c3.3-1.7,2.2,1,2.1,2.2
		c-0.6-0.5,0-1.9-1.6-1.3c-1.4,1.3-1,2.2-1,2.9c-2.9,0.2-4.8-0.3-7-1C169.9,179,173.5,178,175.7,176.6z M165.7,175.2
		c0.5-1.1,1-2.1,1-2.1c-0.3,1.3,1.1,1.4,1.6,1.7l-3.3,2.5C164.9,177.4,165.4,176.3,165.7,175.2z M160.6,176.9
		c-0.3,0.3-0.8,0.8-1.1,1.1l-3.3-0.6C158.4,176.1,160,176.8,160.6,176.9z M157.3,193.5c0.8-1.4,1.6-3,1.6-3c0.6,1.1,2.7,1.6-0.2,4.1
		l1.4,0.8l-4.3,1.1C155.9,196.5,156.5,194.9,157.3,193.5z M150,214.1l1.6,1c0,0.8-0.6,1-0.5,1.7C149,218.4,148.7,216.2,150,214.1z
		 M235.9,628.3l-0.5-1.7C238.4,626.2,237.1,627.2,235.9,628.3z M182.4,154L182.4,154c0.2,0.2,0.3,0.2,0.5,0.2
		C182.7,154.2,182.6,154.2,182.4,154z"/>
	<path fill="#1C75BC" d="M354.3,118.7c0,0-1.1,0.2-2.1,0.2c-1.1,0.2-2.1,0.3-2.1,0.3c2.1,0.2,2.7,1.3,3.7,2.2
		C353.7,120.3,353.1,118.5,354.3,118.7z"/>
	<path fill="#1C75BC" d="M385.2,151.2c0.6-0.3,1.3,0.2,1.9-0.2l0.2-1.7C384.9,148.8,383,150,385.2,151.2z"/>
	<g>
		<path fill="#1C75BC" stroke="#1C75BC" stroke-miterlimit="10" d="M85.7,247.5c0.5-1.1,0.5-1,0.5-1.3
			C85.1,248.8,85.7,247.4,85.7,247.5z"/>
		<path fill="#1C75BC" stroke="#1C75BC" stroke-miterlimit="10" d="M78.6,273.3l-0.2-0.5c0,0,0,1,0,1.9s0,2.1,0,2.1s0-0.8,0.2-1.7
			C78.6,274.3,78.6,273.3,78.6,273.3z"/>
		<path fill="#1C75BC" stroke="#1C75BC" stroke-miterlimit="10" d="M73.3,297.9c1.4-1.1,1.7-3.3,1.9-5.9c0.2-2.5,0.3-5.2,1.1-7.5
			L77,284c0,0-0.3-0.5-0.6-1.1c-0.3-0.5-0.5-1.1-0.5-1.1C74.8,287.1,74.8,294.3,73.3,297.9z"/>
		<path fill="#1C75BC" stroke="#1C75BC" stroke-miterlimit="10" d="M64.4,310.7c1.4-0.8,0.3,3,1.1-3c-0.2,0.3-0.3,0.3-0.5,0.5
			C65,308.8,64.9,309.4,64.4,310.7z"/>
		<path fill="#1C75BC" stroke="#1C75BC" stroke-miterlimit="10" d="M65.2,308.1C65.7,305.6,63.8,309.9,65.2,308.1L65.2,308.1z"/>
		<path fill="#1C75BC" stroke="#1C75BC" stroke-miterlimit="10" d="M63.1,320.4l-0.5-3.5c-1,0.6-1.9,3.8-2.1,2.5
			C60.4,323.1,61.4,322.4,63.1,320.4z"/>
		<path fill="#1C75BC" stroke="#1C75BC" stroke-miterlimit="10" d="M65,323.9l-0.2-1.9C64.4,322.3,64.3,322.8,65,323.9z"/>
		<path fill="#1C75BC" stroke="#1C75BC" stroke-miterlimit="10" d="M64.6,318.1l0.3,4c0.6-0.5,1.7-0.5,0-1.7
			C65.8,320.7,64.9,319.9,64.6,318.1z"/>
		<path fill="#1C75BC" stroke="#1C75BC" stroke-miterlimit="10" d="M65.5,316.1c1.1-1.9,2.1-4.5,2.5-0.8
			C68.7,308.4,66.5,309.2,65.5,316.1z"/>
		<path fill="#1C75BC" stroke="#1C75BC" stroke-miterlimit="10" d="M75.9,299.4l1.1-2.5l-0.5-2.4C76.7,295.7,75.1,299.5,75.9,299.4z
			"/>
		<path fill="#1C75BC" stroke="#1C75BC" stroke-miterlimit="10" d="M56.9,342.3c1,0.2,2.5-1.1,3.8-1.4l-0.6-2.7
			C59.3,339.6,58.4,342.2,56.9,342.3z"/>
		<path fill="#1C75BC" stroke="#1C75BC" stroke-miterlimit="10" d="M60.8,341.1l1.1,4C62.5,341.4,61.9,340.7,60.8,341.1z"/>
		<path fill="#1C75BC" stroke="#1C75BC" stroke-miterlimit="10" d="M69,324.7c0,0-0.5-1.6-1-3.2c-0.5-1.6-0.8-3.2-0.8-3.2
			s0.3,1.9,0.8,3.8c0.3,1.9,1,3.8,1,3.8V324.7z"/>
		<path fill="#1C75BC" stroke="#1C75BC" stroke-miterlimit="10" d="M54.6,357.6l-2.1-2.2c0,0,0.8,1,1.4,2.1c0.8,1,1.6,1.9,1.6,1.9
			L54.6,357.6z"/>
		<path fill="#1C75BC" stroke="#1C75BC" stroke-miterlimit="10" d="M53.8,367.6c-1.9-1.6-3.8,2.4-4.9,0.6c0,2.7,1.6,5.1,3,7.2
			C51.4,373.3,51.8,370.8,53.8,367.6z"/>
		<path fill="#1C75BC" stroke="#1C75BC" stroke-miterlimit="10" d="M54.2,378.9c-0.5-1.1-1.3-2.2-2.2-3.5
			C52.5,376.7,53,377.8,54.2,378.9z"/>
		<path fill="#1C75BC" stroke="#1C75BC" stroke-miterlimit="10" d="M60.6,351.5c-0.6,0.3-2.2,1-3.2,3.2l3-1.6
			C60.4,352.7,60.4,352.2,60.6,351.5z"/>
		<path fill="#1C75BC" stroke="#1C75BC" stroke-miterlimit="10" d="M60.4,353.1L60.4,353.1c-0.3,1.7-0.5,2.9-0.6,3.3
			C60,356,60.1,355,60.4,353.1z"/>
		<path fill="#1C75BC" stroke="#1C75BC" stroke-miterlimit="10" d="M60.6,351.2c0,0.2,0,0.3,0,0.3C60.9,351.4,60.9,351.4,60.6,351.2
			z"/>
		<path fill="#1C75BC" stroke="#1C75BC" stroke-miterlimit="10" d="M65.7,334.7c1,2.4,2.1,7,4.6,2.5
			C68.7,335.6,67.3,338.2,65.7,334.7z"/>
		<path fill="#1C75BC" stroke="#1C75BC" stroke-miterlimit="10" d="M64.3,349.3l1-4.1c-0.6,0-1.7,0.8-2.4-0.3c0,0,0.3,1.1,0.6,2.2
			C63.8,348.2,64.3,349.3,64.3,349.3z"/>
		<polygon fill="#1C75BC" stroke="#1C75BC" stroke-miterlimit="10" points="64.9,351.4 64.3,349.3 63.8,350.8 		"/>
		<path fill="#1C75BC" stroke="#1C75BC" stroke-miterlimit="10" d="M57.7,371.6c1.3,1.7,1.3,3.8,1.4,6c0.8-2.4,1.3-4.9,1.3-7.3
			C59.5,369.8,57.7,368.9,57.7,371.6z"/>
		<path fill="#1C75BC" stroke="#1C75BC" stroke-miterlimit="10" d="M59.2,362.5c0,0.2,0,0.3,0.2,0.5
			C59.6,362.7,59.8,362.5,59.2,362.5z"/>
		<path fill="#1C75BC" stroke="#1C75BC" stroke-miterlimit="10" d="M58.7,399.9c0.2-0.2,0.5-0.3,0.6-0.5c-0.2,0-0.3,0-0.6,0V399.9z"
			/>
		<path fill="#1C75BC" stroke="#1C75BC" stroke-miterlimit="10" d="M60.9,369.8c0.6-1.7,0-2.9-0.8-3.8c0.2,1.3,0.3,2.7,0.3,4.3
			C60.8,370.3,61.1,370.3,60.9,369.8z"/>
		<path fill="#1C75BC" stroke="#1C75BC" stroke-miterlimit="10" d="M55.3,385.1c0.8-1,1.4-2.1,1.9-3.3
			C56.3,382.9,54.6,384.8,55.3,385.1z"/>
		<path fill="#1C75BC" stroke="#1C75BC" stroke-miterlimit="10" d="M58.5,363.6c0-0.2-0.2-0.2-0.2-0.3
			C57.7,364,58.1,363.8,58.5,363.6z"/>
		<path fill="#1C75BC" stroke="#1C75BC" stroke-miterlimit="10" d="M58.5,363.6c0.3,1,1,1.6,1.6,2.4c-0.2-1.1-0.3-2.1-0.8-3
			C59.2,363.2,58.8,363.3,58.5,363.6z"/>
		<path fill="#1C75BC" stroke="#1C75BC" stroke-miterlimit="10" d="M82.7,403.7c-3.5,0.2-7-4.1-4-8.4c-2.9-3.7-13.4-0.2-19.4,4.1
			c1.4,0,2.7-0.2,4.9,3.8c1.9-1.7,3.8-9.5,7-6.5c2.1,5.2-0.8,4.5-2.5,7.3c2.1-1.4,3.7,0.2,5.7,1.7c2.1,1.6,4.5,3.2,7.5,2.2
			c0,0-0.8-1.1-1.4-2.1c-0.8-1.1-1.4-2.2-1.4-2.2C80.2,403.6,81.9,405.1,82.7,403.7z"/>
		<path fill="#1C75BC" stroke="#1C75BC" stroke-miterlimit="10" d="M59.6,391.3l-0.3-1.7c-0.6,2.1-1.9,3.5-4.5,6.4
			c1.6,2.7,2.9,3.2,4,3.3c0,0,0-2.2,0.2-4.3s0.3-4.3,0.3-4.3L59.6,391.3z"/>
		<path fill="#1C75BC" stroke="#1C75BC" stroke-miterlimit="10" d="M59.3,381.9c3.3,1.1,4.8,5.1,8.4,2.4c-0.3-4.9-2.9-3.3-4.3-6.2
			c0.8,8-1.7-2.2-3.8,3.8c-0.5-1.6-0.6-3-0.8-4.3c-0.5,1.4-1,2.9-1.6,4.3c0-0.2,0.2-0.2,0.2-0.2l0,0l0,0c0.5-0.3,0.6-0.5,0.5-0.2
			v0.2C58.5,381.8,59,381.8,59.3,381.9c-0.8,2.4-1,0.5-1.3-0.3c-0.2,0-0.3,0-0.5,0l0,0c0,0,0.3,2.1,0.8,4c0.3,2.1,1,4,1,4
			C59.6,388,59.6,385.7,59.3,381.9z"/>
		<path fill="#1C75BC" stroke="#1C75BC" stroke-miterlimit="10" d="M75.4,341.5c-0.2,0.3-0.5,0.2-0.6,0.3
			C75.1,342.3,75.4,342.5,75.4,341.5z"/>
		<path fill="#1C75BC" stroke="#1C75BC" stroke-miterlimit="10" d="M73.8,344.7c-0.3-0.6-1.4-1.1-1.1-2.9c0.8-1.6,1.3,0,2.1,0
			c-0.6-1.1-1.6-4-3-0.5L72,342c-1,3.2-4.6,7.2-4.9,6.7C69.7,347.7,71.4,346.9,73.8,344.7z"/>
		<path fill="#1C75BC" stroke="#1C75BC" stroke-miterlimit="10" d="M67.8,363.3c0,0,0.3,1.6,0.6,3.3c0.3,1.6,0.8,3.3,0.8,3.3
			l2.7-3.5l-1.6,0.2C70.9,362.8,69,363.6,67.8,363.3z"/>
		<path fill="#1C75BC" stroke="#1C75BC" stroke-miterlimit="10" d="M56.9,400.9l-3.8-0.5c0,0,1.4,0.8,2.7,1.7
			c1.4,0.8,2.7,1.7,2.7,1.7L56.9,400.9z"/>
		<polygon fill="#1C75BC" stroke="#1C75BC" stroke-miterlimit="10" points="57.6,409.8 54.1,409.8 56.1,412 		"/>
		<path fill="#1C75BC" stroke="#1C75BC" stroke-miterlimit="10" d="M78.2,388.6c-0.5-0.5-0.2-1.3-0.6-1.7l-1.7,0.3
			C76,389.7,77.6,391.1,78.2,388.6z"/>
	</g>
	<g>
		<path fill="#1C75BC" stroke="#1C75BC" stroke-miterlimit="10" d="M165.2,122.5c0.8-1,0.6-0.8,0.8-1
			C164.1,123.6,165.2,122.5,165.2,122.5z"/>
		<path fill="#1C75BC" stroke="#1C75BC" stroke-miterlimit="10" d="M150.9,145.3v-0.5c0,0-0.3,1-0.6,1.9c-0.3,1-0.6,1.9-0.6,1.9
			s0.3-0.8,0.6-1.6C150.6,146.1,150.9,145.3,150.9,145.3z"/>
		<path fill="#1C75BC" stroke="#1C75BC" stroke-miterlimit="10" d="M138.7,167.2c1.7-0.6,2.5-2.7,3.5-5.1c1-2.4,1.9-4.9,3.2-6.8
			l0.8-0.5c0,0-0.2-0.6-0.2-1.3c-0.2-0.6-0.2-1.1-0.2-1.1C143.3,157.4,141.1,164.2,138.7,167.2z"/>
		<path fill="#1C75BC" stroke="#1C75BC" stroke-miterlimit="10" d="M126.4,176.9c1.6-0.3-0.5,2.9,1.9-2.7c-0.3,0.2-0.3,0.3-0.6,0.3
			C127.7,175.2,127.2,175.8,126.4,176.9z"/>
		<path fill="#1C75BC" stroke="#1C75BC" stroke-miterlimit="10" d="M127.9,174.7C129.1,172.3,126.1,175.8,127.9,174.7L127.9,174.7z"
			/>
		<path fill="#1C75BC" stroke="#1C75BC" stroke-miterlimit="10" d="M122.5,185.8l0.6-3.5c-1.1,0.3-2.9,3-2.9,1.9
			C119,187.6,120.2,187.3,122.5,185.8z"/>
		<path fill="#1C75BC" stroke="#1C75BC" stroke-miterlimit="10" d="M123.3,189.6l0.3-1.7C123.1,188.1,122.8,188.5,123.3,189.6z"/>
		<path fill="#1C75BC" stroke="#1C75BC" stroke-miterlimit="10" d="M124.4,184.1l-0.8,3.8c0.8-0.3,1.9,0,0.5-1.7
			C124.8,186.8,124.2,185.8,124.4,184.1z"/>
		<path fill="#1C75BC" stroke="#1C75BC" stroke-miterlimit="10" d="M126,182.3c1.6-1.4,3.2-3.7,2.5-0.2
			C131.2,176.1,128.8,176.1,126,182.3z"/>
		<path fill="#1C75BC" stroke="#1C75BC" stroke-miterlimit="10" d="M140.6,169.4l1.7-2.1l0.2-2.4
			C142.5,166.1,139.8,169.3,140.6,169.4z"/>
		<path fill="#1C75BC" stroke="#1C75BC" stroke-miterlimit="10" d="M110.1,205.1c0.8,0.5,2.9-0.3,4-0.3l0.2-2.7
			C113.1,203.2,111.5,205.4,110.1,205.1z"/>
		<path fill="#1C75BC" stroke="#1C75BC" stroke-miterlimit="10" d="M114.2,204.7l-0.2,4.1C115.6,205.7,115.1,204.9,114.2,204.7z"/>
		<path fill="#1C75BC" stroke="#1C75BC" stroke-miterlimit="10" d="M126.8,191.5c0,0,0-1.7,0-3.3c0.2-1.6,0.2-3.3,0.2-3.3
			s-0.3,1.9-0.5,3.8c-0.2,1.9-0.3,4-0.3,4L126.8,191.5z"/>
		<path fill="#1C75BC" stroke="#1C75BC" stroke-miterlimit="10" d="M103.4,218.9l-1.3-2.7c0,0,0.5,1.1,0.8,2.4c0.5,1.1,1,2.4,1,2.4
			L103.4,218.9z"/>
		<path fill="#1C75BC" stroke="#1C75BC" stroke-miterlimit="10" d="M99.7,228.3c-1.3-2.1-4.3,1.3-4.9-0.8c-0.8,2.7,0,5.4,0.8,7.8
			C95.7,232.9,96.9,230.8,99.7,228.3z"/>
		<path fill="#1C75BC" stroke="#1C75BC" stroke-miterlimit="10" d="M96.9,239.3c-0.2-1.1-0.6-2.5-1.1-4
			C95.7,236.6,96.1,237.8,96.9,239.3z"/>
		<path fill="#1C75BC" stroke="#1C75BC" stroke-miterlimit="10" d="M110.9,214.9c-0.6,0.2-2.4,0.2-4,2.1l3.3-0.6
			C110.4,215.9,110.7,215.4,110.9,214.9z"/>
		<path fill="#1C75BC" stroke="#1C75BC" stroke-miterlimit="10" d="M110.4,216.4L110.4,216.4c-0.8,1.6-1.3,2.7-1.6,3
			C108.9,219.1,109.4,218.1,110.4,216.4z"/>
		<path fill="#1C75BC" stroke="#1C75BC" stroke-miterlimit="10" d="M111,214.6c0,0.2-0.2,0.2-0.2,0.3
			C111.2,214.9,111.3,214.8,111,214.6z"/>
		<path fill="#1C75BC" stroke="#1C75BC" stroke-miterlimit="10" d="M120.6,200.3c0.3,2.5,0,7.3,3.7,3.8
			C123.4,202,121.2,204.1,120.6,200.3z"/>
		<path fill="#1C75BC" stroke="#1C75BC" stroke-miterlimit="10" d="M115,213.8l2.2-3.7c-0.6-0.2-1.9,0.3-2.2-1c0,0,0,1.1,0,2.4
			C115,212.5,115,213.8,115,213.8z"/>
		<polygon fill="#1C75BC" stroke="#1C75BC" stroke-miterlimit="10" points="115.1,215.9 115,213.8 114.2,215.1 		"/>
		<path fill="#1C75BC" stroke="#1C75BC" stroke-miterlimit="10" d="M102.3,233.1c0.6,2.1,0.2,4-0.5,6.2c1.4-2.1,2.5-4.5,3.3-6.7
			C104.5,232.1,103.1,230.7,102.3,233.1z"/>
		<path fill="#1C75BC" stroke="#1C75BC" stroke-miterlimit="10" d="M106.4,224.9c0,0.2,0,0.3,0,0.5
			C106.7,225.3,106.9,225.1,106.4,224.9z"/>
		<path fill="#1C75BC" stroke="#1C75BC" stroke-miterlimit="10" d="M95.1,260.6c0.3,0,0.5-0.2,0.8-0.2c-0.2,0-0.3-0.2-0.6-0.2
			L95.1,260.6z"/>
		<path fill="#1C75BC" stroke="#1C75BC" stroke-miterlimit="10" d="M105.9,232.4c1.1-1.6,0.8-2.7,0.3-4c-0.2,1.3-0.5,2.7-1,4.1
			C105.6,232.9,105.9,233.1,105.9,232.4z"/>
		<path fill="#1C75BC" stroke="#1C75BC" stroke-miterlimit="10" d="M96.2,245.5c1-0.8,1.9-1.6,2.9-2.5
			C97.7,243.6,95.4,245,96.2,245.5z"/>
		<path fill="#1C75BC" stroke="#1C75BC" stroke-miterlimit="10" d="M105.4,225.7c0-0.2,0-0.2,0-0.3
			C104.5,225.9,104.8,225.9,105.4,225.7z"/>
		<path fill="#1C75BC" stroke="#1C75BC" stroke-miterlimit="10" d="M105.4,225.7c0,1,0.5,1.9,1,2.7c0.2-1.1,0.2-2.1,0.2-3
			C106.1,225.6,105.8,225.7,105.4,225.7z"/>
		<path fill="#1C75BC" stroke="#1C75BC" stroke-miterlimit="10" d="M116.9,271.2c-3.5-1-5.6-6-1.4-9.2c-1.6-4.3-12.7-4-19.7-1.7
			c1.4,0.3,2.7,0.6,3.7,5.1c2.2-1.1,6.4-8.1,8.6-4.1c0.5,5.6-2.1,4.1-4.5,6.4c2.4-0.8,3.5,1.3,4.9,3.3c1.4,2.1,3.2,4.5,6.5,4.3
			c0,0-0.3-1.3-0.8-2.5c-0.3-1.3-0.8-2.5-0.8-2.5C114.5,270.4,115.8,272.3,116.9,271.2z"/>
		<path fill="#1C75BC" stroke="#1C75BC" stroke-miterlimit="10" d="M98.4,252.6l0.2-1.7c-1.1,1.7-2.9,2.9-6.2,4.8
			c0.6,3,1.7,4,2.9,4.3c0,0,0.6-2.1,1.4-4c0.8-2.1,1.4-4,1.4-4L98.4,252.6z"/>
		<path fill="#1C75BC" stroke="#1C75BC" stroke-miterlimit="10" d="M101,243.6c2.9,2.1,3,6.2,7.3,4.6c1.1-4.8-1.7-4-2.2-7.2
			c-1.6,8-1.1-2.7-4.8,2.5c0-1.6,0.3-3,0.6-4.3c-0.8,1.3-1.7,2.5-2.9,3.7c0.2,0,0.2-0.2,0.3-0.2l0,0l0,0c0.5-0.2,0.8-0.3,0.5,0v0.2
			C100.2,243.1,100.5,243.4,101,243.6c-1.4,2.1-1,0.2-1.1-0.6c-0.2,0-0.3-0.2-0.5-0.2l0,0c0,0-0.2,2.1-0.5,4.1
			c-0.2,2.1-0.3,4.1-0.3,4.1C99.6,249.4,100,247.4,101,243.6z"/>
		<path fill="#1C75BC" stroke="#1C75BC" stroke-miterlimit="10" d="M128,209.7c-0.3,0.2-0.5,0.2-0.6,0
			C127.6,210.3,127.7,210.5,128,209.7z"/>
		<path fill="#1C75BC" stroke="#1C75BC" stroke-miterlimit="10" d="M125.5,212.2c-0.2-0.6-1-1.4-0.2-3c1.3-1.3,1.1,0.3,2.1,0.5
			c-0.3-1.3-0.5-4.3-2.9-1.3l0.2,0.6c-1.9,2.7-6.5,5.6-6.7,4.9C120.7,213.8,122.6,213.5,125.5,212.2z"/>
		<path fill="#1C75BC" stroke="#1C75BC" stroke-miterlimit="10" d="M114.4,228.1c0,0-0.2,1.6-0.3,3.3c-0.2,1.6-0.3,3.3-0.3,3.3
			l3.5-2.5l-1.6-0.3C117.5,228.6,115.3,228.9,114.4,228.1z"/>
		<path fill="#1C75BC" stroke="#1C75BC" stroke-miterlimit="10" d="M93,260.9l-3.5-1.6c0,0,1.1,1.3,2.1,2.4c1.1,1.3,2.2,2.4,2.2,2.4
			L93,260.9z"/>
		<polygon fill="#1C75BC" stroke="#1C75BC" stroke-miterlimit="10" points="91.1,269.6 87.6,268.7 89.2,271.4 		"/>
		<path fill="#1C75BC" stroke="#1C75BC" stroke-miterlimit="10" d="M117.1,255.5c-0.3-0.6,0.2-1.1-0.2-1.9l-1.7-0.2
			C114.7,255.8,115.8,257.7,117.1,255.5z"/>
	</g>
	<g>
		<path fill="#1C75BC" stroke="#1C75BC" stroke-miterlimit="10" d="M26.4,315.9c-0.2-1.3-0.2-1.1-0.2-1.3
			C26.6,317.5,26.6,315.9,26.4,315.9z"/>
		<path fill="#1C75BC" stroke="#1C75BC" stroke-miterlimit="10" d="M32.8,342l-0.5-0.3c0,0,0.5,1,1,1.7c0.5,1,1,1.7,1,1.7
			s-0.3-0.8-0.8-1.6C33.1,342.8,32.8,342,32.8,342z"/>
		<path fill="#1C75BC" stroke="#1C75BC" stroke-miterlimit="10" d="M39.9,366.2c0.8-1.6-0.2-3.7-1.1-6c-1.1-2.2-2.2-4.8-2.5-7.2
			l0.2-0.8c0,0-0.5-0.3-1-0.6c-0.5-0.3-1-0.6-1-0.6C36.1,356,39.3,362.2,39.9,366.2z"/>
		<path fill="#1C75BC" stroke="#1C75BC" stroke-miterlimit="10" d="M38.3,381.6c0.8-1.3,1.7,2.4-0.5-3.2c0,0.3,0,0.5-0.2,0.6
			C37.9,379.5,38,380.3,38.3,381.6z"/>
		<path fill="#1C75BC" stroke="#1C75BC" stroke-miterlimit="10" d="M37.7,379.1C36.9,376.5,37.2,381.1,37.7,379.1L37.7,379.1z"/>
		<path fill="#1C75BC" stroke="#1C75BC" stroke-miterlimit="10" d="M41.8,390.8l-2.1-2.9c-0.5,1.1,0.2,4.1-0.6,3.3
			C40.7,394.5,41.4,393.4,41.8,390.8z"/>
		<path fill="#1C75BC" stroke="#1C75BC" stroke-miterlimit="10" d="M45.2,392.9l-1.1-1.6C43.9,391.8,43.9,392.4,45.2,392.9z"/>
		<path fill="#1C75BC" stroke="#1C75BC" stroke-miterlimit="10" d="M42,388.1l2.2,3.2c0.3-0.8,1.3-1.3-1-1.6
			C44.2,389.7,43.1,389.4,42,388.1z"/>
		<path fill="#1C75BC" stroke="#1C75BC" stroke-miterlimit="10" d="M41.8,385.7c0-2.2-0.3-4.8,1.7-1.9
			C41,377.6,39.4,379.5,41.8,385.7z"/>
		<path fill="#1C75BC" stroke="#1C75BC" stroke-miterlimit="10" d="M42.8,366.3l-0.3-2.7l-1.6-1.7C41.8,362.7,42.1,366.8,42.8,366.3
			z"/>
		<path fill="#1C75BC" stroke="#1C75BC" stroke-miterlimit="10" d="M47.1,413.1c1-0.2,1.7-2.2,2.7-3L48,408
			C47.7,409.4,48.2,412.1,47.1,413.1z"/>
		<path fill="#1C75BC" stroke="#1C75BC" stroke-miterlimit="10" d="M49.6,409.9l2.9,2.9C51.4,409.6,50.4,409.3,49.6,409.9z"/>
		<path fill="#1C75BC" stroke="#1C75BC" stroke-miterlimit="10" d="M49,391.8c0,0-1.3-1.1-2.4-2.4c-1.1-1.3-2.2-2.4-2.2-2.4
			s1.3,1.6,2.5,3s2.5,2.9,2.5,2.9L49,391.8z"/>
		<path fill="#1C75BC" stroke="#1C75BC" stroke-miterlimit="10" d="M52.2,427.4l-2.9-1c0,0,1.1,0.5,2.2,1.1c1.1,0.5,2.2,1,2.2,1
			L52.2,427.4z"/>
		<path fill="#1C75BC" stroke="#1C75BC" stroke-miterlimit="10" d="M56.5,436.6c-2.4-0.5-2.2,4-4,3c1.4,2.4,3.8,3.7,6.2,4.8
			C56.9,442.8,56.1,440.5,56.5,436.6z"/>
		<path fill="#1C75BC" stroke="#1C75BC" stroke-miterlimit="10" d="M62.2,446.3c-1-0.8-2.2-1.3-3.5-1.9
			C59.5,445.2,60.6,446,62.2,446.3z"/>
		<path fill="#1C75BC" stroke="#1C75BC" stroke-miterlimit="10" d="M54.6,419.3c-0.3,0.6-1.6,1.9-1.3,4.3l1.9-2.9
			C55,420.4,54.7,419.9,54.6,419.3z"/>
		<path fill="#1C75BC" stroke="#1C75BC" stroke-miterlimit="10" d="M55.2,420.7L55.2,420.7c0.5,1.7,1,2.9,1.1,3.3
			C56.1,423.6,55.8,422.6,55.2,420.7z"/>
		<path fill="#1C75BC" stroke="#1C75BC" stroke-miterlimit="10" d="M54.4,419c0,0.2,0.2,0.2,0.2,0.3C54.7,419.1,54.9,419,54.4,419z"
			/>
		<path fill="#1C75BC" stroke="#1C75BC" stroke-miterlimit="10" d="M50.9,402.1c2.1,1.6,5.2,5.2,5.2,0
			C54.1,401.5,54.1,404.3,50.9,402.1z"/>
		<path fill="#1C75BC" stroke="#1C75BC" stroke-miterlimit="10" d="M56.6,415.6l-1.1-4.1c-0.6,0.5-1.1,1.6-2.2,0.8
			c0,0,0.8,0.8,1.6,1.6C55.8,414.8,56.6,415.6,56.6,415.6z"/>
		<polygon fill="#1C75BC" stroke="#1C75BC" stroke-miterlimit="10" points="58.2,417.1 56.6,415.6 57.1,417.1 		"/>
		<path fill="#1C75BC" stroke="#1C75BC" stroke-miterlimit="10" d="M61.7,438.2c1.9,1,2.9,2.7,4.1,4.6c-0.5-2.5-1.3-4.9-2.4-7
			C62.3,436,60.4,435.8,61.7,438.2z"/>
		<path fill="#1C75BC" stroke="#1C75BC" stroke-miterlimit="10" d="M58.7,429.6c0.2,0.2,0.2,0.2,0.3,0.3
			C59.2,429.5,59.2,429.3,58.7,429.6z"/>
		<path fill="#1C75BC" stroke="#1C75BC" stroke-miterlimit="10" d="M76.2,462.6c0.2-0.2,0.2-0.5,0.3-0.6c-0.2,0.2-0.3,0.2-0.5,0.3
			L76.2,462.6z"/>
		<path fill="#1C75BC" stroke="#1C75BC" stroke-miterlimit="10" d="M63.6,435c-0.3-1.9-1.4-2.5-2.5-3c0.8,1.1,1.6,2.2,2.2,3.7
			C63.8,435.7,64.1,435.5,63.6,435z"/>
		<path fill="#1C75BC" stroke="#1C75BC" stroke-miterlimit="10" d="M66.2,451.3c0.2-1.3,0.2-2.5,0.2-3.8
			C65.8,448.7,65.4,451.4,66.2,451.3z"/>
		<path fill="#1C75BC" stroke="#1C75BC" stroke-miterlimit="10" d="M58.5,430.9l-0.2-0.2C58.1,431.5,58.2,431.2,58.5,430.9z"/>
		<path fill="#1C75BC" stroke="#1C75BC" stroke-miterlimit="10" d="M58.5,430.9c0.8,0.6,1.7,1,2.5,1.3c-0.6-1-1.4-1.6-2.1-2.2
			C58.8,430.1,58.7,430.6,58.5,430.9z"/>
		<path fill="#1C75BC" stroke="#1C75BC" stroke-miterlimit="10" d="M99.1,454.4c-3,1.7-8.1-0.2-7.5-5.4c-4.1-1.7-11.8,6.2-15,12.9
			c1.3-0.8,2.4-1.4,6.2,1c0.8-2.4-1.3-10.2,3-9.1c4.5,3.5,1.4,4.5,1.4,7.6c1.1-2.2,3.3-1.6,5.9-1.3c2.5,0.5,5.4,0.8,7.6-1.6
			c0,0-1.1-0.6-2.4-1.1c-1.1-0.6-2.2-1.3-2.2-1.3C96.7,455.6,99.1,456,99.1,454.4z"/>
		<path fill="#1C75BC" stroke="#1C75BC" stroke-miterlimit="10" d="M72.8,454.6l-1.1-1.3c0.5,2.1,0,4-0.8,7.8c2.7,1.7,4,1.4,5.1,1
			c0,0-1-1.9-1.9-3.8c-1-1.9-1.9-3.8-1.9-3.8L72.8,454.6z"/>
		<path fill="#1C75BC" stroke="#1C75BC" stroke-miterlimit="10" d="M68.2,446.5c3.3-0.6,6.7,2.2,8.4-2.1c-2.7-4.1-4.1-1.4-6.7-3.3
			c4.5,6.7-2.7-1.1-1.4,5.1c-1.3-1.1-2.1-2.4-2.7-3.5c0.3,1.6,0.5,3,0.6,4.6c0-0.2,0-0.2,0.2-0.3l0,0l0,0c0.2-0.5,0.3-0.8,0.3-0.3
			l0.2,0.2C67.3,446.7,67.8,446.7,68.2,446.5c0.5,2.5-0.6,0.8-1.3,0.3c-0.2,0-0.3,0.2-0.5,0.2l0,0c0,0,1.3,1.6,2.5,3.2
			c1.3,1.6,2.7,3,2.7,3C71.3,451.6,70.1,449.7,68.2,446.5z"/>
		<path fill="#1C75BC" stroke="#1C75BC" stroke-miterlimit="10" d="M62.8,403.4c-0.2,0.3-0.3,0.3-0.5,0.5
			C62.8,404.2,63.1,404.3,62.8,403.4z"/>
		<path fill="#1C75BC" stroke="#1C75BC" stroke-miterlimit="10" d="M62.8,407.1c-0.6-0.3-1.7-0.3-2.4-2.1c0-1.7,1.1-0.6,1.7-1.1
			c-1.1-0.6-3.3-2.7-2.9,1.1l0.5,0.3c0.6,3.2-0.5,8.6-1.1,8.3C60.6,411.5,61.9,410.1,62.8,407.1z"/>
		<path fill="#1C75BC" stroke="#1C75BC" stroke-miterlimit="10" d="M66.5,426.1c0,0,1.1,1.3,2.2,2.5c1.1,1.3,2.2,2.5,2.2,2.5
			l0.6-4.3l-1.3,1C69,424.2,67.8,426,66.5,426.1z"/>
		<path fill="#1C75BC" stroke="#1C75BC" stroke-miterlimit="10" d="M75.1,464.3l-3.7,1.4c0,0,1.6,0.2,3.2,0.2s3.2,0.2,3.2,0.2
			L75.1,464.3z"/>
		<polygon fill="#1C75BC" stroke="#1C75BC" stroke-miterlimit="10" points="79.8,471.8 76.8,473.5 79.8,474.3 		"/>
		<path fill="#1C75BC" stroke="#1C75BC" stroke-miterlimit="10" d="M88,443.3c-0.6-0.2-0.6-1-1.4-1.1l-1.4,1.1
			C86.5,445.2,88.6,445.9,88,443.3z"/>
	</g>
	<g>
		<path fill="#1C75BC" stroke="#1C75BC" stroke-width="2" stroke-miterlimit="10" d="M10,441.4c-0.6-1.1-0.6-1-0.6-1.1
			C10.7,442.7,10,441.2,10,441.4z"/>
		<path fill="#1C75BC" stroke="#1C75BC" stroke-width="2" stroke-miterlimit="10" d="M27,462.1l-0.5-0.2c0,0,0.8,0.6,1.6,1.1
			c0.8,0.6,1.6,1.1,1.6,1.1s-0.6-0.5-1.4-1.1C27.7,462.6,27,462.1,27,462.1z"/>
		<path fill="#1C75BC" stroke="#1C75BC" stroke-width="2" stroke-miterlimit="10" d="M44.2,480.5c0-1.7-1.7-3.3-3.7-4.9
			c-1.9-1.6-4.1-3.3-5.4-5.2l-0.2-0.8c0,0-0.6-0.2-1.3-0.2c-0.6-0.2-1.1-0.2-1.1-0.2C36.1,473.1,41.8,477.4,44.2,480.5z"/>
		<path fill="#1C75BC" stroke="#1C75BC" stroke-width="2" stroke-miterlimit="10" d="M49.5,495.2c0.2-1.6,2.5,1.4-1.9-2.7
			c0.2,0.3,0.2,0.5,0.2,0.6C48.2,493.6,48.7,494.1,49.5,495.2z"/>
		<path fill="#1C75BC" stroke="#1C75BC" stroke-width="2" stroke-miterlimit="10" d="M47.7,493.1C46,491.2,48.3,495.2,47.7,493.1
			L47.7,493.1z"/>
		<path fill="#1C75BC" stroke="#1C75BC" stroke-width="2" stroke-miterlimit="10" d="M56.6,501.8l-3.2-1.7c0,1.1,2.1,3.7,1,3.2
			C57.3,505.7,57.3,504.4,56.6,501.8z"/>
		<path fill="#1C75BC" stroke="#1C75BC" stroke-width="2" stroke-miterlimit="10" d="M60.6,502.3l-1.6-1
			C59,501.8,59.3,502.3,60.6,502.3z"/>
		<path fill="#1C75BC" stroke="#1C75BC" stroke-width="2" stroke-miterlimit="10" d="M55.7,499.3l3.3,1.9c0-0.8,0.6-1.7-1.4-1
			C58.4,499.8,57.3,500.1,55.7,499.3z"/>
		<path fill="#1C75BC" stroke="#1C75BC" stroke-width="2" stroke-miterlimit="10" d="M54.4,497.4c-1-2.1-2.4-4.1,0.8-2.5
			C50.1,490.4,49.5,492.8,54.4,497.4z"/>
		<path fill="#1C75BC" stroke="#1C75BC" stroke-width="2" stroke-miterlimit="10" d="M46.8,479.4l-1.4-2.4l-2.2-1
			C44.2,476.6,46.4,480.1,46.8,479.4z"/>
		<path fill="#1C75BC" stroke="#1C75BC" stroke-width="2" stroke-miterlimit="10" d="M71.1,519.5c0.6-0.6,0.5-2.9,1-4l-2.5-1
			C70.1,516,71.7,518.2,71.1,519.5z"/>
		<path fill="#1C75BC" stroke="#1C75BC" stroke-width="2" stroke-miterlimit="10" d="M72,515.7l3.8,1.4
			C73.5,514.6,72.5,514.7,72,515.7z"/>
		<path fill="#1C75BC" stroke="#1C75BC" stroke-width="2" stroke-miterlimit="10" d="M63.5,499.5c0,0-1.6-0.5-3.2-1.1
			c-1.6-0.6-3.2-1.3-3.2-1.3s1.7,0.8,3.5,1.6c1.7,0.8,3.7,1.4,3.7,1.4L63.5,499.5z"/>
		<path fill="#1C75BC" stroke="#1C75BC" stroke-width="2" stroke-miterlimit="10" d="M82.1,530.2l-3,0.3c0,0,1.3,0,2.5,0
			s2.5-0.2,2.5-0.2L82.1,530.2z"/>
		<path fill="#1C75BC" stroke="#1C75BC" stroke-width="2" stroke-miterlimit="10" d="M89.9,536.7c-2.4,0.6-0.2,4.5-2.2,4.5
			c2.2,1.6,5.1,1.6,7.6,1.6C93,541.9,91.3,540.2,89.9,536.7z"/>
		<path fill="#1C75BC" stroke="#1C75BC" stroke-width="2" stroke-miterlimit="10" d="M99.4,542.9c-1.1-0.3-2.5-0.2-4.1-0.2
			C96.4,543,97.8,543.2,99.4,542.9z"/>
		<path fill="#1C75BC" stroke="#1C75BC" stroke-width="2" stroke-miterlimit="10" d="M80.6,521.9c-0.2,0.6-0.5,2.4,0.8,4.5l0.5-3.3
			C81.4,522.7,81.1,522.2,80.6,521.9z"/>
		<path fill="#1C75BC" stroke="#1C75BC" stroke-width="2" stroke-miterlimit="10" d="M81.7,522.8L81.7,522.8
			c1.3,1.3,2.1,2.1,2.4,2.4C84,525.1,83.2,524.3,81.7,522.8z"/>
		<path fill="#1C75BC" stroke="#1C75BC" stroke-width="2" stroke-miterlimit="10" d="M80.3,521.6c0.2,0.2,0.2,0.2,0.3,0.3
			C80.6,521.6,80.6,521.4,80.3,521.6z"/>
		<path fill="#1C75BC" stroke="#1C75BC" stroke-width="2" stroke-miterlimit="10" d="M69.8,508c2.5,0.5,7,2.4,4.8-2.2
			C72.4,506,73.6,508.7,69.8,508z"/>
		<path fill="#1C75BC" stroke="#1C75BC" stroke-width="2" stroke-miterlimit="10" d="M80.8,517.6l-2.9-3.2c-0.3,0.6-0.3,1.9-1.6,1.7
			c0,0,1.1,0.3,2.2,0.8C79.7,517.3,80.8,517.6,80.8,517.6z"/>
		<polygon fill="#1C75BC" stroke="#1C75BC" stroke-width="2" stroke-miterlimit="10" points="82.9,518.2 80.8,517.6 81.9,518.7 		
			"/>
		<path fill="#1C75BC" stroke="#1C75BC" stroke-width="2" stroke-miterlimit="10" d="M95.3,535.7c2.2,0,3.8,1.1,5.7,2.4
			c-1.6-2.1-3.3-3.8-5.2-5.2C94.9,533.3,93.2,534.1,95.3,535.7z"/>
		<path fill="#1C75BC" stroke="#1C75BC" stroke-width="2" stroke-miterlimit="10" d="M88.7,529.4c0.2,0,0.3,0.2,0.5,0.2
			C89.2,529,89.1,528.9,88.7,529.4z"/>
		<path fill="#1C75BC" stroke="#1C75BC" stroke-width="2" stroke-miterlimit="10" d="M119,551.1c0-0.3,0-0.5,0-0.8
			c-0.2,0.2-0.2,0.3-0.3,0.5L119,551.1z"/>
		<path fill="#1C75BC" stroke="#1C75BC" stroke-width="2" stroke-miterlimit="10" d="M95.7,532.1c-1.1-1.6-2.4-1.6-3.7-1.6
			c1.3,0.6,2.4,1.4,3.7,2.2C96.1,532.5,96.2,532.2,95.7,532.1z"/>
		<path fill="#1C75BC" stroke="#1C75BC" stroke-width="2" stroke-miterlimit="10" d="M105.1,545.4c-0.3-1.3-1-2.4-1.6-3.5
			C103.7,543.4,104.3,545.9,105.1,545.4z"/>
		<path fill="#1C75BC" stroke="#1C75BC" stroke-width="2" stroke-miterlimit="10" d="M89.2,530.5c-0.2,0-0.2,0-0.3,0
			C89.1,531.3,89.2,530.9,89.2,530.5z"/>
		<path fill="#1C75BC" stroke="#1C75BC" stroke-width="2" stroke-miterlimit="10" d="M89.2,530.5c1,0.3,1.9,0.2,2.9,0
			c-1-0.5-1.9-1-2.9-1.1C89.2,529.7,89.2,530.2,89.2,530.5z"/>
		<path fill="#1C75BC" stroke="#1C75BC" stroke-width="2" stroke-miterlimit="10" d="M136,533.8c-1.9,3-7.5,3.3-9.1-1.6
			c-4.6,0.2-7.8,10.8-7.8,18.3c0.8-1.3,1.4-2.4,5.9-1.9c-0.3-2.5-5.7-8.6-1.3-9.4c5.4,1.3,3.2,3.3,4.6,6.4c0-2.5,2.2-2.9,4.8-3.7
			c2.5-0.8,5.2-1.7,6.2-4.9c0,0-1.3,0-2.5,0c-1.3,0-2.5-0.2-2.5-0.2C134.4,535.9,136.6,535.2,136,533.8z"/>
		<path fill="#1C75BC" stroke="#1C75BC" stroke-width="2" stroke-miterlimit="10" d="M112.6,545.6l-1.6-0.6c1.3,1.6,1.7,3.5,2.7,7.3
			c3.2,0.3,4.3-0.5,4.9-1.3c0,0-1.7-1.3-3.3-2.7c-1.7-1.3-3.3-2.7-3.3-2.7H112.6z"/>
		<path fill="#1C75BC" stroke="#1C75BC" stroke-width="2" stroke-miterlimit="10" d="M104.8,540.3c2.9-2.1,6.8-1,6.7-5.6
			c-4.1-2.5-4.3,0.5-7.5-0.2c7,4-2.9,0.2,1,5.2c-1.6-0.5-2.9-1.3-4-1.9c1,1.3,1.7,2.5,2.5,3.8c0-0.2,0-0.2,0-0.3l0,0l0,0
			c0-0.6,0-0.8,0.2-0.5h0.2C104,540.8,104.5,540.7,104.8,540.3c1.6,2.1-0.2,1-1,0.8c-0.2,0.2-0.3,0.2-0.3,0.3l0,0
			c0,0,1.9,0.8,3.7,1.7c1.9,0.8,3.8,1.6,3.8,1.6C109.9,543.5,108,542.4,104.8,540.3z"/>
		<path fill="#1C75BC" stroke="#1C75BC" stroke-width="2" stroke-miterlimit="10" d="M81,503.9c0,0.3,0,0.5-0.2,0.6
			C81.4,504.7,81.7,504.5,81,503.9z"/>
		<path fill="#1C75BC" stroke="#1C75BC" stroke-width="2" stroke-miterlimit="10" d="M82.7,507.1c-0.6,0-1.6,0.5-3-0.8
			c-0.8-1.6,0.8-1,1.1-1.7c-1.3-0.2-4.1-1-2.1,2.2h0.6c2.1,2.5,3.3,8,2.5,8C82.7,512.2,83,510.3,82.7,507.1z"/>
		<path fill="#1C75BC" stroke="#1C75BC" stroke-width="2" stroke-miterlimit="10" d="M94.3,522.7c0,0,1.6,0.6,3,1.4
			c1.6,0.6,3,1.3,3,1.3l-1.3-4.1l-0.8,1.4C95.7,520,95.4,522,94.3,522.7z"/>
		<path fill="#1C75BC" stroke="#1C75BC" stroke-width="2" stroke-miterlimit="10" d="M118.8,553.2l-2.7,2.9c0,0,1.4-0.6,3-1.3
			c1.4-0.6,3-1.3,3-1.3L118.8,553.2z"/>
		<polygon fill="#1C75BC" stroke="#1C75BC" stroke-width="2" stroke-miterlimit="10" points="126.4,557.8 124.5,560.8 127.4,560.2 
					"/>
		<path fill="#1C75BC" stroke="#1C75BC" stroke-width="2" stroke-miterlimit="10" d="M121,528.7c-0.8,0.2-1.1-0.5-1.7-0.5l-0.8,1.6
			C120.7,531.1,122.8,530.8,121,528.7z"/>
	</g>
	<g>
		<path fill="#1C75BC" stroke="#1C75BC" stroke-width="2" stroke-miterlimit="10" d="M20.4,521.7c-1-0.8-0.8-0.6-1-0.8
			C21.5,522.7,20.4,521.6,20.4,521.7z"/>
		<path fill="#1C75BC" stroke="#1C75BC" stroke-width="2" stroke-miterlimit="10" d="M43.3,535.6h-0.5c0,0,1,0.3,1.9,0.6
			c1,0.3,1.9,0.5,1.9,0.5s-0.8-0.3-1.6-0.6C44.1,535.9,43.3,535.6,43.3,535.6z"/>
		<path fill="#1C75BC" stroke="#1C75BC" stroke-width="2" stroke-miterlimit="10" d="M65.5,547.3c-0.6-1.7-2.7-2.5-5.1-3.3
			c-2.4-0.8-5.1-1.7-6.8-3.2l-0.5-0.8c0,0-0.6,0.2-1.1,0.3c-0.6,0.2-1.1,0.2-1.1,0.2C55.5,543,62.3,545.1,65.5,547.3z"/>
		<path fill="#1C75BC" stroke="#1C75BC" stroke-width="2" stroke-miterlimit="10" d="M75.4,559.4c-0.3-1.6,2.9,0.5-2.7-1.9
			c0.2,0.3,0.3,0.3,0.5,0.6C73.6,558.3,74.3,558.6,75.4,559.4z"/>
		<path fill="#1C75BC" stroke="#1C75BC" stroke-width="2" stroke-miterlimit="10" d="M73.2,558C70.8,556.7,74.3,559.9,73.2,558
			L73.2,558z"/>
		<path fill="#1C75BC" stroke="#1C75BC" stroke-width="2" stroke-miterlimit="10" d="M84.5,563.4l-3.5-0.6c0.5,1.1,3.2,2.9,1.9,2.7
			C86.2,566.7,85.9,565.6,84.5,563.4z"/>
		<path fill="#1C75BC" stroke="#1C75BC" stroke-width="2" stroke-miterlimit="10" d="M88.3,562.4l-1.7-0.3
			C86.7,562.6,87,562.9,88.3,562.4z"/>
		<path fill="#1C75BC" stroke="#1C75BC" stroke-width="2" stroke-miterlimit="10" d="M82.5,561.3l3.8,0.8c-0.3-0.8,0-1.9-1.7-0.5
			C85.2,560.8,84.3,561.5,82.5,561.3z"/>
		<path fill="#1C75BC" stroke="#1C75BC" stroke-width="2" stroke-miterlimit="10" d="M80.8,559.9c-1.6-1.6-3.7-3.2-0.2-2.5
			C74.4,554.6,74.6,557,80.8,559.9z"/>
		<path fill="#1C75BC" stroke="#1C75BC" stroke-width="2" stroke-miterlimit="10" d="M67.6,545.4l-2.1-1.7l-2.4-0.2
			C64.4,543.7,67.6,546.2,67.6,545.4z"/>
		<path fill="#1C75BC" stroke="#1C75BC" stroke-width="2" stroke-miterlimit="10" d="M103.9,575.3c0.5-0.8-0.5-2.9-0.3-4l-2.7-0.2
			C101.8,572.3,104,573.9,103.9,575.3z"/>
		<path fill="#1C75BC" stroke="#1C75BC" stroke-width="2" stroke-miterlimit="10" d="M103.5,571.2h4.1
			C104.3,569.8,103.5,570.2,103.5,571.2z"/>
		<path fill="#1C75BC" stroke="#1C75BC" stroke-width="2" stroke-miterlimit="10" d="M90,558.9c0,0-1.7,0-3.3,0
			c-1.6,0-3.3-0.2-3.3-0.2s1.9,0.2,3.8,0.3s4,0.2,4,0.2L90,558.9z"/>
		<path fill="#1C75BC" stroke="#1C75BC" stroke-width="2" stroke-miterlimit="10" d="M117.7,581.7L115,583c0,0,1.1-0.5,2.4-0.8
			c1.1-0.5,2.4-1,2.4-1L117.7,581.7z"/>
		<path fill="#1C75BC" stroke="#1C75BC" stroke-width="2" stroke-miterlimit="10" d="M127.2,585.2c-2.1,1.3,1.3,4.3-0.6,4.9
			c2.7,0.8,5.4-0.2,7.6-1C132,589.2,129.8,588,127.2,585.2z"/>
		<path fill="#1C75BC" stroke="#1C75BC" stroke-width="2" stroke-miterlimit="10" d="M138.2,587.9c-1.1,0.2-2.5,0.6-4,1.1
			C135.5,589,136.8,588.8,138.2,587.9z"/>
		<path fill="#1C75BC" stroke="#1C75BC" stroke-width="2" stroke-miterlimit="10" d="M113.7,574.4c0.2,0.6,0.3,2.4,2.1,4l-0.6-3.3
			C114.7,574.8,114.2,574.5,113.7,574.4z"/>
		<path fill="#1C75BC" stroke="#1C75BC" stroke-width="2" stroke-miterlimit="10" d="M115.1,574.8L115.1,574.8
			c1.6,0.8,2.7,1.3,3.2,1.4C117.9,576.1,116.9,575.6,115.1,574.8z"/>
		<path fill="#1C75BC" stroke="#1C75BC" stroke-width="2" stroke-miterlimit="10" d="M113.2,574.2c0.2,0,0.2,0.2,0.3,0.2
			C113.6,574,113.6,573.9,113.2,574.2z"/>
		<path fill="#1C75BC" stroke="#1C75BC" stroke-width="2" stroke-miterlimit="10" d="M98.8,564.8c2.5-0.3,7.3-0.2,3.7-3.7
			C100.5,562.1,102.6,564.2,98.8,564.8z"/>
		<path fill="#1C75BC" stroke="#1C75BC" stroke-width="2" stroke-miterlimit="10" d="M112.4,570.2l-3.7-2.1c-0.2,0.6,0.3,1.9-1,2.2
			c0,0,1.1,0,2.4,0C111.3,570.2,112.4,570.2,112.4,570.2z"/>
		<polygon fill="#1C75BC" stroke="#1C75BC" stroke-width="2" stroke-miterlimit="10" points="114.5,570.1 112.4,570.2 113.9,571 		
			"/>
		<path fill="#1C75BC" stroke="#1C75BC" stroke-width="2" stroke-miterlimit="10" d="M132,582.5c2.1-0.6,4-0.2,6.2,0.3
			c-2.2-1.4-4.5-2.5-6.7-3.3C130.9,580.4,129.6,581.8,132,582.5z"/>
		<path fill="#1C75BC" stroke="#1C75BC" stroke-width="2" stroke-miterlimit="10" d="M123.7,578.7c0.2,0,0.3,0,0.5,0
			C124.1,578.2,123.9,578.2,123.7,578.7z"/>
		<path fill="#1C75BC" stroke="#1C75BC" stroke-width="2" stroke-miterlimit="10" d="M159.5,589.3c-0.2-0.3-0.2-0.5-0.2-0.8
			c0,0.2-0.2,0.3-0.2,0.6L159.5,589.3z"/>
		<path fill="#1C75BC" stroke="#1C75BC" stroke-width="2" stroke-miterlimit="10" d="M131.2,579c-1.6-1.1-2.7-0.8-4-0.3
			c1.3,0.2,2.7,0.5,4.1,1C131.7,579.3,131.8,579,131.2,579z"/>
		<path fill="#1C75BC" stroke="#1C75BC" stroke-width="2" stroke-miterlimit="10" d="M144.6,588.5c-0.8-1-1.7-1.9-2.7-2.9
			C142.5,586.9,143.9,589.2,144.6,588.5z"/>
		<path fill="#1C75BC" stroke="#1C75BC" stroke-width="2" stroke-miterlimit="10" d="M124.5,579.6c-0.2,0-0.2,0-0.3,0
			C124.7,580.4,124.7,580.1,124.5,579.6z"/>
		<path fill="#1C75BC" stroke="#1C75BC" stroke-width="2" stroke-miterlimit="10" d="M124.5,579.6c1-0.2,1.9-0.5,2.7-1
			c-1.1-0.2-2.1-0.2-3-0.2C124.4,578.8,124.5,579.3,124.5,579.6z"/>
		<path fill="#1C75BC" stroke="#1C75BC" stroke-width="2" stroke-miterlimit="10" d="M169.9,567.4c-0.8,3.5-5.9,5.7-9.2,1.4
			c-4.3,1.7-3.8,12.7-1.4,19.7c0.3-1.4,0.6-2.7,4.9-3.7c-1.1-2.2-8.3-6.2-4.3-8.4c5.6-0.6,4.1,2.1,6.4,4.5c-0.8-2.4,1.1-3.5,3.3-5.1
			c2.1-1.4,4.3-3.3,4.3-6.7c0,0-1.3,0.5-2.4,0.8c-1.3,0.5-2.5,0.8-2.5,0.8C169.1,569.8,171,568.5,169.9,567.4z"/>
		<path fill="#1C75BC" stroke="#1C75BC" stroke-width="2" stroke-miterlimit="10" d="M151.7,586.1L150,586c1.7,1.1,2.9,2.7,4.9,6
			c3-0.8,3.8-1.9,4.3-2.9c0,0-2.1-0.6-4.1-1.4c-2.1-0.6-4-1.4-4-1.4L151.7,586.1z"/>
		<path fill="#1C75BC" stroke="#1C75BC" stroke-width="2" stroke-miterlimit="10" d="M142.5,583.8c1.9-2.9,6.2-3.2,4.6-7.5
			c-4.8-1.1-4,1.9-7.2,2.4c8,1.4-2.5,1.1,2.5,4.6c-1.6,0-3-0.2-4.5-0.5c1.3,0.8,2.5,1.7,3.7,2.9c0-0.2-0.2-0.2-0.2-0.3l0,0l0,0
			c-0.3-0.5-0.3-0.8,0-0.5h0.2C142,584.5,142.3,584.1,142.5,583.8c2.1,1.4,0.2,1-0.6,1.1c0,0.2-0.2,0.3-0.2,0.5l0,0
			c0,0,2.1,0.2,4.1,0.3c2.1,0.2,4.1,0.3,4.1,0.3C148.4,585,146.3,584.5,142.5,583.8z"/>
		<path fill="#1C75BC" stroke="#1C75BC" stroke-width="2" stroke-miterlimit="10" d="M108.1,557.3c0.2,0.3,0.2,0.5,0,0.6
			C108.8,557.8,108.9,557.7,108.1,557.3z"/>
		<path fill="#1C75BC" stroke="#1C75BC" stroke-width="2" stroke-miterlimit="10" d="M110.7,559.7c-0.6,0.2-1.4,1-3,0.2
			c-1.3-1.3,0.3-1.1,0.5-2.1c-1.3,0.3-4.3,0.5-1.3,2.9l0.6-0.2c2.7,1.7,5.7,6.4,5.1,6.5C112.4,564.5,112.1,562.6,110.7,559.7z"/>
		<path fill="#1C75BC" stroke="#1C75BC" stroke-width="2" stroke-miterlimit="10" d="M126.9,570.6c0,0,1.7,0.2,3.3,0.3
			c1.6,0.2,3.3,0.2,3.3,0.2l-2.5-3.5l-0.2,1.6C127.2,567.5,127.6,569.6,126.9,570.6z"/>
		<path fill="#1C75BC" stroke="#1C75BC" stroke-width="2" stroke-miterlimit="10" d="M160,591.4l-1.6,3.5c0,0,1.3-1.1,2.4-2.2
			c1.1-1.1,2.4-2.2,2.4-2.2L160,591.4z"/>
		<polygon fill="#1C75BC" stroke="#1C75BC" stroke-width="2" stroke-miterlimit="10" points="168.7,593.1 168,596.5 170.5,595 		"/>
		<path fill="#1C75BC" stroke="#1C75BC" stroke-width="2" stroke-miterlimit="10" d="M154.1,567.5c-0.6,0.3-1.1-0.2-1.9,0.2
			l-0.2,1.7C154.4,569.9,156.5,568.6,154.1,567.5z"/>
	</g>
	<g>
		<path fill="#1C75BC" stroke="#1C75BC" stroke-miterlimit="10" d="M1.4,410.1c-0.6-1.1-0.6-1-0.6-1.1
			C2.1,411.3,1.4,409.9,1.4,410.1z"/>
		<path fill="#1C75BC" stroke="#1C75BC" stroke-miterlimit="10" d="M18.4,430.8l-0.5-0.2c0,0,0.8,0.6,1.6,1.1
			c0.8,0.6,1.6,1.1,1.6,1.1s-0.6-0.5-1.4-1.1C19.1,431.2,18.4,430.8,18.4,430.8z"/>
		<path fill="#1C75BC" stroke="#1C75BC" stroke-miterlimit="10" d="M35.5,449.2c0-1.7-1.7-3.3-3.7-4.9c-1.9-1.6-4.1-3.3-5.4-5.2
			l-0.2-0.8c0,0-0.6-0.2-1.3-0.2c-0.6-0.2-1.1-0.2-1.1-0.2C27.5,441.7,33.2,445.9,35.5,449.2z"/>
		<path fill="#1C75BC" stroke="#1C75BC" stroke-miterlimit="10" d="M40.9,463.8c0.2-1.6,2.5,1.4-1.9-2.7c0.2,0.3,0.2,0.5,0.2,0.6
			C39.6,462.1,40.1,462.7,40.9,463.8z"/>
		<path fill="#1C75BC" stroke="#1C75BC" stroke-miterlimit="10" d="M39.1,461.8C37.4,459.7,39.8,463.8,39.1,461.8L39.1,461.8z"/>
		<path fill="#1C75BC" stroke="#1C75BC" stroke-miterlimit="10" d="M48,470.5l-3.2-1.7c0,1.1,2.1,3.7,1,3.2
			C48.7,474.3,48.7,473.1,48,470.5z"/>
		<path fill="#1C75BC" stroke="#1C75BC" stroke-miterlimit="10" d="M52,470.8l-1.6-1C50.4,470.5,50.6,471,52,470.8z"/>
		<path fill="#1C75BC" stroke="#1C75BC" stroke-miterlimit="10" d="M46.9,468l3.3,1.9c0-0.8,0.6-1.7-1.4-1
			C49.8,468.4,48.5,468.6,46.9,468z"/>
		<path fill="#1C75BC" stroke="#1C75BC" stroke-miterlimit="10" d="M45.8,466.1c-1-2.1-2.4-4.1,0.8-2.5
			C41.5,459.1,40.9,461.3,45.8,466.1z"/>
		<path fill="#1C75BC" stroke="#1C75BC" stroke-miterlimit="10" d="M38.2,448.1l-1.4-2.4l-2.2-1C35.6,445.2,37.7,448.7,38.2,448.1z"
			/>
		<path fill="#1C75BC" stroke="#1C75BC" stroke-miterlimit="10" d="M62.5,488.2c0.6-0.6,0.5-2.9,1-4l-2.5-1
			C61.5,484.7,63.1,486.9,62.5,488.2z"/>
		<path fill="#1C75BC" stroke="#1C75BC" stroke-miterlimit="10" d="M63.5,484.2l3.8,1.4C64.7,483.1,63.9,483.2,63.5,484.2z"/>
		<path fill="#1C75BC" stroke="#1C75BC" stroke-miterlimit="10" d="M54.9,468.1c0,0-1.6-0.5-3.2-1.1c-1.6-0.6-3.2-1.3-3.2-1.3
			s1.7,0.8,3.5,1.6c1.7,0.8,3.7,1.4,3.7,1.4L54.9,468.1z"/>
		<path fill="#1C75BC" stroke="#1C75BC" stroke-miterlimit="10" d="M73.5,498.8l-3,0.3c0,0,1.3,0,2.5,0c1.3,0,2.5-0.2,2.5-0.2
			L73.5,498.8z"/>
		<path fill="#1C75BC" stroke="#1C75BC" stroke-miterlimit="10" d="M81.3,505.3c-2.4,0.6-0.2,4.5-2.2,4.5c2.2,1.6,5.1,1.6,7.6,1.6
			C84.5,510.6,82.7,508.8,81.3,505.3z"/>
		<path fill="#1C75BC" stroke="#1C75BC" stroke-miterlimit="10" d="M90.7,511.5c-1.1-0.3-2.5-0.2-4.1-0.2
			C87.8,511.7,89.1,511.9,90.7,511.5z"/>
		<path fill="#1C75BC" stroke="#1C75BC" stroke-miterlimit="10" d="M72,490.6c-0.2,0.6-0.5,2.4,0.8,4.5l0.5-3.3
			C72.8,491.2,72.4,490.9,72,490.6z"/>
		<path fill="#1C75BC" stroke="#1C75BC" stroke-miterlimit="10" d="M73.2,491.5L73.2,491.5c1.3,1.3,2.1,2.1,2.4,2.4
			C75.4,493.6,74.6,492.9,73.2,491.5z"/>
		<path fill="#1C75BC" stroke="#1C75BC" stroke-miterlimit="10" d="M71.7,490.2c0.2,0.2,0.2,0.2,0.3,0.3
			C72,490.2,72,490.1,71.7,490.2z"/>
		<path fill="#1C75BC" stroke="#1C75BC" stroke-miterlimit="10" d="M61.2,476.7c2.5,0.5,7,2.4,4.8-2.2
			C63.6,474.6,64.9,477.4,61.2,476.7z"/>
		<path fill="#1C75BC" stroke="#1C75BC" stroke-miterlimit="10" d="M72.2,486.3l-2.9-3.2c-0.3,0.6-0.3,1.9-1.6,1.7
			c0,0,1.1,0.3,2.2,0.8C71.1,485.9,72.2,486.3,72.2,486.3z"/>
		<polygon fill="#1C75BC" stroke="#1C75BC" stroke-miterlimit="10" points="74.3,486.9 72.2,486.3 73.3,487.4 		"/>
		<path fill="#1C75BC" stroke="#1C75BC" stroke-miterlimit="10" d="M86.7,504.4c2.2,0,3.8,1.1,5.7,2.4c-1.6-2.1-3.3-3.8-5.2-5.2
			C86.4,502,84.6,502.8,86.7,504.4z"/>
		<path fill="#1C75BC" stroke="#1C75BC" stroke-miterlimit="10" d="M80.2,497.9c0.2,0,0.3,0.2,0.5,0.2
			C80.5,497.7,80.5,497.4,80.2,497.9z"/>
		<path fill="#1C75BC" stroke="#1C75BC" stroke-miterlimit="10" d="M110.4,519.8c0-0.3,0-0.5,0-0.8c-0.2,0.2-0.2,0.3-0.3,0.5
			L110.4,519.8z"/>
		<path fill="#1C75BC" stroke="#1C75BC" stroke-miterlimit="10" d="M87.2,500.7c-1.1-1.6-2.4-1.6-3.7-1.6c1.3,0.6,2.4,1.4,3.7,2.2
			C87.5,501,87.6,500.9,87.2,500.7z"/>
		<path fill="#1C75BC" stroke="#1C75BC" stroke-miterlimit="10" d="M96.5,514.1c-0.3-1.3-1-2.4-1.6-3.5
			C95.1,512,95.7,514.6,96.5,514.1z"/>
		<path fill="#1C75BC" stroke="#1C75BC" stroke-miterlimit="10" d="M80.6,499.1c-0.2,0-0.2,0-0.3,0
			C80.5,499.9,80.5,499.6,80.6,499.1z"/>
		<path fill="#1C75BC" stroke="#1C75BC" stroke-miterlimit="10" d="M80.6,499.1c1,0.3,1.9,0.2,2.9,0c-1-0.5-1.9-1-2.9-1.1
			C80.6,498.3,80.6,498.8,80.6,499.1z"/>
		<path fill="#1C75BC" stroke="#1C75BC" stroke-miterlimit="10" d="M127.4,502.5c-1.9,3-7.5,3.3-9.1-1.6c-4.6,0.2-7.8,10.8-7.8,18.3
			c0.8-1.3,1.4-2.4,5.9-1.9c-0.3-2.5-5.7-8.6-1.3-9.4c5.4,1.3,3.2,3.3,4.6,6.4c0-2.5,2.2-2.9,4.8-3.7c2.5-0.8,5.2-1.7,6.2-4.9
			c0,0-1.3,0-2.5,0c-1.3,0-2.5-0.2-2.5-0.2C125.8,504.5,128,503.9,127.4,502.5z"/>
		<path fill="#1C75BC" stroke="#1C75BC" stroke-miterlimit="10" d="M104,514.2l-1.6-0.6c1.3,1.6,1.7,3.5,2.7,7.3
			c3.2,0.3,4.3-0.5,4.9-1.3c0,0-1.7-1.3-3.3-2.7c-1.7-1.3-3.3-2.7-3.3-2.7L104,514.2z"/>
		<path fill="#1C75BC" stroke="#1C75BC" stroke-miterlimit="10" d="M96.2,509c2.9-2.1,6.8-1,6.7-5.6c-4.1-2.5-4.3,0.5-7.5-0.2
			c7,4-2.9,0.2,1,5.2c-1.6-0.5-2.9-1.3-4-1.9c1,1.3,1.7,2.5,2.5,3.8c0-0.2,0-0.2,0-0.3l0,0l0,0c0-0.6,0-0.8,0.2-0.5h0.2
			C95.4,509.5,95.7,509.2,96.2,509c1.6,2.1-0.2,1-1,0.8c-0.2,0.2-0.3,0.2-0.3,0.3l0,0c0,0,1.9,0.8,3.7,1.7c1.9,0.8,3.8,1.6,3.8,1.6
			C101.2,512.2,99.4,510.9,96.2,509z"/>
		<path fill="#1C75BC" stroke="#1C75BC" stroke-miterlimit="10" d="M72.4,472.6c0,0.3,0,0.5-0.2,0.6
			C72.8,473.2,73.2,473.2,72.4,472.6z"/>
		<path fill="#1C75BC" stroke="#1C75BC" stroke-miterlimit="10" d="M74.1,475.8c-0.6,0-1.6,0.5-3-0.8c-0.8-1.6,0.8-1,1.1-1.7
			c-1.3-0.2-4.1-1-2.1,2.2h0.6c2.1,2.5,3.3,8,2.5,8C74.1,480.8,74.4,478.9,74.1,475.8z"/>
		<path fill="#1C75BC" stroke="#1C75BC" stroke-miterlimit="10" d="M85.7,491.3c0,0,1.6,0.6,3,1.4c1.6,0.6,3,1.3,3,1.3l-1.3-4.1
			l-0.8,1.4C87.2,488.5,86.7,490.7,85.7,491.3z"/>
		<path fill="#1C75BC" stroke="#1C75BC" stroke-miterlimit="10" d="M110.1,521.9l-2.7,2.9c0,0,1.4-0.6,3-1.3c1.4-0.6,3-1.3,3-1.3
			L110.1,521.9z"/>
		<polygon fill="#1C75BC" stroke="#1C75BC" stroke-miterlimit="10" points="117.9,526.5 115.9,529.4 118.8,528.9 		"/>
		<path fill="#1C75BC" stroke="#1C75BC" stroke-miterlimit="10" d="M112.4,497.4c-0.8,0.2-1.1-0.5-1.7-0.5l-0.8,1.6
			C112,499.8,114.2,499.3,112.4,497.4z"/>
	</g>
	<path fill="#1C75BC" d="M473.8,674.2c1.3-0.2,1.1-0.2,1.4-0.2C472.4,674.6,474,674.2,473.8,674.2z"/>
	<path fill="#1C75BC" d="M445.8,673.6l0.5,0.3c0,0-1-0.3-2.1-0.5c-1-0.3-2.1-0.6-2.1-0.6s1,0.2,1.7,0.5
		C444.8,673.5,445.8,673.6,445.8,673.6z"/>
	<path fill="#1C75BC" d="M419.4,671.5c1.4-1.1,3.8-0.6,6.4-0.2c2.5,0.6,5.4,1.3,7.8,1.1l0.8-0.3c0,0,0.5,0.5,1,1
		c0.5,0.5,1,0.8,1,0.8C430.7,673.3,423.5,671.2,419.4,671.5z"/>
	<path fill="#1C75BC" d="M404,676.6c1.1-1.1-2.9-1.3,3.5-0.2c-0.3,0.2-0.5,0.2-0.6,0.3C406.2,676.6,405.4,676.6,404,676.6z"/>
	<path fill="#1C75BC" d="M406.7,676.6C409.5,676.8,404.6,677.6,406.7,676.6L406.7,676.6z"/>
	<path fill="#1C75BC" d="M393.8,675l3.5,1.4c-1,0.8-4.3,0.6-3.2,1.4C390.3,677,391.2,676.2,393.8,675z"/>
	<path fill="#1C75BC" d="M390.9,672l1.7,0.8C392.2,673.1,391.7,673.1,390.9,672z"/>
	<path fill="#1C75BC" d="M396.5,674.2l-3.8-1.4c0.6-0.5,1-1.6,1.7,0.6C394.4,672.3,394.9,673.5,396.5,674.2z"/>
	<path fill="#1C75BC" d="M398.9,673.9c2.2-0.5,5.1-0.6,1.6-2.2C407.5,673,405.9,675,398.9,673.9z"/>
	<path fill="#1C75BC" d="M418.6,668.5l2.9-0.3l2.2,1.3C422.6,668.8,418.3,669.3,418.6,668.5z"/>
	<path fill="#1C75BC" d="M369.9,674.6c0-1,1.9-2.2,2.5-3.3l2.4,1.4C373.3,673.1,370.4,673.3,369.9,674.6z"/>
	<path fill="#1C75BC" d="M372.5,671.2l-3.7-2.2C372.5,669.5,373,670.3,372.5,671.2z"/>
	<path fill="#1C75BC" d="M391.2,667.9c0,0,1.4,1,3,1.9c1.4,1,3,1.7,3,1.7s-1.9-1-3.7-1.9s-3.7-2.1-3.7-2.1L391.2,667.9z"/>
	<path fill="#1C75BC" d="M353.9,672.5l1.6,2.7c0,0-0.8-1.1-1.6-2.1c-0.8-1.1-1.6-2.1-1.6-2.1L353.9,672.5z"/>
	<path fill="#1C75BC" d="M343.5,670.3c1.1,2.4-3.7,3-2.2,4.6c-2.9-0.8-4.6-3.2-6.2-5.2C337.2,671.1,339.7,671.4,343.5,670.3z"/>
	<path fill="#1C75BC" d="M332.2,666.5c1,0.8,1.9,1.9,2.9,3.2C334,669,333,668,332.2,666.5z"/>
	<path fill="#1C75BC" d="M361.7,668.2c-0.5,0.5-1.6,1.9-4.1,2.2l2.5-2.5C360.6,668,361.2,668.2,361.7,668.2z"/>
	<path fill="#1C75BC" d="M360.2,667.9L360.2,667.9c-1.9-0.2-3-0.3-3.7-0.5C357.1,667.6,358.2,667.7,360.2,667.9z"/>
	<path fill="#1C75BC" d="M362.1,668.4c-0.2,0-0.3,0-0.5,0C362,668,362,667.9,362.1,668.4z"/>
	<path fill="#1C75BC" d="M380.1,668.2c-2.1-1.7-6.5-4.3-1.1-5.4C380.3,664.9,377.1,665.5,380.1,668.2z"/>
	<path fill="#1C75BC" d="M365.2,665.3l4.5,0.2c-0.3,0.6-1.4,1.6-0.3,2.5c0,0-1-0.6-2.1-1.3C366.1,666,365.2,665.3,365.2,665.3z"/>
	<polygon fill="#1C75BC" points="363.3,664.1 365.2,665.3 363.4,665.2 	"/>
	<path fill="#1C75BC" d="M340.8,665.2c-1.4-1.7-3.3-2.4-5.6-3.2c2.7,0,5.4,0.3,7.8,0.8C342.9,663.9,343.4,666,340.8,665.2z"/>
	<path fill="#1C75BC" d="M350.4,666.3c-0.2-0.2-0.3-0.2-0.3-0.3C350.4,665.8,350.5,665.8,350.4,666.3z"/>
	<path fill="#1C75BC" d="M312.7,655.6c0.2-0.2,0.5-0.3,0.6-0.5c0,0.2-0.2,0.5-0.2,0.6L312.7,655.6z"/>
	<path fill="#1C75BC" d="M343.5,662.5c2.1-0.2,2.9,0.8,3.7,2.1c-1.3-0.6-2.7-1.1-4.3-1.6C342.9,662.5,343.1,662.2,343.5,662.5z"/>
	<path fill="#1C75BC" d="M326.5,663.4c1.3-0.5,2.5-0.8,4-1C329.1,663.1,326.5,664.4,326.5,663.4z"/>
	<path fill="#1C75BC" d="M349.1,666.8l0.2,0.2C348.5,667.4,348.6,667.1,349.1,666.8z"/>
	<path fill="#1C75BC" d="M349.1,666.8c-0.8-0.6-1.3-1.6-1.9-2.4c1.1,0.5,2.1,1,2.7,1.6C349.7,666.3,349.3,666.5,349.1,666.8z"/>
	<path fill="#1C75BC" d="M316,630.5c-1.3,3.5,2.1,8.3,7.3,6.5c2.9,4-3.8,13.4-10,18.3c0.5-1.4,1-2.7-2.2-6c2.2-1.3,10.8-1,8.6-5.1
		c-4.6-3.7-4.8-0.5-8.1,0.3c2.1-1.6,1-3.8,0-6.2c-1-2.5-1.9-5.4,0-8.3c0,0,0.8,1.1,1.7,2.1c0.8,1.1,1.7,2.1,1.7,2.1
		C315.4,633.1,314.4,630.8,316,630.5z"/>
	<path fill="#1C75BC" d="M321.4,657.2l1.6,1c-2.2,0-4.1,0.8-7.8,2.5c-2.4-2.4-2.4-3.8-2.1-4.9c0,0,2.2,0.6,4.3,1.1
		c2.2,0.5,4.3,1.1,4.3,1.1L321.4,657.2z"/>
	<path fill="#1C75BC" d="M330.8,660.4c-0.2-3.7-3.7-6.4,0.2-9.2c4.9,1.7,2.4,3.8,4.9,6c-7.8-3.2,1.7,2.4-4.9,2.7
		c1.4,1,2.9,1.6,4.1,2.1c-1.6,0-3.2,0.2-4.8,0.3c0.2,0,0.2-0.2,0.3-0.2l0,0l0,0c0.5-0.3,0.8-0.5,0.2-0.5l-0.2-0.2
		C330.8,661.2,330.8,660.7,330.8,660.4c-2.7,0-0.6,0.8-0.2,1.4c0,0.2,0,0.3-0.2,0.5l0,0c0,0-1.9-1-3.8-1.9s-3.8-2.1-3.8-2.1
		C324.9,658.2,327.2,659,330.8,660.4z"/>
	<path fill="#1C75BC" d="M376.3,656.3c-0.3,0.2-0.3,0.3-0.5,0.5C375.3,656.4,375.2,656.1,376.3,656.3z"/>
	<path fill="#1C75BC" d="M372.5,657.1c0.5,0.5,0.6,1.7,2.5,1.9c1.9-0.3,0.3-1.3,0.6-2.1c1,1,3.5,2.9-0.5,3.2l-0.5-0.5
		c-3.5,0-8.6,2.4-8.3,3C368.3,660.3,369.8,658.8,372.5,657.1z"/>
	<path fill="#1C75BC" d="M352.1,657.5c0,0-1.6-0.8-3.2-1.6s-3-1.7-3-1.7l4.3-1.6l-0.6,1.6C353.6,654.5,352.1,656.3,352.1,657.5z"/>
	<path fill="#1C75BC" d="M311.1,657.2l-0.6,4c0,0-0.5-1.6-1-3.2c-0.5-1.6-0.8-3.3-0.8-3.3L311.1,657.2z"/>
	<polygon fill="#1C75BC" points="302.3,653.9 301.2,657.4 299.8,654.5 	"/>
	<path fill="#1C75BC" d="M329.9,639.4c0.3,0.6,1.1,0.5,1.6,1.3l-0.8,1.7C328.1,641.3,327,639.3,329.9,639.4z"/>
	<path fill="#1C75BC" d="M356.7,134.3c0,3.8,2.5,2.9,5.4,2.5c-0.2,0-0.3,0-0.5-0.2C362.9,131.9,359.8,133,356.7,134.3z"/>
	<path fill="#1C75BC" d="M362.8,137c0.8,0,1.7,0,2.5,0.3C365.8,135.2,364.4,136.7,362.8,137z"/>
	<path fill="#1C75BC" d="M327.8,120.5c1.4,1.3,1-5.2,1.7-3.5c0.8-2.5-1.6-1.3-3.2,0.6C324.8,119.3,324,121.6,327.8,120.5z"/>
	<polygon fill="#1C75BC" points="357.7,147 357.2,142.2 355.3,145.9 	"/>
	<path fill="#1C75BC" d="M336.4,141.8l4.3,1.6c0-0.8,0.6-1.3,1.3-1.6C339.2,141.5,336.4,140.3,336.4,141.8z"/>
	<path fill="#1C75BC" d="M341.9,141.8c1.4,0.2,2.7,0.2,3.7-0.5C344.8,141.3,343.2,141.3,341.9,141.8z"/>
	<path fill="#1C75BC" d="M351.6,147.8l-1.3-1.1l-3-0.6c0,0,1.1,0.5,2.1,0.8C350.5,147.5,351.6,147.8,351.6,147.8z"/>
	<path fill="#1C75BC" d="M289,141.9l-4.6,2.2c-0.2,2.1,1.3,3.2,2.9,2.1C288.2,144.6,289.9,143.7,289,141.9z"/>
	<path fill="#1C75BC" d="M304.6,155.9c-1.3-1.1-1.4-2.2-2.4-4.1l0.3,7L304.6,155.9z"/>
	<path fill="#1C75BC" d="M291.5,159.3c-0.3,2.1-5.6,6.8-0.2,5.4C291.5,162.6,295.8,160.2,291.5,159.3z"/>
	<path fill="#1C75BC" d="M455.3,674.1c0,0,1,0,1.9,0s1.9,0,1.9,0s-0.6,0-1.1,0c-0.6,0-1.1-0.2-1.1-0.2L455.3,674.1z"/>
	<path fill="#1C75BC" d="M462.5,673.9c0,0,0.2,0,0.5,0.2c0.2,0,0.5,0,0.5,0s0.5,0,1.1,0c0.5,0,1.1,0,1.1,0
		C464.7,673.9,463.1,673.9,462.5,673.9z"/>
	<path fill="#1C75BC" d="M72.8,391.9c0-1.1-2.1-1.3-2.1-2.4C72.8,390.8,63,396.9,72.8,391.9z"/>
	<g>
		<path fill="#D5492D" stroke="#FFFFFF" stroke-width="2" stroke-miterlimit="10" d="M157.5,530.6c40.6-7.6,192.3-21.8,449.9,119.8
			c5.6,3,3,10.2-3.8,10.2c-74.3,1.3-326.8-3.7-450.1-120.4C150,536.8,152.2,531.7,157.5,530.6z"/>
		<path fill="#FFFFFF" d="M157,532.4l102.9,13.8c2.9,0.3,5.7,1,8.6,1.7l340.8,106.4c2.4,0.8,1.3,3.5-1.3,3l-352.6-69.2
			c-5.1-1-10-2.7-14.2-5.4l-87.6-43.9C149.7,536.7,152.2,531.7,157,532.4z"/>
		<path fill="#F9BB4E" d="M158.6,533.3l105,17.8c2.4,0.3,4.8,0.8,7,1.4l336.4,101.6c1.9,0.6,1,2.9-1,2.5L260,585.3
			c-4.1-0.8-8.1-2.2-11.5-4.3l-92.7-42.3C152.7,536.7,154.7,532.9,158.6,533.3z"/>
		<g>
			<polygon fill="#D5492D" points="152.7,537.6 154.4,533.3 609.6,653.7 608,657.9 			"/>
			<path fill="#FFFFFF" d="M154.9,534.3l453.6,119.9l-1.1,2.7L153.8,537L154.9,534.3 M154,532.4l-0.5,1.3l-1.1,2.7l-0.6,1.7l1.7,0.5
				l453.6,119.9l1.3,0.3l0.5-1.3l1.1-2.7l0.6-1.7l-1.7-0.5L155.4,532.9L154,532.4L154,532.4z"/>
		</g>
	</g>
	<path d="M150.3,464.5c-1.7-2.9-3.5-6.2-5.4-10c1.4,2.9,2.9,5.6,4.5,8.4C149.7,463.4,150,463.8,150.3,464.5z"/>
	<path fill="#E4D1BA" d="M339.9,220.5l-5.7,6.2l0,0l0,0L339.9,220.5z"/>
	<path fill="#E4D1BA" d="M419.4,398.3c-0.3,1-1,1.4-1.4,1.3c-0.5-0.2-0.8-1.1-0.5-1.9c0.3-1,1-1.4,1.6-1.3
		C419.6,396.6,419.7,397.5,419.4,398.3z"/>
	<path fill="#E4D1BA" d="M445.8,405.6l-2.1,4.9l-0.8,2.1c0,0,0,0.2-0.2,0.2c0,0.2-0.2,0.2-0.2,0.3l-0.5,1.3c0,0,0,0-0.2,0l0,0
		c-2.5,0.2-50.3,1.9-53.9-24c-0.3-1.9-0.3-3.8-0.2-5.9c0.6,2.4,2.2,5.1,5.1,7.8c5.9,5.9,16.2,11.8,26.4,15.1
		c4.6,1.6,8.7,2.4,12.6,2.7C438.6,410.6,443.3,409,445.8,405.6z"/>
	<path fill="#E4D1BA" d="M382.2,454.6c-1,3-4.3,7-8.7,11l0,0c-0.5,0.5-1,0.8-1.3,1.3c-13.5-13.7-20-25.4-22.9-32.1
		c0.3-0.3,0.5-0.5,0.8-0.8c0.2,0,0.2-0.2,0.3-0.3c7.2-6.5,12.9-11,12.9-11L382.2,454.6z"/>
	<path fill="#E4D1BA" d="M446.3,467c-5.6,3-19.7,10-36.4,14.8c-0.2-0.5-0.3-1.1-0.5-1.6c-2.7-9.9-4.6-19.7-2.9-24.5l34.5-14.2
		c0,0,2.7,11,5.1,24C446.1,466.1,446.3,466.5,446.3,467z"/>
	<g>
		<path fill="#3FBEAC" d="M443.9,410.4c-1.1,2.7-2.7,5.9-4,8.1c-9.2,1.7-18.3,1.3-27-1.7c-17-5.7-27.8-18.8-30.2-21.8
			c1.4-4.8,2.5-7.8,3.3-9.7c0.6,2.9,2.5,5.9,5.7,9.1c6,6,16.7,12.1,27,15.6c4.8,1.6,9.1,2.5,13,2.7
			C436.7,413.1,440.9,412.3,443.9,410.4z"/>
		<path fill="#3FBEAC" d="M445.5,466.1c-5.7,2.7-23.7,10.7-36.7,14.3c-0.8,0.2-1.6-0.3-1.7-1.1l-4.9-24.5c-0.3-1.1-1.1-2.2-2.2-2.5
			l-7-2.7c-1.3-0.5-2.5-0.2-3.5,0.8l-14.6,15.1c-0.3,0.3-1,0.3-1.3,0c-18.6-18.6-23.4-31.5-24.3-34.7c-0.2-0.5,0-1,0.3-1.4
			l32.3-32.9c0.3,0.3,0.6,0.8,1.1,1.4c0.3,0.3,0.6,0.8,1,1.3c0.8,1,1.7,1.9,2.9,3c0.5,0.5,1.1,1.1,1.7,1.7c0.3,0.3,0.6,0.6,1,1
			c0.6,0.6,1.4,1.3,2.1,1.9c0.3,0.3,0.8,0.6,1.1,1c0.8,0.6,1.6,1.3,2.4,1.9s1.7,1.3,2.7,1.9c1,0.6,1.9,1.3,2.9,1.9
			c3.5,2.1,7.5,4,11.8,5.4c2.1,0.6,4.1,1.3,6.4,1.7c1.1,0.2,2.2,0.5,3.3,0.6c5.6,0.8,11.5,0.6,18-0.5l7.2,42.8
			C447.2,464.3,446.6,465.6,445.5,466.1z"/>
	</g>
	<g>
		<path fill="#3FBEAC" d="M443.9,410.4c-1.1,2.7-2.7,5.9-4,8.1c-9.2,1.7-18.3,1.3-27-1.7c-17-5.7-27.8-18.8-30.2-21.8
			c1.4-4.8,2.5-7.8,3.3-9.7c0.6,2.9,2.5,5.9,5.7,9.1c6,6,16.7,12.1,27,15.6c4.8,1.6,9.1,2.5,13,2.7
			C436.7,413.1,440.9,412.3,443.9,410.4z"/>
		<path fill="#1C75BC" d="M447.2,406.7c0-0.5,0-0.8,0-1.1l-0.2-1.7l-1.1,1.6l-0.2,0.2c-2.5,3.3-7.2,4.9-13.7,4.5
			c-3.8-0.3-8-1.1-12.6-2.7c-10-3.3-20.5-9.4-26.4-15.1c-2.7-2.7-4.5-5.4-5.1-7.8c-0.3-1.3-0.3-2.5,0-3.7l0.2-0.5l-0.3-0.3
			c-0.2-0.2-0.3-0.3-0.5-0.3h-0.2c-0.6,0-2.4-0.2-7,15.6l-32.6,33.4c-0.3,0.3-0.5,1-0.3,1.4c0.3,1,0.8,2.5,1.7,4.8
			c2.9,6.7,9.4,18.4,22.9,32.1c0.3,0.3,0.8,0.8,1.1,1.1l0.5,0.3l15.6-16.1c1-1,2.4-1.3,3.5-0.8l5.6,2.2c1.1,0.5,1.9,1.4,2.2,2.5
			c1.1,5.2,4.1,20,5.1,25.1c0.2,0.8,1,1.3,1.7,1.1c0.8-0.2,1.6-0.5,2.4-0.6c16.7-4.8,30.7-11.8,36.4-14.8c0.3-0.2,0.6-0.3,1-0.5
			c1.1-0.6,1.6-1.7,1.4-2.9l-7.3-43.3l0.2-0.2C441.5,420.1,446.8,411.2,447.2,406.7z M447.1,463.2c0,0.2,0,0.2,0,0.3
			c0,0.2,0,0.5,0,0.6s0,0.3-0.2,0.3c0,0.2,0,0.3-0.2,0.3c-0.2,0.2-0.2,0.3-0.3,0.5s-0.3,0.3-0.5,0.5c0,0-0.2,0.2-0.3,0.2
			c-0.2,0-0.2,0.2-0.3,0.2c-0.5,0.2-0.8,0.3-1.4,0.6c-0.5,0.2-0.8,0.3-1.3,0.6c-0.5,0.3-1.1,0.5-1.7,0.8s-1.3,0.5-1.9,0.8
			c-0.5,0.3-1.1,0.5-1.6,0.8c-1.1,0.5-2.4,1-3.7,1.6c-0.6,0.3-1.3,0.5-1.9,0.8c-0.6,0.3-1.4,0.6-2.1,0.8c-1.1,0.5-2.4,1-3.7,1.4
			c-1.4,0.6-3,1.1-4.5,1.7c-1.4,0.6-3,1.1-4.5,1.6c-0.8,0.3-1.7,0.6-2.5,0.8c-0.6,0.2-1.3,0.5-1.9,0.6c0,0,0,0-0.2,0
			s-0.3,0.2-0.5,0.2c-1,0.3-1.7,0.5-2.7,0.8c-0.3,0.2-0.5,0.2-0.8,0.3c-0.8,0.2-1.6-0.3-1.7-1.1l-4.9-24.5c0-0.2-0.2-0.5-0.2-0.6
			c0-0.2,0-0.2-0.2-0.3c-0.2-0.2-0.2-0.3-0.3-0.5c0-0.2-0.2-0.2-0.2-0.2l0,0c0-0.2-0.2-0.2-0.2-0.2l-0.2-0.2
			c-0.2-0.2-0.3-0.3-0.6-0.5l0,0c-0.2-0.2-0.3-0.2-0.3-0.2l-7-2.7c-0.2,0-0.3-0.2-0.5-0.2l0,0c-0.2,0-0.3,0-0.5,0
			c-0.5,0-1.1,0-1.6,0.3c-0.3,0.2-0.6,0.5-1,0.6l-14.6,15.1c-0.2,0.2-0.5,0.3-0.8,0.3l0,0h-0.2c-0.2,0-0.3-0.2-0.3-0.3
			c-13.7-15.1-20.2-26.2-22.9-31.6c-0.6-1.3-1.1-2.4-1.4-3c-0.2-0.5,0-1.1,0.3-1.4l32.1-32.8c0.3,0.3,0.6,0.8,1.1,1.4
			c0.3,0.3,0.6,0.8,1,1.3c0.8,1,1.7,1.9,2.9,3c0.5,0.5,1.1,1.1,1.7,1.7c0.3,0.3,0.6,0.6,1,1c0.6,0.6,1.4,1.3,2.1,1.9
			c0.3,0.3,0.8,0.6,1.1,1c0.8,0.6,1.6,1.3,2.4,1.9c0.8,0.6,1.7,1.3,2.7,1.9c1,0.6,1.9,1.3,2.9,1.9c1,0.5,1.7,1.1,2.7,1.6
			c1,0.5,1.9,1,2.9,1.4c0.6,0.3,1.1,0.5,1.7,0.8c0.2,0,0.2,0.2,0.3,0.2c0.5,0.2,1,0.5,1.4,0.6c1,0.3,1.7,0.6,2.7,1
			c1,0.3,1.7,0.6,2.7,0.8c0.3,0,0.5,0.2,0.8,0.2c1,0.3,1.7,0.5,2.7,0.6c1.1,0.2,2.2,0.5,3.3,0.6c5.6,0.8,11.5,0.8,18-0.5
			L447.1,463.2z M440.9,416.8c-0.3,0.6-0.6,1.3-1,1.9c-9.2,1.7-18.3,1.1-27-1.7c-17-5.7-27.8-18.6-30.1-21.8
			c1.4-4.8,2.5-7.8,3.3-9.7c0.2,0.5,0.2,0.8,0.3,1.3c0.2,0.5,0.3,0.8,0.5,1.3s0.5,0.8,0.6,1.3c0.3,0.5,0.5,0.8,0.8,1.3
			c1,1.3,2.1,2.7,3.3,4c6,6,16.7,12.1,27,15.6c4.8,1.6,9.1,2.5,13,2.7c1.4,0.2,2.9,0.2,4.3,0c0.6,0,1.1-0.2,1.7-0.2
			c1.1-0.2,2.2-0.5,3.2-0.8c0.5-0.2,1-0.3,1.4-0.5c0.3-0.2,0.5-0.2,0.8-0.3c0.3-0.2,0.5-0.3,0.8-0.5c0,0,0,0,0.2,0
			c-0.3,0.6-0.6,1.4-1,2.1c0,0,0,0.2-0.2,0.2c0,0.2-0.2,0.2-0.2,0.3l0,0c0,0,0,0,0,0.2c-0.2,0.3-0.3,0.8-0.5,1.1
			c0,0.2-0.2,0.3-0.2,0.3C441.5,415.3,441.2,416.1,440.9,416.8z"/>
	</g>
	<path fill="none" stroke="#1C75BC" stroke-width="0.5" stroke-miterlimit="10" d="M407.9,415.3c0,0-1.4,13-16.4,35"/>
	<path fill="none" stroke="#1C75BC" stroke-width="0.5" stroke-miterlimit="10" d="M416.1,418c0,0-1.4,13-16.4,35"/>
	<circle fill="#1C75BC" cx="410.5" cy="423.4" r="1.4"/>
	<circle fill="#1C75BC" cx="402.7" cy="440.3" r="1.4"/>
	<circle fill="#1C75BC" cx="406.8" cy="431.7" r="1.4"/>
	<circle fill="#1C75BC" cx="398.4" cy="447.3" r="1.4"/>
	<path fill="#E0C3A4" d="M419.4,398.3c-0.3,1-1,1.4-1.4,1.3c-0.5-0.2-0.8-1.1-0.5-1.9c0.3-1,1-1.4,1.6-1.3
		C419.6,396.6,419.7,397.5,419.4,398.3z"/>
	<path fill="#FEE993" d="M452,298.4c-0.2,0-0.2-0.2-0.3-0.2c-2.2-1.6-2.7-3.3-2.2-5.1c0-0.2,0-0.2,0-0.3c0.2,1.6,0,2.7,1.9,4.9l0,0
		C451.5,298.1,451.7,298.3,452,298.4z"/>
	<path fill="#FEE993" d="M458.8,301.1h-0.3c-0.2,0-0.5-0.2-0.6-0.2C458.2,301.1,458.7,301.1,458.8,301.1z"/>
	<path fill="#FEE993" d="M463.9,291.4c0,1.1,0,2.2,0.2,3.2C463.8,293.3,463.8,292.2,463.9,291.4z"/>
	<path fill="#FEE993" d="M465,299.5c0-0.2-0.2-0.5-0.3-1C464.9,298.9,464.9,299.2,465,299.5z"/>
	<path fill="#FEE993" d="M465,299.7c0,0.2,0,0.2,0,0.3l-0.6,0.2C464.6,300,464.9,299.9,465,299.7z"/>
	<path fill="#FEE993" d="M468.1,285.5c-1.9,0.2-3.5,1.3-4,4.1C464.4,287.3,465.5,285.5,468.1,285.5z"/>
	<path fill="#FEE993" d="M473.8,287.1c-2.4-1.3-4.3-1.7-5.7-1.7C470.3,285.2,472.5,286.2,473.8,287.1z"/>
	<path fill="#FEE993" d="M483.3,263.3c-5.2,0.5-10,2.7-13.8,5.6C474.4,265,479,263.6,483.3,263.3z"/>
	<path fill="#FEE993" d="M470.1,296.8l-0.8,0.5C469.5,297,469.8,296.8,470.1,296.8z"/>
	<path fill="#E4D1BA" d="M465,299.5c0-0.2-0.2-0.5-0.3-1C464.9,298.9,464.9,299.2,465,299.5z"/>
	<path fill="#E4D1BA" d="M465.7,299.9c-0.2,0.2-0.5,0.2-0.6,0.2c-0.2,0.5-1.1,1-2.5,1c0.3-0.2,0.8-0.3,1.1-0.6
		c0.3-0.2,0.5-0.3,0.8-0.5c0.2-0.2,0.5-0.3,0.6-0.3c0,0.2,0,0.2,0,0.3H465.7z"/>
	<path fill="#E4D1BA" d="M468.1,285.5c-1.9,0.2-3.5,1.3-4,4.1C464.4,287.3,465.5,285.5,468.1,285.5z"/>
	<path fill="#E4D1BA" d="M470.1,296.8l-0.8,0.5C469.5,297,469.8,296.8,470.1,296.8z"/>
	<path fill="#E4D1BA" d="M475.7,297.5c-1.1,2.5-6.2,6-7.8,1l1.4-1v0.2c-0.2,1.4,0.3,3,2.7,2.5C474.1,299.7,475.4,297.8,475.7,297.5z
		"/>
	<path fill="#E4D1BA" d="M496.4,288.1c0,0.2-0.2,0.6-0.5,1.3C495.9,288.7,496.1,288.2,496.4,288.1z"/>
	<path fill="#E4D1BA" d="M498.6,293c0,0.6-0.2,1.3-0.3,1.9C498.3,293.8,498.6,293,498.6,293z"/>
	<path fill="#E4D1BA" d="M500.4,299.5c-1.6-0.5-2.9-1.9-2.1-4.6c0,1,0,2.1,0.5,3C499.1,298.9,499.7,299.4,500.4,299.5z"/>
	<path fill="#E4D1BA" d="M509.7,303.4C509.7,303.4,509.7,303.5,509.7,303.4c-0.3,0-0.6-0.2-0.8-0.3
		C509.3,303.2,509.4,303.4,509.7,303.4z"/>
	<g>
		<path fill="#FEE993" d="M506.6,273c-8.6-7.8-16.5-10.2-23.2-9.7c-5.2,0.5-10,2.7-13.8,5.6c-0.2,0.2-0.5,0.3-0.6,0.5
			c-0.3,0.2-0.5,0.5-0.8,0.6c-4.1,3.5-8.3,8.6-12.4,15.9l0,0c0,0-5.1,3.2-6.2,7c0.2,1.6,0,2.7,1.9,4.9l0,0c0.2,0.2,0.3,0.3,0.5,0.5
			c0,0,0,0,0.2,0.2c1.4,1,3.3,1.7,5.9,2.4c0.3,0,0.6,0.2,1,0.2l5.6-1c0.2-0.2,0.5-0.3,0.6-0.3v-0.2c0-0.2-0.2-0.5-0.3-1
			c0-0.3-0.2-0.5-0.2-0.8c-0.2-0.5-0.2-0.8-0.3-1.3v-0.2c0-0.2,0-0.3-0.2-0.6s-0.2-0.8-0.2-1.1c-0.2-1.3-0.2-2.2-0.2-3.2
			c0-0.3,0-0.8,0.2-1.1c0-0.2,0-0.5,0.2-0.6c0.3-2.2,1.4-4.1,4-4.1c2.1-0.2,4.5,0.8,5.7,1.7c0,0,1.9,1.7-2.2,6.8
			c0,0-5.2-1.3-3.7,4.3l1.4-1v0.2c-0.2,1.4,0.3,3,2.7,2.5c2.1-0.5,3.3-2.2,3.7-2.7v-0.2c0.2-0.2,0.2-0.5,0.2-0.6c0,0,0-7.6,6.7-1
			c6.7,6.7,12.9-2.5,13.2-6.4l0,0c0-0.6,0.2-1.1,0.5-1.3c0.8-0.8,2.5,1.7,2.2,5.1c0,0.6-0.2,1.3-0.3,1.9l0,0c0,1,0,2.1,0.5,3
			c0.3,0.8,1,1.4,1.6,1.6c0.3,0,0.5,0.2,0.8,0.2c1.1,0.2,2.2-0.2,2.5-1c1.1-1.7,3.3-2.9,2.9-1.6c-0.2,0.6-0.5,1.1-0.6,1.7v0.2l0,0
			c-0.5,1.9,1.1,3.3,3,4l0,0c0.3,0.2,0.5,0.2,0.8,0.3c0.2,0,0.3,0.2,0.5,0.2c0.3,0,0.6,0,1,0c0.3,0,0.8,0,1.1-0.2l0,0l0,0
			c0.8-0.3,3.2-2.2,4.6-5.4l0,0c0.6-2.1,1-4.3,1.1-5.1c0-0.3,0-0.5,0-0.5C518,287.5,515.3,280.9,506.6,273z M469.3,297.5
			c0.2-0.5,0.5-0.6,0.8-0.5L469.3,297.5z"/>
		<g>
			<path fill="#E7C67A" d="M506.6,273c-1-1-1.9-1.7-3-2.5c-1.1-0.8-2.1-1.6-3.2-2.2c-1.1-0.6-2.2-1.4-3.5-1.9
				c-1.1-0.6-2.4-1.1-3.7-1.6c-2.5-0.8-5.1-1.3-7.8-1.4c-2.7,0-5.2,0.3-7.8,1.3c-4.9,1.6-9.4,4.8-13,8.6c-3.7,3.8-6.5,8.3-9.1,12.9
				l-0.2,0.2c0.2,0,0.2-0.2,0.2-0.2l-0.2,0.2c-1.3,0.8-2.5,1.9-3.5,3c-1.1,1.1-2.1,2.4-2.4,3.8v-0.2c0,1,0.2,1.7,0.5,2.5
				c0.3,0.8,0.8,1.6,1.4,2.2v0.2c0,0,0,0,0-0.2l0,0h0.2l0.2,0.2l0.2,0.2l0,0l0,0l0,0h0.2l0,0c1,0.6,2.1,1.1,3.2,1.6
				c0.6,0.2,1.1,0.5,1.7,0.6l0.5,0.2l0.5,0.2l1,0.2h-0.2l5.6-1.1h-0.2l0.6-0.3l-0.2,0.3v-0.2l0,0l-0.5-1.6c-0.2-0.5-0.2-1.1-0.3-1.6
				l0,0c0-0.2,0-0.2,0-0.3l0,0l-0.2-0.6l0,0l-0.2-1.3l0,0c-0.2-0.8-0.2-1.4-0.2-2.2v-0.5v-0.6l0.2-1.1l0,0l0.2-0.6l0,0
				c0.2-1.1,0.5-2.1,1.3-3c0.6-1,1.9-1.4,3-1.4c0.5,0,1.1,0,1.6,0s1.1,0.2,1.6,0.3c1,0.3,2.1,0.8,2.9,1.4l0,0l0,0
				c0.2,0.2,0.3,0.3,0.3,0.5s0.2,0.3,0.2,0.5c0,0.3,0,0.8,0,1.1c0,0.6-0.3,1.3-0.6,1.9c-0.6,1.3-1.3,2.2-2.1,3.3l-0.2,0.2h-0.3
				c-0.5-0.2-1.1-0.2-1.7,0c-0.5,0.2-1.1,0.3-1.4,0.6c-0.2,0.2-0.2,0.2-0.2,0.3c0,0.2-0.2,0.2-0.2,0.3c-0.2,0.3,0,0.5-0.2,0.8
				c0,0.6,0.2,1.1,0.3,1.7l-0.5-0.2l1.4-1l0.6-0.5l-0.2,0.8v0.2l0,0c-0.2,0.6,0,1.4,0.5,1.9c0.5,0.5,1.1,0.5,1.9,0.3
				c0.3-0.2,0.6-0.2,1-0.3c0.3-0.2,0.6-0.3,1-0.6c0.6-0.5,1.1-1,1.4-1.6l0,0l0.2-0.2l0,0l0.2-0.6l0,0c0-0.6,0.2-1.3,0.3-1.9
				s0.5-1.3,1-1.7c0.5-0.5,1.3-0.5,1.9-0.5c0.3,0.2,0.6,0.2,1,0.3l0.8,0.5c0.5,0.3,1,0.6,1.4,1.1c0.5,0.5,0.8,0.8,1.3,1.3
				c0.5,0.3,1,0.8,1.4,1.1s1,0.5,1.6,0.6c0.3,0.2,0.5,0.2,0.8,0.2s0.6,0,0.8,0c0.6,0,1.1-0.2,1.6-0.3c0.5-0.3,1.1-0.5,1.4-0.8
				c0.5-0.3,1-0.8,1.3-1.1c0.3-0.5,0.8-0.8,1.1-1.3c0.3-0.5,0.6-1,1-1.4c0.3-0.5,0.5-1.1,0.8-1.6c0.2-0.5,0.3-1.1,0.5-1.7l0,0l0,0
				l0,0l0,0c0-0.5,0.2-0.8,0.3-1.3c0,0,0-0.2,0.2-0.2c0,0,0,0,0.2-0.2l0,0c0,0,0.3-0.2,0.5-0.2c0.3,0,0.5,0.2,0.6,0.3
				c0.6,0.6,1,1.4,1.1,2.2c0.5,1.6,0.5,3.2,0,4.8l0,0l0,0l0,0l0,0c0,1,0,2.1,0.5,2.9c0.2,0.5,0.5,0.8,1,1.1c0.2,0.2,0.5,0.3,0.6,0.3
				l0.8,0.2l0,0c0.6,0,1.4,0,2.1-0.5c0.3-0.2,0.5-0.5,0.6-0.8c0.2-0.3,0.5-0.6,0.8-0.8c0.3-0.3,0.6-0.5,1-0.6
				c0.2-0.2,0.3-0.2,0.5-0.2c0.2,0,0.6,0,0.6,0.3s0,0.5-0.2,0.6l-0.2,0.5l-0.3,1.1l0,0c0,0,0,0,0,0.2l0,0c-0.2,0.5-0.2,0.8,0,1.3
				s0.3,0.8,0.6,1.1c0.6,0.6,1.4,1.1,2.2,1.4l0,0h0.2l0,0l0,0l0.8,0.3l0,0l0.3,0.2c0.2,0,0.2,0,0.3,0h0.8l0,0l1.1-0.2l0,0l0,0l0,0
				c-0.2,0,0,0,0,0l0,0l0,0l0,0l0,0c0.5-0.2,1-0.6,1.4-1s0.8-0.8,1.3-1.3c0.8-1,1.4-1.9,1.9-3l0,0l0,0l0,0c0.6-1.7,1-3.7,1.1-5.6
				l0,0c-0.2-3.8-1.7-7.5-3.8-10.7C512.1,278.4,509.4,275.7,506.6,273z M506.6,273c2.9,2.5,5.6,5.4,7.6,8.6s3.8,6.8,4,10.8l0,0l0,0
				c-0.2,1.9-0.5,3.8-1.1,5.6l0,0l0,0l0,0c-0.5,1.1-1.1,2.2-1.9,3c-0.3,0.5-0.8,1-1.3,1.3s-1,0.8-1.4,1.1l0,0l0,0l0,0l0,0l0,0l0,0
				l0,0l-1.1,0.2l0,0l0,0h-0.8c-0.2,0-0.3,0-0.3,0l-0.3-0.2l0,0l-1,0l0,0h-0.2l0,0l0,0c-0.8-0.3-1.7-0.8-2.4-1.4
				c-0.3-0.3-0.6-0.8-0.8-1.3c-0.2-0.5-0.2-1,0-1.4l0,0c0-0.2,0-0.2,0-0.3l0,0l0.3-1.1c0.2-0.3,0.3-0.8,0.3-1c0-0.2-0.5,0-0.8,0.2
				c-0.3,0.2-0.6,0.5-0.8,0.6c-0.3,0.3-0.5,0.5-0.6,0.8s-0.3,0.6-0.8,1c-0.6,0.5-1.4,0.5-2.2,0.5l0,0l0,0h-0.3c-0.2,0-0.2,0-0.5-0.2
				c-0.3-0.2-0.5-0.2-0.8-0.3c-0.5-0.3-0.8-0.8-1-1.3c-0.5-1-0.5-2.1-0.5-3.2l0,0l0,0l0,0l0,0c0.5-1.4,0.5-3.2,0-4.6
				c-0.2-0.8-0.5-1.4-1.1-1.9c-0.2-0.2-0.3-0.2-0.3-0.2s0,0-0.2,0l0,0l0,0c0,0,0,0,0,0.2c-0.2,0.3-0.2,0.6-0.3,1l0,0l0,0l0,0l0,0
				c0,0.6-0.2,1.3-0.5,1.7c-0.2,0.6-0.5,1.1-0.8,1.6c-0.3,0.5-0.6,1.1-1,1.6c-0.3,0.5-0.8,1-1.1,1.4c-0.5,0.5-1,0.8-1.4,1.1
				s-1.1,0.6-1.6,1c-0.6,0.2-1.1,0.3-1.7,0.5c-0.3,0-0.6,0-1,0c-0.3,0-0.6,0-1-0.2c-0.6-0.2-1.1-0.3-1.7-0.8c-0.6-0.3-1-0.6-1.4-1.1
				c-0.5-0.3-1-0.8-1.3-1.3c-0.5-0.5-1-0.8-1.4-1.1l-0.8-0.5c-0.3-0.2-0.5-0.2-0.8-0.3c-0.5-0.2-1,0-1.4,0.3
				c-0.3,0.3-0.6,0.8-0.8,1.4c-0.2,0.5-0.2,1.1-0.3,1.7l0,0l0,0l-0.2,0.8l0,0l0,0l0,0c-0.5,0.6-1,1.3-1.6,1.7
				c-0.3,0.3-0.6,0.5-1,0.6c-0.3,0.2-0.8,0.3-1.1,0.5c-0.5,0.2-0.8,0.2-1.3,0.2s-1-0.2-1.3-0.5c-0.6-0.6-0.8-1.7-0.6-2.5l0,0l0,0
				v-0.2l0.5,0.5l-1.4,1l-0.5,0.3l-0.2-0.5c-0.2-0.6-0.3-1.3-0.3-1.9c0-0.3,0-0.6,0.2-1c0-0.2,0.2-0.3,0.2-0.5
				c0.2-0.2,0.2-0.3,0.3-0.5c0.5-0.6,1.1-0.8,1.9-1c0.6-0.2,1.3-0.2,2.1,0l-0.3,0.2c0.8-1,1.4-2.1,2.1-3.2c0.3-0.5,0.5-1.1,0.5-1.7
				c0-0.3,0-0.6,0-0.8c0-0.2,0-0.3-0.2-0.3c0-0.2-0.2-0.3-0.2-0.3l0,0c-0.8-0.6-1.7-1.1-2.7-1.3c-0.5-0.2-1-0.3-1.4-0.3s-1,0-1.4,0
				c-1,0-1.9,0.5-2.5,1.1c-0.6,0.8-1,1.7-1.1,2.7l0,0l-0.2,0.5l0,0l-0.2,1.1v0.5v0.5c0,0.6,0,1.4,0.2,2.1l0,0l0.2,1.1l0,0v0.5l0,0
				c0,0,0,0,0,0.2l0,0c0.2,0.5,0.2,1.1,0.3,1.6l0.3,1.6l0,0v0.2v0.2l-0.2,0.2l-0.6,0.3l0,0l0,0l-5.6,1l0,0l0,0l-1-0.2
				c-0.2,0-0.3-0.2-0.5-0.2l-0.5-0.2c-0.6-0.2-1.1-0.3-1.7-0.6c-1.1-0.5-2.2-1-3.3-1.6l0,0h-0.2l0,0l0,0l0,0l-0.2-0.2l-0.2-0.2H451
				c0,0,0,0-0.2-0.2c0,0,0-0.2-0.2-0.2v0.2c-0.6-0.8-1.1-1.4-1.4-2.4c-0.3-1-0.5-1.9-0.5-2.7l0,0l0,0c0.5-1.6,1.4-2.9,2.5-4
				c1.1-1.1,2.4-2.2,3.7-3l-0.2,0.2c0-0.2,0.2-0.3,0.2-0.3l-0.2,0.2c2.5-4.6,5.6-9.1,9.2-12.9c3.7-3.8,8.1-7,13.2-8.6
				c2.5-0.8,5.1-1.3,7.8-1.1c2.7,0,5.2,0.5,7.8,1.4c1.3,0.5,2.4,1,3.7,1.6c1.1,0.6,2.4,1.3,3.5,1.9c1.1,0.8,2.2,1.4,3.2,2.4
				C504.6,271.2,505.6,272.2,506.6,273z"/>
			<path fill="#E7C67A" d="M469.3,297.5c-0.2-0.2-0.2-0.5,0.2-0.6c0.2-0.2,0.5-0.3,0.8-0.2l1.1,0.2l-1,0.5
				C470.1,297.3,469.8,297.5,469.3,297.5z M469.3,297.5c0.2-0.5,0.3-0.6,0.6-0.8l0.2,0.8c-0.2,0-0.2,0-0.3,0
				C469.7,297.2,469.7,297.3,469.3,297.5z"/>
		</g>
	</g>
	<g>
		<path fill="#FEE993" d="M458,301c-1.1-0.2-2.4-0.5-3.5-1c-1.1-0.5-2.1-1.1-2.9-1.7c0-0.2-0.2-0.2-0.3-0.3c0.2,0.2,0.3,0.3,0.5,0.5
			c0,0,0,0,0.2,0.2C453.4,299.4,455.3,300.3,458,301z"/>
		<path fill="#E7C67A" d="M458,301c-1.3-0.2-2.4-0.3-3.7-0.8c-0.6-0.2-1.1-0.5-1.7-0.8c-0.3-0.2-0.5-0.3-0.8-0.5
			c-0.2-0.2-0.3-0.2-0.3-0.3l-0.3-0.3l0,0l0.6-0.6l0.3,0.3l0.2,0.2l0,0l0,0l0,0l0,0h0.2l0,0C453.9,299.5,456,300.3,458,301z
			 M458,301c-2.1-0.5-4.1-1.1-6-2.2l0,0h-0.2l0,0l0,0l-0.2-0.2l-0.3-0.3l0.6-0.6l0,0l0.3,0.3c0.2,0.2,0.2,0.2,0.3,0.3
			c0.2,0.2,0.5,0.3,0.6,0.6c0.5,0.3,1,0.6,1.6,1C455.7,300.3,456.8,300.8,458,301z"/>
	</g>
	<g>
		<path fill="#FEE993" d="M467.9,270c-4.1,3.5-8.3,8.6-12.4,15.9l0,0c0,0-5.1,3.2-6.2,7v-0.3c-0.2-2.5,1.7-4.6,3.5-6
			c0,0,0.2-0.2,0.3-0.2c0.2-0.2,0.3-0.2,0.3-0.3c1.1-0.8,1.9-1.3,1.9-1.3S460.1,276.3,467.9,270z"/>
		<path fill="#E7C67A" d="M467.9,270c-2.5,2.2-4.8,4.8-6.8,7.5c-1.9,2.7-3.7,5.6-5.2,8.6l-0.3,0.2c0,0,0.2,0,0.2-0.2v-0.2l-0.2,0.3
			c-1.3,1-2.5,1.9-3.5,3c-1.1,1.1-1.9,2.4-2.4,3.8l-0.6,2.1l-0.2-2.1c0-0.2,0-0.3,0-0.5c0-0.2,0-0.3,0-0.5c0-0.3,0.2-0.6,0.2-1
			c0.2-0.6,0.5-1.3,0.8-1.7c0.8-1.1,1.6-2.1,2.7-2.9l0,0l0.2-0.2h0.2l0.2-0.2l0.3-0.2l0,0c0.6-0.5,1.3-1,2.1-1.3l-0.2,0.2
			c1.6-2.9,3.7-5.4,5.7-8c1.1-1.3,2.2-2.4,3.3-3.5C465.5,272,466.6,271.1,467.9,270z M467.9,270c-2.5,2.1-4.8,4.3-6.8,7
			c-2.1,2.5-3.8,5.2-5.4,8.1l0,0h-0.2c-0.6,0.3-1.3,0.8-1.9,1.3l0,0l0,0l-0.3,0.2l0,0l0,0l0,0l0,0l-0.2,0.2l0,0
			c-1,0.8-1.7,1.6-2.5,2.7c-0.3,0.5-0.6,1.1-0.8,1.6c0,0.3-0.2,0.6-0.2,0.8c0,0.2,0,0.3,0,0.5v0.5l-0.8-0.2c0.5-1.6,1.6-2.9,2.7-4.1
			c1.1-1.1,2.4-2.2,3.7-3l-0.2,0.3c0-0.2,0-0.2,0-0.2c0-0.2,0.2-0.2,0.2-0.2l-0.3,0.2c1.7-2.9,3.5-5.7,5.7-8.4
			C463.1,274.7,465.4,272.2,467.9,270z"/>
	</g>
	<g>
		<path fill="#FEE993" d="M465,299.7c0,0.2,0,0.2,0,0.3v0.2c-0.2,0.5-1.1,1-2.5,1c-0.8,0.2-1.6,0.2-2.5,0c0,0,0,0-0.2,0
			c-0.3,0-0.6,0-1,0l5.6-1C464.6,300,464.9,299.9,465,299.7z"/>
		<path fill="#E7C67A" d="M465,299.7c0,0,0,0.2,0,0.3l0,0v0.2l0,0c-0.2,0.5-0.6,0.8-1.1,1c-0.5,0.2-1,0.3-1.4,0.3
			c-0.2,0-0.3,0-0.3,0h-0.3h-0.6H460l0,0c-0.2,0-0.2,0-0.3,0h0.2h-1l-3.3-0.2l3.3-0.6c1-0.2,1.9-0.3,2.7-0.5c1-0.2,1.9-0.2,2.9-0.3
			l0,0C464.6,299.9,464.9,299.9,465,299.7z M465,299.7c-0.2,0.2-0.5,0.3-0.6,0.5l0,0l0,0c-1,0.3-1.7,0.5-2.7,0.8
			c-1,0.2-1.7,0.5-2.7,0.6v-0.8h0.8h0.2l0,0l0,0h1.4h0.6h0.3c0.2,0,0.2,0,0.3,0c0.5,0,1,0,1.3-0.2c0.5-0.2,0.8-0.2,1.1-0.6l0,0l0,0
			l0,0l0,0C465,299.9,465,299.9,465,299.7z"/>
	</g>
	<g>
		<path fill="#FEE993" d="M465,299.5c0-0.2-0.2-0.5-0.3-1C464.9,298.9,464.9,299.2,465,299.5z"/>
		<path fill="#E7C67A" d="M465,299.5c-0.2-0.2-0.3-0.3-0.5-0.5c-0.2-0.2-0.2-0.3-0.2-0.5l0.8-0.2c0,0.2,0,0.3,0,0.5
			C465.2,299.2,465.2,299.4,465,299.5z M465,299.5c-0.2-0.2-0.3-0.3-0.5-0.5c-0.2-0.2-0.2-0.3-0.2-0.5l0.8-0.2c0,0.2,0,0.3,0,0.5
			C465.2,299.2,465.2,299.4,465,299.5z"/>
	</g>
	<g>
		<path fill="#FEE993" d="M468.1,285.5c-1.9,0.2-3.5,1.3-4,4.1C464.4,287.3,465.5,285.5,468.1,285.5z"/>
		<path fill="#E7C67A" d="M468.1,285.5c-1,0.3-1.9,0.8-2.5,1.6s-1,1.7-1.1,2.7l-0.8-0.2c0.2-1.1,0.5-2.2,1.4-3c0.5-0.5,1-0.8,1.4-1
			C467,285.4,467.6,285.4,468.1,285.5z M468.1,285.5c-1.1,0.2-2.1,0.6-2.5,1.4c-0.6,0.8-1,1.7-1.1,2.9l-0.8-0.2
			c0.2-1.1,0.6-2.2,1.4-3C465.8,285.9,467.1,285.4,468.1,285.5z"/>
	</g>
	<g>
		<path fill="#FEE993" d="M470.1,296.8l-0.8,0.5C469.5,297,469.8,296.8,470.1,296.8z"/>
		<path fill="#E7C67A" d="M470.1,296.8c-0.2,0.5-0.3,0.6-0.6,0.8l-0.8,0.6l0.2-1c0-0.2,0.2-0.5,0.5-0.6
			C469.8,296.7,470,296.7,470.1,296.8z M470.1,296.8c-0.2,0.2-0.3,0.3-0.3,0.3c0,0.2,0,0.2,0,0.3l-0.6-0.5
			C469.5,297,469.8,296.8,470.1,296.8z"/>
	</g>
	<g>
		<path fill="#FEE993" d="M475.7,297.5c-1.1,2.5-6.2,6-7.8,1l1.4-1v0.2c-0.2,1.4,0.3,3,2.7,2.5C474.1,299.7,475.4,297.8,475.7,297.5
			z"/>
		<path fill="#E7C67A" d="M475.7,297.5c-0.3,0.8-0.8,1.6-1.4,2.2s-1.4,1.1-2.2,1.4c-0.2,0-0.5,0.2-0.6,0.2c-0.2,0-0.5,0.2-0.8,0
			c-0.3,0-0.5,0-0.8-0.2c-0.3,0-0.5-0.2-0.6-0.3c-0.2-0.2-0.3-0.3-0.6-0.5c-0.2-0.2-0.3-0.3-0.5-0.6c-0.3-0.5-0.3-0.8-0.6-1.3
			l-0.2-0.3l0.3-0.2l1.4-1l0.6-0.5l-0.2,1v0.2l0,0c-0.2,0.6,0,1.4,0.3,1.9c0.5,0.5,1.1,0.5,1.9,0.3c0.3,0,0.6-0.2,1.1-0.3
			c0.3-0.2,0.6-0.3,1-0.5C474.6,298.6,475.2,297.9,475.7,297.5z M475.7,297.5c-0.3,0.6-1,1.3-1.4,1.7c-0.3,0.3-0.6,0.5-1,0.6
			c-0.3,0.2-0.8,0.3-1.1,0.5c-0.5,0.2-0.8,0.2-1.3,0.2s-1-0.2-1.3-0.5c-0.6-0.6-0.8-1.7-0.6-2.5l0,0l0,0v-0.3l0.6,0.5l-1.4,1
			l0.2-0.5c0.2,0.3,0.3,0.8,0.5,1.1c0.2,0.2,0.2,0.3,0.3,0.5c0.2,0.2,0.3,0.3,0.5,0.3c0.2,0.2,0.3,0.2,0.5,0.3
			c0.2,0.2,0.3,0.2,0.5,0.2c0.2,0,0.3,0,0.6,0c0.2,0,0.3,0,0.6-0.2c0.8-0.2,1.6-0.6,2.2-1.1C474.7,298.7,475.2,298.1,475.7,297.5z"
			/>
	</g>
	<g>
		<path fill="#FEE993" d="M500.4,299.5c-1.6-0.5-2.9-1.9-2.1-4.6c0,1,0,2.1,0.5,3C499.1,298.9,499.7,299.4,500.4,299.5z"/>
		<path fill="#E7C67A" d="M500.4,299.5c-0.5,0-1-0.2-1.4-0.5c-0.5-0.3-0.8-0.6-1-1.1c-0.5-1-0.3-2.1-0.2-3l0.8,0.2
			c0,0.8,0,1.7,0.2,2.5C499.1,298.4,499.6,299.1,500.4,299.5z M500.4,299.5c-0.5,0-1-0.3-1.3-0.6c-0.3-0.3-0.6-0.8-0.8-1.3
			c-0.5-1-0.5-1.9-0.5-2.9l0.8,0.2c-0.2,0.8-0.3,1.7,0,2.5C498.9,298.4,499.6,299.2,500.4,299.5z"/>
	</g>
	<g>
		<path fill="#FEE993" d="M512.3,303.5c-0.3,0.2-0.6,0.2-1.1,0.2C511.6,303.5,512,303.5,512.3,303.5z"/>
		<path fill="#E7C67A" d="M512.3,303.5c-0.3,0.3-0.6,0.5-1.1,0.5l0,0l-2.1-1.3l2.1,0.5L512.3,303.5z M512.3,303.5l-1.1,0.5v-0.8l0,0
			C511.6,303.4,512,303.5,512.3,303.5z"/>
	</g>
	<g>
		<path fill="#FEE993" d="M518.2,292.9c0,2.1-0.3,3.7-1.1,5.1C517.8,295.9,518,293.8,518.2,292.9z"/>
		<path fill="#E7C67A" d="M518.2,292.9c0.2,1.7,0,3.7-0.6,5.2l0,0l-0.8-0.3C517.4,296.4,517.8,294.6,518.2,292.9z M518.2,292.9
			c0,1.7-0.3,3.5-0.6,5.2l-0.8-0.3l0,0C517.5,296.4,518,294.6,518.2,292.9z"/>
	</g>
	<g>
		<path fill="#E7C67A" d="M470.1,296.8c0,0,0.2-0.2,0.6,0c0.3,0,0.8,0.3,1.1,0.6c0,0.2,0.2,0.2,0.2,0.5c0,0,0,0.3-0.2,0.5
			c-0.2,0.3-0.5,0.3-0.6,0.3c-0.3,0-0.6-0.2-0.6-0.2s0.2-0.2,0.5-0.3c0.2,0,0.2-0.2,0.2-0.2s0,0,0-0.2c0,0,0,0,0-0.2
			C470.9,297.5,470.1,296.8,470.1,296.8z"/>
	</g>
	<g>
		<path fill="#E7C67A" d="M500.7,297.3c0,0,0-0.2,0-0.3c0-0.2,0-0.6,0.3-1c0.2-0.2,0.3-0.3,0.8-0.3c0.3,0,0.6,0.2,0.8,0.3
			c0.5,0.3,0.8,0.6,1.1,1.1c0.2,0.3,0.3,0.5,0.3,0.8s0,0.6-0.2,1c-0.5,0.5-1,0.6-1.3,0.8c-0.8,0.2-1.3,0-1.3,0s0.5,0,1.1-0.5
			c0.2,0,0.3-0.2,0.5-0.3c0.2-0.2,0.3-0.3,0.3-0.3c0.2-0.3,0-0.6-0.2-1.1c-0.2-0.3-0.5-0.8-0.8-1c-0.2-0.2-0.3-0.3-0.5-0.3
			c-0.2,0-0.2,0-0.3,0.2C500.8,296.8,500.7,297.3,500.7,297.3z"/>
	</g>
	<g>
		<path fill="#E7C67A" d="M496.4,288.1c0,0-0.3,0-0.8,0C495.9,288.1,496.4,288.1,496.4,288.1s0.3,0,0.8,0
			C496.7,287.9,496.4,288.1,496.4,288.1z"/>
	</g>
	<g>
		<path fill="#E7C67A" d="M486.2,294.1c0,0,0.2,0,0.3,0s0.5-0.2,1-0.3c0.3-0.2,0.6-0.5,0.5-1c0-0.2,0-0.2-0.2-0.3
			c-0.2-0.2-0.2-0.2-0.2-0.3c-0.2-0.2-0.5-0.5-0.6-0.6c-0.5-0.3-1.3-0.6-1.9-0.6c-0.6,0-1,0.3-1.1,1c-0.2,0.8,0,1.7,0.2,2.5
			c0.2,0.8,0.6,1.6,1.1,1.9c0.6,0.5,1.4,0.6,2.2,0.6s1.7-0.2,2.5-0.5c0.6-0.3,1.4-0.8,1.9-1.3c0.6-0.5,1.1-1.1,1.6-1.6
			c0.8-1.1,1.4-2.2,1.9-2.9c0.3-0.8,0.6-1.1,0.6-1.1s-0.2,0.5-0.3,1.3c-0.3,0.8-0.6,2.1-1.4,3.3c-0.8,1.3-1.9,2.9-3.7,3.7
			c-1,0.5-1.9,0.6-3,0.6c-1.1,0-2.2-0.2-3.2-0.8c-1-0.8-1.6-1.9-1.7-2.9c-0.2-1.1-0.2-2.1,0-3c0.2-0.5,0.3-1.1,1-1.6
			c0.5-0.5,1.1-0.5,1.6-0.3c1,0.2,1.7,0.6,2.4,1.1c0.3,0.3,0.6,0.5,0.8,0.8c0.2,0.2,0.2,0.3,0.3,0.5c0,0.2,0.2,0.3,0.2,0.5
			c0,0.3,0,0.6-0.3,1c-0.2,0.2-0.5,0.3-0.6,0.5c-0.5,0.2-0.8,0.2-1,0.2C486.4,294.1,486.2,294.1,486.2,294.1z"/>
	</g>
	<g>
		<path fill="#E7C67A" d="M510.4,303.5c0,0-0.2,0.3-0.3,0.3s-0.2-0.5-0.2-0.5s0.2-0.3,0.3-0.3C510.2,303,510.4,303.5,510.4,303.5z"
			/>
	</g>
	<g>
		<path fill="#E7C67A" d="M517.1,298.1c0,0,0,0.5-0.2,1.1s-0.5,1.6-1.1,2.4s-1.4,1.4-2.1,1.6c-0.6,0.3-1.1,0.2-1.1,0.2
			s0.2,0,0.3-0.2c0.2-0.2,0.5-0.3,0.6-0.5c0.5-0.3,1.1-1,1.6-1.7c0.5-0.6,1-1.4,1.3-2.1C516.7,298.4,517.1,298.1,517.1,298.1z"/>
	</g>
	<g>
		<path fill="#E7C67A" d="M508.9,303.2c-1.1-0.5-2.2-1.4-2.7-2.5c-0.2-0.6-0.3-1.3-0.2-1.9c0-0.3,0.2-0.6,0.3-1
			c0.2-0.2,0.2-0.3,0.3-0.5l0.3-0.3l0,0l0.2-0.2l0,0l0,0l0,0h0.2l0,0l1-0.5l0,0c0.2,0,0.3-0.2,0.5-0.2h-0.2c0.6-0.3,1.7-0.3,2.4,0.2
			c0.2,0.2,0.3,0.3,0.5,0.5s0.3,0.3,0.3,0.5c0.2,0.3,0.3,0.8,0.3,1.1l0,0l0,0l0,0l0,0c0,0.3,0,0.6-0.2,1s-0.5,0.5-0.6,0.6
			c-0.5,0.3-1.1,0.5-1.7,0.5c0.5-0.2,1.1-0.3,1.6-0.6c0.2-0.2,0.3-0.3,0.5-0.6c0.2-0.2,0.2-0.5,0-0.6l0,0l0,0l0,0l0,0
			c-0.2-0.3-0.2-0.6-0.3-1c-0.2-0.2-0.2-0.3-0.3-0.3c-0.2-0.2-0.2-0.2-0.3-0.3c-0.5-0.3-1.1-0.3-1.7,0h-0.2l0,0l0,0l0,0
			c-0.3,0.2-0.5,0.3-0.8,0.5l0,0h-0.2l0,0l0,0l-0.2,0.2l0,0l-0.3,0.3c0,0-0.2,0.2-0.2,0.3c-0.2,0.2-0.2,0.5-0.3,0.8
			c0,0.3,0,0.5,0,0.8s0,0.5,0.2,0.8C507,301.4,507.8,302.6,508.9,303.2z"/>
	</g>
	<g>
		<path fill="#E7C67A" d="M454.4,293c0.6,0.3,1.3,0.6,1.7,0.8c0.3,0.2,0.6,0.2,1,0c0.3,0,0.5-0.2,0.6-0.3c0.2-0.2,0.3-0.5,0.5-0.6
			c0.2-0.3,0.2-0.5,0.2-0.8c0-0.6-0.2-1.3-0.3-1.7c-0.2-0.6-0.5-1.1-0.8-1.7c-0.3-0.5-0.6-1-1.1-1.4c-0.2-0.2-0.5-0.3-0.6-0.5
			c-0.2-0.2-0.5-0.2-0.6-0.2s-0.5,0-0.6,0.2c0,0-0.2,0.2-0.2,0l-0.2,0.2h-0.2l0,0l0,0l0,0l0,0c0,0-0.2,0.2,0.2-0.2l0,0l-0.2,0.2l0,0
			l0,0l-0.5,0.6l-0.3,0.3l-0.6,0.6c-0.3,0.5-0.8,1-1,1.4c-0.6,1-1.1,1.9-1.3,3l0,0c0,0.2,0,0.2,0,0.3l0,0c-0.2,0.8,0,1.6,0.2,2.4
			c0.3,0.8,0.8,1.6,1.3,2.2c-0.8-0.5-1.3-1.3-1.7-2.1c-0.5-0.8-0.6-1.7-0.6-2.7l0,0c0-0.2,0-0.5,0-0.6l0,0c0.2-1.3,0.6-2.5,1.3-3.7
			c0.3-0.5,0.6-1.1,1.1-1.6c0.2-0.3,0.3-0.5,0.6-0.8l0.3-0.3l0.3-0.3l0,0l0.2-0.2l0.2-0.2h0.2l0.2-0.2c0.2-0.2,0.2-0.2,0.3-0.2
			c0.3-0.2,0.8-0.3,1.3-0.3s1,0,1.3,0.3c0.5,0.2,0.8,0.5,1.1,0.6c0.6,0.5,1.1,1.1,1.4,1.7c0.3,0.6,0.6,1.3,0.8,2.1
			c0.2,0.8,0.2,1.4,0.2,2.2c0,0.3-0.2,1-0.3,1.1c-0.2,0.5-0.5,0.6-0.8,1c-0.8,0.5-1.6,0.5-2.2,0.2C455.3,294,454.9,293.5,454.4,293z
			"/>
	</g>
	<g>
		<path fill="#E7C67A" d="M452,298.6c0.6,0.3,1.3,0.5,1.9,0.8c0.3,0.2,0.6,0.2,1,0.3c0.2,0,0.2,0,0.2,0h0.3l0.5,0.2
			c0.6,0.2,1.3,0.3,1.9,0.3h0.5c0.2,0,0.3,0,0.5,0h1.1h0.3H460h0.2h0.2h0.5h1c0.6,0,1.3-0.2,1.9-0.2l0,0c0.5,0,1-0.2,1.4-0.2
			c-0.5,0.3-0.8,0.5-1.3,0.8l0,0c-0.6,0.3-1.3,0.5-1.9,0.8c-0.3,0.2-0.6,0.2-1,0.2l-0.5,0.2h-0.3H460c-0.2,0-0.3,0-0.5,0h0.3h-1.1
			c-0.5,0-0.8,0-1.1-0.2c-0.8-0.2-1.4-0.3-2.2-0.6c-0.2,0-0.3-0.2-0.5-0.3l-0.2-0.2c0,0-0.2-0.2-0.3-0.2c-0.3-0.2-0.6-0.3-1-0.6
			C453,299.7,452.5,299.2,452,298.6z"/>
	</g>
	<g>
		<path fill="#FED4A6" stroke="#D8AE88" stroke-miterlimit="10" d="M551.7,407.4l-0.6,1L551.7,407.4L551.7,407.4z"/>
		<path fill="#FED4A6" stroke="#D8AE88" stroke-miterlimit="10" d="M577.5,417.2c-1,0.6-2.7,1-5.6-0.8c-4.3-2.7-10-1.6-12.1-1
			c0.6,0.2,1.7,0.3,3.3,1c2.7,1,3.2,2.7,3.2,4.1c-0.2,1.1-1.3,1.7-2.2,1.3c-2.9-1.4-7-1.7-7-1.7c-9.5-0.6-10.5-6.2-10.5-6.2l4.5-5.7
			l0.6-1c3,0.6,13.8,1,15.7,1c0.2,0,0.3,0,0.5,0.2l4.9,1.9c0.2,0,0.3,0.2,0.5,0.3l4.3,4.1C578.4,415.5,578.3,416.8,577.5,417.2z"/>
		<path fill="#FED4A6" stroke="#D8AE88" stroke-miterlimit="10" d="M524.7,388.9c-5.9-3.7-11.3-8.1-15.9-13.4l-34-38.5l-7.6-7.6
			c4.1-1.6,9.4-3.7,9.4-3.7c4.5,4.9,9.4,7.3,12.2,8.3c1.4,0.5,2.9-0.2,3.5-1.4l1.9-4.1c2.5-1.7,7-7.8,7-7.8l4.6,1.1
			c1,0.3,2.1-0.5,2.2-1.4c0.5-3,0.3-6.7,0.2-9.5c-0.2-3-0.5-5.1-0.5-5.1c0.8-0.6,1.6-1.3,2.4-1.9c-0.3,0-0.5-0.2-0.8-0.3l0,0
			c-1.9-0.6-3.5-2.1-3-4l0,0v-0.2c0.2-0.5,0.3-1.1,0.6-1.7c0.5-1.4-1.7-0.3-2.9,1.6c-0.3,0.6-1.4,1-2.5,1c-0.3,0-0.5,0-0.8-0.2
			c-1.6-0.5-2.9-1.9-2.1-4.6l0,0c0-1.1,0.3-1.9,0.3-1.9c0.2-3.3-1.4-5.7-2.4-5.1c0,0.2-0.2,0.6-0.5,1.3l0,0
			c-0.3,3.7-6.5,13-13.2,6.4c-6.7-6.7-6.7,1-6.7,1c0,0.2-0.2,0.5-0.2,0.6c0,0,0,0,0,0.2c-1.1,2.5-6.2,6-7.8,1
			c-1.6-5.6,3.7-4.3,3.7-4.3c4.1-5.1,2.2-6.8,2.2-6.8c-2.4-1.3-4.3-1.7-5.7-1.7c-1.7,0.2-3.5,1.3-4,4.1c0,0.2-0.2,0.3-0.2,0.6
			s0,0.8,0,1.1c0,1.1,0,2.2,0.2,3.2c0,0.3,0,0.8,0.2,1.1c0,0.2,0,0.3,0.2,0.5v0.2c0,0.5,0.2,0.8,0.3,1.3c0,0.3,0.2,0.5,0.2,0.8
			s0.2,0.6,0.3,1v0.2c0,0.2,0,0.2,0,0.3l0.6-0.2c-0.2,0.2-0.5,0.2-0.6,0.3c-0.2,0.5-1.1,0.8-2.5,1c-9.9,4.8-18.4,2.4-24.3-1l0,0
			l-7-7.2l-37.4-19.2c-11-5.6-20.5-13.7-28.2-23.4l-25.8-30.1c-1.3-2.9-3.3-13.5-3.7-15.3c0-0.2-0.2-0.3-0.2-0.5l-2.7-4.5
			c-0.2-0.2-0.3-0.3-0.3-0.5l-4.8-3.5c-0.8-0.6-1.9-0.3-2.4,0.6c-0.5,1.1-0.5,2.9,1.7,5.4c3.3,3.8,3.2,9.5,3,11.8
			c-0.2-0.6-0.6-1.6-1.6-3.2c-1.4-2.5-3.2-2.7-4.6-2.4c-1,0.3-1.6,1.4-1,2.4c1.9,2.5,2.9,6.5,2.9,6.5c2.1,8.7,7.2,9.2,7.8,9.2
			l24.5,37.5c5.7,8.7,13,16.4,21.6,22.6l36.4,25.9c0,0-22.9,35.8-28.3,70.1c-0.2,0.5-0.2,1-0.2,1.4c0.6,2.4,2.2,5.1,5.1,7.8
			c5.9,5.9,16.2,11.8,26.4,15.1c4.6,1.6,8.7,2.4,12.6,2.7c6.5,0.5,11.1-1.1,13.7-4.5l21.8-53.1l29.3,31.2c5.2,5.6,11.5,10.3,18.3,14
			l31.3,16.4l4.6-5.7l0.6-1L524.7,388.9z M419.4,398.3c-0.3,1-1,1.4-1.6,1.3c-0.6-0.2-0.8-1.1-0.5-1.9c0.3-1,1-1.4,1.6-1.3
			C419.6,396.6,419.7,397.5,419.4,398.3z"/>
		<path fill="#FED4A6" stroke="#D8AE88" stroke-miterlimit="10" d="M341.1,488.8l-29.4,77.9c2.7,5.1-1.7,13.8-1.7,13.8
			c-8,2.1-13.7-6.5-13.7-6.5c-13.2,3-23.5-5.1-23.5-5.1c-10.7-1.9-6.5-8.7-6.5-8.7l8.9,3c7.8-4.1,25.4-2.4,25.4-2.4l15.4-85.1
			c-1.6-6.5,6.5-12.2,6.5-12.2c5.4-8.9,17.2-20.4,26.6-28.8c2.9,6.7,9.4,18.4,22.9,32.1C359.9,477.5,341.1,488.8,341.1,488.8z"/>
		<path fill="#FED4A6" stroke="#D8AE88" stroke-miterlimit="10" d="M465.5,622.1c0,0-2.4,7.8-11,1c0,0-12.9-2.4-19.2-14.3
			c0,0-10.2,1.3-13.8-5.9c0,0,3.5-9.2,9.2-10.5l-11.6-84.5c0,0-5.2-12.9-9.1-26.1c16.7-4.8,30.7-11.8,36.4-14.8
			c1.9,11,3.3,23.2,2.5,31.6c0,0,3,9.4-2.1,13.7l-4.5,84.3c0,0,12.9,12.1,15,20.7L465.5,622.1z"/>
		<path fill="#FED4A6" stroke="#D8AE88" stroke-miterlimit="10" d="M551.7,407.4l-0.6,1L551.7,407.4z"/>
	</g>
</g>
</svg>
