<?xml version="1.0" encoding="utf-8"?>
<!-- Generator: Adobe Illustrator 18.1.1, SVG Export Plug-In . SVG Version: 6.00 Build 0)  -->
<!DOCTYPE svg PUBLIC "-//W3C//DTD SVG 1.1//EN" "http://www.w3.org/Graphics/SVG/1.1/DTD/svg11.dtd">
<svg version="1.1" id="Layer_1" xmlns="http://www.w3.org/2000/svg" xmlns:xlink="http://www.w3.org/1999/xlink" x="0px" y="0px"
	 viewBox="0 0 384.8 354.5" enable-background="new 0 0 384.8 354.5" xml:space="preserve">
<g>
	<path fill="#1C75BC" d="M326.9,50.4c0.6,0.5,0.5,0.4,0.6,0.5C326.2,49.8,326.9,50.4,326.9,50.4z"/>
	<path fill="#1C75BC" d="M312.3,41.9l0.3-0.1c0,0-0.6-0.2-1.2-0.3c-0.6-0.2-1.2-0.3-1.2-0.3s0.5,0.2,1,0.3
		C311.8,41.8,312.3,41.9,312.3,41.9z"/>
	<path fill="#1C75BC" d="M298.2,34.9c0.4,1.1,1.7,1.6,3.2,2.1c1.5,0.5,3.2,1,4.4,1.9l0.3,0.5c0,0,0.4-0.1,0.7-0.2
		c0.4-0.1,0.7-0.1,0.7-0.1C304.5,37.4,300.2,36.2,298.2,34.9z"/>
	<path fill="#1C75BC" d="M291.8,27.4c0.2,1-1.9-0.3,1.7,1.2c-0.1-0.2-0.2-0.2-0.3-0.3C292.9,28.1,292.5,27.8,291.8,27.4z"/>
	<path fill="#1C75BC" d="M293.3,28.2C294.8,29,292.5,27.1,293.3,28.2L293.3,28.2z"/>
	<path fill="#1C75BC" d="M286.1,25l2.2,0.3c-0.3-0.7-2-1.7-1.2-1.7C284.9,22.9,285.2,23.7,286.1,25z"/>
	<path fill="#1C75BC" d="M283.7,25.7l1.1,0.2C284.7,25.5,284.5,25.3,283.7,25.7z"/>
	<path fill="#1C75BC" d="M287.3,26.3l-2.4-0.4c0.2,0.5,0,1.2,1.1,0.2C285.6,26.6,286.2,26.2,287.3,26.3z"/>
	<path fill="#1C75BC" d="M288.4,27.2c1,1,2.4,1.9,0.1,1.6C292.5,30.3,292.4,28.8,288.4,27.2z"/>
	<path fill="#1C75BC" d="M296.9,36.1l1.4,1.1l1.5,0.1C299,37.2,296.9,35.6,296.9,36.1z"/>
	<path fill="#1C75BC" d="M273.7,17.8c-0.3,0.5,0.3,1.8,0.3,2.5l1.7,0C275,19.7,273.6,18.7,273.7,17.8z"/>
	<path fill="#1C75BC" d="M274,20.3l-2.6,0C273.5,21.3,274,21,274,20.3z"/>
	<path fill="#1C75BC" d="M282.6,27.9c0,0,1.1,0,2.1,0c1,0,2.1,0,2.1,0s-1.2-0.1-2.5-0.2c-1.2-0.1-2.5-0.1-2.5-0.1L282.6,27.9z"/>
	<path fill="#1C75BC" d="M264.9,13.9l1.7-0.9c0,0-0.7,0.3-1.4,0.6c-0.7,0.3-1.4,0.6-1.4,0.6L264.9,13.9z"/>
	<path fill="#1C75BC" d="M258.9,11.8c1.3-0.9-0.9-2.7,0.3-3.1c-1.7-0.4-3.4,0.2-4.8,0.7C255.9,9.4,257.3,10.1,258.9,11.8z"/>
	<path fill="#1C75BC" d="M252,10.3c0.7-0.1,1.6-0.4,2.4-0.8C253.6,9.5,252.8,9.7,252,10.3z"/>
	<path fill="#1C75BC" d="M267.6,18.5c-0.1-0.4-0.2-1.5-1.4-2.4l0.5,2.1C266.9,18.2,267.3,18.4,267.6,18.5z"/>
	<path fill="#1C75BC" d="M266.7,18.2L266.7,18.2c-1-0.5-1.7-0.8-2-0.9C265,17.4,265.6,17.7,266.7,18.2z"/>
	<path fill="#1C75BC" d="M267.8,18.6c-0.1,0-0.1-0.1-0.2-0.1C267.6,18.7,267.7,18.8,267.8,18.6z"/>
	<path fill="#1C75BC" d="M277,24.3c-1.6,0.2-4.6,0.2-2.3,2.4C276,26,274.6,24.7,277,24.3z"/>
	<path fill="#1C75BC" d="M268.4,21.1l2.4,1.3c0.1-0.4-0.2-1.2,0.6-1.4c0,0-0.7,0-1.5,0.1C269.1,21,268.4,21.1,268.4,21.1z"/>
	<polygon fill="#1C75BC" points="267.1,21.2 268.4,21.1 267.5,20.6 	"/>
	<path fill="#1C75BC" d="M255.9,13.6c-1.3,0.5-2.5,0.2-3.9-0.1c1.4,0.9,2.8,1.5,4.2,2C256.6,14.9,257.5,14,255.9,13.6z"/>
	<path fill="#1C75BC" d="M261.1,15.9c-0.1,0-0.2,0-0.3,0C261,16.2,261.1,16.3,261.1,15.9z"/>
	<path fill="#1C75BC" d="M238.5,9.7c0.1,0.2,0.1,0.3,0.2,0.5c0-0.1,0.1-0.2,0.1-0.4L238.5,9.7z"/>
	<path fill="#1C75BC" d="M256.5,15.8c1,0.7,1.7,0.5,2.5,0.1c-0.8-0.1-1.7-0.3-2.7-0.5C256.1,15.7,256.1,15.8,256.5,15.8z"/>
	<path fill="#1C75BC" d="M248,10c0.5,0.6,1.1,1.2,1.7,1.7C249.3,10.9,248.3,9.5,248,10z"/>
	<path fill="#1C75BC" d="M260.6,15.3c0.1,0,0.1,0,0.2,0C260.6,14.8,260.6,15,260.6,15.3z"/>
	<path fill="#1C75BC" d="M260.6,15.3c-0.6,0.1-1.2,0.4-1.7,0.6c0.7,0.1,1.3,0.1,1.9,0C260.8,15.8,260.7,15.5,260.6,15.3z"/>
	<path fill="#1C75BC" d="M232.4,23.6c0.5-2.2,3.6-3.6,5.7-1c2.6-1.1,2.2-8.1,0.6-12.5c-0.2,0.9-0.3,1.7-3.1,2.4
		c0.7,1.4,5.2,3.8,2.8,5.3c-3.5,0.5-2.6-1.2-4.1-2.7c0.5,1.5-0.7,2.2-2,3.2c-1.3,1-2.7,2.2-2.6,4.2c0,0,0.8-0.3,1.5-0.5
		c0.8-0.3,1.5-0.5,1.5-0.5C232.8,22.1,231.6,23,232.4,23.6z"/>
	<path fill="#1C75BC" d="M243.5,11.6l1.1,0c-1.1-0.7-1.9-1.7-3.2-3.7c-1.9,0.5-2.4,1.2-2.6,1.9c0,0,1.3,0.4,2.6,0.8
		c1.3,0.4,2.6,0.8,2.6,0.8L243.5,11.6z"/>
	<path fill="#1C75BC" d="M249.3,12.9c-1.2,1.8-3.9,2.1-2.8,4.7c3,0.6,2.4-1.2,4.4-1.6c-5-0.8,1.6-0.7-1.7-2.9c1-0.1,1.9,0.1,2.8,0.2
		c-0.8-0.5-1.6-1.1-2.4-1.7c0,0.1,0.1,0.1,0.1,0.2l0,0l0,0c0.2,0.3,0.2,0.5,0,0.3c0,0-0.1,0-0.1,0C249.6,12.5,249.5,12.7,249.3,12.9
		c-1.3-0.9-0.1-0.6,0.4-0.7c0-0.1,0.1-0.2,0.1-0.3c0,0,0,0,0,0c0,0-1.3-0.1-2.6-0.2c-1.3-0.1-2.6-0.1-2.6-0.1
		C245.6,12.2,247,12.5,249.3,12.9z"/>
	<path fill="#1C75BC" d="M271.3,29.1c-0.1-0.2-0.1-0.3-0.1-0.4C270.9,28.8,270.7,28.9,271.3,29.1z"/>
	<path fill="#1C75BC" d="M269.6,27.6c0.4-0.1,0.9-0.7,1.9-0.2c0.8,0.8-0.2,0.7-0.3,1.3c0.8-0.2,2.7-0.4,0.8-1.8l-0.4,0.1
		c-1.8-1.1-3.7-4-3.3-4.1C268.5,24.6,268.7,25.9,269.6,27.6z"/>
	<path fill="#1C75BC" d="M259.3,21c0,0-1.1-0.1-2.1-0.1c-1-0.1-2.1-0.1-2.1-0.1l1.7,2.2l0.1-1C259.1,23,258.9,21.7,259.3,21z"/>
	<path fill="#1C75BC" d="M238.2,8.4l0.9-2.3c0,0-0.7,0.7-1.5,1.4c-0.7,0.7-1.5,1.4-1.5,1.4L238.2,8.4z"/>
	<polygon fill="#1C75BC" points="232.7,7.4 233.2,5.2 231.6,6.2 	"/>
	<path fill="#1C75BC" d="M87.2,205c0,0.1-0.1,0.1-0.1,0.1c0-0.1,0-0.1-0.1-0.2L87.2,205z"/>
	<path fill="#1C75BC" d="M173.9,4.1c-1.9-1.1-3.3-1.4-4.6-1.5C171.7,4.3,173.8,6.8,173.9,4.1z"/>
	<path fill="#1C75BC" d="M41.7,210.4c0.8,0.9,1.7,1.3,2.6,1.3C43.6,210.7,42.8,210.1,41.7,210.4z"/>
	<path fill="#1C75BC" d="M164.4,3.4c0.4,0.3,0.7,0.4,1.1,0.6c1.1-0.8,2.3-1.3,3.9-1.3c-0.9-0.6-1.8-1.1-2.7-1.1
		C165.8,1.6,165,2.1,164.4,3.4z"/>
	<path fill="#1C75BC" d="M232.1,328.6c0.1,0.1,0.2,0.2,0.3,0.3C232.5,328.8,232.3,328.7,232.1,328.6z"/>
	<path fill="#1C75BC" d="M278,351.4c-0.5,0-1.3-0.1-2.1-0.1C276.3,351.4,276.9,351.4,278,351.4z"/>
	<path fill="#1C75BC" d="M210.2,2.3C211.4,2.3,210.4,2,210.2,2.3L210.2,2.3z"/>
	<path fill="#1C75BC" d="M215.5,13.7c-0.3,0.3-0.5,0.6-0.5,1.3C215.1,14.3,215.2,13.9,215.5,13.7z"/>
	<path fill="#1C75BC" d="M157.9,26.5C157.9,26.5,158,26.5,157.9,26.5C158.3,26.9,158.4,27,157.9,26.5z"/>
	<path fill="#1C75BC" d="M212,3.8c-0.4-0.4-1-0.7-1.5-1C210.7,3,211.1,3.3,212,3.8z"/>
	<path fill="#1C75BC" d="M211.8,2.4c0.4,0.2,0.7,0.3,1.1,0.4C213,2.4,212.9,2.1,211.8,2.4z"/>
	<path fill="#1C75BC" d="M208.5,2.2c0.7,0,1.3,0.3,2,0.5c-0.2-0.2-0.3-0.4-0.3-0.5C209.8,2.3,209.3,2.3,208.5,2.2z"/>
	<path fill="#1C75BC" d="M147.7,296.9c0,0.1,0.1,0.2,0.1,0.4C149.3,296.7,148.8,296.6,147.7,296.9z"/>
	<path fill="#1C75BC" d="M93.9,219.2c-1-1.8-1.9-3.5-2.8-5.3c1.2,2.5,2.3,4.6,3.4,6.3C94.3,219.9,94.1,219.6,93.9,219.2z"/>
	<path fill="#1C75BC" d="M87.7,52.9L87.7,52.9L87.7,52.9L87.7,52.9z M87.7,52.9c0.1,0.1,0.1,0.2,0.2,0.2c0,0,0-0.1,0-0.1
		C88.2,53,88.1,52.9,87.7,52.9z M87.9,53.2c-0.1,0.5-0.8,1.5,0.5,0.6C88.3,53.6,88.1,53.4,87.9,53.2z M287.6,351.7
		c1.4,0,0.4-0.2-0.7-0.6c-1.2-0.4-2.6-1-2.3-1.3c-1.5-0.1-3.4-0.8-5.4-1.7c-2.1-0.9-4.3-2-6.9-1.9c-1-0.6,1-0.2,0.5-0.7
		c-1.3,0.2-2.8,0-5.4-1.2l0.3-0.1c-7.5-2.2-10.5-4-18.5-7.9l0.3,1.6c-1.7-0.8-2-1.4-2.7-2c-2.6,1.4,4.9,1.9,2.5,3.5
		c-0.9-1.7-4-2.9-7-4c-3-1.1-5.9-2.3-6.2-4.6c-2.7-1.1,0.3,2.3-2.4,1.2l-0.4-1.4l-1.1,1.2c-1.7-0.9-2.2-2.7-2-3.7
		c0.4,0.3,1.3,0.2,1.8,0.3c-1.7-2.1-5.8-2.2-6.9-2.8l2.1,1.6c-3.8-0.9-7.8-2.7-11.8-4.3c-4-1.6-8-3.1-11.9-3l0.2,1.3
		c-6-0.1-3.8-3-10-4.5l0.3-0.2c-1.6,0.7-3.4,0.7-4.9-0.2c2-0.8-1.7-4,0.8-4.8c-3.3-0.1-4.1,0.1-4.9,0.7c-0.8,0.6-1.4,1.5-4.2,3.1
		l0-2.5c-2,1.4-2.5,2.4-5.7,1.7c3.1-0.8-0.5-4.2,3.1-5.5c-2-3.8-4.6-3.7-6.8-3.6c-2.2,0.1-3.9,0.1-3.6-4.3c-5.5,5.1,3.5,6.1,1.5,6.7
		c0.4,2.7-4.3,3.7-5.9,2.2c-1.9-1,0.4-9.8-4.2-12.2c0.4,0.3,0.7-0.2,1.1,0.1c-0.9-2.6-4.4,0.5-5.2-3.5c-3.2,3.4-2.6-1.7-5.5,3.3
		l4.8,1.1c-3,0-8.4,5-10.9-0.2c0.9-0.9,2.8-1.6,4-2c-0.3-2.2-2.7-0.2-3.1-2.5c3-5,5.5,1.6,10-0.7l-25.5-29.3
		c-11-9.6-23.5-25.1-32.9-41.2c-0.5-0.9-1.1-1.9-1.6-2.8c0,0-0.1-0.1-0.1-0.1c-1.1-1.8-2.2-3.9-3.4-6.3c0-0.1-0.1-0.2-0.1-0.3
		c-1.8-3.9-3.4-7.8-4.6-11.8c-0.7-2.2-1.3-4.5-1.9-6.8c-0.1-0.5-0.2-1-0.3-1.5c-2.5-11.1-3.1-22.2-2.6-32.3c0.1-1.4,0.1-2.7,0.2-4
		c0.3-4.4,0.8-8.6,1.4-12.4c0.5-3.2,1.1-6.2,1.7-9c0.8-3.8,1.7-7.1,2.5-9.9c1.3-4.7,2.4-7.7,2.8-8.6c0.1-0.2,0.1-0.3,0.1-0.3
		c0-0.1,0.1-0.2,0.1-0.3c0.3-0.8,0.6-1.5,1-2.2c0.7-1.6,1.5-3.2,2.3-4.8c0.1-0.2,0.2-0.3,0.3-0.5c1.4-2.6,2.9-5.1,4.6-7.6
		c2-3,4.1-5.9,6.4-8.8c0,0,0,0,0-0.1c0.6-0.8,1.2-1.5,1.8-2.3c0.2-0.2,0.3-0.4,0.5-0.6c0,0,0,0,0,0c0.6-0.8,1.2-1.5,1.9-2.3
		c0.5-0.6,1-1.2,1.6-1.8c4-4.7,8.4-9.2,13.1-13.7c0.5-0.5,1-1,1.6-1.5c2-1.9,4-3.7,6.1-5.6c1.1-1,2.2-2,3.4-2.9
		c3.7-3.2,7.7-6.3,11.7-9.3c0.2-0.2,0.4-0.3,0.6-0.5c1.2-0.9,2.5-1.8,3.7-2.7c11.5-8.3,19.2-15,23.1-19.4c0.1-0.1,0.1-0.1,0.2-0.2
		c0.9-1,1.6-1.9,2.1-2.7c3.3,3.6-3.1,1.3-0.1,6c-0.2-1.5,0.5-2.7,1.5-3.8c1-1.1,2.3-2,3.2-3.1c-0.6-2.2-1.9-2.2-3.2-1.4
		c-0.2,0.1-0.4,0.3-0.5,0.4c0.3-1.3-0.8-1.8-3.1-1.1c0.1-1.8,0.5-3.5,1.1-5.2c1.1-3.1,3.1-5.6,5.6-7.3c4.1-1.9,2.3,3.8,3,2.8
		c4,0.2,5.5-2.5,6.9-4.7c1.4-2.2,2.8-4,6.3-1.8c2.8,3.7,0.3,7.3,1,9.9c-0.8,0.4-1.6,0.4-2.2,0.3c-0.7-0.1-1.3-0.4-1.9-0.8
		c-1.2-0.7-2.3-1.6-3.4-1.4l2.9,1.6c-1,1.3-3.1,2.4-4.4,1.4c0.6,0.8,1.7,1.2,3.1,1.4c1.4,0.2,3.2,0.1,5,0.1c1.9,0,3.8,0,5.7,0.2
		c1.9,0.2,3.7,0.6,5.1,1.3c1.1-1.2,2.9-2.3,2.1-3.7l-1.9,0.4c-0.8-1.4,0.1-2.4,0.9-3.1c0.8-0.7,1.6-1.3,0.4-2c1.3-0.9,2.8-2,4.3-2.7
		c1.6-0.7,3.2-0.8,5,0.2l0.4,3.6c-0.2-1-2.1-2.1-3.2-1.3c0.8-0.5,2.1,0.8,3.3,1.8c1.3,1,2.7,1.6,3.7-0.7l-2.3-2.9
		c2.7-1.5,6.4-4.7,9.5-2.9c-1.1-3.7-0.8,0.2-2.7-4.3c1.5,5.2-7.7-1.3-5.9,3.6c-0.9-2.1-1.8-2.7-2.9-3.3c-1.1-0.6-2.3-1.2-3.8-3.6
		c0,1.3,1,2.6-1.8,1.6c-0.1,0.4-0.5,0.8-0.7,1c-0.1,0-0.1-0.1-0.2-0.1c0,0,0.1,0.1,0.2,0.2C212,4.1,212,4.2,212.2,4
		c0.6,0.6,1.2,1.4,1.3,2.1c-1.5,2.8-5.9,2.2-7.4,3.7c-1.6-0.7,0.7-1.5-0.2-2.9c0,0-0.6,0.6-1.1,1.1c-0.6,0.5-1.1,1.1-1.1,1.1
		c-0.2-3-4.5-5.3-0.5-6.7c0,0-0.9-0.1-1.8-0.2c-0.9-0.1-1.8-0.2-1.8-0.2c-2.2-1.8-5.2-2.7-7-1.4c-1.8-0.7-4.2,3.4-2.8,1
		c0,0-0.3,0.1-0.9,0.3c-0.5,0.2-1.2,0.4-1.9,0.7c-1.4,0.5-2.8,1.1-2.8,1.1L184,2.8c-2.9-0.2-5.7,1.4-8.6,2.3c-1.5,0.4-3,0.9-4.6,0.7
		c-1.6-0.1-3.4-0.7-5.3-1.9c-0.9,0.6-1.8,1.2-2.8,1.7c-1.1,0.4-2.4,0.7-4.1,0.5l-1.4-2.8c-1.1,0.8-3.2,0.4-5.1,0.3
		c-1.9-0.1-3.5,0.1-3.6,1.8c-1.3-1.8-2.9-2.6-4.4-2.8c-1.6-0.1-3.2,0.3-4.8,1.1c-0.8,0.4-1.6,0.8-2.4,1.2c-0.8,0.5-1.5,0.9-2.3,1.4
		c-1.5,0.8-2.8,1.5-4.1,1.6l1.7,3.9c-1.5,0.5-2.9,1.4-4.2,2.5c-1.3,1.1-2.5,2.5-3.8,4.2l2.1,3.2c-0.7,2.2-2.8,2.5-5.5,2.9
		c-1.5,0.2-3.1,0.4-4.7,0.8c-0.2,0.6-0.2,0.9-0.4,0.5c0.4,1.4-0.2,0.9-0.7,0.9l-0.6,1c0-0.8,0.3-1,0.6-1l0.9-1.3
		c-1,0.3-2,0.7-2.8,1.4c-0.3-0.8-0.1-1.2,0.4-1.5c-0.3-0.1-0.4-0.3-0.2-0.7c-1.6-0.2-2.9,0.2-3.8,1c-1.3,1-2.2,2.7-2.9,4.5
		c-0.4,1.1-0.8,2.1-1.2,3.1c-0.1,0.3-0.3,0.6-0.4,0.9c-0.2,0.3-0.4,0.6-0.6,0.9c-0.5,0.6-1.1,1.2-1.8,1.5c-0.7,0.3-1.6,0.5-2.7,0.3
		c-0.1,2-1.2,2.4-2.6,2.3c0.1-0.1,0.1-0.2,0.1-0.4c-0.1,0.1-0.3,0.2-0.5,0.4c-0.3,0-0.6,0-0.9-0.1c0,0-0.1,0-0.1,0
		c-0.7-0.1-1.4-0.1-2.1-0.1c0.8,0.2,1.5,0.3,2.1,0.4c0,0,0.1,0,0.1,0c0.2,0,0.4,0,0.6,0c-0.2,0.2-0.4,0.5-0.6,0.8
		c-0.1,0.1-0.1,0.2-0.2,0.3c0,0,0,0,0,0c-0.1,0.2-0.3,0.4-0.4,0.7c-0.4,0.7-0.7,1.6-0.9,2.5l-3.7-2.5c-0.1,0.1-0.1,0.2-0.2,0.4
		c-2.4,0.1,0.6,2.4,3.7,4c0,0.7,0,1.4,0.2,2.1c0,0.2,0.1,0.4,0.2,0.6c0,0.2,0.1,0.4,0.2,0.5c-0.2-0.1-0.4-0.2-0.5-0.3
		c-0.1-0.1-0.2-0.1-0.4-0.2c-0.2-0.1-0.3-0.2-0.4-0.2h0c-0.5-0.2-0.9-0.3-1.2-0.3c0,0,0,0,0,0c-0.8,0-1,0.7-1.2,1.5
		c-0.3,1.2-0.7,2.3-3.7,0.9c0,0-0.1,0-0.1,0c-0.1-0.1-0.3-0.1-0.4-0.2c0.6,0.9,0.6,2,0.5,3.2c0,0,0,0.1,0,0.2
		c-0.1,0.5-0.2,0.9-0.2,1.4c0.5-0.9,0.9-1.6,0.9-1.6c-0.1,0-0.1,0-0.2,0c0.9-0.4,1.7-0.9,2.5-1.4c-0.5,0.7-1,1.4-1.4,2.4
		c3.3-2.1,0.5,3.9,3.3-0.3c-0.5,2,1.4,2.2-0.4,4.7c-2.9-0.1-2-2.6-3.2-4.5c-0.7,1.1-1.3,1.8-1.9,2.5c-0.1,1.8,0.2,3.8,2,5.8
		c0,0,0,0,0.1,0c0,0,0,0,0,0.1c0.3,0.4,0.7,0.8,1.1,1.1c-0.9-0.5-1.5-0.5-1.1-1.1c0,0,0,0,0,0c-0.7,0.4-1.5,0.7-2,1.2
		c3.3,1,6.1,2.8,6.1,4.7c-3.2,0.9-3.2,4.3-1.4,5.7c-0.9,0.4-1.2-1-1.7-1.3c0,0-0.1,0.8-0.2,1.6s-0.1,1.6-0.1,1.6
		c-1.9-0.8-2.4-2.5-2.8-4.1c-0.4-1.6-0.5-3-2.1-3.1c1.9-0.7,3.1,0.8,4.1-2.6c-0.2-1.5-1.3-1.3-2.6-0.9c0,0.4,0.1,0.9,0.3,1.5
		l-1.7-0.9c-0.7,0.3-1.4,0.6-1.9,0.6c0.1-0.6,0.2-1.1,0.2-1.5l-1.8-0.9c0,0,1.1,1.9,2.2,3.7c1.1,1.8,2.3,3.7,2.3,3.7
		c-4.2,0-6.5-0.2-9-4.4c0,0,0-0.1-0.1-0.1c0,0,0,0.1,0,0.1c0.6,2,1,3.3,1.2,4.3c0.2,1,0.2,1.6,0.2,2.2c0.1,1.2,0.1,2.3,2,6l-3.2-2
		c-0.8,1.5,2.7,6.2-0.6,5.6c-2,0-3.6,1-5.1,2.6c-1.4,1.6-2.5,3.8-3.7,6.2c-0.6,1.2-1.2,2.4-1.8,3.7c-0.6,1.3-1.2,2.5-1.9,3.7
		c-0.7,1.2-1.5,2.4-2.5,3.4c-0.9,1.1-1.9,2.1-3.1,2.9c5.7,0.9,4.2,1.6,2.2,2.4c-2,0.8-4.3,1.8-0.1,3.3c-2.8-0.3-4.7,0.6-6.4-1.6
		c0.5,2.7-1,4.2-1.9,5.7c-0.9,1.5-1.2,2.9,2,5.5c-2.8-0.1-3.6-2-5.3-1.9c0.5,0.5,1.9,2.1,0.2,2.2c-1.7,0.1-2-1.3-3-2.3
		c-0.5,2.5,1.4,4.4,4.3,5.9c2.9,1.5,6.8,2.6,10.7,3.7c-4.2,1.5-4,2.9,0.7,5.6c-2.7,0.3-5.7,1.1-6-2c-0.2,0.4-0.7,1.2-1.2,2.1
		c-0.5,1-0.9,2.1-1.2,3.3c-0.5,2.3-0.2,4.6,2.9,5.2c-1.7,0.2-0.9,2.2-0.2,2.8c-1,3.6-1.6,3.9-1.5,7.6l1.2-0.8
		c7.4,2.5,1.2,3.2,1.8,6.2l-0.8-0.2c-3.1,3-2.5,3.8-2,4.6c0.5,0.8,0.9,1.5-2.6,4.5l4.8,0.1c5.1,0.8,3.4,2.1,1,3.7
		c-2.4,1.6-5.7,3.6-3.9,5.7l2.8-1.2c1.7,1.2-1.9,2.3-6.1,3.5s-9,2.4-9.6,3.4c-0.9,0.4-1.4-0.8-2-1.5c-6.2,5.3,6.2,1.1,7.5,5.3
		c-3.4,0.6-8.5-1.4-9.2,1.4c-1.4,0.7,1.3,2.8,3.4,5.2c2.2,2.4,4,5.1,0.8,6.9c2.6-0.8,5.2-1.6,7.1,0.4c0.5,1.5-2,3.4-3.5,5.3
		c-0.8,1-1.3,1.9-1.2,2.8c0.1,0.8,1,1.9,3.1,2.6c-0.7,0.5-1.3,0.7-2,0.7c2.1,2.7,4.1,8.5,8.6,9.3c-7.7,2.2-5.1,6.3-2.1,9.3
		c0.7,0.8,1.5,1.5,2.1,2.2c0.6,0.7,1.1,1.3,1.2,2c0.3,1.2-0.7,2.4-4.1,3.6c0,0,0.2,0.5,0.5,1.2c0.3,0.7,0.8,1.6,1.3,2.5
		c0.5,0.9,0.9,1.8,1.3,2.5c0.4,0.7,0.6,1.1,0.6,1.1l-1.5,0.4c0.7,2.6,2,3.9,3.7,4.6c1.7,0.6,3.6,0.6,5.6,0.6
		c-0.3,1.5-1.9,1.4-2.6,1.6c0.2,2,0.6,3.4,1,4.6c0.4,1.1,1,2,1.8,2.6c1.6,1.2,4.2,1.6,8.8,1.8l-3.3,3.2c0.8-0.1,1.2,0.7,1.5,1.8
		c0.3,1.2,0.6,2.8,1.1,4.5c0.5,1.7,1.2,3.5,2.3,4.9c1.2,1.4,2.7,2.5,4.9,2.8c-0.4,0.3-1.1,0.8-2,0.8c2.4,0.4,3.8,2.1,4.9,3.9
		c1.1,1.9,1.9,4.2,2.9,6.1c2,3.9,4.6,6.2,10.6,1c0,0,0.4,0,1,0c0.6,0,1.4,0,2.2,0c1.6,0,3.1-0.1,3.1-0.1c-2.1-2.3-0.9-3.5,0.8-4.5
		c1.7-1,3.8-2,3.6-3.7c1.2,0.4,1.6,2.2,1.5,3.8c-0.1,1.6-0.9,3-2.3,2.4l0.1-0.9c-5.8,5.8,4.5,6.7,1.2,10.9
		c5.2,3.2,9.9,7.1,14.5,10.8c4.7,3.7,9.4,7.2,14.5,9.6l1.4-5.4c0,0,0.8,0.5,1.7,1c0.8,0.5,1.7,1,1.7,1c0.3,1.6-0.7,4.3-3.1,3
		c0,3.3,5.5-0.4,6-1.4c2,2.1,0.9,3.2-0.7,4c-1.5,0.8-3.4,1.1-2.6,1.5l2.3,0.5l-0.2-0.8c2.7-1.2,3.8-3.2,6.8-1.7
		c1.5,1.7-0.4,3.3,0.3,3.8c-0.2,0.3,0,0.6,1.1,0.6c0,0,1.1,0.6,2.2,1.1c1.1,0.5,2.2,1.1,2.2,1.1l-0.2-4.4c2.8-1,4.2,1.9,3.9-3.1
		c0.1,3.8,4.1,6,8.2,7.4c4.1,1.5,8.3,2.3,8.9,3.5c3.8-1.5,6.5-0.5,9.9,0.8c-0.6-0.9,0.2-4.7,3-3.3c-1.9,3.5-0.8,4.7,0.8,5.8
		c1.6,1,3.6,1.9,4.1,4.4c-0.3-3.1,9,1.6,7.1-3.7c2.3,1.2-0.7,2.6,0.7,4.6c3.5-0.5,6.7,0.7,10,2.1c3.4,1.4,6.9,2.8,10.8,3.2
		c0.3-0.7-0.6-2.1,1.3-2.8c0,0,0.7,1.1,1.5,2.2c0.8,1.1,1.5,2.1,1.5,2.1c1.6-0.1,2.5-3.6,4.6-0.8c-0.2-0.6-0.6-1.6,0.5-1.6
		c3.5,1.5,7.2,2.4,11,3c3.8,0.6,7.7,1,11.5,1.4c3.8,0.4,7.7,1,11.5,1.6c3.8,0.6,7.5,1.4,11.3,2.1c-2-0.5-0.6-0.5,1-0.4
		c-1-0.2,0.1-0.5,0-0.8c0,0,1.5,0.4,3.1,0.7c1.5,0.3,3.1,0.5,3.1,0.5c0.6-0.2,2.3-0.1,4,0c1.7,0.1,3.2,0.2,3.6,0.1L287.6,351.7z
		 M150.9,291.7c0.4,0.2,0.9,0.5,1.3,0.7C151.4,292.5,150.7,292.5,150.9,291.7z M158,26.4C158.3,26.9,158.4,27,158,26.4
		C157.9,26.5,158,26.5,158,26.4z M140.1,9c0.4-0.5,0.8-0.9,0.8-0.9l-0.1,0.3c0,0-0.4,0.4-0.8,0.8c-0.3,0.3-0.6,0.6-0.7,0.7
		C139.5,9.8,139.8,9.4,140.1,9z M130.7,19.3l-1.5,0.8c-0.4-0.3,1.9-1.5,2.2-2.1L130.7,19.3z M136.2,11.5c0,0-0.1,0.4-0.2,0.7
		c-0.1,0.4-0.1,0.7-0.1,0.7l-0.6,0.1c-1.2,0.7-2.4,2-3.5,3.2c-1.1,1.1-2.1,2.2-3.2,2.1C130.7,17.1,133.5,13.7,136.2,11.5z M116.3,28
		c0.4-0.8,0.9-1.6,1.1-2c-0.1,0.3-0.5,1-0.8,1.7c-0.4,1-0.8,1.9-0.8,1.9l-0.5,0.5C115.3,30.1,115.8,29,116.3,28z M110.2,33.3
		c-0.6,2.3,1.2,1.7,1.2,3.1C108.4,37.6,109.8,34.8,110.2,33.3z M110.5,39.3l0.1-0.4c2.1-1.1,1.4,0.6,1.3,1.4c-0.4-0.3,0-1.2-1-0.8
		c-0.9,0.8-0.6,1.4-0.6,1.8c-1.8,0.1-3-0.2-4.4-0.6C106.8,40.8,109.1,40.2,110.5,39.3z M104.2,38.4c0.3-0.7,0.6-1.3,0.6-1.3
		c-0.2,0.8,0.7,0.9,1,1.1l-2.1,1.6C103.7,39.8,104,39.1,104.2,38.4z M101,39.5c-0.2,0.2-0.5,0.5-0.7,0.7l-2.1-0.4
		C99.6,39,100.6,39.4,101,39.5z M98.9,49.9c0.5-0.9,1-1.9,1-1.9c0.4,0.7,1.7,1-0.1,2.6l0.9,0.5L98,51.8C98,51.8,98.4,50.8,98.9,49.9
		z M94.3,62.9l1,0.6c0,0.5-0.4,0.6-0.3,1.1C93.7,65.6,93.5,64.2,94.3,62.9z M148.3,323.3l-0.3-1.1
		C149.9,322,149.1,322.6,148.3,323.3z M114.7,25.1L114.7,25.1c0.1,0.1,0.2,0.1,0.3,0.1C114.9,25.2,114.8,25.2,114.7,25.1z"/>
	<path fill="#1C75BC" d="M222.8,2.9c0,0-0.7,0.1-1.3,0.1c-0.7,0.1-1.3,0.2-1.3,0.2c1.3,0.1,1.7,0.8,2.3,1.4
		C222.4,3.9,222,2.8,222.8,2.9z"/>
	<path fill="#1C75BC" d="M242.2,23.3c0.4-0.2,0.8,0.1,1.2-0.1l0.1-1.1C242,21.8,240.8,22.6,242.2,23.3z"/>
	<g>
		<path fill="#1C75BC" stroke="#1C75BC" stroke-miterlimit="10" d="M53.9,83.9c0.3-0.7,0.3-0.6,0.3-0.8
			C53.5,84.7,53.9,83.8,53.9,83.9z"/>
		<path fill="#1C75BC" stroke="#1C75BC" stroke-miterlimit="10" d="M49.4,100.1l-0.1-0.3c0,0,0,0.6,0,1.2c0,0.6,0,1.3,0,1.3
			s0-0.5,0.1-1.1C49.4,100.7,49.4,100.1,49.4,100.1z"/>
		<path fill="#1C75BC" stroke="#1C75BC" stroke-miterlimit="10" d="M46.1,115.6c0.9-0.7,1.1-2.1,1.2-3.7c0.1-1.6,0.2-3.3,0.7-4.7
			l0.4-0.4c0,0-0.2-0.3-0.4-0.7c-0.2-0.3-0.3-0.7-0.3-0.7C47,108.8,47,113.3,46.1,115.6z"/>
		<path fill="#1C75BC" stroke="#1C75BC" stroke-miterlimit="10" d="M40.5,123.6c0.9-0.5,0.2,1.9,0.7-1.9c-0.1,0.2-0.2,0.2-0.3,0.3
			C40.9,122.4,40.8,122.8,40.5,123.6z"/>
		<path fill="#1C75BC" stroke="#1C75BC" stroke-miterlimit="10" d="M41,122C41.3,120.4,40.1,123.1,41,122L41,122z"/>
		<path fill="#1C75BC" stroke="#1C75BC" stroke-miterlimit="10" d="M39.7,129.7l-0.3-2.2c-0.6,0.4-1.2,2.4-1.3,1.6
			C38,131.4,38.6,131,39.7,129.7z"/>
		<path fill="#1C75BC" stroke="#1C75BC" stroke-miterlimit="10" d="M40.9,131.9l-0.1-1.2C40.5,130.9,40.4,131.2,40.9,131.9z"/>
		<path fill="#1C75BC" stroke="#1C75BC" stroke-miterlimit="10" d="M40.6,128.3l0.2,2.5c0.4-0.3,1.1-0.3,0-1.1
			C41.4,129.9,40.8,129.4,40.6,128.3z"/>
		<path fill="#1C75BC" stroke="#1C75BC" stroke-miterlimit="10" d="M41.2,127c0.7-1.2,1.3-2.8,1.6-0.5
			C43.2,122.2,41.8,122.7,41.2,127z"/>
		<path fill="#1C75BC" stroke="#1C75BC" stroke-miterlimit="10" d="M47.7,116.5l0.7-1.6l-0.3-1.5C48.2,114.2,47.2,116.6,47.7,116.5z
			"/>
		<path fill="#1C75BC" stroke="#1C75BC" stroke-miterlimit="10" d="M35.8,143.5c0.6,0.1,1.6-0.7,2.4-0.9l-0.4-1.7
			C37.3,141.8,36.7,143.4,35.8,143.5z"/>
		<path fill="#1C75BC" stroke="#1C75BC" stroke-miterlimit="10" d="M38.2,142.7l0.7,2.5C39.3,142.9,38.9,142.5,38.2,142.7z"/>
		<path fill="#1C75BC" stroke="#1C75BC" stroke-miterlimit="10" d="M43.4,132.4c0,0-0.3-1-0.6-2c-0.3-1-0.5-2-0.5-2s0.2,1.2,0.5,2.4
			c0.2,1.2,0.6,2.4,0.6,2.4L43.4,132.4z"/>
		<path fill="#1C75BC" stroke="#1C75BC" stroke-miterlimit="10" d="M34.3,153.1l-1.3-1.4c0,0,0.5,0.6,0.9,1.3c0.5,0.6,1,1.2,1,1.2
			L34.3,153.1z"/>
		<path fill="#1C75BC" stroke="#1C75BC" stroke-miterlimit="10" d="M33.8,159.4c-1.2-1-2.4,1.5-3.1,0.4c0,1.7,1,3.2,1.9,4.5
			C32.3,163,32.6,161.4,33.8,159.4z"/>
		<path fill="#1C75BC" stroke="#1C75BC" stroke-miterlimit="10" d="M34.1,166.5c-0.3-0.7-0.8-1.4-1.4-2.2
			C33,165.1,33.3,165.8,34.1,166.5z"/>
		<path fill="#1C75BC" stroke="#1C75BC" stroke-miterlimit="10" d="M38.1,149.3c-0.4,0.2-1.4,0.6-2,2l1.9-1
			C38,150,38,149.7,38.1,149.3z"/>
		<path fill="#1C75BC" stroke="#1C75BC" stroke-miterlimit="10" d="M38,150.3L38,150.3c-0.2,1.1-0.3,1.8-0.4,2.1
			C37.7,152.1,37.8,151.5,38,150.3z"/>
		<path fill="#1C75BC" stroke="#1C75BC" stroke-miterlimit="10" d="M38.1,149.1c0,0.1,0,0.2,0,0.2C38.3,149.2,38.3,149.2,38.1,149.1
			z"/>
		<path fill="#1C75BC" stroke="#1C75BC" stroke-miterlimit="10" d="M41.3,138.7c0.6,1.5,1.3,4.4,2.9,1.6
			C43.2,139.3,42.3,140.9,41.3,138.7z"/>
		<path fill="#1C75BC" stroke="#1C75BC" stroke-miterlimit="10" d="M40.4,147.9l0.6-2.6c-0.4,0-1.1,0.5-1.5-0.2c0,0,0.2,0.7,0.4,1.4
			C40.1,147.2,40.4,147.9,40.4,147.9z"/>
		<polygon fill="#1C75BC" stroke="#1C75BC" stroke-miterlimit="10" points="40.8,149.2 40.4,147.9 40.1,148.8 		"/>
		<path fill="#1C75BC" stroke="#1C75BC" stroke-miterlimit="10" d="M36.3,161.9c0.8,1.1,0.8,2.4,0.9,3.8c0.5-1.5,0.8-3.1,0.8-4.6
			C37.4,160.8,36.3,160.2,36.3,161.9z"/>
		<path fill="#1C75BC" stroke="#1C75BC" stroke-miterlimit="10" d="M37.2,156.2c0,0.1,0,0.2,0.1,0.3
			C37.5,156.3,37.6,156.2,37.2,156.2z"/>
		<path fill="#1C75BC" stroke="#1C75BC" stroke-miterlimit="10" d="M36.9,179.7c0.1-0.1,0.3-0.2,0.4-0.3c-0.1,0-0.2,0-0.4,0
			L36.9,179.7z"/>
		<path fill="#1C75BC" stroke="#1C75BC" stroke-miterlimit="10" d="M38.3,160.8c0.4-1.1,0-1.8-0.5-2.4c0.1,0.8,0.2,1.7,0.2,2.7
			C38.2,161.1,38.4,161.1,38.3,160.8z"/>
		<path fill="#1C75BC" stroke="#1C75BC" stroke-miterlimit="10" d="M34.8,170.4c0.5-0.6,0.9-1.3,1.2-2.1
			C35.4,169,34.3,170.2,34.8,170.4z"/>
		<path fill="#1C75BC" stroke="#1C75BC" stroke-miterlimit="10" d="M36.8,156.9c0-0.1-0.1-0.1-0.1-0.2
			C36.3,157.1,36.5,157,36.8,156.9z"/>
		<path fill="#1C75BC" stroke="#1C75BC" stroke-miterlimit="10" d="M36.8,156.9c0.2,0.6,0.6,1,1,1.5c-0.1-0.7-0.2-1.3-0.5-1.9
			C37.2,156.6,37,156.7,36.8,156.9z"/>
		<path fill="#1C75BC" stroke="#1C75BC" stroke-miterlimit="10" d="M52,182.1c-2.2,0.1-4.4-2.6-2.5-5.3c-1.8-2.3-8.4-0.1-12.2,2.6
			c0.9,0,1.7-0.1,3.1,2.4c1.2-1.1,2.4-6,4.4-4.1c1.3,3.3-0.5,2.8-1.6,4.6c1.3-0.9,2.3,0.1,3.6,1.1c1.3,1,2.8,2,4.7,1.4
			c0,0-0.5-0.7-0.9-1.3c-0.5-0.7-0.9-1.4-0.9-1.4C50.4,182,51.5,183,52,182.1z"/>
		<path fill="#1C75BC" stroke="#1C75BC" stroke-miterlimit="10" d="M37.5,174.3l-0.2-1.1c-0.4,1.3-1.2,2.2-2.8,4
			c1,1.7,1.8,2,2.5,2.1c0,0,0-1.4,0.1-2.7c0.1-1.3,0.2-2.7,0.2-2.7L37.5,174.3z"/>
		<path fill="#1C75BC" stroke="#1C75BC" stroke-miterlimit="10" d="M37.3,168.4c2.1,0.7,3,3.2,5.3,1.5c-0.2-3.1-1.8-2.1-2.7-3.9
			c0.5,5-1.1-1.4-2.4,2.4c-0.3-1-0.4-1.9-0.5-2.7c-0.3,0.9-0.6,1.8-1,2.7c0-0.1,0.1-0.1,0.1-0.1l0,0l0,0c0.3-0.2,0.4-0.3,0.3-0.1
			c0,0,0,0.1,0,0.1C36.8,168.3,37.1,168.3,37.3,168.4c-0.5,1.5-0.6,0.3-0.8-0.2c-0.1,0-0.2,0-0.3,0c0,0,0,0,0,0c0,0,0.2,1.3,0.5,2.5
			c0.2,1.3,0.6,2.5,0.6,2.5C37.5,172.2,37.5,170.8,37.3,168.4z"/>
		<path fill="#1C75BC" stroke="#1C75BC" stroke-miterlimit="10" d="M47.4,143c-0.1,0.2-0.3,0.1-0.4,0.2
			C47.2,143.5,47.4,143.6,47.4,143z"/>
		<path fill="#1C75BC" stroke="#1C75BC" stroke-miterlimit="10" d="M46.4,145c-0.2-0.4-0.9-0.7-0.7-1.8c0.5-1,0.8,0,1.3,0
			c-0.4-0.7-1-2.5-1.9-0.3l0.2,0.4c-0.6,2-2.9,4.5-3.1,4.2C43.8,146.9,44.9,146.4,46.4,145z"/>
		<path fill="#1C75BC" stroke="#1C75BC" stroke-miterlimit="10" d="M42.6,156.7c0,0,0.2,1,0.4,2.1c0.2,1,0.5,2.1,0.5,2.1l1.7-2.2
			l-1,0.1C44.6,156.4,43.4,156.9,42.6,156.7z"/>
		<path fill="#1C75BC" stroke="#1C75BC" stroke-miterlimit="10" d="M35.8,180.3l-2.4-0.3c0,0,0.9,0.5,1.7,1.1
			c0.9,0.5,1.7,1.1,1.7,1.1L35.8,180.3z"/>
		<polygon fill="#1C75BC" stroke="#1C75BC" stroke-miterlimit="10" points="36.2,185.9 34,185.9 35.3,187.3 		"/>
		<path fill="#1C75BC" stroke="#1C75BC" stroke-miterlimit="10" d="M49.2,172.6c-0.3-0.3-0.1-0.8-0.4-1.1l-1.1,0.2
			C47.8,173.3,48.8,174.2,49.2,172.6z"/>
	</g>
	<g>
		<path fill="#1C75BC" stroke="#1C75BC" stroke-miterlimit="10" d="M103.9,5.3c0.5-0.6,0.4-0.5,0.5-0.6C103.2,6,103.9,5.3,103.9,5.3
			z"/>
		<path fill="#1C75BC" stroke="#1C75BC" stroke-miterlimit="10" d="M94.9,19.6l0-0.3c0,0-0.2,0.6-0.4,1.2c-0.2,0.6-0.4,1.2-0.4,1.2
			s0.2-0.5,0.4-1C94.7,20.1,94.9,19.6,94.9,19.6z"/>
		<path fill="#1C75BC" stroke="#1C75BC" stroke-miterlimit="10" d="M87.2,33.4c1.1-0.4,1.6-1.7,2.2-3.2c0.6-1.5,1.2-3.1,2-4.3
			l0.5-0.3c0,0-0.1-0.4-0.1-0.8c-0.1-0.4-0.1-0.7-0.1-0.7C90.1,27.2,88.7,31.5,87.2,33.4z"/>
		<path fill="#1C75BC" stroke="#1C75BC" stroke-miterlimit="10" d="M79.5,39.5c1-0.2-0.3,1.8,1.2-1.7c-0.2,0.1-0.2,0.2-0.4,0.2
			C80.3,38.4,80,38.8,79.5,39.5z"/>
		<path fill="#1C75BC" stroke="#1C75BC" stroke-miterlimit="10" d="M80.4,38.1C81.2,36.6,79.3,38.8,80.4,38.1L80.4,38.1z"/>
		<path fill="#1C75BC" stroke="#1C75BC" stroke-miterlimit="10" d="M77,45.1l0.4-2.2c-0.7,0.2-1.8,1.9-1.8,1.2
			C74.8,46.2,75.6,46,77,45.1z"/>
		<path fill="#1C75BC" stroke="#1C75BC" stroke-miterlimit="10" d="M77.5,47.5l0.2-1.1C77.4,46.5,77.2,46.8,77.5,47.5z"/>
		<path fill="#1C75BC" stroke="#1C75BC" stroke-miterlimit="10" d="M78.2,44l-0.5,2.4c0.5-0.2,1.2,0,0.3-1.1
			C78.5,45.7,78.1,45.1,78.2,44z"/>
		<path fill="#1C75BC" stroke="#1C75BC" stroke-miterlimit="10" d="M79.2,42.9c1-0.9,2-2.3,1.6-0.1C82.5,39,81,39,79.2,42.9z"/>
		<path fill="#1C75BC" stroke="#1C75BC" stroke-miterlimit="10" d="M88.4,34.8l1.1-1.3l0.1-1.5C89.6,32.7,87.9,34.7,88.4,34.8z"/>
		<path fill="#1C75BC" stroke="#1C75BC" stroke-miterlimit="10" d="M69.2,57.2c0.5,0.3,1.8-0.2,2.5-0.2l0.1-1.7
			C71.1,56,70.1,57.4,69.2,57.2z"/>
		<path fill="#1C75BC" stroke="#1C75BC" stroke-miterlimit="10" d="M71.8,57l-0.1,2.6C72.7,57.6,72.4,57.1,71.8,57z"/>
		<path fill="#1C75BC" stroke="#1C75BC" stroke-miterlimit="10" d="M79.7,48.7c0,0,0-1.1,0-2.1c0.1-1,0.1-2.1,0.1-2.1
			s-0.2,1.2-0.3,2.4c-0.1,1.2-0.2,2.5-0.2,2.5L79.7,48.7z"/>
		<path fill="#1C75BC" stroke="#1C75BC" stroke-miterlimit="10" d="M65,65.9l-0.8-1.7c0,0,0.3,0.7,0.5,1.5c0.3,0.7,0.6,1.5,0.6,1.5
			L65,65.9z"/>
		<path fill="#1C75BC" stroke="#1C75BC" stroke-miterlimit="10" d="M62.7,71.8c-0.8-1.3-2.7,0.8-3.1-0.5c-0.5,1.7,0,3.4,0.5,4.9
			C60.2,74.7,60.9,73.4,62.7,71.8z"/>
		<path fill="#1C75BC" stroke="#1C75BC" stroke-miterlimit="10" d="M60.9,78.7c-0.1-0.7-0.4-1.6-0.7-2.5
			C60.2,77,60.4,77.8,60.9,78.7z"/>
		<path fill="#1C75BC" stroke="#1C75BC" stroke-miterlimit="10" d="M69.7,63.4c-0.4,0.1-1.5,0.1-2.5,1.3l2.1-0.4
			C69.4,64,69.6,63.7,69.7,63.4z"/>
		<path fill="#1C75BC" stroke="#1C75BC" stroke-miterlimit="10" d="M69.4,64.3L69.4,64.3c-0.5,1-0.8,1.7-1,1.9
			C68.5,66,68.8,65.4,69.4,64.3z"/>
		<path fill="#1C75BC" stroke="#1C75BC" stroke-miterlimit="10" d="M69.8,63.2c0,0.1-0.1,0.1-0.1,0.2C69.9,63.4,70,63.3,69.8,63.2z"
			/>
		<path fill="#1C75BC" stroke="#1C75BC" stroke-miterlimit="10" d="M75.8,54.2c0.2,1.6,0,4.6,2.3,2.4C77.6,55.3,76.2,56.6,75.8,54.2
			z"/>
		<path fill="#1C75BC" stroke="#1C75BC" stroke-miterlimit="10" d="M72.3,62.7l1.4-2.3c-0.4-0.1-1.2,0.2-1.4-0.6c0,0,0,0.7,0,1.5
			C72.3,61.9,72.3,62.7,72.3,62.7z"/>
		<polygon fill="#1C75BC" stroke="#1C75BC" stroke-miterlimit="10" points="72.4,64 72.3,62.7 71.8,63.5 		"/>
		<path fill="#1C75BC" stroke="#1C75BC" stroke-miterlimit="10" d="M64.3,74.8c0.4,1.3,0.1,2.5-0.3,3.9c0.9-1.3,1.6-2.8,2.1-4.2
			C65.7,74.2,64.8,73.3,64.3,74.8z"/>
		<path fill="#1C75BC" stroke="#1C75BC" stroke-miterlimit="10" d="M66.9,69.7c0,0.1,0,0.2,0,0.3C67.1,69.9,67.2,69.8,66.9,69.7z"/>
		<path fill="#1C75BC" stroke="#1C75BC" stroke-miterlimit="10" d="M59.8,92.1c0.2,0,0.3-0.1,0.5-0.1c-0.1,0-0.2-0.1-0.4-0.1
			L59.8,92.1z"/>
		<path fill="#1C75BC" stroke="#1C75BC" stroke-miterlimit="10" d="M66.6,74.4c0.7-1,0.5-1.7,0.2-2.5c-0.1,0.8-0.3,1.7-0.6,2.6
			C66.4,74.7,66.6,74.8,66.6,74.4z"/>
		<path fill="#1C75BC" stroke="#1C75BC" stroke-miterlimit="10" d="M60.5,82.6c0.6-0.5,1.2-1,1.8-1.6C61.4,81.4,60,82.3,60.5,82.6z"
			/>
		<path fill="#1C75BC" stroke="#1C75BC" stroke-miterlimit="10" d="M66.3,70.2c0-0.1,0-0.1,0-0.2C65.7,70.3,65.9,70.3,66.3,70.2z"/>
		<path fill="#1C75BC" stroke="#1C75BC" stroke-miterlimit="10" d="M66.3,70.2c0,0.6,0.3,1.2,0.6,1.7c0.1-0.7,0.1-1.3,0.1-1.9
			C66.7,70.1,66.5,70.2,66.3,70.2z"/>
		<path fill="#1C75BC" stroke="#1C75BC" stroke-miterlimit="10" d="M73.5,98.8C71.3,98.2,70,95,72.6,93c-1-2.7-8-2.5-12.4-1.1
			c0.9,0.2,1.7,0.4,2.3,3.2c1.4-0.7,4-5.1,5.4-2.6c0.3,3.5-1.3,2.6-2.8,4c1.5-0.5,2.2,0.8,3.1,2.1c0.9,1.3,2,2.8,4.1,2.7
			c0,0-0.2-0.8-0.5-1.6c-0.2-0.8-0.5-1.6-0.5-1.6C72,98.3,72.8,99.5,73.5,98.8z"/>
		<path fill="#1C75BC" stroke="#1C75BC" stroke-miterlimit="10" d="M61.9,87.1l0.1-1.1c-0.7,1.1-1.8,1.8-3.9,3
			c0.4,1.9,1.1,2.5,1.8,2.7c0,0,0.4-1.3,0.9-2.5c0.5-1.3,0.9-2.5,0.9-2.5L61.9,87.1z"/>
		<path fill="#1C75BC" stroke="#1C75BC" stroke-miterlimit="10" d="M63.5,81.4c1.8,1.3,1.9,3.9,4.6,2.9c0.7-3-1.1-2.5-1.4-4.5
			c-1,5-0.7-1.7-3,1.6c0-1,0.2-1.9,0.4-2.7c-0.5,0.8-1.1,1.6-1.8,2.3c0.1,0,0.1-0.1,0.2-0.1l0,0l0,0c0.3-0.1,0.5-0.2,0.3,0
			c0,0,0,0.1,0,0.1C63,81.1,63.2,81.3,63.5,81.4c-0.9,1.3-0.6,0.1-0.7-0.4c-0.1,0-0.2-0.1-0.3-0.1c0,0,0,0,0,0c0,0-0.1,1.3-0.3,2.6
			c-0.1,1.3-0.2,2.6-0.2,2.6C62.6,85.1,62.9,83.8,63.5,81.4z"/>
		<path fill="#1C75BC" stroke="#1C75BC" stroke-miterlimit="10" d="M80.5,60.1c-0.2,0.1-0.3,0.1-0.4,0
			C80.2,60.5,80.3,60.6,80.5,60.1z"/>
		<path fill="#1C75BC" stroke="#1C75BC" stroke-miterlimit="10" d="M78.9,61.7c-0.1-0.4-0.6-0.9-0.1-1.9c0.8-0.8,0.7,0.2,1.3,0.3
			c-0.2-0.8-0.3-2.7-1.8-0.8l0.1,0.4c-1.2,1.7-4.1,3.5-4.2,3.1C75.9,62.7,77.1,62.5,78.9,61.7z"/>
		<path fill="#1C75BC" stroke="#1C75BC" stroke-miterlimit="10" d="M71.9,71.7c0,0-0.1,1-0.2,2.1c-0.1,1-0.2,2.1-0.2,2.1l2.2-1.6
			l-1-0.2C73.9,72,72.5,72.2,71.9,71.7z"/>
		<path fill="#1C75BC" stroke="#1C75BC" stroke-miterlimit="10" d="M58.5,92.3l-2.2-1c0,0,0.7,0.8,1.3,1.5c0.7,0.8,1.4,1.5,1.4,1.5
			L58.5,92.3z"/>
		<polygon fill="#1C75BC" stroke="#1C75BC" stroke-miterlimit="10" points="57.3,97.8 55.1,97.2 56.1,98.9 		"/>
		<path fill="#1C75BC" stroke="#1C75BC" stroke-miterlimit="10" d="M73.6,88.9c-0.2-0.4,0.1-0.7-0.1-1.2l-1.1-0.1
			C72.1,89.1,72.8,90.3,73.6,88.9z"/>
	</g>
	<g>
		<path fill="#1C75BC" stroke="#1C75BC" stroke-miterlimit="10" d="M16.6,126.9c-0.1-0.8-0.1-0.7-0.1-0.8
			C16.7,127.9,16.7,126.9,16.6,126.9z"/>
		<path fill="#1C75BC" stroke="#1C75BC" stroke-miterlimit="10" d="M20.6,143.3l-0.3-0.2c0,0,0.3,0.6,0.6,1.1
			c0.3,0.6,0.6,1.1,0.6,1.1s-0.2-0.5-0.5-1C20.8,143.8,20.6,143.3,20.6,143.3z"/>
		<path fill="#1C75BC" stroke="#1C75BC" stroke-miterlimit="10" d="M25.1,158.5c0.5-1-0.1-2.3-0.7-3.8c-0.7-1.4-1.4-3-1.6-4.5
			l0.1-0.5c0,0-0.3-0.2-0.6-0.4c-0.3-0.2-0.6-0.4-0.6-0.4C22.7,152.1,24.7,156,25.1,158.5z"/>
		<path fill="#1C75BC" stroke="#1C75BC" stroke-miterlimit="10" d="M24.1,168.2c0.5-0.8,1.1,1.5-0.3-2c0,0.2,0,0.3-0.1,0.4
			C23.8,166.9,23.9,167.4,24.1,168.2z"/>
		<path fill="#1C75BC" stroke="#1C75BC" stroke-miterlimit="10" d="M23.7,166.6C23.2,165,23.4,167.9,23.7,166.6L23.7,166.6z"/>
		<path fill="#1C75BC" stroke="#1C75BC" stroke-miterlimit="10" d="M26.3,174l-1.3-1.8c-0.3,0.7,0.1,2.6-0.4,2.1
			C25.6,176.3,26,175.6,26.3,174z"/>
		<path fill="#1C75BC" stroke="#1C75BC" stroke-miterlimit="10" d="M28.4,175.3l-0.7-1C27.6,174.6,27.6,175,28.4,175.3z"/>
		<path fill="#1C75BC" stroke="#1C75BC" stroke-miterlimit="10" d="M26.4,172.3l1.4,2c0.2-0.5,0.8-0.8-0.6-1
			C27.8,173.3,27.1,173.1,26.4,172.3z"/>
		<path fill="#1C75BC" stroke="#1C75BC" stroke-miterlimit="10" d="M26.3,170.8c0-1.4-0.2-3,1.1-1.2
			C25.8,165.7,24.8,166.9,26.3,170.8z"/>
		<path fill="#1C75BC" stroke="#1C75BC" stroke-miterlimit="10" d="M26.9,158.6l-0.2-1.7l-1-1.1C26.3,156.3,26.5,158.9,26.9,158.6z"
			/>
		<path fill="#1C75BC" stroke="#1C75BC" stroke-miterlimit="10" d="M29.6,188c0.6-0.1,1.1-1.4,1.7-1.9l-1.1-1.3
			C30,185.7,30.3,187.4,29.6,188z"/>
		<path fill="#1C75BC" stroke="#1C75BC" stroke-miterlimit="10" d="M31.2,186l1.8,1.8C32.3,185.8,31.7,185.6,31.2,186z"/>
		<path fill="#1C75BC" stroke="#1C75BC" stroke-miterlimit="10" d="M30.8,174.6c0,0-0.8-0.7-1.5-1.5c-0.7-0.8-1.4-1.5-1.4-1.5
			s0.8,1,1.6,1.9c0.8,0.9,1.6,1.8,1.6,1.8L30.8,174.6z"/>
		<path fill="#1C75BC" stroke="#1C75BC" stroke-miterlimit="10" d="M32.8,197l-1.8-0.6c0,0,0.7,0.3,1.4,0.7c0.7,0.3,1.4,0.6,1.4,0.6
			L32.8,197z"/>
		<path fill="#1C75BC" stroke="#1C75BC" stroke-miterlimit="10" d="M35.5,202.8c-1.5-0.3-1.4,2.5-2.5,1.9c0.9,1.5,2.4,2.3,3.9,3
			C35.8,206.7,35.3,205.2,35.5,202.8z"/>
		<path fill="#1C75BC" stroke="#1C75BC" stroke-miterlimit="10" d="M39.1,208.9c-0.6-0.5-1.4-0.8-2.2-1.2
			C37.4,208.2,38.1,208.7,39.1,208.9z"/>
		<path fill="#1C75BC" stroke="#1C75BC" stroke-miterlimit="10" d="M34.3,191.9c-0.2,0.4-1,1.2-0.8,2.7l1.2-1.8
			C34.6,192.6,34.4,192.3,34.3,191.9z"/>
		<path fill="#1C75BC" stroke="#1C75BC" stroke-miterlimit="10" d="M34.7,192.8L34.7,192.8c0.3,1.1,0.6,1.8,0.7,2.1
			C35.3,194.6,35.1,194,34.7,192.8z"/>
		<path fill="#1C75BC" stroke="#1C75BC" stroke-miterlimit="10" d="M34.2,191.7c0,0.1,0.1,0.1,0.1,0.2
			C34.4,191.8,34.5,191.7,34.2,191.7z"/>
		<path fill="#1C75BC" stroke="#1C75BC" stroke-miterlimit="10" d="M32,181.1c1.3,1,3.3,3.3,3.3,0C34,180.7,34,182.5,32,181.1z"/>
		<path fill="#1C75BC" stroke="#1C75BC" stroke-miterlimit="10" d="M35.6,189.6l-0.7-2.6c-0.4,0.3-0.7,1-1.4,0.5c0,0,0.5,0.5,1,1
			C35.1,189.1,35.6,189.6,35.6,189.6z"/>
		<polygon fill="#1C75BC" stroke="#1C75BC" stroke-miterlimit="10" points="36.6,190.5 35.6,189.6 35.9,190.5 		"/>
		<path fill="#1C75BC" stroke="#1C75BC" stroke-miterlimit="10" d="M38.8,203.8c1.2,0.6,1.8,1.7,2.6,2.9c-0.3-1.6-0.8-3.1-1.5-4.4
			C39.2,202.4,38,202.3,38.8,203.8z"/>
		<path fill="#1C75BC" stroke="#1C75BC" stroke-miterlimit="10" d="M36.9,198.4c0.1,0.1,0.1,0.1,0.2,0.2
			C37.2,198.3,37.2,198.2,36.9,198.4z"/>
		<path fill="#1C75BC" stroke="#1C75BC" stroke-miterlimit="10" d="M47.9,219.1c0.1-0.1,0.1-0.3,0.2-0.4c-0.1,0.1-0.2,0.1-0.3,0.2
			L47.9,219.1z"/>
		<path fill="#1C75BC" stroke="#1C75BC" stroke-miterlimit="10" d="M40,201.8c-0.2-1.2-0.9-1.6-1.6-1.9c0.5,0.7,1,1.4,1.4,2.3
			C40.1,202.2,40.3,202.1,40,201.8z"/>
		<path fill="#1C75BC" stroke="#1C75BC" stroke-miterlimit="10" d="M41.6,212c0.1-0.8,0.1-1.6,0.1-2.4
			C41.4,210.4,41.1,212.1,41.6,212z"/>
		<path fill="#1C75BC" stroke="#1C75BC" stroke-miterlimit="10" d="M36.8,199.2c0,0-0.1-0.1-0.1-0.1
			C36.5,199.6,36.6,199.4,36.8,199.2z"/>
		<path fill="#1C75BC" stroke="#1C75BC" stroke-miterlimit="10" d="M36.8,199.2c0.5,0.4,1.1,0.6,1.6,0.8c-0.4-0.6-0.9-1-1.3-1.4
			C37,198.7,36.9,199,36.8,199.2z"/>
		<path fill="#1C75BC" stroke="#1C75BC" stroke-miterlimit="10" d="M62.3,214c-1.9,1.1-5.1-0.1-4.7-3.4c-2.6-1.1-7.4,3.9-9.4,8.1
			c0.8-0.5,1.5-0.9,3.9,0.6c0.5-1.5-0.8-6.4,1.9-5.7c2.8,2.2,0.9,2.8,0.9,4.8c0.7-1.4,2.1-1,3.7-0.8c1.6,0.3,3.4,0.5,4.8-1
			c0,0-0.7-0.4-1.5-0.7c-0.7-0.4-1.4-0.8-1.4-0.8C60.8,214.7,62.3,215,62.3,214z"/>
		<path fill="#1C75BC" stroke="#1C75BC" stroke-miterlimit="10" d="M45.8,214.1l-0.7-0.8c0.3,1.3,0,2.5-0.5,4.9
			c1.7,1.1,2.5,0.9,3.2,0.6c0,0-0.6-1.2-1.2-2.4c-0.6-1.2-1.2-2.4-1.2-2.4L45.8,214.1z"/>
		<path fill="#1C75BC" stroke="#1C75BC" stroke-miterlimit="10" d="M42.9,209c2.1-0.4,4.2,1.4,5.3-1.3c-1.7-2.6-2.6-0.9-4.2-2.1
			c2.8,4.2-1.7-0.7-0.9,3.2c-0.8-0.7-1.3-1.5-1.7-2.2c0.2,1,0.3,1.9,0.4,2.9c0-0.1,0-0.1,0.1-0.2l0,0l0,0c0.1-0.3,0.2-0.5,0.2-0.2
			c0,0,0.1,0.1,0.1,0.1C42.3,209.1,42.6,209.1,42.9,209c0.3,1.6-0.4,0.5-0.8,0.2c-0.1,0-0.2,0.1-0.3,0.1c0,0,0,0,0,0
			c0,0,0.8,1,1.6,2c0.8,1,1.7,1.9,1.7,1.9C44.8,212.2,44.1,211,42.9,209z"/>
		<path fill="#1C75BC" stroke="#1C75BC" stroke-miterlimit="10" d="M39.5,181.9c-0.1,0.2-0.2,0.2-0.3,0.3
			C39.5,182.4,39.7,182.5,39.5,181.9z"/>
		<path fill="#1C75BC" stroke="#1C75BC" stroke-miterlimit="10" d="M39.5,184.2c-0.4-0.2-1.1-0.2-1.5-1.3c0-1.1,0.7-0.4,1.1-0.7
			c-0.7-0.4-2.1-1.7-1.8,0.7l0.3,0.2c0.4,2-0.3,5.4-0.7,5.2C38.1,187,38.9,186.1,39.5,184.2z"/>
		<path fill="#1C75BC" stroke="#1C75BC" stroke-miterlimit="10" d="M41.8,196.2c0,0,0.7,0.8,1.4,1.6c0.7,0.8,1.4,1.6,1.4,1.6
			l0.4-2.7l-0.8,0.6C43.4,195,42.6,196.1,41.8,196.2z"/>
		<path fill="#1C75BC" stroke="#1C75BC" stroke-miterlimit="10" d="M47.2,220.2l-2.3,0.9c0,0,1,0.1,2,0.1c1,0,2,0.1,2,0.1
			L47.2,220.2z"/>
		<polygon fill="#1C75BC" stroke="#1C75BC" stroke-miterlimit="10" points="50.2,224.9 48.3,226 50.2,226.5 		"/>
		<path fill="#1C75BC" stroke="#1C75BC" stroke-miterlimit="10" d="M55.3,207c-0.4-0.1-0.4-0.6-0.9-0.7l-0.9,0.7
			C54.4,208.2,55.7,208.6,55.3,207z"/>
	</g>
	<g>
		<path fill="#1C75BC" stroke="#1C75BC" stroke-width="2" stroke-miterlimit="10" d="M6.3,205.8c-0.4-0.7-0.4-0.6-0.4-0.7
			C6.7,206.6,6.3,205.7,6.3,205.8z"/>
		<path fill="#1C75BC" stroke="#1C75BC" stroke-width="2" stroke-miterlimit="10" d="M17,218.8l-0.3-0.1c0,0,0.5,0.4,1,0.7
			c0.5,0.4,1,0.7,1,0.7s-0.4-0.3-0.9-0.7C17.4,219.1,17,218.8,17,218.8z"/>
		<path fill="#1C75BC" stroke="#1C75BC" stroke-width="2" stroke-miterlimit="10" d="M27.8,230.4c0-1.1-1.1-2.1-2.3-3.1
			c-1.2-1-2.6-2.1-3.4-3.3l-0.1-0.5c0,0-0.4-0.1-0.8-0.1c-0.4-0.1-0.7-0.1-0.7-0.1C22.7,225.7,26.3,228.4,27.8,230.4z"/>
		<path fill="#1C75BC" stroke="#1C75BC" stroke-width="2" stroke-miterlimit="10" d="M31.1,239.6c0.1-1,1.6,0.9-1.2-1.7
			c0.1,0.2,0.1,0.3,0.1,0.4C30.3,238.6,30.6,238.9,31.1,239.6z"/>
		<path fill="#1C75BC" stroke="#1C75BC" stroke-width="2" stroke-miterlimit="10" d="M30,238.3C28.9,237.1,30.4,239.6,30,238.3
			L30,238.3z"/>
		<path fill="#1C75BC" stroke="#1C75BC" stroke-width="2" stroke-miterlimit="10" d="M35.6,243.8l-2-1.1c0,0.7,1.3,2.3,0.6,2
			C36,246.2,36,245.4,35.6,243.8z"/>
		<path fill="#1C75BC" stroke="#1C75BC" stroke-width="2" stroke-miterlimit="10" d="M38.1,244.1l-1-0.6
			C37.1,243.8,37.3,244.1,38.1,244.1z"/>
		<path fill="#1C75BC" stroke="#1C75BC" stroke-width="2" stroke-miterlimit="10" d="M35,242.2l2.1,1.2c0-0.5,0.4-1.1-0.9-0.6
			C36.7,242.5,36,242.7,35,242.2z"/>
		<path fill="#1C75BC" stroke="#1C75BC" stroke-width="2" stroke-miterlimit="10" d="M34.2,241c-0.6-1.3-1.5-2.6,0.5-1.6
			C31.5,236.6,31.1,238.1,34.2,241z"/>
		<path fill="#1C75BC" stroke="#1C75BC" stroke-width="2" stroke-miterlimit="10" d="M29.4,229.7l-0.9-1.5l-1.4-0.6
			C27.8,227.9,29.2,230.1,29.4,229.7z"/>
		<path fill="#1C75BC" stroke="#1C75BC" stroke-width="2" stroke-miterlimit="10" d="M44.7,254.9c0.4-0.4,0.3-1.8,0.6-2.5l-1.6-0.6
			C44.1,252.7,45.1,254.1,44.7,254.9z"/>
		<path fill="#1C75BC" stroke="#1C75BC" stroke-width="2" stroke-miterlimit="10" d="M45.3,252.5l2.4,0.9
			C46.2,251.8,45.6,251.9,45.3,252.5z"/>
		<path fill="#1C75BC" stroke="#1C75BC" stroke-width="2" stroke-miterlimit="10" d="M39.9,242.3c0,0-1-0.3-2-0.7
			c-1-0.4-2-0.8-2-0.8s1.1,0.5,2.2,1c1.1,0.5,2.3,0.9,2.3,0.9L39.9,242.3z"/>
		<path fill="#1C75BC" stroke="#1C75BC" stroke-width="2" stroke-miterlimit="10" d="M51.6,261.6l-1.9,0.2c0,0,0.8,0,1.6,0
			c0.8,0,1.6-0.1,1.6-0.1L51.6,261.6z"/>
		<path fill="#1C75BC" stroke="#1C75BC" stroke-width="2" stroke-miterlimit="10" d="M56.5,265.7c-1.5,0.4-0.1,2.8-1.4,2.8
			c1.4,1,3.2,1,4.8,1C58.5,269,57.4,267.9,56.5,265.7z"/>
		<path fill="#1C75BC" stroke="#1C75BC" stroke-width="2" stroke-miterlimit="10" d="M62.5,269.6c-0.7-0.2-1.6-0.1-2.6-0.1
			C60.6,269.7,61.5,269.8,62.5,269.6z"/>
		<path fill="#1C75BC" stroke="#1C75BC" stroke-width="2" stroke-miterlimit="10" d="M50.7,256.4c-0.1,0.4-0.3,1.5,0.5,2.8l0.3-2.1
			C51.2,256.9,51,256.6,50.7,256.4z"/>
		<path fill="#1C75BC" stroke="#1C75BC" stroke-width="2" stroke-miterlimit="10" d="M51.4,257L51.4,257c0.8,0.8,1.3,1.3,1.5,1.5
			C52.8,258.4,52.3,257.9,51.4,257z"/>
		<path fill="#1C75BC" stroke="#1C75BC" stroke-width="2" stroke-miterlimit="10" d="M50.5,256.2c0.1,0.1,0.1,0.1,0.2,0.2
			C50.7,256.2,50.7,256.1,50.5,256.2z"/>
		<path fill="#1C75BC" stroke="#1C75BC" stroke-width="2" stroke-miterlimit="10" d="M43.9,247.7c1.6,0.3,4.4,1.5,3-1.4
			C45.5,246.4,46.3,248.1,43.9,247.7z"/>
		<path fill="#1C75BC" stroke="#1C75BC" stroke-width="2" stroke-miterlimit="10" d="M50.8,253.7l-1.8-2c-0.2,0.4-0.2,1.2-1,1.1
			c0,0,0.7,0.2,1.4,0.5C50.1,253.5,50.8,253.7,50.8,253.7z"/>
		<polygon fill="#1C75BC" stroke="#1C75BC" stroke-width="2" stroke-miterlimit="10" points="52.1,254.1 50.8,253.7 51.5,254.4 		
			"/>
		<path fill="#1C75BC" stroke="#1C75BC" stroke-width="2" stroke-miterlimit="10" d="M59.9,265.1c1.4,0,2.4,0.7,3.6,1.5
			c-1-1.3-2.1-2.4-3.3-3.3C59.7,263.6,58.6,264.1,59.9,265.1z"/>
		<path fill="#1C75BC" stroke="#1C75BC" stroke-width="2" stroke-miterlimit="10" d="M55.8,261.1c0.1,0,0.2,0.1,0.3,0.1
			C56.1,260.9,56,260.8,55.8,261.1z"/>
		<path fill="#1C75BC" stroke="#1C75BC" stroke-width="2" stroke-miterlimit="10" d="M74.8,274.8c0-0.2,0-0.3,0-0.5
			c-0.1,0.1-0.1,0.2-0.2,0.3L74.8,274.8z"/>
		<path fill="#1C75BC" stroke="#1C75BC" stroke-width="2" stroke-miterlimit="10" d="M60.2,262.8c-0.7-1-1.5-1-2.3-1
			c0.8,0.4,1.5,0.9,2.3,1.4C60.4,263.1,60.5,262.9,60.2,262.8z"/>
		<path fill="#1C75BC" stroke="#1C75BC" stroke-width="2" stroke-miterlimit="10" d="M66.1,271.2c-0.2-0.8-0.6-1.5-1-2.2
			C65.2,269.9,65.6,271.5,66.1,271.2z"/>
		<path fill="#1C75BC" stroke="#1C75BC" stroke-width="2" stroke-miterlimit="10" d="M56.1,261.8c-0.1,0-0.1,0-0.2,0
			C56,262.3,56.1,262.1,56.1,261.8z"/>
		<path fill="#1C75BC" stroke="#1C75BC" stroke-width="2" stroke-miterlimit="10" d="M56.1,261.8c0.6,0.2,1.2,0.1,1.8,0
			c-0.6-0.3-1.2-0.6-1.8-0.7C56.1,261.3,56.1,261.6,56.1,261.8z"/>
		<path fill="#1C75BC" stroke="#1C75BC" stroke-width="2" stroke-miterlimit="10" d="M85.5,263.9c-1.2,1.9-4.7,2.1-5.7-1
			c-2.9,0.1-4.9,6.8-4.9,11.5c0.5-0.8,0.9-1.5,3.7-1.2c-0.2-1.6-3.6-5.4-0.8-5.9c3.4,0.8,2,2.1,2.9,4c0-1.6,1.4-1.8,3-2.3
			c1.6-0.5,3.3-1.1,3.9-3.1c0,0-0.8,0-1.6,0c-0.8,0-1.6-0.1-1.6-0.1C84.5,265.2,85.9,264.8,85.5,263.9z"/>
		<path fill="#1C75BC" stroke="#1C75BC" stroke-width="2" stroke-miterlimit="10" d="M70.8,271.3l-1-0.4c0.8,1,1.1,2.2,1.7,4.6
			c2,0.2,2.7-0.3,3.1-0.8c0,0-1.1-0.8-2.1-1.7c-1.1-0.8-2.1-1.7-2.1-1.7L70.8,271.3z"/>
		<path fill="#1C75BC" stroke="#1C75BC" stroke-width="2" stroke-miterlimit="10" d="M65.9,268c1.8-1.3,4.3-0.6,4.2-3.5
			c-2.6-1.6-2.7,0.3-4.7-0.1c4.4,2.5-1.8,0.1,0.6,3.3c-1-0.3-1.8-0.8-2.5-1.2c0.6,0.8,1.1,1.6,1.6,2.4c0-0.1,0-0.1,0-0.2l0,0l0,0
			c0-0.4,0-0.5,0.1-0.3c0,0,0.1,0,0.1,0C65.4,268.3,65.7,268.2,65.9,268c1,1.3-0.1,0.6-0.6,0.5c-0.1,0.1-0.2,0.1-0.2,0.2
			c0,0,0,0,0,0c0,0,1.2,0.5,2.3,1.1c1.2,0.5,2.4,1,2.4,1C69.1,270,67.9,269.3,65.9,268z"/>
		<path fill="#1C75BC" stroke="#1C75BC" stroke-width="2" stroke-miterlimit="10" d="M50.9,245.1c0,0.2,0,0.3-0.1,0.4
			C51.2,245.6,51.4,245.5,50.9,245.1z"/>
		<path fill="#1C75BC" stroke="#1C75BC" stroke-width="2" stroke-miterlimit="10" d="M52,247.1c-0.4,0-1,0.3-1.9-0.5
			c-0.5-1,0.5-0.6,0.7-1.1c-0.8-0.1-2.6-0.6-1.3,1.4l0.4,0c1.3,1.6,2.1,5,1.6,5C52,250.3,52.2,249.1,52,247.1z"/>
		<path fill="#1C75BC" stroke="#1C75BC" stroke-width="2" stroke-miterlimit="10" d="M59.3,256.9c0,0,1,0.4,1.9,0.9
			c1,0.4,1.9,0.8,1.9,0.8l-0.8-2.6l-0.5,0.9C60.2,255.2,60,256.5,59.3,256.9z"/>
		<path fill="#1C75BC" stroke="#1C75BC" stroke-width="2" stroke-miterlimit="10" d="M74.7,276.1l-1.7,1.8c0,0,0.9-0.4,1.9-0.8
			c0.9-0.4,1.9-0.8,1.9-0.8L74.7,276.1z"/>
		<polygon fill="#1C75BC" stroke="#1C75BC" stroke-width="2" stroke-miterlimit="10" points="79.5,279 78.3,280.9 80.1,280.5 		"/>
		<path fill="#1C75BC" stroke="#1C75BC" stroke-width="2" stroke-miterlimit="10" d="M76.1,260.7c-0.5,0.1-0.7-0.3-1.1-0.3l-0.5,1
			C75.9,262.2,77.2,262,76.1,260.7z"/>
	</g>
	<g>
		<path fill="#1C75BC" stroke="#1C75BC" stroke-width="2" stroke-miterlimit="10" d="M12.8,256.3c-0.6-0.5-0.5-0.4-0.6-0.5
			C13.5,256.9,12.8,256.2,12.8,256.3z"/>
		<path fill="#1C75BC" stroke="#1C75BC" stroke-width="2" stroke-miterlimit="10" d="M27.2,265l-0.3,0c0,0,0.6,0.2,1.2,0.4
			c0.6,0.2,1.2,0.3,1.2,0.3s-0.5-0.2-1-0.4C27.7,265.2,27.2,265,27.2,265z"/>
		<path fill="#1C75BC" stroke="#1C75BC" stroke-width="2" stroke-miterlimit="10" d="M41.2,272.4c-0.4-1.1-1.7-1.6-3.2-2.1
			c-1.5-0.5-3.2-1.1-4.3-2l-0.3-0.5c0,0-0.4,0.1-0.7,0.2c-0.4,0.1-0.7,0.1-0.7,0.1C34.9,269.7,39.2,271,41.2,272.4z"/>
		<path fill="#1C75BC" stroke="#1C75BC" stroke-width="2" stroke-miterlimit="10" d="M47.4,280c-0.2-1,1.8,0.3-1.7-1.2
			c0.1,0.2,0.2,0.2,0.3,0.4C46.3,279.3,46.7,279.5,47.4,280z"/>
		<path fill="#1C75BC" stroke="#1C75BC" stroke-width="2" stroke-miterlimit="10" d="M46,279.1C44.5,278.3,46.7,280.3,46,279.1
			L46,279.1z"/>
		<path fill="#1C75BC" stroke="#1C75BC" stroke-width="2" stroke-miterlimit="10" d="M53.1,282.5l-2.2-0.4c0.3,0.7,2,1.8,1.2,1.7
			C54.2,284.6,54,283.9,53.1,282.5z"/>
		<path fill="#1C75BC" stroke="#1C75BC" stroke-width="2" stroke-miterlimit="10" d="M55.5,281.9l-1.1-0.2
			C54.5,282,54.7,282.2,55.5,281.9z"/>
		<path fill="#1C75BC" stroke="#1C75BC" stroke-width="2" stroke-miterlimit="10" d="M51.9,281.2l2.4,0.5c-0.2-0.5,0-1.2-1.1-0.3
			C53.6,280.9,53,281.3,51.9,281.2z"/>
		<path fill="#1C75BC" stroke="#1C75BC" stroke-width="2" stroke-miterlimit="10" d="M50.8,280.3c-1-1-2.3-2-0.1-1.6
			C46.8,277,46.9,278.5,50.8,280.3z"/>
		<path fill="#1C75BC" stroke="#1C75BC" stroke-width="2" stroke-miterlimit="10" d="M42.5,271.2l-1.3-1.1l-1.5-0.1
			C40.5,270.1,42.5,271.7,42.5,271.2z"/>
		<path fill="#1C75BC" stroke="#1C75BC" stroke-width="2" stroke-miterlimit="10" d="M65.3,290c0.3-0.5-0.3-1.8-0.2-2.5l-1.7-0.1
			C64,288.1,65.4,289.1,65.3,290z"/>
		<path fill="#1C75BC" stroke="#1C75BC" stroke-width="2" stroke-miterlimit="10" d="M65.1,287.4l2.6,0
			C65.6,286.5,65.1,286.8,65.1,287.4z"/>
		<path fill="#1C75BC" stroke="#1C75BC" stroke-width="2" stroke-miterlimit="10" d="M56.6,279.7c0,0-1.1,0-2.1,0
			c-1,0-2.1-0.1-2.1-0.1s1.2,0.1,2.4,0.2c1.2,0.1,2.5,0.1,2.5,0.1L56.6,279.7z"/>
		<path fill="#1C75BC" stroke="#1C75BC" stroke-width="2" stroke-miterlimit="10" d="M74,294l-1.7,0.8c0,0,0.7-0.3,1.5-0.5
			c0.7-0.3,1.5-0.6,1.5-0.6L74,294z"/>
		<path fill="#1C75BC" stroke="#1C75BC" stroke-width="2" stroke-miterlimit="10" d="M80,296.2c-1.3,0.8,0.8,2.7-0.4,3.1
			c1.7,0.5,3.4-0.1,4.8-0.6C83,298.7,81.6,298,80,296.2z"/>
		<path fill="#1C75BC" stroke="#1C75BC" stroke-width="2" stroke-miterlimit="10" d="M86.9,297.9c-0.7,0.1-1.6,0.4-2.5,0.7
			C85.2,298.6,86,298.5,86.9,297.9z"/>
		<path fill="#1C75BC" stroke="#1C75BC" stroke-width="2" stroke-miterlimit="10" d="M71.5,289.4c0.1,0.4,0.2,1.5,1.3,2.5l-0.4-2.1
			C72.1,289.7,71.8,289.5,71.5,289.4z"/>
		<path fill="#1C75BC" stroke="#1C75BC" stroke-width="2" stroke-miterlimit="10" d="M72.4,289.7L72.4,289.7c1,0.5,1.7,0.8,2,0.9
			C74.1,290.5,73.5,290.2,72.4,289.7z"/>
		<path fill="#1C75BC" stroke="#1C75BC" stroke-width="2" stroke-miterlimit="10" d="M71.2,289.3c0.1,0,0.1,0.1,0.2,0.1
			C71.4,289.2,71.4,289.1,71.2,289.3z"/>
		<path fill="#1C75BC" stroke="#1C75BC" stroke-width="2" stroke-miterlimit="10" d="M62.1,283.4c1.6-0.2,4.6-0.1,2.3-2.3
			C63.2,281.7,64.5,283,62.1,283.4z"/>
		<path fill="#1C75BC" stroke="#1C75BC" stroke-width="2" stroke-miterlimit="10" d="M70.7,286.8l-2.3-1.3c-0.1,0.4,0.2,1.2-0.6,1.4
			c0,0,0.7,0,1.5,0C70,286.8,70.7,286.8,70.7,286.8z"/>
		<polygon fill="#1C75BC" stroke="#1C75BC" stroke-width="2" stroke-miterlimit="10" points="72,286.7 70.7,286.8 71.6,287.3 		"/>
		<path fill="#1C75BC" stroke="#1C75BC" stroke-width="2" stroke-miterlimit="10" d="M83,294.5c1.3-0.4,2.5-0.1,3.9,0.2
			c-1.4-0.9-2.8-1.6-4.2-2.1C82.3,293.2,81.5,294.1,83,294.5z"/>
		<path fill="#1C75BC" stroke="#1C75BC" stroke-width="2" stroke-miterlimit="10" d="M77.8,292.1c0.1,0,0.2,0,0.3,0
			C78,291.8,77.9,291.8,77.8,292.1z"/>
		<path fill="#1C75BC" stroke="#1C75BC" stroke-width="2" stroke-miterlimit="10" d="M100.3,298.8c-0.1-0.2-0.1-0.3-0.1-0.5
			c0,0.1-0.1,0.2-0.1,0.4L100.3,298.8z"/>
		<path fill="#1C75BC" stroke="#1C75BC" stroke-width="2" stroke-miterlimit="10" d="M82.5,292.3c-1-0.7-1.7-0.5-2.5-0.2
			c0.8,0.1,1.7,0.3,2.6,0.6C82.8,292.5,82.9,292.3,82.5,292.3z"/>
		<path fill="#1C75BC" stroke="#1C75BC" stroke-width="2" stroke-miterlimit="10" d="M90.9,298.3c-0.5-0.6-1.1-1.2-1.7-1.8
			C89.6,297.3,90.5,298.7,90.9,298.3z"/>
		<path fill="#1C75BC" stroke="#1C75BC" stroke-width="2" stroke-miterlimit="10" d="M78.3,292.7c-0.1,0-0.1,0-0.2,0
			C78.4,293.2,78.4,293,78.3,292.7z"/>
		<path fill="#1C75BC" stroke="#1C75BC" stroke-width="2" stroke-miterlimit="10" d="M78.3,292.7c0.6-0.1,1.2-0.3,1.7-0.6
			c-0.7-0.1-1.3-0.1-1.9-0.1C78.2,292.2,78.3,292.5,78.3,292.7z"/>
		<path fill="#1C75BC" stroke="#1C75BC" stroke-width="2" stroke-miterlimit="10" d="M106.8,285c-0.5,2.2-3.7,3.6-5.8,0.9
			c-2.7,1.1-2.4,8-0.9,12.4c0.2-0.9,0.4-1.7,3.1-2.3c-0.7-1.4-5.2-3.9-2.7-5.3c3.5-0.4,2.6,1.3,4,2.8c-0.5-1.5,0.7-2.2,2.1-3.2
			c1.3-0.9,2.7-2.1,2.7-4.2c0,0-0.8,0.3-1.5,0.5c-0.8,0.3-1.6,0.5-1.6,0.5C106.3,286.5,107.5,285.7,106.8,285z"/>
		<path fill="#1C75BC" stroke="#1C75BC" stroke-width="2" stroke-miterlimit="10" d="M95.4,296.8l-1.1-0.1c1.1,0.7,1.8,1.7,3.1,3.8
			c1.9-0.5,2.4-1.2,2.7-1.8c0,0-1.3-0.4-2.6-0.9c-1.3-0.4-2.5-0.9-2.5-0.9L95.4,296.8z"/>
		<path fill="#1C75BC" stroke="#1C75BC" stroke-width="2" stroke-miterlimit="10" d="M89.6,295.3c1.2-1.8,3.9-2,2.9-4.7
			c-3-0.7-2.5,1.2-4.5,1.5c5,0.9-1.6,0.7,1.6,2.9c-1,0-1.9-0.1-2.8-0.3c0.8,0.5,1.6,1.1,2.3,1.8c0-0.1-0.1-0.1-0.1-0.2l0,0l0,0
			c-0.2-0.3-0.2-0.5,0-0.3c0,0,0.1,0,0.1,0C89.3,295.8,89.5,295.5,89.6,295.3c1.3,0.9,0.1,0.6-0.4,0.7c0,0.1-0.1,0.2-0.1,0.3
			c0,0,0,0,0,0c0,0,1.3,0.1,2.6,0.2c1.3,0.1,2.6,0.2,2.6,0.2C93.3,296.1,92,295.8,89.6,295.3z"/>
		<path fill="#1C75BC" stroke="#1C75BC" stroke-width="2" stroke-miterlimit="10" d="M68,278.7c0.1,0.2,0.1,0.3,0,0.4
			C68.4,279,68.5,278.9,68,278.7z"/>
		<path fill="#1C75BC" stroke="#1C75BC" stroke-width="2" stroke-miterlimit="10" d="M69.6,280.2c-0.4,0.1-0.9,0.6-1.9,0.1
			c-0.8-0.8,0.2-0.7,0.3-1.3c-0.8,0.2-2.7,0.3-0.8,1.8l0.4-0.1c1.7,1.1,3.6,4,3.2,4.1C70.7,283.2,70.5,282,69.6,280.2z"/>
		<path fill="#1C75BC" stroke="#1C75BC" stroke-width="2" stroke-miterlimit="10" d="M79.8,287c0,0,1.1,0.1,2.1,0.2
			c1,0.1,2.1,0.1,2.1,0.1l-1.6-2.2l-0.1,1C80,285.1,80.2,286.4,79.8,287z"/>
		<path fill="#1C75BC" stroke="#1C75BC" stroke-width="2" stroke-miterlimit="10" d="M100.6,300.1l-1,2.2c0,0,0.8-0.7,1.5-1.4
			c0.7-0.7,1.5-1.4,1.5-1.4L100.6,300.1z"/>
		<polygon fill="#1C75BC" stroke="#1C75BC" stroke-width="2" stroke-miterlimit="10" points="106.1,301.2 105.6,303.3 107.2,302.4 
					"/>
		<path fill="#1C75BC" stroke="#1C75BC" stroke-width="2" stroke-miterlimit="10" d="M96.9,285.1c-0.4,0.2-0.7-0.1-1.2,0.1l-0.1,1.1
			C97.1,286.6,98.4,285.8,96.9,285.1z"/>
	</g>
	<g>
		<path fill="#1C75BC" stroke="#1C75BC" stroke-miterlimit="10" d="M0.9,186.1c-0.4-0.7-0.4-0.6-0.4-0.7
			C1.3,186.9,0.9,186,0.9,186.1z"/>
		<path fill="#1C75BC" stroke="#1C75BC" stroke-miterlimit="10" d="M11.6,199.1l-0.3-0.1c0,0,0.5,0.4,1,0.7c0.5,0.4,1,0.7,1,0.7
			s-0.4-0.3-0.9-0.7C12,199.4,11.6,199.1,11.6,199.1z"/>
		<path fill="#1C75BC" stroke="#1C75BC" stroke-miterlimit="10" d="M22.3,210.7c0-1.1-1.1-2.1-2.3-3.1c-1.2-1-2.6-2.1-3.4-3.3
			l-0.1-0.5c0,0-0.4-0.1-0.8-0.1c-0.4-0.1-0.7-0.1-0.7-0.1C17.3,206,20.9,208.6,22.3,210.7z"/>
		<path fill="#1C75BC" stroke="#1C75BC" stroke-miterlimit="10" d="M25.7,219.9c0.1-1,1.6,0.9-1.2-1.7c0.1,0.2,0.1,0.3,0.1,0.4
			C24.9,218.8,25.2,219.2,25.7,219.9z"/>
		<path fill="#1C75BC" stroke="#1C75BC" stroke-miterlimit="10" d="M24.6,218.6C23.5,217.3,25,219.9,24.6,218.6L24.6,218.6z"/>
		<path fill="#1C75BC" stroke="#1C75BC" stroke-miterlimit="10" d="M30.2,224.1l-2-1.1c0,0.7,1.3,2.3,0.6,2
			C30.6,226.5,30.6,225.7,30.2,224.1z"/>
		<path fill="#1C75BC" stroke="#1C75BC" stroke-miterlimit="10" d="M32.7,224.3l-1-0.6C31.7,224.1,31.8,224.4,32.7,224.3z"/>
		<path fill="#1C75BC" stroke="#1C75BC" stroke-miterlimit="10" d="M29.5,222.5l2.1,1.2c0-0.5,0.4-1.1-0.9-0.6
			C31.3,222.8,30.5,222.9,29.5,222.5z"/>
		<path fill="#1C75BC" stroke="#1C75BC" stroke-miterlimit="10" d="M28.8,221.3c-0.6-1.3-1.5-2.6,0.5-1.6
			C26.1,216.9,25.7,218.3,28.8,221.3z"/>
		<path fill="#1C75BC" stroke="#1C75BC" stroke-miterlimit="10" d="M24,210l-0.9-1.5l-1.4-0.6C22.4,208.2,23.7,210.4,24,210z"/>
		<path fill="#1C75BC" stroke="#1C75BC" stroke-miterlimit="10" d="M39.3,235.2c0.4-0.4,0.3-1.8,0.6-2.5l-1.6-0.6
			C38.7,233,39.7,234.4,39.3,235.2z"/>
		<path fill="#1C75BC" stroke="#1C75BC" stroke-miterlimit="10" d="M39.9,232.7l2.4,0.9C40.7,232,40.2,232.1,39.9,232.7z"/>
		<path fill="#1C75BC" stroke="#1C75BC" stroke-miterlimit="10" d="M34.5,222.6c0,0-1-0.3-2-0.7c-1-0.4-2-0.8-2-0.8s1.1,0.5,2.2,1
			c1.1,0.5,2.3,0.9,2.3,0.9L34.5,222.6z"/>
		<path fill="#1C75BC" stroke="#1C75BC" stroke-miterlimit="10" d="M46.2,241.9l-1.9,0.2c0,0,0.8,0,1.6,0c0.8,0,1.6-0.1,1.6-0.1
			L46.2,241.9z"/>
		<path fill="#1C75BC" stroke="#1C75BC" stroke-miterlimit="10" d="M51.1,246c-1.5,0.4-0.1,2.8-1.4,2.8c1.4,1,3.2,1,4.8,1
			C53.1,249.3,52,248.2,51.1,246z"/>
		<path fill="#1C75BC" stroke="#1C75BC" stroke-miterlimit="10" d="M57,249.9c-0.7-0.2-1.6-0.1-2.6-0.1C55.2,250,56,250.1,57,249.9z
			"/>
		<path fill="#1C75BC" stroke="#1C75BC" stroke-miterlimit="10" d="M45.3,236.7c-0.1,0.4-0.3,1.5,0.5,2.8l0.3-2.1
			C45.8,237.1,45.5,236.9,45.3,236.7z"/>
		<path fill="#1C75BC" stroke="#1C75BC" stroke-miterlimit="10" d="M46,237.3L46,237.3c0.8,0.8,1.3,1.3,1.5,1.5
			C47.4,238.6,46.9,238.2,46,237.3z"/>
		<path fill="#1C75BC" stroke="#1C75BC" stroke-miterlimit="10" d="M45.1,236.5c0.1,0.1,0.1,0.1,0.2,0.2
			C45.3,236.5,45.3,236.4,45.1,236.5z"/>
		<path fill="#1C75BC" stroke="#1C75BC" stroke-miterlimit="10" d="M38.5,228c1.6,0.3,4.4,1.5,3-1.4C40,226.7,40.8,228.4,38.5,228z"
			/>
		<path fill="#1C75BC" stroke="#1C75BC" stroke-miterlimit="10" d="M45.4,234l-1.8-2c-0.2,0.4-0.2,1.2-1,1.1c0,0,0.7,0.2,1.4,0.5
			C44.7,233.8,45.4,234,45.4,234z"/>
		<polygon fill="#1C75BC" stroke="#1C75BC" stroke-miterlimit="10" points="46.7,234.4 45.4,234 46.1,234.7 		"/>
		<path fill="#1C75BC" stroke="#1C75BC" stroke-miterlimit="10" d="M54.5,245.4c1.4,0,2.4,0.7,3.6,1.5c-1-1.3-2.1-2.4-3.3-3.3
			C54.3,243.9,53.2,244.4,54.5,245.4z"/>
		<path fill="#1C75BC" stroke="#1C75BC" stroke-miterlimit="10" d="M50.4,241.3c0.1,0,0.2,0.1,0.3,0.1
			C50.6,241.2,50.6,241,50.4,241.3z"/>
		<path fill="#1C75BC" stroke="#1C75BC" stroke-miterlimit="10" d="M69.4,255.1c0-0.2,0-0.3,0-0.5c-0.1,0.1-0.1,0.2-0.2,0.3
			L69.4,255.1z"/>
		<path fill="#1C75BC" stroke="#1C75BC" stroke-miterlimit="10" d="M54.8,243.1c-0.7-1-1.5-1-2.3-1c0.8,0.4,1.5,0.9,2.3,1.4
			C55,243.3,55.1,243.2,54.8,243.1z"/>
		<path fill="#1C75BC" stroke="#1C75BC" stroke-miterlimit="10" d="M60.7,251.5c-0.2-0.8-0.6-1.5-1-2.2
			C59.8,250.2,60.2,251.8,60.7,251.5z"/>
		<path fill="#1C75BC" stroke="#1C75BC" stroke-miterlimit="10" d="M50.7,242.1c-0.1,0-0.1,0-0.2,0
			C50.6,242.6,50.6,242.4,50.7,242.1z"/>
		<path fill="#1C75BC" stroke="#1C75BC" stroke-miterlimit="10" d="M50.7,242.1c0.6,0.2,1.2,0.1,1.8,0c-0.6-0.3-1.2-0.6-1.8-0.7
			C50.7,241.6,50.7,241.9,50.7,242.1z"/>
		<path fill="#1C75BC" stroke="#1C75BC" stroke-miterlimit="10" d="M80.1,244.2c-1.2,1.9-4.7,2.1-5.7-1c-2.9,0.1-4.9,6.8-4.9,11.5
			c0.5-0.8,0.9-1.5,3.7-1.2c-0.2-1.6-3.6-5.4-0.8-5.9c3.4,0.8,2,2.1,2.9,4c0-1.6,1.4-1.8,3-2.3c1.6-0.5,3.3-1.1,3.9-3.1
			c0,0-0.8,0-1.6,0c-0.8,0-1.6-0.1-1.6-0.1C79.1,245.5,80.5,245.1,80.1,244.2z"/>
		<path fill="#1C75BC" stroke="#1C75BC" stroke-miterlimit="10" d="M65.4,251.6l-1-0.4c0.8,1,1.1,2.2,1.7,4.6c2,0.2,2.7-0.3,3.1-0.8
			c0,0-1.1-0.8-2.1-1.7c-1.1-0.8-2.1-1.7-2.1-1.7L65.4,251.6z"/>
		<path fill="#1C75BC" stroke="#1C75BC" stroke-miterlimit="10" d="M60.5,248.3c1.8-1.3,4.3-0.6,4.2-3.5c-2.6-1.6-2.7,0.3-4.7-0.1
			c4.4,2.5-1.8,0.1,0.6,3.3c-1-0.3-1.8-0.8-2.5-1.2c0.6,0.8,1.1,1.6,1.6,2.4c0-0.1,0-0.1,0-0.2l0,0l0,0c0-0.4,0-0.5,0.1-0.3
			c0,0,0.1,0,0.1,0C60,248.6,60.2,248.4,60.5,248.3c1,1.3-0.1,0.6-0.6,0.5c-0.1,0.1-0.2,0.1-0.2,0.2c0,0,0,0,0,0
			c0,0,1.2,0.5,2.3,1.1c1.2,0.5,2.4,1,2.4,1C63.6,250.3,62.5,249.5,60.5,248.3z"/>
		<path fill="#1C75BC" stroke="#1C75BC" stroke-miterlimit="10" d="M45.5,225.4c0,0.2,0,0.3-0.1,0.4C45.8,225.8,46,225.8,45.5,225.4
			z"/>
		<path fill="#1C75BC" stroke="#1C75BC" stroke-miterlimit="10" d="M46.6,227.4c-0.4,0-1,0.3-1.9-0.5c-0.5-1,0.5-0.6,0.7-1.1
			c-0.8-0.1-2.6-0.6-1.3,1.4l0.4,0c1.3,1.6,2.1,5,1.6,5C46.6,230.6,46.8,229.4,46.6,227.4z"/>
		<path fill="#1C75BC" stroke="#1C75BC" stroke-miterlimit="10" d="M53.9,237.2c0,0,1,0.4,1.9,0.9c1,0.4,1.9,0.8,1.9,0.8l-0.8-2.6
			l-0.5,0.9C54.8,235.4,54.5,236.8,53.9,237.2z"/>
		<path fill="#1C75BC" stroke="#1C75BC" stroke-miterlimit="10" d="M69.2,256.4l-1.7,1.8c0,0,0.9-0.4,1.9-0.8
			c0.9-0.4,1.9-0.8,1.9-0.8L69.2,256.4z"/>
		<polygon fill="#1C75BC" stroke="#1C75BC" stroke-miterlimit="10" points="74.1,259.3 72.9,261.1 74.7,260.8 		"/>
		<path fill="#1C75BC" stroke="#1C75BC" stroke-miterlimit="10" d="M70.7,241c-0.5,0.1-0.7-0.3-1.1-0.3l-0.5,1
			C70.4,242.5,71.8,242.2,70.7,241z"/>
	</g>
	<path fill="#1C75BC" d="M297.9,352.2c0.8-0.1,0.7-0.1,0.9-0.1C297,352.4,298,352.2,297.9,352.2z"/>
	<path fill="#1C75BC" d="M280.3,351.8l0.3,0.2c0,0-0.6-0.2-1.3-0.3c-0.6-0.2-1.3-0.4-1.3-0.4s0.6,0.1,1.1,0.3
		C279.7,351.7,280.3,351.8,280.3,351.8z"/>
	<path fill="#1C75BC" d="M263.7,350.5c0.9-0.7,2.4-0.4,4-0.1c1.6,0.4,3.4,0.8,4.9,0.7l0.5-0.2c0,0,0.3,0.3,0.6,0.6
		c0.3,0.3,0.6,0.5,0.6,0.5C270.8,351.6,266.3,350.3,263.7,350.5z"/>
	<path fill="#1C75BC" d="M254,353.7c0.7-0.7-1.8-0.8,2.2-0.1c-0.2,0.1-0.3,0.1-0.4,0.2C255.4,353.7,254.9,353.7,254,353.7z"/>
	<path fill="#1C75BC" d="M255.7,353.7C257.5,353.8,254.4,354.3,255.7,353.7L255.7,353.7z"/>
	<path fill="#1C75BC" d="M247.6,352.7l2.2,0.9c-0.6,0.5-2.7,0.4-2,0.9C245.4,353.9,246,353.4,247.6,352.7z"/>
	<path fill="#1C75BC" d="M245.8,350.8l1.1,0.5C246.6,351.5,246.3,351.5,245.8,350.8z"/>
	<path fill="#1C75BC" d="M249.3,352.2l-2.4-0.9c0.4-0.3,0.6-1,1.1,0.4C248,351,248.3,351.7,249.3,352.2z"/>
	<path fill="#1C75BC" d="M250.8,352c1.4-0.3,3.2-0.4,1-1.4C256.2,351.4,255.2,352.7,250.8,352z"/>
	<path fill="#1C75BC" d="M263.2,348.6l1.8-0.2l1.4,0.8C265.7,348.8,263,349.1,263.2,348.6z"/>
	<path fill="#1C75BC" d="M232.6,352.4c0-0.6,1.2-1.4,1.6-2.1l1.5,0.9C234.7,351.5,232.9,351.6,232.6,352.4z"/>
	<path fill="#1C75BC" d="M234.2,350.3l-2.3-1.4C234.2,349.2,234.5,349.7,234.2,350.3z"/>
	<path fill="#1C75BC" d="M246,348.2c0,0,0.9,0.6,1.9,1.2c0.9,0.6,1.9,1.1,1.9,1.1s-1.2-0.6-2.3-1.2c-1.1-0.6-2.3-1.3-2.3-1.3
		L246,348.2z"/>
	<path fill="#1C75BC" d="M222.5,351.1l1,1.7c0,0-0.5-0.7-1-1.3c-0.5-0.7-1-1.3-1-1.3L222.5,351.1z"/>
	<path fill="#1C75BC" d="M216,349.7c0.7,1.5-2.3,1.9-1.4,2.9c-1.8-0.5-2.9-2-3.9-3.3C212,350.2,213.6,350.4,216,349.7z"/>
	<path fill="#1C75BC" d="M208.9,347.3c0.6,0.5,1.2,1.2,1.8,2C210,348.9,209.4,348.3,208.9,347.3z"/>
	<path fill="#1C75BC" d="M227.4,348.4c-0.3,0.3-1,1.2-2.6,1.4l1.6-1.6C226.7,348.3,227.1,348.4,227.4,348.4z"/>
	<path fill="#1C75BC" d="M226.5,348.2L226.5,348.2c-1.2-0.1-1.9-0.2-2.3-0.3C224.5,348,225.2,348.1,226.5,348.2z"/>
	<path fill="#1C75BC" d="M227.7,348.5c-0.1,0-0.2,0-0.3,0C227.6,348.3,227.6,348.2,227.7,348.5z"/>
	<path fill="#1C75BC" d="M239,348.4c-1.3-1.1-4.1-2.7-0.7-3.4C239.1,346.3,237.1,346.7,239,348.4z"/>
	<path fill="#1C75BC" d="M229.6,346.6l2.8,0.1c-0.2,0.4-0.9,1-0.2,1.6c0,0-0.6-0.4-1.3-0.8C230.2,347,229.6,346.6,229.6,346.6z"/>
	<polygon fill="#1C75BC" points="228.4,345.8 229.6,346.6 228.5,346.5 	"/>
	<path fill="#1C75BC" d="M214.3,346.5c-0.9-1.1-2.1-1.5-3.5-2c1.7,0,3.4,0.2,4.9,0.5C215.6,345.7,215.9,347,214.3,346.5z"/>
	<path fill="#1C75BC" d="M220.3,347.2c-0.1-0.1-0.2-0.1-0.2-0.2C220.3,346.9,220.4,346.9,220.3,347.2z"/>
	<path fill="#1C75BC" d="M196.6,340.5c0.1-0.1,0.3-0.2,0.4-0.3c0,0.1-0.1,0.3-0.1,0.4L196.6,340.5z"/>
	<path fill="#1C75BC" d="M216,344.8c1.3-0.1,1.8,0.5,2.3,1.3c-0.8-0.4-1.7-0.7-2.7-1C215.6,344.8,215.7,344.6,216,344.8z"/>
	<path fill="#1C75BC" d="M205.3,345.4c0.8-0.3,1.6-0.5,2.5-0.6C206.9,345.2,205.3,346,205.3,345.4z"/>
	<path fill="#1C75BC" d="M219.5,347.5c0,0,0.1,0.1,0.1,0.1C219.1,347.9,219.2,347.7,219.5,347.5z"/>
	<path fill="#1C75BC" d="M219.5,347.5c-0.5-0.4-0.8-1-1.2-1.5c0.7,0.3,1.3,0.6,1.7,1C219.9,347.2,219.6,347.3,219.5,347.5z"/>
	<path fill="#1C75BC" d="M198.7,324.7c-0.8,2.2,1.3,5.2,4.6,4.1c1.8,2.5-2.4,8.4-6.3,11.5c0.3-0.9,0.6-1.7-1.4-3.8
		c1.4-0.8,6.8-0.6,5.4-3.2c-2.9-2.3-3-0.3-5.1,0.2c1.3-1,0.6-2.4,0-3.9c-0.6-1.6-1.2-3.4,0-5.2c0,0,0.5,0.7,1.1,1.3
		c0.5,0.7,1.1,1.3,1.1,1.3C198.3,326.3,197.7,324.9,198.7,324.7z"/>
	<path fill="#1C75BC" d="M202.1,341.5l1,0.6c-1.4,0-2.6,0.5-4.9,1.6c-1.5-1.5-1.5-2.4-1.3-3.1c0,0,1.4,0.4,2.7,0.7
		c1.4,0.3,2.7,0.7,2.7,0.7L202.1,341.5z"/>
	<path fill="#1C75BC" d="M208,343.5c-0.1-2.3-2.3-4,0.1-5.8c3.1,1.1,1.5,2.4,3.1,3.8c-4.9-2,1.1,1.5-3.1,1.7c0.9,0.6,1.8,1,2.6,1.3
		c-1,0-2,0.1-3,0.2c0.1,0,0.1-0.1,0.2-0.1l0,0l0,0c0.3-0.2,0.5-0.3,0.1-0.3c0,0-0.1-0.1-0.1-0.1C208,344,208,343.7,208,343.5
		c-1.7,0-0.4,0.5-0.1,0.9c0,0.1,0,0.2-0.1,0.3c0,0,0,0,0,0c0,0-1.2-0.6-2.4-1.2c-1.2-0.6-2.4-1.3-2.4-1.3
		C204.3,342.1,205.7,342.6,208,343.5z"/>
	<path fill="#1C75BC" d="M236.6,340.9c-0.2,0.1-0.2,0.2-0.3,0.3C236,341,235.9,340.8,236.6,340.9z"/>
	<path fill="#1C75BC" d="M234.2,341.4c0.3,0.3,0.4,1.1,1.6,1.2c1.2-0.2,0.2-0.8,0.4-1.3c0.6,0.6,2.2,1.8-0.3,2l-0.3-0.3
		c-2.2,0-5.4,1.5-5.2,1.9C231.6,343.4,232.5,342.5,234.2,341.4z"/>
	<path fill="#1C75BC" d="M221.4,341.7c0,0-1-0.5-2-1c-1-0.5-1.9-1.1-1.9-1.1l2.7-1l-0.4,1C222.3,339.8,221.4,340.9,221.4,341.7z"/>
	<path fill="#1C75BC" d="M195.6,341.5l-0.4,2.5c0,0-0.3-1-0.6-2c-0.3-1-0.5-2.1-0.5-2.1L195.6,341.5z"/>
	<polygon fill="#1C75BC" points="190.1,339.4 189.4,341.6 188.5,339.8 	"/>
	<path fill="#1C75BC" d="M207.4,330.3c0.2,0.4,0.7,0.3,1,0.8l-0.5,1.1C206.3,331.5,205.6,330.2,207.4,330.3z"/>
	<path fill="#1C75BC" d="M224.3,12.7c0,2.4,1.6,1.8,3.4,1.6c-0.1,0-0.2,0-0.3-0.1C228.2,11.2,226.2,11.9,224.3,12.7z"/>
	<path fill="#1C75BC" d="M228.1,14.4c0.5,0,1.1,0,1.6,0.2C230,13.3,229.1,14.2,228.1,14.4z"/>
	<path fill="#1C75BC" d="M206.1,4c0.9,0.8,0.6-3.3,1.1-2.2c0.5-1.6-1-0.8-2,0.4C204.2,3.3,203.7,4.7,206.1,4z"/>
	<polygon fill="#1C75BC" points="224.9,20.7 224.6,17.7 223.4,20 	"/>
	<path fill="#1C75BC" d="M211.5,17.4l2.7,1c0-0.5,0.4-0.8,0.8-1C213.3,17.2,211.5,16.5,211.5,17.4z"/>
	<path fill="#1C75BC" d="M215,17.4c0.9,0.1,1.7,0.1,2.3-0.3C216.8,17.1,215.8,17.1,215,17.4z"/>
	<path fill="#1C75BC" d="M221.1,21.2l-0.8-0.7l-1.9-0.4c0,0,0.7,0.3,1.3,0.5C220.4,21,221.1,21.2,221.1,21.2z"/>
	<path fill="#1C75BC" d="M181.7,17.5l-2.9,1.4c-0.1,1.3,0.8,2,1.8,1.3C181.2,19.2,182.3,18.6,181.7,17.5z"/>
	<path fill="#1C75BC" d="M191.5,26.3c-0.8-0.7-0.9-1.4-1.5-2.6l0.2,4.4L191.5,26.3z"/>
	<path fill="#1C75BC" d="M183.3,28.4c-0.2,1.3-3.5,4.3-0.1,3.4C183.3,30.5,186,29,183.3,28.4z"/>
	<path fill="#1C75BC" d="M286.3,352.1c0,0,0.6,0,1.2,0c0.6,0,1.2,0,1.2,0s-0.4,0-0.7,0c-0.4,0-0.7-0.1-0.7-0.1L286.3,352.1z"/>
	<path fill="#1C75BC" d="M290.8,352c0,0,0.1,0,0.3,0.1c0.1,0,0.3,0,0.3,0s0.3,0,0.7,0c0.3,0,0.7,0,0.7,0
		C292.2,352,291.2,352,290.8,352z"/>
	<path fill="#1C75BC" d="M45.8,174.7c0-0.7-1.3-0.8-1.3-1.5C45.8,174,39.6,177.8,45.8,174.7z"/>
	<g>
		<path fill="#D5492D" stroke="#FFFFFF" stroke-width="2" stroke-miterlimit="10" d="M99,261.9c25.5-4.8,120.9-13.7,282.9,75.3
			c3.5,1.9,1.9,6.4-2.4,6.4c-46.7,0.8-205.5-2.3-283-75.7C94.3,265.8,95.7,262.6,99,261.9z"/>
		<path fill="#FFFFFF" d="M98.7,263l64.7,8.7c1.8,0.2,3.6,0.6,5.4,1.1l214.3,66.9c1.5,0.5,0.8,2.2-0.8,1.9l-221.7-43.5
			c-3.2-0.6-6.3-1.7-8.9-3.4l-55.1-27.6C94.1,265.7,95.7,262.6,98.7,263z"/>
		<path fill="#F9BB4E" d="M99.7,263.6l66,11.2c1.5,0.2,3,0.5,4.4,0.9l211.5,63.9c1.2,0.4,0.6,1.8-0.6,1.6l-217.5-44.9
			c-2.6-0.5-5.1-1.4-7.2-2.7l-58.3-26.6C96,265.7,97.3,263.3,99.7,263.6z"/>
		<g>
			<polygon fill="#D5492D" points="96,266.3 97.1,263.6 383.3,339.3 382.3,341.9 			"/>
			<path fill="#FFFFFF" d="M97.4,264.2l285.2,75.4l-0.7,1.7L96.7,265.9L97.4,264.2 M96.8,263l-0.3,0.8l-0.7,1.7l-0.4,1.1l1.1,0.3
				l285.2,75.4l0.8,0.2l0.3-0.8l0.7-1.7l0.4-1.1l-1.1-0.3L97.7,263.3L96.8,263L96.8,263z"/>
		</g>
	</g>
	<path d="M94.5,220.3c-1.1-1.8-2.2-3.9-3.4-6.3c0.9,1.8,1.8,3.5,2.8,5.3C94.1,219.6,94.3,219.9,94.5,220.3z"/>
	<path fill="#E4D1BA" d="M213.7,66.9l-3.6,3.9c0,0,0,0,0,0l0,0L213.7,66.9z"/>
	<path fill="#E4D1BA" d="M263.7,178.7c-0.2,0.6-0.6,0.9-0.9,0.8c-0.3-0.1-0.5-0.7-0.3-1.2c0.2-0.6,0.6-0.9,1-0.8
		C263.8,177.6,263.9,178.2,263.7,178.7z"/>
	<path fill="#E4D1BA" d="M280.3,183.3l-1.3,3.1l-0.5,1.3c0,0,0,0.1-0.1,0.1c0,0.1-0.1,0.1-0.1,0.2l-0.3,0.8c0,0,0,0-0.1,0l0,0
		c-1.6,0.1-31.6,1.2-33.9-15.1c-0.2-1.2-0.2-2.4-0.1-3.7c0.4,1.5,1.4,3.2,3.2,4.9c3.7,3.7,10.2,7.4,16.6,9.5c2.9,1,5.5,1.5,7.9,1.7
		C275.8,186.4,278.7,185.4,280.3,183.3z"/>
	<path fill="#E4D1BA" d="M240.3,214.1c-0.6,1.9-2.7,4.4-5.5,6.9l0,0c-0.3,0.3-0.6,0.5-0.8,0.8c-8.5-8.6-12.6-16-14.4-20.2
		c0.2-0.2,0.3-0.3,0.5-0.5c0.1,0,0.1-0.1,0.2-0.2c4.5-4.1,8.1-6.9,8.1-6.9L240.3,214.1z"/>
	<path fill="#E4D1BA" d="M280.6,221.9c-3.5,1.9-12.4,6.3-22.9,9.3c-0.1-0.3-0.2-0.7-0.3-1c-1.7-6.2-2.9-12.4-1.8-15.4l21.7-8.9
		c0,0,1.7,6.9,3.2,15.1C280.5,221.3,280.6,221.6,280.6,221.9z"/>
	<g>
		<path fill="#3FBEAC" d="M279.1,186.3c-0.7,1.7-1.7,3.7-2.5,5.1c-5.8,1.1-11.5,0.8-17-1.1c-10.7-3.6-17.5-11.8-19-13.7
			c0.9-3,1.6-4.9,2.1-6.1c0.4,1.8,1.6,3.7,3.6,5.7c3.8,3.8,10.5,7.6,17,9.8c3,1,5.7,1.6,8.2,1.7C274.6,188,277.2,187.5,279.1,186.3z
			"/>
		<path fill="#3FBEAC" d="M280.1,221.3c-3.6,1.7-14.9,6.7-23.1,9c-0.5,0.1-1-0.2-1.1-0.7l-3.1-15.4c-0.2-0.7-0.7-1.4-1.4-1.6
			l-4.4-1.7c-0.8-0.3-1.6-0.1-2.2,0.5l-9.2,9.5c-0.2,0.2-0.6,0.2-0.8,0c-11.7-11.7-14.7-19.8-15.3-21.8c-0.1-0.3,0-0.6,0.2-0.9
			l20.3-20.7c0.2,0.2,0.4,0.5,0.7,0.9c0.2,0.2,0.4,0.5,0.6,0.8c0.5,0.6,1.1,1.2,1.8,1.9c0.3,0.3,0.7,0.7,1.1,1.1
			c0.2,0.2,0.4,0.4,0.6,0.6c0.4,0.4,0.9,0.8,1.3,1.2c0.2,0.2,0.5,0.4,0.7,0.6c0.5,0.4,1,0.8,1.5,1.2c0.5,0.4,1.1,0.8,1.7,1.2
			c0.6,0.4,1.2,0.8,1.8,1.2c2.2,1.3,4.7,2.5,7.4,3.4c1.3,0.4,2.6,0.8,4,1.1c0.7,0.1,1.4,0.3,2.1,0.4c3.5,0.5,7.2,0.4,11.3-0.3
			l4.5,26.9C281.2,220.2,280.8,221,280.1,221.3z"/>
	</g>
	<g>
		<path fill="#3FBEAC" d="M279.1,186.3c-0.7,1.7-1.7,3.7-2.5,5.1c-5.8,1.1-11.5,0.8-17-1.1c-10.7-3.6-17.5-11.8-19-13.7
			c0.9-3,1.6-4.9,2.1-6.1c0.4,1.8,1.6,3.7,3.6,5.7c3.8,3.8,10.5,7.6,17,9.8c3,1,5.7,1.6,8.2,1.7C274.6,188,277.2,187.5,279.1,186.3z
			"/>
		<path fill="#1C75BC" d="M281.2,184c0-0.3,0-0.5,0-0.7l-0.1-1.1l-0.7,1c0,0-0.1,0.1-0.1,0.1c-1.6,2.1-4.5,3.1-8.6,2.8
			c-2.4-0.2-5-0.7-7.9-1.7c-6.3-2.1-12.9-5.9-16.6-9.5c-1.7-1.7-2.8-3.4-3.2-4.9c-0.2-0.8-0.2-1.6,0-2.3l0.1-0.3l-0.2-0.2
			c-0.1-0.1-0.2-0.2-0.3-0.2l-0.1,0c-0.4,0-1.5-0.1-4.4,9.8l-20.5,21c-0.2,0.2-0.3,0.6-0.2,0.9c0.2,0.6,0.5,1.6,1.1,3
			c1.8,4.2,5.9,11.6,14.4,20.2c0.2,0.2,0.5,0.5,0.7,0.7l0.3,0.2l9.8-10.1c0.6-0.6,1.5-0.8,2.2-0.5l3.5,1.4c0.7,0.3,1.2,0.9,1.4,1.6
			c0.7,3.3,2.6,12.6,3.2,15.8c0.1,0.5,0.6,0.8,1.1,0.7c0.5-0.1,1-0.3,1.5-0.4c10.5-3,19.3-7.4,22.9-9.3c0.2-0.1,0.4-0.2,0.6-0.3
			c0.7-0.4,1-1.1,0.9-1.8l-4.6-27.2l0.1-0.1C277.6,192.4,280.9,186.8,281.2,184z M281.1,219.5c0,0.1,0,0.1,0,0.2c0,0.1,0,0.3,0,0.4
			c0,0.1,0,0.2-0.1,0.2c0,0.1,0,0.2-0.1,0.2c-0.1,0.1-0.1,0.2-0.2,0.3c-0.1,0.1-0.2,0.2-0.3,0.3c0,0-0.1,0.1-0.2,0.1
			c-0.1,0-0.1,0.1-0.2,0.1c-0.3,0.1-0.5,0.2-0.9,0.4c-0.3,0.1-0.5,0.2-0.8,0.4c-0.3,0.2-0.7,0.3-1.1,0.5c-0.4,0.2-0.8,0.3-1.2,0.5
			c-0.3,0.2-0.7,0.3-1,0.5c-0.7,0.3-1.5,0.6-2.3,1c-0.4,0.2-0.8,0.3-1.2,0.5c-0.4,0.2-0.9,0.4-1.3,0.5c-0.7,0.3-1.5,0.6-2.3,0.9
			c-0.9,0.4-1.9,0.7-2.8,1.1c-0.9,0.4-1.9,0.7-2.8,1c-0.5,0.2-1.1,0.4-1.6,0.5c-0.4,0.1-0.8,0.3-1.2,0.4c0,0,0,0-0.1,0
			c-0.1,0-0.2,0.1-0.3,0.1c-0.6,0.2-1.1,0.3-1.7,0.5c-0.2,0.1-0.3,0.1-0.5,0.2c-0.5,0.1-1-0.2-1.1-0.7l-3.1-15.4
			c0-0.1-0.1-0.3-0.1-0.4c0-0.1,0-0.1-0.1-0.2c-0.1-0.1-0.1-0.2-0.2-0.3c0-0.1-0.1-0.1-0.1-0.1c0,0,0,0,0,0c0-0.1-0.1-0.1-0.1-0.1
			c0,0-0.1-0.1-0.1-0.1c-0.1-0.1-0.2-0.2-0.4-0.3l0,0c-0.1-0.1-0.2-0.1-0.2-0.1l-4.4-1.7c-0.1,0-0.2-0.1-0.3-0.1c0,0,0,0,0,0
			c-0.1,0-0.2,0-0.3,0c-0.3,0-0.7,0-1,0.2c-0.2,0.1-0.4,0.3-0.6,0.4l-9.2,9.5c-0.1,0.1-0.3,0.2-0.5,0.2c0,0,0,0,0,0c0,0-0.1,0-0.1,0
			c-0.1,0-0.2-0.1-0.2-0.2c-8.6-9.5-12.7-16.5-14.4-19.9c-0.4-0.8-0.7-1.5-0.9-1.9c-0.1-0.3,0-0.7,0.2-0.9l20.2-20.6
			c0.2,0.2,0.4,0.5,0.7,0.9c0.2,0.2,0.4,0.5,0.6,0.8c0.5,0.6,1.1,1.2,1.8,1.9c0.3,0.3,0.7,0.7,1.1,1.1c0.2,0.2,0.4,0.4,0.6,0.6
			c0.4,0.4,0.9,0.8,1.3,1.2c0.2,0.2,0.5,0.4,0.7,0.6c0.5,0.4,1,0.8,1.5,1.2c0.5,0.4,1.1,0.8,1.7,1.2c0.6,0.4,1.2,0.8,1.8,1.2
			c0.6,0.3,1.1,0.7,1.7,1c0.6,0.3,1.2,0.6,1.8,0.9c0.4,0.2,0.7,0.3,1.1,0.5c0.1,0,0.1,0.1,0.2,0.1c0.3,0.1,0.6,0.3,0.9,0.4
			c0.6,0.2,1.1,0.4,1.7,0.6c0.6,0.2,1.1,0.4,1.7,0.5c0.2,0,0.3,0.1,0.5,0.1c0.6,0.2,1.1,0.3,1.7,0.4c0.7,0.1,1.4,0.3,2.1,0.4
			c3.5,0.5,7.2,0.5,11.3-0.3L281.1,219.5z M277.2,190.3c-0.2,0.4-0.4,0.8-0.6,1.2c-5.8,1.1-11.5,0.7-17-1.1
			c-10.7-3.6-17.5-11.7-18.9-13.7c0.9-3,1.6-4.9,2.1-6.1c0.1,0.3,0.1,0.5,0.2,0.8c0.1,0.3,0.2,0.5,0.3,0.8c0.1,0.3,0.3,0.5,0.4,0.8
			c0.2,0.3,0.3,0.5,0.5,0.8c0.6,0.8,1.3,1.7,2.1,2.5c3.8,3.8,10.5,7.6,17,9.8c3,1,5.7,1.6,8.2,1.7c0.9,0.1,1.8,0.1,2.7,0
			c0.4,0,0.7-0.1,1.1-0.1c0.7-0.1,1.4-0.3,2-0.5c0.3-0.1,0.6-0.2,0.9-0.3c0.2-0.1,0.3-0.1,0.5-0.2c0.2-0.1,0.3-0.2,0.5-0.3
			c0,0,0,0,0.1,0c-0.2,0.4-0.4,0.9-0.6,1.3c0,0,0,0.1-0.1,0.1c0,0.1-0.1,0.1-0.1,0.2c0,0,0,0,0,0c0,0,0,0,0,0.1
			c-0.1,0.2-0.2,0.5-0.3,0.7c0,0.1-0.1,0.2-0.1,0.2C277.6,189.4,277.4,189.9,277.2,190.3z"/>
	</g>
	<path fill="none" stroke="#1C75BC" stroke-width="0.5" stroke-miterlimit="10" d="M256.5,189.4c0,0-0.9,8.2-10.3,22"/>
	<path fill="none" stroke="#1C75BC" stroke-width="0.5" stroke-miterlimit="10" d="M261.6,191.1c0,0-0.9,8.2-10.3,22"/>
	<circle fill="#1C75BC" cx="258.1" cy="194.5" r="0.9"/>
	<circle fill="#1C75BC" cx="253.2" cy="205.1" r="0.9"/>
	<circle fill="#1C75BC" cx="255.8" cy="199.7" r="0.9"/>
	<circle fill="#1C75BC" cx="250.5" cy="209.5" r="0.9"/>
	<path fill="#E0C3A4" d="M263.7,178.7c-0.2,0.6-0.6,0.9-0.9,0.8c-0.3-0.1-0.5-0.7-0.3-1.2c0.2-0.6,0.6-0.9,1-0.8
		C263.8,177.6,263.9,178.2,263.7,178.7z"/>
	<path fill="#FEE993" d="M284.2,115.9c-0.1,0-0.1-0.1-0.2-0.1c-1.4-1-1.7-2.1-1.4-3.2c0-0.1,0-0.1,0-0.2c0.1,1,0,1.7,1.2,3.1
		c0,0,0,0,0,0C283.9,115.7,284,115.8,284.2,115.9z"/>
	<path fill="#FEE993" d="M288.5,117.6l-0.2,0c-0.1,0-0.3-0.1-0.4-0.1C288.1,117.6,288.4,117.6,288.5,117.6z"/>
	<path fill="#FEE993" d="M291.7,111.5c0,0.7,0,1.4,0.1,2C291.6,112.7,291.6,112,291.7,111.5z"/>
	<path fill="#FEE993" d="M292.4,116.6c0-0.1-0.1-0.3-0.2-0.6C292.3,116.2,292.3,116.4,292.4,116.6z"/>
	<path fill="#FEE993" d="M292.4,116.7c0,0.1,0,0.1,0,0.2L292,117C292.1,116.9,292.3,116.8,292.4,116.7z"/>
	<path fill="#FEE993" d="M294.3,107.8c-1.2,0.1-2.2,0.8-2.5,2.6C292,108.9,292.7,107.8,294.3,107.8z"/>
	<path fill="#FEE993" d="M297.9,108.8c-1.5-0.8-2.7-1.1-3.6-1.1C295.7,107.6,297.1,108.2,297.9,108.8z"/>
	<path fill="#FEE993" d="M303.9,93.8c-3.3,0.3-6.3,1.7-8.7,3.5C298.3,94.9,301.2,94,303.9,93.8z"/>
	<path fill="#FEE993" d="M295.6,114.9l-0.5,0.3C295.2,115,295.4,114.9,295.6,114.9z"/>
	<path fill="#E4D1BA" d="M292.4,116.6c0-0.1-0.1-0.3-0.2-0.6C292.3,116.2,292.3,116.4,292.4,116.6z"/>
	<path fill="#E4D1BA" d="M292.8,116.8c-0.1,0.1-0.3,0.1-0.4,0.1c-0.1,0.3-0.7,0.6-1.6,0.6c0.2-0.1,0.5-0.2,0.7-0.4
		c0.2-0.1,0.3-0.2,0.5-0.3c0.1-0.1,0.3-0.2,0.4-0.2c0,0.1,0,0.1,0,0.2L292.8,116.8z"/>
	<path fill="#E4D1BA" d="M294.3,107.8c-1.2,0.1-2.2,0.8-2.5,2.6C292,108.9,292.7,107.8,294.3,107.8z"/>
	<path fill="#E4D1BA" d="M295.6,114.9l-0.5,0.3C295.2,115,295.4,114.9,295.6,114.9z"/>
	<path fill="#E4D1BA" d="M299.1,115.3c-0.7,1.6-3.9,3.8-4.9,0.6l0.9-0.6c0,0,0,0.1,0,0.1c-0.1,0.9,0.2,1.9,1.7,1.6
		C298.1,116.7,298.9,115.5,299.1,115.3z"/>
	<path fill="#E4D1BA" d="M312.1,109.4c0,0.1-0.1,0.4-0.3,0.8C311.8,109.8,311.9,109.5,312.1,109.4z"/>
	<path fill="#E4D1BA" d="M313.5,112.5c0,0.4-0.1,0.8-0.2,1.2C313.3,113,313.5,112.5,313.5,112.5z"/>
	<path fill="#E4D1BA" d="M314.6,116.6c-1-0.3-1.8-1.2-1.3-2.9c0,0.6,0,1.3,0.3,1.9C313.8,116.2,314.2,116.5,314.6,116.6z"/>
	<path fill="#E4D1BA" d="M320.5,119C320.5,119,320.5,119.1,320.5,119c-0.2,0-0.4-0.1-0.5-0.2C320.2,118.9,320.3,119,320.5,119z"/>
	<g>
		<path fill="#FEE993" d="M318.5,99.9c-5.4-4.9-10.4-6.4-14.6-6.1c-3.3,0.3-6.3,1.7-8.7,3.5c-0.1,0.1-0.3,0.2-0.4,0.3
			c-0.2,0.1-0.3,0.3-0.5,0.4c-2.6,2.2-5.2,5.4-7.8,10c0,0,0,0,0,0s-3.2,2-3.9,4.4c0.1,1,0,1.7,1.2,3.1c0,0,0,0,0,0
			c0.1,0.1,0.2,0.2,0.3,0.3c0,0,0,0,0.1,0.1c0.9,0.6,2.1,1.1,3.7,1.5c0.2,0,0.4,0.1,0.6,0.1l3.5-0.6c0.1-0.1,0.3-0.2,0.4-0.2
			c0,0,0-0.1,0-0.1c0-0.1-0.1-0.3-0.2-0.6c0-0.2-0.1-0.3-0.1-0.5c-0.1-0.3-0.1-0.5-0.2-0.8c0,0,0-0.1,0-0.1c0-0.1,0-0.2-0.1-0.4
			c-0.1-0.2-0.1-0.5-0.1-0.7c-0.1-0.8-0.1-1.4-0.1-2c0-0.2,0-0.5,0.1-0.7c0-0.1,0-0.3,0.1-0.4c0.2-1.4,0.9-2.6,2.5-2.6
			c1.3-0.1,2.8,0.5,3.6,1.1c0,0,1.2,1.1-1.4,4.3c0,0-3.3-0.8-2.3,2.7l0.9-0.6c0,0,0,0.1,0,0.1c-0.1,0.9,0.2,1.9,1.7,1.6
			c1.3-0.3,2.1-1.4,2.3-1.7c0,0,0-0.1,0-0.1c0.1-0.1,0.1-0.3,0.1-0.4c0,0,0-4.8,4.2-0.6c4.2,4.2,8.1-1.6,8.3-4c0,0,0,0,0,0
			c0-0.4,0.1-0.7,0.3-0.8c0.5-0.5,1.6,1.1,1.4,3.2c0,0.4-0.1,0.8-0.2,1.2c0,0,0,0,0,0c0,0.6,0,1.3,0.3,1.9c0.2,0.5,0.6,0.9,1,1
			c0.2,0,0.3,0.1,0.5,0.1c0.7,0.1,1.4-0.1,1.6-0.6c0.7-1.1,2.1-1.8,1.8-1c-0.1,0.4-0.3,0.7-0.4,1.1c0,0,0,0.1,0,0.1c0,0,0,0,0,0
			c-0.3,1.2,0.7,2.1,1.9,2.5c0,0,0,0,0,0c0.2,0.1,0.3,0.1,0.5,0.2c0.1,0,0.2,0.1,0.3,0.1c0.2,0,0.4,0,0.6,0c0.2,0,0.5,0,0.7-0.1l0,0
			c0,0,0,0,0,0c0.5-0.2,2-1.4,2.9-3.4c0,0,0,0,0,0c0.4-1.3,0.6-2.7,0.7-3.2c0-0.2,0-0.3,0-0.3C325.7,109,324,104.9,318.5,99.9z
			 M295.1,115.3c0.1-0.3,0.3-0.4,0.5-0.3L295.1,115.3z"/>
		<g>
			<path fill="#E7C67A" d="M318.5,99.9c-0.6-0.6-1.2-1.1-1.9-1.6c-0.7-0.5-1.3-1-2-1.4c-0.7-0.4-1.4-0.9-2.2-1.2
				c-0.7-0.4-1.5-0.7-2.3-1c-1.6-0.5-3.2-0.8-4.9-0.9c-1.7,0-3.3,0.2-4.9,0.8c-3.1,1-5.9,3-8.2,5.4c-2.3,2.4-4.1,5.2-5.7,8.1
				l-0.1,0.1c0.1,0,0.1-0.1,0.1-0.1l-0.1,0.1c-0.8,0.5-1.6,1.2-2.2,1.9c-0.7,0.7-1.3,1.5-1.5,2.4l0-0.1c0,0.6,0.1,1.1,0.3,1.6
				c0.2,0.5,0.5,1,0.9,1.4l0,0.1c0,0,0,0,0-0.1c0,0,0,0,0,0l0.1,0l0.1,0.1l0.1,0.1l0,0l0,0c0,0,0,0,0,0l0.1,0l0,0
				c0.6,0.4,1.3,0.7,2,1c0.4,0.1,0.7,0.3,1.1,0.4l0.3,0.1l0.3,0.1l0.6,0.1l-0.1,0l3.5-0.7l-0.1,0l0.4-0.2l-0.1,0.2l0-0.1l0,0l-0.3-1
				c-0.1-0.3-0.1-0.7-0.2-1l0,0c0-0.1,0-0.1,0-0.2l0,0l-0.1-0.4l0,0l-0.1-0.8l0,0c-0.1-0.5-0.1-0.9-0.1-1.4l0-0.3l0-0.4l0.1-0.7l0,0
				l0.1-0.4l0,0c0.1-0.7,0.3-1.3,0.8-1.9c0.4-0.6,1.2-0.9,1.9-0.9c0.3,0,0.7,0,1,0c0.3,0,0.7,0.1,1,0.2c0.6,0.2,1.3,0.5,1.8,0.9l0,0
				l0,0c0.1,0.1,0.2,0.2,0.2,0.3c0,0.1,0.1,0.2,0.1,0.3c0,0.2,0,0.5,0,0.7c0,0.4-0.2,0.8-0.4,1.2c-0.4,0.8-0.8,1.4-1.3,2.1l-0.1,0.1
				l-0.2,0c-0.3-0.1-0.7-0.1-1.1,0c-0.3,0.1-0.7,0.2-0.9,0.4c-0.1,0.1-0.1,0.1-0.1,0.2c0,0.1-0.1,0.1-0.1,0.2
				c-0.1,0.2,0,0.3-0.1,0.5c0,0.4,0.1,0.7,0.2,1.1l-0.3-0.1l0.9-0.6l0.4-0.3l-0.1,0.5l0,0.1l0,0c-0.1,0.4,0,0.9,0.3,1.2
				c0.3,0.3,0.7,0.3,1.2,0.2c0.2-0.1,0.4-0.1,0.6-0.2c0.2-0.1,0.4-0.2,0.6-0.4c0.4-0.3,0.7-0.6,0.9-1l0,0l0.1-0.1l0,0l0.1-0.4l0,0
				c0-0.4,0.1-0.8,0.2-1.2c0.1-0.4,0.3-0.8,0.6-1.1c0.3-0.3,0.8-0.3,1.2-0.3c0.2,0.1,0.4,0.1,0.6,0.2l0.5,0.3
				c0.3,0.2,0.6,0.4,0.9,0.7c0.3,0.3,0.5,0.5,0.8,0.8c0.3,0.2,0.6,0.5,0.9,0.7c0.3,0.2,0.6,0.3,1,0.4c0.2,0.1,0.3,0.1,0.5,0.1
				c0.2,0,0.4,0,0.5,0c0.4,0,0.7-0.1,1-0.2c0.3-0.2,0.7-0.3,0.9-0.5c0.3-0.2,0.6-0.5,0.8-0.7c0.2-0.3,0.5-0.5,0.7-0.8
				c0.2-0.3,0.4-0.6,0.6-0.9c0.2-0.3,0.3-0.7,0.5-1c0.1-0.3,0.2-0.7,0.3-1.1l0,0l0,0l0,0l0,0c0-0.3,0.1-0.5,0.2-0.8
				c0,0,0-0.1,0.1-0.1c0,0,0,0,0.1-0.1l0,0c0,0,0.2-0.1,0.3-0.1c0.2,0,0.3,0.1,0.4,0.2c0.4,0.4,0.6,0.9,0.7,1.4c0.3,1,0.3,2,0,3l0,0
				l0,0l0,0l0,0c0,0.6,0,1.3,0.3,1.8c0.1,0.3,0.3,0.5,0.6,0.7c0.1,0.1,0.3,0.2,0.4,0.2l0.5,0.1l0,0c0.4,0,0.9,0,1.3-0.3
				c0.2-0.1,0.3-0.3,0.4-0.5c0.1-0.2,0.3-0.4,0.5-0.5c0.2-0.2,0.4-0.3,0.6-0.4c0.1-0.1,0.2-0.1,0.3-0.1c0.1,0,0.4,0,0.4,0.2
				c0,0.2,0,0.3-0.1,0.4l-0.1,0.3l-0.2,0.7l0,0c0,0,0,0,0,0.1l0,0c-0.1,0.3-0.1,0.5,0,0.8c0.1,0.3,0.2,0.5,0.4,0.7
				c0.4,0.4,0.9,0.7,1.4,0.9l0,0c0,0,0.1,0,0.1,0c0,0,0,0,0,0l0,0l0.5,0.2l0,0l0.2,0.1c0.1,0,0.1,0,0.2,0l0.5,0l0,0l0.7-0.1l0,0l0,0
				l0,0c-0.1,0,0,0,0,0l0,0l0,0l0,0l0,0c0.3-0.1,0.6-0.4,0.9-0.6c0.3-0.2,0.5-0.5,0.8-0.8c0.5-0.6,0.9-1.2,1.2-1.9l0,0l0,0l0,0
				c0.4-1.1,0.6-2.3,0.7-3.5l0,0c-0.1-2.4-1.1-4.7-2.4-6.7C322,103.3,320.3,101.6,318.5,99.9z M318.5,99.9c1.8,1.6,3.5,3.4,4.8,5.4
				c1.3,2,2.4,4.3,2.5,6.8l0,0l0,0c-0.1,1.2-0.3,2.4-0.7,3.5l0,0l0,0l0,0c-0.3,0.7-0.7,1.4-1.2,1.9c-0.2,0.3-0.5,0.6-0.8,0.8
				c-0.3,0.2-0.6,0.5-0.9,0.7l0,0l0,0l0,0c0,0,0,0,0,0l0,0l0,0l0,0l-0.7,0.1l0,0l0,0l-0.5,0c-0.1,0-0.2,0-0.2,0l-0.2-0.1l0,0
				L320,119l0,0c0,0-0.1,0-0.1,0c0,0,0,0,0,0l0,0c-0.5-0.2-1.1-0.5-1.5-0.9c-0.2-0.2-0.4-0.5-0.5-0.8c-0.1-0.3-0.1-0.6,0-0.9l0,0
				c0-0.1,0-0.1,0-0.2l0,0l0.2-0.7c0.1-0.2,0.2-0.5,0.2-0.6c0-0.1-0.3,0-0.5,0.1c-0.2,0.1-0.4,0.3-0.5,0.4c-0.2,0.2-0.3,0.3-0.4,0.5
				c-0.1,0.2-0.2,0.4-0.5,0.6c-0.4,0.3-0.9,0.3-1.4,0.3l0,0l0,0l-0.2,0c-0.1,0-0.1,0-0.3-0.1c-0.2-0.1-0.3-0.1-0.5-0.2
				c-0.3-0.2-0.5-0.5-0.6-0.8c-0.3-0.6-0.3-1.3-0.3-2l0,0l0,0l0,0l0,0c0.3-0.9,0.3-2,0-2.9c-0.1-0.5-0.3-0.9-0.7-1.2
				c-0.1-0.1-0.2-0.1-0.2-0.1c0,0,0,0-0.1,0l0,0c0,0,0,0,0,0c0,0,0,0,0,0.1c-0.1,0.2-0.1,0.4-0.2,0.6l0,0l0,0l0,0l0,0
				c0,0.4-0.1,0.8-0.3,1.1c-0.1,0.4-0.3,0.7-0.5,1c-0.2,0.3-0.4,0.7-0.6,1c-0.2,0.3-0.5,0.6-0.7,0.9c-0.3,0.3-0.6,0.5-0.9,0.7
				c-0.3,0.2-0.7,0.4-1,0.6c-0.4,0.1-0.7,0.2-1.1,0.3c-0.2,0-0.4,0-0.6,0c-0.2,0-0.4,0-0.6-0.1c-0.4-0.1-0.7-0.2-1.1-0.5
				c-0.4-0.2-0.6-0.4-0.9-0.7c-0.3-0.2-0.6-0.5-0.8-0.8c-0.3-0.3-0.6-0.5-0.9-0.7l-0.5-0.3c-0.2-0.1-0.3-0.1-0.5-0.2
				c-0.3-0.1-0.6,0-0.9,0.2c-0.2,0.2-0.4,0.5-0.5,0.9c-0.1,0.3-0.1,0.7-0.2,1.1l0,0l0,0l-0.1,0.5l0,0l0,0l0,0
				c-0.3,0.4-0.6,0.8-1,1.1c-0.2,0.2-0.4,0.3-0.6,0.4c-0.2,0.1-0.5,0.2-0.7,0.3c-0.3,0.1-0.5,0.1-0.8,0.1c-0.3,0-0.6-0.1-0.8-0.3
				c-0.4-0.4-0.5-1.1-0.4-1.6l0,0l0,0l0-0.1l0.3,0.3l-0.9,0.6l-0.3,0.2l-0.1-0.3c-0.1-0.4-0.2-0.8-0.2-1.2c0-0.2,0-0.4,0.1-0.6
				c0-0.1,0.1-0.2,0.1-0.3c0.1-0.1,0.1-0.2,0.2-0.3c0.3-0.4,0.7-0.5,1.2-0.6c0.4-0.1,0.8-0.1,1.3,0l-0.2,0.1c0.5-0.6,0.9-1.3,1.3-2
				c0.2-0.3,0.3-0.7,0.3-1.1c0-0.2,0-0.4,0-0.5c0-0.1,0-0.2-0.1-0.2c0-0.1-0.1-0.2-0.1-0.2l0,0c-0.5-0.4-1.1-0.7-1.7-0.8
				c-0.3-0.1-0.6-0.2-0.9-0.2c-0.3,0-0.6,0-0.9,0c-0.6,0-1.2,0.3-1.6,0.7c-0.4,0.5-0.6,1.1-0.7,1.7l0,0l-0.1,0.3l0,0l-0.1,0.7l0,0.3
				l0,0.3c0,0.4,0,0.9,0.1,1.3l0,0l0.1,0.7l0,0l0,0.3l0,0c0,0,0,0,0,0.1l0,0c0.1,0.3,0.1,0.7,0.2,1l0.2,1l0,0l0,0.1l0,0.1l-0.1,0.1
				l-0.4,0.2l0,0l0,0l-3.5,0.6l0,0l0,0l-0.6-0.1c-0.1,0-0.2-0.1-0.3-0.1l-0.3-0.1c-0.4-0.1-0.7-0.2-1.1-0.4c-0.7-0.3-1.4-0.6-2.1-1
				l0,0l-0.1,0l0,0l0,0l0,0l-0.1-0.1l-0.1-0.1l-0.1,0c0,0,0,0-0.1-0.1c0,0,0-0.1-0.1-0.1l0,0.1c-0.4-0.5-0.7-0.9-0.9-1.5
				c-0.2-0.6-0.3-1.2-0.3-1.7l0,0l0,0c0.3-1,0.9-1.8,1.6-2.5c0.7-0.7,1.5-1.4,2.3-1.9l-0.1,0.1c0-0.1,0.1-0.2,0.1-0.2l-0.1,0.1
				c1.6-2.9,3.5-5.7,5.8-8.1c2.3-2.4,5.1-4.4,8.3-5.4c1.6-0.5,3.2-0.8,4.9-0.7c1.7,0,3.3,0.3,4.9,0.9c0.8,0.3,1.5,0.6,2.3,1
				c0.7,0.4,1.5,0.8,2.2,1.2c0.7,0.5,1.4,0.9,2,1.5C317.3,98.8,317.9,99.4,318.5,99.9z"/>
			<path fill="#E7C67A" d="M295.1,115.3c-0.1-0.1-0.1-0.3,0.1-0.4c0.1-0.1,0.3-0.2,0.5-0.1l0.7,0.1l-0.6,0.3
				C295.6,115.2,295.4,115.3,295.1,115.3z M295.1,115.3c0.1-0.3,0.2-0.4,0.4-0.5l0.1,0.5c-0.1,0-0.1,0-0.2,0
				C295.3,115.1,295.3,115.2,295.1,115.3z"/>
		</g>
	</g>
	<g>
		<path fill="#FEE993" d="M288,117.5c-0.7-0.1-1.5-0.3-2.2-0.6c-0.7-0.3-1.3-0.7-1.8-1.1c0-0.1-0.1-0.1-0.2-0.2
			c0.1,0.1,0.2,0.2,0.3,0.3c0,0,0,0,0.1,0.1C285.1,116.5,286.3,117.1,288,117.5z"/>
		<path fill="#E7C67A" d="M288,117.5c-0.8-0.1-1.5-0.2-2.3-0.5c-0.4-0.1-0.7-0.3-1.1-0.5c-0.2-0.1-0.3-0.2-0.5-0.3
			c-0.1-0.1-0.2-0.1-0.2-0.2l-0.2-0.2l0,0l0.4-0.4l0.2,0.2l0.1,0.1l0,0l0,0c0,0,0,0,0,0l0,0l0.1,0l0,0
			C285.4,116.6,286.7,117.1,288,117.5z M288,117.5c-1.3-0.3-2.6-0.7-3.8-1.4l0,0l-0.1,0l0,0l0,0l-0.1-0.1l-0.2-0.2l0.4-0.4l0,0
			l0.2,0.2c0.1,0.1,0.1,0.1,0.2,0.2c0.1,0.1,0.3,0.2,0.4,0.4c0.3,0.2,0.6,0.4,1,0.6C286.5,117.1,287.2,117.4,288,117.5z"/>
	</g>
	<g>
		<path fill="#FEE993" d="M294.2,98c-2.6,2.2-5.2,5.4-7.8,10c0,0,0,0,0,0s-3.2,2-3.9,4.4l0-0.2c-0.1-1.6,1.1-2.9,2.2-3.8
			c0,0,0.1-0.1,0.2-0.1c0.1-0.1,0.2-0.1,0.2-0.2c0.7-0.5,1.2-0.8,1.2-0.8S289.3,102,294.2,98z"/>
		<path fill="#E7C67A" d="M294.2,98c-1.6,1.4-3,3-4.3,4.7c-1.2,1.7-2.3,3.5-3.3,5.4l-0.2,0.1c0,0,0.1,0,0.1-0.1c0,0,0-0.1,0-0.1
			l-0.1,0.2c-0.8,0.6-1.6,1.2-2.2,1.9c-0.7,0.7-1.2,1.5-1.5,2.4l-0.4,1.3l-0.1-1.3c0-0.1,0-0.2,0-0.3c0-0.1,0-0.2,0-0.3
			c0-0.2,0.1-0.4,0.1-0.6c0.1-0.4,0.3-0.8,0.5-1.1c0.5-0.7,1-1.3,1.7-1.8l0,0l0.1-0.1l0.1,0l0.1-0.1l0.2-0.1l0,0
			c0.4-0.3,0.8-0.6,1.3-0.8l-0.1,0.1c1-1.8,2.3-3.4,3.6-5c0.7-0.8,1.4-1.5,2.1-2.2C292.7,99.3,293.4,98.7,294.2,98z M294.2,98
			c-1.6,1.3-3,2.7-4.3,4.4c-1.3,1.6-2.4,3.3-3.4,5.1l0,0l-0.1,0c-0.4,0.2-0.8,0.5-1.2,0.8l0,0l0,0l-0.2,0.1l0,0c0,0,0,0,0,0l0,0l0,0
			l-0.1,0.1l0,0c-0.6,0.5-1.1,1-1.6,1.7c-0.2,0.3-0.4,0.7-0.5,1c0,0.2-0.1,0.4-0.1,0.5c0,0.1,0,0.2,0,0.3l0,0.3l-0.5-0.1
			c0.3-1,1-1.8,1.7-2.6c0.7-0.7,1.5-1.4,2.3-1.9l-0.1,0.2c0-0.1,0-0.1,0-0.1c0-0.1,0.1-0.1,0.1-0.1l-0.2,0.1
			c1.1-1.8,2.2-3.6,3.6-5.3C291.2,101,292.6,99.4,294.2,98z"/>
	</g>
	<g>
		<path fill="#FEE993" d="M292.4,116.7c0,0.1,0,0.1,0,0.2c0,0,0,0.1,0,0.1c-0.1,0.3-0.7,0.6-1.6,0.6c-0.5,0.1-1,0.1-1.6,0
			c0,0,0,0-0.1,0c-0.2,0-0.4,0-0.6,0l3.5-0.6C292.1,116.9,292.3,116.8,292.4,116.7z"/>
		<path fill="#E7C67A" d="M292.4,116.7c0,0,0,0.1,0,0.2l0,0c0,0,0,0.1,0,0.1l0,0c-0.1,0.3-0.4,0.5-0.7,0.6c-0.3,0.1-0.6,0.2-0.9,0.2
			c-0.1,0-0.2,0-0.2,0l-0.2,0l-0.4,0l-0.8,0l0,0c-0.1,0-0.1,0-0.2,0l0.1,0l-0.6,0l-2.1-0.1l2.1-0.4c0.6-0.1,1.2-0.2,1.7-0.3
			c0.6-0.1,1.2-0.1,1.8-0.2l0,0C292.1,116.8,292.3,116.8,292.4,116.7z M292.4,116.7c-0.1,0.1-0.3,0.2-0.4,0.3l0,0l0,0
			c-0.6,0.2-1.1,0.3-1.7,0.5c-0.6,0.1-1.1,0.3-1.7,0.4l0-0.5l0.5,0l0.1,0c0,0,0,0,0,0l0,0l0.9,0l0.4,0l0.2,0c0.1,0,0.1,0,0.2,0
			c0.3,0,0.6,0,0.8-0.1c0.3-0.1,0.5-0.1,0.7-0.4l0,0c0,0,0,0,0,0l0,0l0,0C292.4,116.8,292.4,116.8,292.4,116.7z"/>
	</g>
	<g>
		<path fill="#FEE993" d="M292.4,116.6c0-0.1-0.1-0.3-0.2-0.6C292.3,116.2,292.3,116.4,292.4,116.6z"/>
		<path fill="#E7C67A" d="M292.4,116.6c-0.1-0.1-0.2-0.2-0.3-0.3c-0.1-0.1-0.1-0.2-0.1-0.3l0.5-0.1c0,0.1,0,0.2,0,0.3
			C292.5,116.4,292.5,116.5,292.4,116.6z M292.4,116.6c-0.1-0.1-0.2-0.2-0.3-0.3c-0.1-0.1-0.1-0.2-0.1-0.3l0.5-0.1
			c0,0.1,0,0.2,0,0.3C292.5,116.4,292.5,116.5,292.4,116.6z"/>
	</g>
	<g>
		<path fill="#FEE993" d="M294.3,107.8c-1.2,0.1-2.2,0.8-2.5,2.6C292,108.9,292.7,107.8,294.3,107.8z"/>
		<path fill="#E7C67A" d="M294.3,107.8c-0.6,0.2-1.2,0.5-1.6,1c-0.4,0.5-0.6,1.1-0.7,1.7l-0.5-0.1c0.1-0.7,0.3-1.4,0.9-1.9
			c0.3-0.3,0.6-0.5,0.9-0.6C293.6,107.7,294,107.7,294.3,107.8z M294.3,107.8c-0.7,0.1-1.3,0.4-1.6,0.9c-0.4,0.5-0.6,1.1-0.7,1.8
			l-0.5-0.1c0.1-0.7,0.4-1.4,0.9-1.9C292.9,108,293.7,107.7,294.3,107.8z"/>
	</g>
	<g>
		<path fill="#FEE993" d="M295.6,114.9l-0.5,0.3C295.2,115,295.4,114.9,295.6,114.9z"/>
		<path fill="#E7C67A" d="M295.6,114.9c-0.1,0.3-0.2,0.4-0.4,0.5l-0.5,0.4l0.1-0.6c0-0.1,0.1-0.3,0.3-0.4
			C295.4,114.8,295.5,114.8,295.6,114.9z M295.6,114.9c-0.1,0.1-0.2,0.2-0.2,0.2c0,0.1,0,0.1,0,0.2l-0.4-0.3
			C295.2,115,295.4,114.9,295.6,114.9z"/>
	</g>
	<g>
		<path fill="#FEE993" d="M299.1,115.3c-0.7,1.6-3.9,3.8-4.9,0.6l0.9-0.6c0,0,0,0.1,0,0.1c-0.1,0.9,0.2,1.9,1.7,1.6
			C298.1,116.7,298.9,115.5,299.1,115.3z"/>
		<path fill="#E7C67A" d="M299.1,115.3c-0.2,0.5-0.5,1-0.9,1.4c-0.4,0.4-0.9,0.7-1.4,0.9c-0.1,0-0.3,0.1-0.4,0.1
			c-0.1,0-0.3,0.1-0.5,0c-0.2,0-0.3,0-0.5-0.1c-0.2,0-0.3-0.1-0.4-0.2c-0.1-0.1-0.2-0.2-0.4-0.3c-0.1-0.1-0.2-0.2-0.3-0.4
			c-0.2-0.3-0.2-0.5-0.4-0.8l-0.1-0.2l0.2-0.1l0.9-0.6l0.4-0.3l-0.1,0.6l0,0.1l0,0c-0.1,0.4,0,0.9,0.2,1.2c0.3,0.3,0.7,0.3,1.2,0.2
			c0.2,0,0.4-0.1,0.7-0.2c0.2-0.1,0.4-0.2,0.6-0.3C298.4,116,298.8,115.6,299.1,115.3z M299.1,115.3c-0.2,0.4-0.6,0.8-0.9,1.1
			c-0.2,0.2-0.4,0.3-0.6,0.4c-0.2,0.1-0.5,0.2-0.7,0.3c-0.3,0.1-0.5,0.1-0.8,0.1c-0.3,0-0.6-0.1-0.8-0.3c-0.4-0.4-0.5-1.1-0.4-1.6
			l0,0l0,0l0-0.2l0.4,0.3l-0.9,0.6l0.1-0.3c0.1,0.2,0.2,0.5,0.3,0.7c0.1,0.1,0.1,0.2,0.2,0.3c0.1,0.1,0.2,0.2,0.3,0.2
			c0.1,0.1,0.2,0.1,0.3,0.2c0.1,0.1,0.2,0.1,0.3,0.1c0.1,0,0.2,0,0.4,0c0.1,0,0.2,0,0.4-0.1c0.5-0.1,1-0.4,1.4-0.7
			C298.5,116.1,298.8,115.7,299.1,115.3z"/>
	</g>
	<g>
		<path fill="#FEE993" d="M314.6,116.6c-1-0.3-1.8-1.2-1.3-2.9c0,0.6,0,1.3,0.3,1.9C313.8,116.2,314.2,116.5,314.6,116.6z"/>
		<path fill="#E7C67A" d="M314.6,116.6c-0.3,0-0.6-0.1-0.9-0.3c-0.3-0.2-0.5-0.4-0.6-0.7c-0.3-0.6-0.2-1.3-0.1-1.9l0.5,0.1
			c0,0.5,0,1.1,0.1,1.6C313.8,115.9,314.1,116.3,314.6,116.6z M314.6,116.6c-0.3,0-0.6-0.2-0.8-0.4c-0.2-0.2-0.4-0.5-0.5-0.8
			c-0.3-0.6-0.3-1.2-0.3-1.8l0.5,0.1c-0.1,0.5-0.2,1.1,0,1.6C313.7,115.9,314.1,116.4,314.6,116.6z"/>
	</g>
	<g>
		<path fill="#FEE993" d="M322.1,119.1c-0.2,0.1-0.4,0.1-0.7,0.1C321.7,119.1,321.9,119.1,322.1,119.1z"/>
		<path fill="#E7C67A" d="M322.1,119.1c-0.2,0.2-0.4,0.3-0.7,0.3h0l-1.3-0.8l1.3,0.3L322.1,119.1z M322.1,119.1l-0.7,0.3l0-0.5l0,0
			C321.7,119,321.9,119.1,322.1,119.1z"/>
	</g>
	<g>
		<path fill="#FEE993" d="M325.8,112.4c0,1.3-0.2,2.3-0.7,3.2C325.6,114.3,325.7,113,325.8,112.4z"/>
		<path fill="#E7C67A" d="M325.8,112.4c0.1,1.1,0,2.3-0.4,3.3l0,0l-0.5-0.2C325.3,114.6,325.6,113.5,325.8,112.4z M325.8,112.4
			c0,1.1-0.2,2.2-0.4,3.3l-0.5-0.2l0,0C325.4,114.6,325.7,113.5,325.8,112.4z"/>
	</g>
	<g>
		<path fill="#E7C67A" d="M295.6,114.9c0,0,0.1-0.1,0.4,0c0.2,0,0.5,0.2,0.7,0.4c0,0.1,0.1,0.1,0.1,0.3c0,0,0,0.2-0.1,0.3
			c-0.1,0.2-0.3,0.2-0.4,0.2c-0.2,0-0.4-0.1-0.4-0.1s0.1-0.1,0.3-0.2c0.1,0,0.1-0.1,0.1-0.1c0,0,0,0,0-0.1c0,0,0,0,0-0.1
			C296.1,115.3,295.6,114.9,295.6,114.9z"/>
	</g>
	<g>
		<path fill="#E7C67A" d="M314.8,115.2c0,0,0-0.1,0-0.2c0-0.1,0-0.4,0.2-0.6c0.1-0.1,0.2-0.2,0.5-0.2c0.2,0,0.4,0.1,0.5,0.2
			c0.3,0.2,0.5,0.4,0.7,0.7c0.1,0.2,0.2,0.3,0.2,0.5c0,0.2,0,0.4-0.1,0.6c-0.3,0.3-0.6,0.4-0.8,0.5c-0.5,0.1-0.8,0-0.8,0
			s0.3,0,0.7-0.3c0.1,0,0.2-0.1,0.3-0.2c0.1-0.1,0.2-0.2,0.2-0.2c0.1-0.2,0-0.4-0.1-0.7c-0.1-0.2-0.3-0.5-0.5-0.6
			c-0.1-0.1-0.2-0.2-0.3-0.2c-0.1,0-0.1,0-0.2,0.1C314.9,114.9,314.8,115.2,314.8,115.2z"/>
	</g>
	<g>
		<path fill="#E7C67A" d="M312.1,109.4c0,0-0.2,0-0.5,0C311.8,109.4,312.1,109.4,312.1,109.4c0,0,0.2,0,0.5,0
			C312.3,109.3,312.1,109.4,312.1,109.4z"/>
	</g>
	<g>
		<path fill="#E7C67A" d="M305.7,113.2c0,0,0.1,0,0.2,0c0.1,0,0.3-0.1,0.6-0.2c0.2-0.1,0.4-0.3,0.3-0.6c0-0.1,0-0.1-0.1-0.2
			c-0.1-0.1-0.1-0.1-0.1-0.2c-0.1-0.1-0.3-0.3-0.4-0.4c-0.3-0.2-0.8-0.4-1.2-0.4c-0.4,0-0.6,0.2-0.7,0.6c-0.1,0.5,0,1.1,0.1,1.6
			c0.1,0.5,0.4,1,0.7,1.2c0.4,0.3,0.9,0.4,1.4,0.4c0.5,0,1.1-0.1,1.6-0.3c0.4-0.2,0.9-0.5,1.2-0.8c0.4-0.3,0.7-0.7,1-1
			c0.5-0.7,0.9-1.4,1.2-1.8c0.2-0.5,0.4-0.7,0.4-0.7s-0.1,0.3-0.2,0.8c-0.2,0.5-0.4,1.3-0.9,2.1c-0.5,0.8-1.2,1.8-2.3,2.3
			c-0.6,0.3-1.2,0.4-1.9,0.4c-0.7,0-1.4-0.1-2-0.5c-0.6-0.5-1-1.2-1.1-1.8c-0.1-0.7-0.1-1.3,0-1.9c0.1-0.3,0.2-0.7,0.6-1
			c0.3-0.3,0.7-0.3,1-0.2c0.6,0.1,1.1,0.4,1.5,0.7c0.2,0.2,0.4,0.3,0.5,0.5c0.1,0.1,0.1,0.2,0.2,0.3c0,0.1,0.1,0.2,0.1,0.3
			c0,0.2,0,0.4-0.2,0.6c-0.1,0.1-0.3,0.2-0.4,0.3c-0.3,0.1-0.5,0.1-0.6,0.1C305.8,113.2,305.7,113.2,305.7,113.2z"/>
	</g>
	<g>
		<path fill="#E7C67A" d="M320.9,119.1c0,0-0.1,0.2-0.2,0.2c-0.1,0-0.1-0.3-0.1-0.3c0,0,0.1-0.2,0.2-0.2
			C320.8,118.8,320.9,119.1,320.9,119.1z"/>
	</g>
	<g>
		<path fill="#E7C67A" d="M325.1,115.7c0,0,0,0.3-0.1,0.7c-0.1,0.4-0.3,1-0.7,1.5c-0.4,0.5-0.9,0.9-1.3,1c-0.4,0.2-0.7,0.1-0.7,0.1
			s0.1,0,0.2-0.1c0.1-0.1,0.3-0.2,0.4-0.3c0.3-0.2,0.7-0.6,1-1.1c0.3-0.4,0.6-0.9,0.8-1.3C324.9,115.9,325.1,115.7,325.1,115.7z"/>
	</g>
	<g>
		<path fill="#E7C67A" d="M320,118.9c-0.7-0.3-1.4-0.9-1.7-1.6c-0.1-0.4-0.2-0.8-0.1-1.2c0-0.2,0.1-0.4,0.2-0.6
			c0.1-0.1,0.1-0.2,0.2-0.3l0.2-0.2l0,0l0.1-0.1c0,0,0,0,0,0l0,0l0,0l0.1,0l0,0l0.6-0.3l0,0c0.1,0,0.2-0.1,0.3-0.1l-0.1,0
			c0.4-0.2,1.1-0.2,1.5,0.1c0.1,0.1,0.2,0.2,0.3,0.3c0.1,0.1,0.2,0.2,0.2,0.3c0.1,0.2,0.2,0.5,0.2,0.7l0,0l0,0l0,0l0,0
			c0,0.2,0,0.4-0.1,0.6c-0.1,0.2-0.3,0.3-0.4,0.4c-0.3,0.2-0.7,0.3-1.1,0.3c0.3-0.1,0.7-0.2,1-0.4c0.1-0.1,0.2-0.2,0.3-0.4
			c0.1-0.1,0.1-0.3,0-0.4l0,0l0,0l0,0l0,0c-0.1-0.2-0.1-0.4-0.2-0.6c-0.1-0.1-0.1-0.2-0.2-0.2c-0.1-0.1-0.1-0.1-0.2-0.2
			c-0.3-0.2-0.7-0.2-1.1,0l-0.1,0c0,0,0,0,0,0l0,0l0,0c-0.2,0.1-0.3,0.2-0.5,0.3l0,0l-0.1,0l0,0l0,0l-0.1,0.1l0,0l-0.2,0.2
			c0,0-0.1,0.1-0.1,0.2c-0.1,0.1-0.1,0.3-0.2,0.5c0,0.2,0,0.3,0,0.5c0,0.2,0,0.3,0.1,0.5C318.8,117.8,319.3,118.5,320,118.9z"/>
	</g>
	<g>
		<path fill="#E7C67A" d="M285.7,112.5c0.4,0.2,0.8,0.4,1.1,0.5c0.2,0.1,0.4,0.1,0.6,0c0.2,0,0.3-0.1,0.4-0.2
			c0.1-0.1,0.2-0.3,0.3-0.4c0.1-0.2,0.1-0.3,0.1-0.5c0-0.4-0.1-0.8-0.2-1.1c-0.1-0.4-0.3-0.7-0.5-1.1c-0.2-0.3-0.4-0.6-0.7-0.9
			c-0.1-0.1-0.3-0.2-0.4-0.3c-0.1-0.1-0.3-0.1-0.4-0.1c-0.1,0-0.3,0-0.4,0.1c0,0-0.1,0.1-0.1,0l-0.1,0.1l-0.1,0l0,0l0,0l0,0l0,0
			c0,0-0.1,0.1,0.1-0.1l0,0l-0.1,0.1l0,0l0,0L285,109l-0.2,0.2l-0.4,0.4c-0.2,0.3-0.5,0.6-0.6,0.9c-0.4,0.6-0.7,1.2-0.8,1.9l0,0
			c0,0.1,0,0.1,0,0.2l0,0c-0.1,0.5,0,1,0.1,1.5c0.2,0.5,0.5,1,0.8,1.4c-0.5-0.3-0.8-0.8-1.1-1.3c-0.3-0.5-0.4-1.1-0.4-1.7l0,0
			c0-0.1,0-0.3,0-0.4l0,0c0.1-0.8,0.4-1.6,0.8-2.3c0.2-0.3,0.4-0.7,0.7-1c0.1-0.2,0.2-0.3,0.4-0.5l0.2-0.2l0.2-0.2l0,0l0.1-0.1
			l0.1-0.1l0.1,0l0.1-0.1c0.1-0.1,0.1-0.1,0.2-0.1c0.2-0.1,0.5-0.2,0.8-0.2c0.3,0,0.6,0,0.8,0.2c0.3,0.1,0.5,0.3,0.7,0.4
			c0.4,0.3,0.7,0.7,0.9,1.1c0.2,0.4,0.4,0.8,0.5,1.3c0.1,0.5,0.1,0.9,0.1,1.4c0,0.2-0.1,0.6-0.2,0.7c-0.1,0.3-0.3,0.4-0.5,0.6
			c-0.5,0.3-1,0.3-1.4,0.1C286.3,113.1,286,112.8,285.7,112.5z"/>
	</g>
	<g>
		<path fill="#E7C67A" d="M284.2,116c0.4,0.2,0.8,0.3,1.2,0.5c0.2,0.1,0.4,0.1,0.6,0.2c0.1,0,0.1,0,0.1,0l0.2,0l0.3,0.1
			c0.4,0.1,0.8,0.2,1.2,0.2l0.3,0c0.1,0,0.2,0,0.3,0l0.7,0l0.2,0c0,0-0.1,0-0.1,0l0.1,0h0.1l0.3,0l0.6,0c0.4,0,0.8-0.1,1.2-0.1l0,0
			c0.3,0,0.6-0.1,0.9-0.1c-0.3,0.2-0.5,0.3-0.8,0.5l0,0c-0.4,0.2-0.8,0.3-1.2,0.5c-0.2,0.1-0.4,0.1-0.6,0.1l-0.3,0.1l-0.2,0l-0.1,0
			c-0.1,0-0.2,0-0.3,0l0.2,0l-0.7,0c-0.3,0-0.5,0-0.7-0.1c-0.5-0.1-0.9-0.2-1.4-0.4c-0.1,0-0.2-0.1-0.3-0.2l-0.1-0.1
			c0,0-0.1-0.1-0.2-0.1c-0.2-0.1-0.4-0.2-0.6-0.4C284.8,116.7,284.5,116.4,284.2,116z"/>
	</g>
	<g>
		<path fill="#FED4A6" stroke="#D8AE88" stroke-miterlimit="10" d="M346.9,184.4l-0.4,0.6L346.9,184.4L346.9,184.4z"/>
		<path fill="#FED4A6" stroke="#D8AE88" stroke-miterlimit="10" d="M363.1,190.6c-0.6,0.4-1.7,0.6-3.5-0.5c-2.7-1.7-6.3-1-7.6-0.6
			c0.4,0.1,1.1,0.2,2.1,0.6c1.7,0.6,2,1.7,2,2.6c-0.1,0.7-0.8,1.1-1.4,0.8c-1.8-0.9-4.4-1.1-4.4-1.1c-6-0.4-6.6-3.9-6.6-3.9l2.8-3.6
			l0.4-0.6c1.9,0.4,8.7,0.6,9.9,0.6c0.1,0,0.2,0,0.3,0.1l3.1,1.2c0.1,0,0.2,0.1,0.3,0.2l2.7,2.6
			C363.7,189.5,363.6,190.3,363.1,190.6z"/>
		<path fill="#FED4A6" stroke="#D8AE88" stroke-miterlimit="10" d="M329.9,172.8c-3.7-2.3-7.1-5.1-10-8.4l-21.4-24.2l-4.8-4.8
			c2.6-1,5.9-2.3,5.9-2.3c2.8,3.1,5.9,4.6,7.7,5.2c0.9,0.3,1.8-0.1,2.2-0.9l1.2-2.6c1.6-1.1,4.4-4.9,4.4-4.9l2.9,0.7
			c0.6,0.2,1.3-0.3,1.4-0.9c0.3-1.9,0.2-4.2,0.1-6c-0.1-1.9-0.3-3.2-0.3-3.2c0.5-0.4,1-0.8,1.5-1.2c-0.2,0-0.3-0.1-0.5-0.2
			c0,0,0,0,0,0c-1.2-0.4-2.2-1.3-1.9-2.5c0,0,0,0,0,0c0,0,0-0.1,0-0.1c0.1-0.3,0.2-0.7,0.4-1.1c0.3-0.9-1.1-0.2-1.8,1
			c-0.2,0.4-0.9,0.6-1.6,0.6c-0.2,0-0.3,0-0.5-0.1c-1-0.3-1.8-1.2-1.3-2.9c0,0,0,0,0,0c0-0.7,0.2-1.2,0.2-1.2
			c0.1-2.1-0.9-3.6-1.5-3.2c0,0.1-0.1,0.4-0.3,0.8c0,0,0,0,0,0c-0.2,2.3-4.1,8.2-8.3,4c-4.2-4.2-4.2,0.6-4.2,0.6
			c0,0.1-0.1,0.3-0.1,0.4c0,0,0,0,0,0.1c-0.7,1.6-3.9,3.8-4.9,0.6c-1-3.5,2.3-2.7,2.3-2.7c2.6-3.2,1.4-4.3,1.4-4.3
			c-1.5-0.8-2.7-1.1-3.6-1.1c-1.1,0.1-2.2,0.8-2.5,2.6c0,0.1-0.1,0.2-0.1,0.4c0,0.2,0,0.5,0,0.7c0,0.7,0,1.4,0.1,2
			c0,0.2,0,0.5,0.1,0.7c0,0.1,0,0.2,0.1,0.3c0,0,0,0.1,0,0.1c0,0.3,0.1,0.5,0.2,0.8c0,0.2,0.1,0.3,0.1,0.5c0,0.2,0.1,0.4,0.2,0.6
			c0,0,0,0.1,0,0.1c0,0.1,0,0.1,0,0.2l0.4-0.1c-0.1,0.1-0.3,0.1-0.4,0.2c-0.1,0.3-0.7,0.5-1.6,0.6c-6.2,3-11.6,1.5-15.3-0.6
			c0,0,0,0,0,0l-4.4-4.5l-23.5-12.1c-6.9-3.5-12.9-8.6-17.7-14.7l-16.2-18.9c-0.8-1.8-2.1-8.5-2.3-9.6c0-0.1-0.1-0.2-0.1-0.3
			l-1.7-2.8c-0.1-0.1-0.2-0.2-0.2-0.3l-3-2.2c-0.5-0.4-1.2-0.2-1.5,0.4c-0.3,0.7-0.3,1.8,1.1,3.4c2.1,2.4,2,6,1.9,7.4
			c-0.1-0.4-0.4-1-1-2c-0.9-1.6-2-1.7-2.9-1.5c-0.6,0.2-1,0.9-0.6,1.5c1.2,1.6,1.8,4.1,1.8,4.1c1.3,5.5,4.5,5.8,4.9,5.8l15.4,23.6
			c3.6,5.5,8.2,10.3,13.6,14.2l22.9,16.3c0,0-14.4,22.5-17.8,44.1c-0.1,0.3-0.1,0.6-0.1,0.9c0.4,1.5,1.4,3.2,3.2,4.9
			c3.7,3.7,10.2,7.4,16.6,9.5c2.9,1,5.5,1.5,7.9,1.7c4.1,0.3,7-0.7,8.6-2.8l13.7-33.4l18.4,19.6c3.3,3.5,7.2,6.5,11.5,8.8l19.7,10.3
			l2.9-3.6l0.4-0.6L329.9,172.8z M263.7,178.7c-0.2,0.6-0.6,0.9-1,0.8c-0.4-0.1-0.5-0.7-0.3-1.2c0.2-0.6,0.6-0.9,1-0.8
			C263.8,177.6,263.9,178.2,263.7,178.7z"/>
		<path fill="#FED4A6" stroke="#D8AE88" stroke-miterlimit="10" d="M214.5,235.6l-18.5,49c1.7,3.2-1.1,8.7-1.1,8.7
			c-5,1.3-8.6-4.1-8.6-4.1c-8.3,1.9-14.8-3.2-14.8-3.2c-6.7-1.2-4.1-5.5-4.1-5.5l5.6,1.9c4.9-2.6,16-1.5,16-1.5l9.7-53.5
			c-1-4.1,4.1-7.7,4.1-7.7c3.4-5.6,10.8-12.8,16.7-18.1c1.8,4.2,5.9,11.6,14.4,20.2C226.3,228.5,214.5,235.6,214.5,235.6z"/>
		<path fill="#FED4A6" stroke="#D8AE88" stroke-miterlimit="10" d="M292.7,319.4c0,0-1.5,4.9-6.9,0.6c0,0-8.1-1.5-12.1-9
			c0,0-6.4,0.8-8.7-3.7c0,0,2.2-5.8,5.8-6.6l-7.3-53.1c0,0-3.3-8.1-5.7-16.4c10.5-3,19.3-7.4,22.9-9.3c1.2,6.9,2.1,14.6,1.6,19.9
			c0,0,1.9,5.9-1.3,8.6l-2.8,53c0,0,8.1,7.6,9.4,13L292.7,319.4z"/>
		<polygon fill="#FED4A6" stroke="#D8AE88" stroke-miterlimit="10" points="346.9,184.4 346.5,185 346.9,184.4 		"/>
	</g>
</g>
</svg>
