<svg xmlns="http://www.w3.org/2000/svg" viewBox="0 0 229.5 421.1" enable-background="new 0 0 229.5 421.1"><style type="text/css">.st0{fill:#FFFFFF;}</style><path class="st0" d="M101.4 79.4l-24.1-31.6c1.5 1.6 3 3.1 4.4 4.7 1.4 1.6 2.9 3.2 4.2 4.9 1.4 1.6 2.7 3.3 4.1 5l3.9 5.1c1.3 1.7 2.5 3.5 3.7 5.3l3.6 5.4c1.2 1.8 2.3 3.7 3.4 5.5 1.1 1.9 2.2 3.7 3.2 5.6-10.3-22.8-21.8-45-34.3-66.6l1.4 5.1 1.7 5 2 4.9 2.2 4.8 2.4 4.7 2.6 4.6 2.7 4.6 2.7 4.5 5.6 9 2.8 4.5 2.7 4.5 2.6 4.6 2.5 4.7 2.3 4.8 2.1 4.9-33.7-80.4 30.1 68.2c-2.7-5.4-4-11.4-5.4-17.3l-4.1-17.7-8.2-35.3c7.7 27.9 16.6 55.6 26.6 82.8l-2.4-8.4c-.8-2.8-1.5-5.6-2.2-8.4-.7-2.8-1.4-5.6-2-8.5l-1.8-8.5c-.6-2.8-1.1-5.7-1.6-8.6-.5-2.9-1-5.7-1.4-8.6l-1.2-8.6c-.4-2.9-.7-5.8-1-8.6 4.1 25.5 8.6 50.9 13.5 76.3l-1.2-4.8-1.1-4.8-1-4.8-.9-4.9-.8-5-.8-4.9-.7-4.9-.6-4.9-.5-4.9-.4-4.9-.3-4.9-.3-4.9-.2-4.9-.1-4.9v-4.9l.1-4.9 8.8 83.2-.3-6.9-.2-6.9v-6.9l.2-6.9.4-6.9.5-6.9.7-6.9.9-6.9 1-6.8 1.2-6.8 1.4-6.8 1.5-6.7 1.7-6.7 1.8-6.7 2-6.6 2.2-6.6-3 13.1c-1 4.4-1.9 8.7-2.8 13.1l-2.6 13.2c-.8 4.4-1.6 8.8-2.3 13.2l-2.1 13.2c-.7 4.4-1.3 8.9-1.9 13.3l-1.7 13.3c-.5 4.4-1 8.9-1.4 13.3l.4-6.1.6-6 .8-6 1-6 1.1-6 1.3-5.9 1.5-5.9 1.7-5.8 1.8-5.8 2-5.7 2.2-5.7 2.3-5.6 2.5-5.6 2.6-5.5 2.8-5.4 2.9-5.3-2.7 4.2-2.4 4.5-2.1 4.6-1.8 4.7-1.5 4.8-1.3 4.9-1.2 4.9-1.1 4.9-2 9.9c-.6 3.3-1.3 6.6-2 9.9l-1.1 4.9-1.3 4.9-1.4 4.9-1.6 4.8 33-77.8.1-.1v.1l-1 5.5-1.1 5.4-1.2 5.4-1.3 5.4-1.4 5.4-1.5 5.4-1.6 5.3-1.7 5.3-1.8 5.3-1.9 5.2-2 5.2-2.1 5.2-2.1 5.1-2.2 5.1-2.3 5-2.4 5 4.2-7.9 4.3-7.8 2.2-3.9 2.3-3.8 2.3-3.8 2.4-3.8 2.5-3.7 2.6-3.6 2.7-3.6 2.8-3.5 2.9-3.4 3.1-3.2 3.2-3.1 3.3-3-8.9 6.7-8.8 6.8-4.3 3.5-4.3 3.6-4.2 3.6-4.1 3.7-4.1 3.8-3.9 3.9-3.8 4.1-3.7 4.2-3.5 4.3-3.3 4.5-3.1 4.6-2.9 4.7c6.7-3.5 13.1-7.6 19.4-11.9l18.8-12.8 37.6-25.6-68.7 57.7c5-5.7 10.3-11.2 15.8-16.5 5.5-5.2 11.2-10.3 17.2-15l4.5-3.5c1.5-1.1 3-2.3 4.6-3.4 3.1-2.2 6.2-4.4 9.5-6.3 3.3-1.9 6.7-3.6 10.4-4.7 1.8-.6 3.7-1 5.6-1.2 1.9-.2 3.8-.3 5.7-.1h.1-.1l-4.8 1.9-4.8 2-4.8 2.1-4.7 2.2-4.7 2.2-4.6 2.3-4.6 2.4-4.5 2.5-4.5 2.6-4.4 2.7-4.4 2.8-4.3 2.9-4.3 2.9-4.2 3-4.2 3.1-4.1 3.2 7.3 1.5c2.4.4 4.9.9 7.4 1.2 2.5.4 4.9.7 7.4 1 2.5.3 4.9.6 7.4.8 2.5.2 5 .4 7.4.6 2.5.2 5 .3 7.5.4 2.5.1 5 .2 7.5.2h7.5l-70.3-5.7 77.3 8.4-3.8-.1-3.8-.2-3.8-.4-3.8-.5-3.8-.6-3.8-.7-3.7-.8-3.7-.9-3.7-1-3.6-1.1-3.6-1.2-3.6-1.3-3.5-1.5-3.5-1.6-3.4-1.7-3.4-1.8h-.1.1l82.9-15.6h.3l-.2.1-4 1.6-4 1.6-4.1 1.5-4.1 1.4-4.1 1.4-4.1 1.3-4.2 1.2-4.2 1.1-4.2 1.1-4.2 1-4.2.9-4.2.8-4.3.8-4.3.7-4.3.6-4.3.5h-.1l.1-.1 6.6-5.3c2.2-1.8 4.5-3.5 6.7-5.2l3.4-2.5 3.5-2.5 3.5-2.4 3.6-2.3 3.6-2.2 3.7-2.1c1.3-.7 2.5-1.3 3.8-1.9l3.9-1.8c1.3-.6 2.6-1.1 3.9-1.6l4-1.4 4.1-1.2 4.2-.9h.2l-.1.1-71 43.7c-.1-1.7.3-3.4.9-5 .6-1.6 1.5-3 2.5-4.5 1-1.4 2-2.8 3-4.1 1-1.4 2.1-2.7 3.2-4 2.1-2.7 4.3-5.3 6.6-7.8 1.1-1.3 2.2-2.6 3.4-3.8 1.1-1.3 2.3-2.5 3.5-3.8 1.2-1.2 2.4-2.5 3.5-3.7l3.6-3.6c2.4-2.4 4.9-4.7 7.5-7 2.5-2.3 5.1-4.5 7.7-6.7 2.6-2.2 5.3-4.3 8-6.4l-4.3 2.7-4.2 2.8-4.2 2.9-4.1 3-4 3.1-3.9 3.2-3.9 3.3-3.8 3.4-3.7 3.5-3.6 3.6-3.5 3.7-3.4 3.8-3.3 3.9-3.2 3.9-3.1 4-3 4.1c21.2 4.5 42.8 7.4 64.4 8.9h.1l-.1.1c-2.4 1.8-5.4 2.8-8.4 3.1-3 .3-6 .1-9-.3-6-.8-12-1.7-17.9-2.7-11.9-2.1-23.7-4.8-35.3-8.1v-.1c18.9 23.6 38.2 47 57.7 70.1h-.1c-19.7-26.5-38-54-54.7-82.4h.1l3.5 4.3 3.7 4.2 3.8 4.1 4 3.9 4.1 3.8 4.2 3.7 4.3 3.6 4.3 3.5 4.4 3.4 4.5 3.3 4.5 3.3 4.6 3.2 9.2 6.3 9.3 6.2v.1l-54.2-52.9.1-.1 5.3 5.7c1.8 1.9 3.6 3.7 5.5 5.6l5.6 5.4c1.9 1.8 3.8 3.5 5.8 5.3l5.9 5.1c2 1.7 4 3.3 6.1 5 2 1.6 4.1 3.2 6.2 4.8 2.1 1.6 4.2 3.1 6.3 4.6v.1c-2-1.6-4-3.1-6.1-4.7-2-1.5-4.1-3-6.2-4.5-2.1-1.5-4.2-2.9-6.3-4.3-2.1-1.4-4.3-2.8-6.4-4.1-2.2-1.3-4.4-2.7-6.6-3.9-2.2-1.3-4.4-2.5-6.7-3.8-2.2-1.2-4.5-2.4-6.8-3.6-2.3-1.2-4.6-2.3-6.9-3.4h.1l19.2 77.8h-.1l-25-64.1h.1c.7 16.9-.4 33.9-3 50.6h-.1l9.8-53h.1l-1.7 4-1.6 4-1.5 4.1-1.4 4.1-1.3 4.1-1.3 4.2-2.4 8.4c-3 11.2-5.5 22.5-8 33.8v.2-.2l-1.3-5.3-1.1-5.3-.8-5.4c-.2-1.8-.4-3.6-.5-5.4-.1-1.8-.2-3.6-.2-5.4 0-1.8 0-3.6.1-5.4l.3-5.4c.2-1.8.3-3.6.6-5.4l.8-5.4c.4-1.8.7-3.6 1.1-5.3l1.3-5.3c.5-1.7 1-3.5 1.6-5.2l1.8-5.1 2.1-5 2.3-4.9 2.5-4.8h.1c-9.3 21.7-17 44.2-22.7 67.2h-.1l1.5-4.2 1.6-4.1 1.7-4.1 1.8-4 2-4 2.1-3.9 2.2-3.9 2.3-3.8 2.4-3.7 2.5-3.6 2.6-3.6 2.8-3.5 2.9-3.4 3-3.3 3.1-3.2 3.1-3.1.1.1-3.8 3.5-3.8 3.6-3.7 3.6-3.6 3.7-3.6 3.8-3.5 3.8-6.9 7.7c-2.3 2.6-4.5 5.2-6.8 7.9l-6.7 8c-4.4 5.3-8.8 10.7-13.1 16.1l-.1-.1 36.4-36.3 18.2-18.2c3-3 6.1-6 8.8-9.3 2.7-3.3 5.2-6.9 6.7-10.9l.1.1c-27 21.6-52.9 44.5-77.7 68.6l-.2-.6c19.8-21.6 40.4-42.6 61.7-62.8l.1.1-72.2 47.8-.1-.1 4.4-3.6 4.4-3.6 4.5-3.5 4.5-3.5 4.6-3.4 4.6-3.3 4.6-3.3 4.7-3.2 4.7-3.1 4.8-3.1 4.8-3 4.9-3 4.9-2.9 4.9-2.8 5-2.8 5-2.7v.1l-5.8 1.9-5.7 2-5.7 2.1-5.7 2.3-5.6 2.4-5.6 2.5-5.5 2.6-5.5 2.7-5.4 2.8-5.3 2.9-5.3 3-5.2 3.2-5.1 3.3-5.1 3.4-5 3.5-4.9 3.6-.1-.1 3.8-2.9 3.9-2.7 4-2.6 4-2.5 4.1-2.4 4.2-2.2 4.3-2.1 4.3-2 4.4-1.9 4.4-1.7 4.5-1.6 4.5-1.4 4.6-1.3 4.6-1.1 4.7-1 4.7-.8v.1c-.4-1.1-1.4-2-2.5-2.5s-2.3-.8-3.5-1.1l-3.6-.6c-1.2-.2-2.4-.4-3.6-.5-1.2-.1-2.4-.3-3.6-.3-1.2-.1-2.4-.2-3.7-.2-1.2-.1-2.4-.1-3.7-.1h-3.7c-9.8.2-19.5 1.3-29.2 2.4v-.1l3.8-.8 3.8-.7 3.9-.6 3.9-.6 3.9-.5 3.9-.4 3.9-.3 3.9-.3 3.9-.2 3.9-.1h7.8l3.9.1 3.9.2 3.9.3 3.9.3v.1c-3.1-.4-6.1-.8-9.2-1.3l-9.2-1.5c-3-.5-6.1-1.1-9.1-1.7-3-.6-6.1-1.2-9.1-1.9l-9-2.1c-3-.7-6-1.5-9-2.3-3-.8-6-1.6-8.9-2.5l-8.9-2.7v-.1c27 5.6 54.2 10.5 81.5 14.5v.1l-6.4-1.6-6.3-1.9-6.2-2.2-6.1-2.5-6-2.8-5.9-3.1-5.7-3.3-5.6-3.5-5.5-3.7-5.3-3.9-5.2-4.1-5.3-4.3-5-4.3-4.9-4.5-4.8-4.6-4.7-4.7.1-.1 5.1 5.2 5.2 5 5.4 4.9 5.5 4.7 5.6 4.6 5.7 4.5 5.8 4.3 5.9 4.2 6 4 6.1 3.9 6.2 3.7 6.3 3.5 6.4 3.4 6.5 3.2 6.6 3.1 6.6 2.9-.1.1-4.9-4.4-4.8-4.5-4.8-4.5-4.8-4.6-4.7-4.6-4.7-4.7-4.6-4.7-4.2-4.6-4.5-4.8-4.5-4.8-4.4-4.9-4.3-4.9-4.3-5-4.2-5-4.2-5.1-4.1-5.1.1-.1 3.8 4.9 3.9 4.9 3.9 4.8 4 4.8 4.1 4.7 4.1 4.7 4.2 4.6 4.2 4.6 4.3 4.5 4.4 4.5 4.4 4.4 4.5 4.3 4.5 4.3 4.6 4.2 4.6 4.2 4.7 4.1-.1.1c-28.6-19.1-56.5-39.3-83.5-60.6l.1-.1 4.1 4.4 4.3 4.2 4.5 4 4.6 3.8 4.8 3.6 4.9 3.5 5 3.3 5.1 3.2 5.2 3.1 5.2 2.9 5.3 2.8 5.3 2.8 10.8 5.4 10.9 5.2.3.1h-.3l-5.8-.4-5.7-.5-5.7-.6-5.7-.7-5.7-.8-5.7-.9c-3.8-.6-7.6-1.2-11.4-1.9l-11.4-2.1-11.3-2.2c-7.5-1.5-15.1-3.1-22.6-4.7v-.1l5.2 1.4 5.2 1.3 5.2 1.2 5.3 1.1 5.3 1 5.3.9 5.3.8 5.3.7c3.5.5 7.1.9 10.6 1.3 3.6.4 7.1.8 10.7 1.1 7.1.7 14.2 1.3 21.4 2h.5l-.5.1-48.6 9.5-12.1 2.4-12.1 2.4c-8.1 1.7-16.1 3.7-23.6 7.3v-.1c3.9-1.1 7.8-2.2 11.8-3.3l11.7-3.5c3.9-1.2 7.8-2.5 11.6-3.8 3.9-1.3 7.7-2.6 11.6-4l11.5-4.2c3.8-1.4 7.6-2.9 11.4-4.4 3.8-1.5 7.6-3 11.3-4.6 3.8-1.6 7.5-3.2 11.2-4.8l.4-.2-.4.3-5.3 4.4-5.4 4.4-5.4 4.3-5.5 4.2-5.5 4.2-5.6 4.1-5.6 4-5.7 4-5.7 3.9-5.8 3.9-5.8 3.8-5.8 3.7-5.9 3.7-5.9 3.6-6 3.5-6 3.4-.1-.1 5.4-3.5 5.5-3.4 5.5-3.3 5.6-3.2 5.6-3.1 5.6-3.1 5.7-3 5.7-2.9 5.6-2.8 5.8-2.8 11.6-5.4c3.9-1.8 7.8-3.5 11.7-5.2 3.9-1.7 7.9-3.4 11.8-5l.5-.2-.4.3-76 58.8-.1-.1c21-17.8 43.2-34.3 66.4-49.1h.1v.1c.8 1.5 1 3.3.7 5-.3 1.7-.9 3.3-1.7 4.8-1.6 3-3.8 5.6-5.9 8.3l-12.7 16-25.3 32-.1-.1c18.5-19.3 38-37.6 58.3-55l.1.1-3.3 3.8-3.4 3.8-3.5 3.7-3.5 3.6-3.6 3.5-3.7 3.5-3.7 3.4-3.8 3.3-3.9 3.3-3.9 3.2-4 3.1-4.1 3-4.1 2.9-4.2 2.9-4.2 2.8-4.3 2.7h-.1v-.1c-.7-1.2-1.3-2.5-1.5-3.9-.2-1.4-.3-2.8-.1-4.2.2-1.4.4-2.8.9-4.1.4-1.4.9-2.7 1.5-3.9 1.2-2.6 2.7-5 4.3-7.3.8-1.2 1.6-2.3 2.5-3.4.8-1.1 1.7-2.3 2.6-3.3 3.5-4.4 7.3-8.6 11.3-12.5 4-3.9 8.4-7.6 12.9-10.9l.1.1c-17 11.3-33 23.9-47.9 37.8l-.1-.1c24.4-24.1 49.8-47.2 76.3-69l.1.1-87.9 73-.1-.1 3.9-3.6 4-3.5 4.1-3.5 4.1-3.4 4.2-3.3 4.3-3.2 4.3-3.1 4.4-3.1 4.4-3 4.5-2.9 4.5-2.8 4.6-2.7 4.7-2.6 4.7-2.5 4.8-2.4 4.8-2.4.5-.2-.4.4c-18.4 17.5-35.7 36.3-51.8 56l-.1-.1 3.9-4.8 4-4.7 4-4.7 4.1-4.6 4.2-4.5 4.3-4.5 4.3-4.4 4.4-4.3 4.5-4.2 4.5-4.2 4.6-4.1 4.7-4 4.7-3.9 4.8-3.9 4.9-3.8 4.9-3.7.1.1-5.4 2.7-5.5 2.5-5.5 2.4-5.6 2.2-5.7 2-5.7 1.9-5.8 1.8-5.8 1.6-5.8 1.5-5.8 1.4-5.9 1.4-5.9 1.3c-3.9.8-7.8 1.6-11.8 2.4l-11.8 2.3-.4.1.4-.2c3-1.9 6-3.7 9.1-5.5 3.1-1.8 6.1-3.6 9.2-5.3l9.3-5.1c3.1-1.7 6.3-3.3 9.4-4.9 3.2-1.6 6.4-3.2 9.6-4.7 3.2-1.5 6.4-3 9.7-4.5 3.2-1.4 6.5-2.9 9.8-4.2 3.3-1.4 6.6-2.7 9.9-4l.1.2c-24.1 9.8-47.7 20.9-70.6 33.1l-.1-.1 79.4-38v.2c-25.5 2.1-50.6 5.4-75.7 9.1v-.2l52.3 9.2v.2c-23.5-6.7-46.7-14.2-69.6-22.4-.2-.5-.1-1 .2-1.4.3-.4.7-.7 1.1-.9.8-.4 1.8-.7 2.7-.7l5.5-.1 5.5.1 5.5.2 5.5.3c1.8.2 3.7.2 5.5.5 1.8.2 3.7.3 5.5.6 1.8.2 3.7.4 5.5.7 1.8.3 3.6.5 5.5.8 1.8.3 3.6.6 5.4 1 1.8.3 3.6.7 5.4 1.1l5.4 1.2c1.8.4 3.6.9 5.4 1.4l5.3 1.5 5.3 1.6 5.2 1.8v.2l-3.4-.8-3.4-.9-3.4-.9-3.4-1c-2.2-.7-4.5-1.4-6.7-2.2l-6.6-2.4c-2.2-.9-4.4-1.7-6.5-2.7-2.2-.9-4.3-1.9-6.4-2.9l-3.4-1.6-3.1-1.6-3.1-1.7-3.1-1.7.1-.1c1.4 1.1 2.8 2.1 4.3 3.1 1.4 1 2.9 2 4.4 3 1.5 1 3 1.9 4.5 2.8 1.5.9 3.1 1.8 4.6 2.6l4.7 2.4c1.6.8 3.2 1.5 4.8 2.2 1.6.7 3.2 1.4 4.9 2l4.9 1.9-.2.1-47.6-31.7.1-.1 3.4 3.3 3.5 3.2 3.6 3 3.7 2.9 3.8 2.8 3.9 2.6 4 2.5 4 2.4 4.1 2.2 4.2 2.1 4.3 2 4.3 1.8 4.4 1.7 4.4 1.5 4.5 1.4 4.5 1.2-.1.2-2.9-3-3-2.9-3-2.9-3.1-2.8-3.1-2.8-3.4-2.6c-2.1-1.8-4.3-3.6-6.4-5.3-8.7-7-17.7-13.5-26.6-20.1l.1-.1c15.7 11.2 32.2 21.5 49.2 30.7l-.1.1-38.4-46.6.1-.1c16.9 20.4 34.1 40.4 51.8 60l-.1.1c-14-15.2-29-29.5-44.9-42.8h.2l-.3.8-.5.7c-.4.4-.8.8-1.4 1.1-.5.3-1.1.4-1.7.5l-.9.1h-.9c-.6 0-1.1-.2-1.7-.3l-1.5-.8c-.5-.3-1-.6-1.4-1l-.6-.6c-.2-.2-.4-.4-.5-.7-.6-.9-1.1-2-1.6-3l-1.2-3.2c-.4-1.1-.8-2.1-1.3-3.1-.3-.5-.5-1-.9-1.5l-.5-.7-.6-.6.1-.1 72.8 82-.2.1c-4.7-7.1-9.2-14.3-13.3-21.7-4.2-7.4-8.1-15-11.7-22.7-3.6-7.7-6.9-15.5-9.9-23.5-1.5-4-2.8-8-3.7-12.2-.9-4.2-1.3-8.4-.9-12.7v-.3l.2.3 35.4 67.2-.2.1c-.9-3.2-1.7-6.4-2.5-9.6-.8-3.2-1.6-6.4-2.3-9.7l-2.1-9.7c-.6-3.3-1.3-6.5-1.8-9.8-.6-3.3-1.1-6.5-1.6-9.8-.5-3.3-1-6.6-1.4-9.9l-1.2-9.9c-.3-3.3-.7-6.6-.9-9.9h.2c-1.2 27.5-.9 55.1.8 82.6h-.2l2.5-9.6c.8-3.2 1.7-6.4 2.6-9.6l1.4-4.8 1.5-4.7 1.5-4.7 1.6-4.7 1.7-4.6 1.9-4.6 2-4.5 2.2-4.5 2.3-4.4 2.5-4.3 2.7-4.2 2.8-4.1.2.1-20.3 45.4-10.1 22.7c-1.7 3.8-3.3 7.6-4.5 11.6-1.1 4-1.7 8.2-.8 12.2h-.2l79.5-81.4.1.2-5.5 4.1-5.5 4.1c-3.6 2.8-7.2 5.6-10.8 8.5-3.5 2.9-7.1 5.8-10.5 8.8-3.5 3-6.9 6-10.2 9.1-3.4 3.1-6.7 6.2-10 9.4s-6.5 6.4-9.7 9.7c-3.2 3.3-6.3 6.6-9.6 9.8-3.3 3.2-6.8 6.1-10.8 8.4l-.4.3.3-.4 4.2-5.7 4.3-5.6 4.4-5.5 4.5-5.5 4.6-5.4 4.7-5.3 4.8-5.3 4.8-5.2 4.9-5.1 5-5 5.1-5 5.1-4.9 5.2-4.8 5.3-4.7 5.4-4.6 5.4-4.5.1.2-8 4.4-7.8 4.6c-2.6 1.6-5.2 3.2-7.7 4.8l-7.6 5-7.5 5.2c-2.5 1.8-4.9 3.6-7.3 5.4-2.4 1.8-4.8 3.7-7.2 5.6-2.4 1.9-4.7 3.8-7 5.8l-.1-.2 42.5-46.9.2.1-58.3 94.6-.2-.1 70.5-59.9.1.2-54.3 47.6-.1-.2c12-5 24.2-9.6 36.5-13.8 6.2-2.1 12.4-4 18.6-5.9l4.7-1.4c1.6-.5 3.1-.9 4.8-1.1 1.6-.3 3.3-.4 4.9-.2.8.1 1.6.3 2.4.7.8.3 1.4.8 2 1.4l.1.1-.2.1-82.9 37.5-.1-.2 99-12.8v.2c-40.2 3.4-80.4 8.2-120.2 14.6v-.2l5.5-.9 5.5-.7 5.5-.6 5.5-.5 5.5-.3 5.6-.2 5.6-.1 5.6.1 5.6.2 5.5.4 5.5.5 5.5.6 5.5.8 5.5.9 5.5 1 5.4 1.2v.2l-3.1-.5-3.1-.5c-2-.4-4.1-.8-6.1-1.3s-4-1-6.1-1.5c-2-.6-4-1.1-6-1.8-2-.6-4-1.3-5.9-2-2-.7-3.9-1.5-5.8-2.3-1.9-.8-3.8-1.6-5.7-2.5l-2.8-1.3-2.8-1.4.2-.2c12.2 21 25.8 41.2 40.7 60.3l-.2.1c-17.8-21.1-34.3-43.3-49.4-66.3l.2-.1c20.5 23.6 42.3 46 65.3 67.2l-.2.2c-15.9-21.6-32.2-42.9-49-63.8l-.6-.7.7.5 46.7 34-.1.2c-14.3-9.8-27.6-21.1-39.5-33.7l-.2-.2h.3l3.1.3 3.1.3 3.1.4 3.1.5 3.1.6 3.1.6 3.1.7 3.1.8 3 .8 3 .9 3 1 3 1.1 2.9 1.1 2.9 1.2 2.9 1.3 2.8 1.3.8.4-.9-.1c-11.5-1.9-22.9-4-34.3-6.5-2.8-.6-5.7-1.3-8.5-2s-5.6-1.4-8.4-2.2l-4.2-1.2-4.2-1.2-4.2-1.3-4.1-1.4-.5-.2.5-.1 5.6-1 5.7-.9 5.7-.8 5.7-.7 5.7-.6 5.7-.5 5.7-.4 5.7-.3 5.7-.2 5.7-.1 5.7.1 5.7.2 5.7.3 5.7.4 5.7.5 5.7.6v.2c-12.9 1.3-25.9 2-38.9 2.1h-9.8c-3.3-.1-6.5-.2-9.7-.5-3.2-.3-6.5-.8-9.6-1.7-1.6-.4-3.1-.9-4.6-1.5-1.5-.6-3-1.3-4.4-2.1l-.2-.1.2-.1c2.5-1 5-2 7.6-3 2.5-.9 5.1-1.9 7.7-2.8 2.6-.9 5.1-1.7 7.7-2.5 2.6-.8 5.2-1.6 7.8-2.3 2.6-.7 5.2-1.4 7.9-2.1 2.6-.7 5.3-1.3 7.9-1.9 2.7-.6 5.3-1.1 8-1.6s5.3-1 8-1.4v.2l-4.2.8-4.2.7-8.4 1.2c-2.8.4-5.6.7-8.4 1-2.8.3-5.6.5-8.4.7-2.8.2-5.6.3-8.5.4-2.8.1-5.6.2-8.5.2-2.8 0-5.6 0-8.5-.1l-4.2-.1-4.2-.2h-.4l.4-.2 4-2.2 4.1-2.1 4.1-2.1 4.1-2 4.2-1.9 4.2-1.8 4.2-1.7 4.3-1.6 4.3-1.6 4.3-1.5 4.4-1.4 4.4-1.3 4.4-1.2 4.4-1.1 4.5-1 4.5-.9 1-.2-.9.4-57.5 28-.1-.2 44.7-12.1.4-.1-.3.3c-1.2 1.4-2.8 2.4-4.6 3.1-1.7.7-3.5 1.1-5.3 1.5-3.6.8-7.2 1.5-10.7 2.2-7.2 1.4-14.4 2.7-21.6 3.9-14.4 2.3-28.9 4.2-43.4 5.7v-.2l3.9 1.4 3.8 1.5 3.8 1.6 3.8 1.7 3.7 1.8 3.7 1.8 3.7 1.9 3.6 2 3.6 2.1 3.5 2.1 3.5 2.2 3.4 2.3 3.4 2.3 3.3 2.4 3.3 2.5 3.2 2.6.1.1v.1l-5.6 10.3v.1h-2.6l-2.5-.1c-1.7-.1-3.4-.2-5-.4-1.7-.2-3.3-.4-5-.7l-5-.9-4.9-1.2c-1.6-.4-3.2-.9-4.9-1.4-1.6-.5-3.2-1.1-4.8-1.7l-2.3-.9-2.3-1 .1-.2c15.1 19.6 30.9 38.8 47.2 57.5l-.2.1c-12.9-23.7-27.2-46.6-42.8-68.5l.2-.1 10.7 60.5h-.2c-.4-18.7-1.4-37.4-2.9-56.1h.2l-5.5 65.6h-.2l-2.1-75.7h.2l-1.6 6.3-1.6 6.3-1.5 6.3-1.4 6.4-1.3 6.4-1.3 6.4c-.8 4.3-1.6 8.5-2.3 12.8-3 17.1-5.4 34.3-7.9 51.4l-.2-.1c2.5-6.6 4.9-13.2 7.3-19.9 1.2-3.3 2.3-6.7 3.4-10l1.6-5 1.6-5.1 1.5-5.1 1.4-5.1 1.3-5.1 1.2-5.2 1-5.2.9-5.2.7-5.2.6-5.3.2.1-4.2 4.9c-1.4 1.7-2.7 3.4-4 5.1-1.3 1.7-2.6 3.4-3.9 5.2-1.3 1.8-2.5 3.5-3.7 5.3-1.2 1.8-2.4 3.6-3.5 5.4l-3.4 5.5-3.2 5.7c-1 1.9-2 3.8-3 5.8l-.2-.1c6.6-14.1 12.7-28.4 18.3-42.9l.1.1-6.4-1h.1c-11.4 12.8-22.2 26.1-32.5 39.8l-.2-.1 44.1-66.1.2.1-48.8 87.1-.2-.1c10.9-19.2 22.7-38 35.4-56.2l.4-.5-.2.6-2.1 7.5c-.7 2.5-1.3 5-1.9 7.5-.6 2.5-1.2 5-1.7 7.6-.5 2.5-1 5.1-1.4 7.6-.2 1.3-.3 2.6-.5 3.8-.2 1.3-.3 2.6-.4 3.9-.1 1.3-.2 2.6-.2 3.9l-.1 3.9.1 3.9.3 3.9.5 3.8.8 3.8-.2-.1 2.2-1.4 2.2-1.5 2.1-1.6 2-1.7 2-1.7 1.9-1.8 1.8-1.9 1.7-2 1.6-2.1 1.6-2.1 1.5-2.2 1.4-2.2 1.3-2.3 1.2-2.4 1.1-2.4.9-2.5v.1l-3.2-2.3h.1c-7.3 9.6-15.1 18.8-23.4 27.6l-.4.5.3-.6c6-13.1 12.1-26.2 18.4-39.2 3.2-6.5 6.4-13 9.6-19.4 1.6-3.2 3.2-6.5 5.2-9.5 1-1.5 2.1-2.9 3.5-4.2 1.3-1.2 2.8-2.3 4.5-3l.2-.1v.2l-10.7 66.2-.1.5-.1-.5c-.4-1.8-.8-3.5-1.1-5.3-.3-1.8-.7-3.6-.9-5.3-.3-1.8-.5-3.6-.7-5.4-.2-1.8-.4-3.6-.5-5.4-.6-7.2-.8-14.4-.9-21.7l-.1-10.8c0-1.8.1-3.6.2-5.4.1-1.8.3-3.6.6-5.4.3-1.8.6-3.6 1.1-5.3.5-1.8 1.1-3.4 1.9-5.1.8-1.6 1.7-3.2 2.9-4.6 1.1-1.4 2.5-2.6 4-3.7l.1-.1.1.1 2.1 2.9 2 3 1.9 3 1.8 3.1 1.8 3.1 1.7 3.2 1.6 3.2 1.5 3.2 1.4 3.3 1.3 3.3 1.3 3.3 1.2 3.4 1.1 3.4 1 3.4.9 3.5.8 3.5.1.3-.3-.3c-2.9-2.9-6.3-5.3-10-7.2l.1-.1-.8 3.1-.7 3.1-.6 3.1-.5 3.2-.4 3.2-.4 3.2-.3 3.2-.2 3.2-.1 3.2v3.2l.1 3.2.1 3.2.2 3.2.3 3.2.4 3.2.5 3.2h-.2l-15.4-52.9-.2-.7.4.7 4.2 7.1 4.3 7 2.2 3.5 2.3 3.4 2.4 3.4 2.4 3.3 2.5 3.3 2.6 3.2 2.7 3.1 2.8 3 2.9 2.9 3.1 2.7 3.2 2.6 3.3 2.4-.1.1c-7.9-15.4-16.9-30.2-27.1-44.3v-.2c.6-.8 1.3-1.5 2.1-2 .9-.5 1.8-.7 2.8-.8 1-.1 1.9-.1 2.9.1 1 .1 1.9.3 2.8.6 1.9.5 3.6 1.4 5.4 2.2l5.2 2.5 20.9 10-.1.2-49-32.1-.2-.2h.3c2.6-.2 5.1 0 7.6.5s5 1.1 7.4 1.8l14.7 4.3 29.3 8.7-.1.2-29.9-11-15-5.5c-2.5-.9-5-1.8-7.4-3-1.2-.6-2.3-1.4-3.3-2.3-1-.9-1.8-2-2.2-3.3l-.1-.1h.1c14.7.7 29.4.6 44.1-.3v.2c-19.1-2.3-38.3-3.9-57.5-4.8h-.3l.2-.2c5.1-3.9 11-6.4 17-8.4 3-1 6.1-1.9 9.1-2.8l9.1-2.8 36.4-11v.2c-18.4 2.5-36.5 6.4-54.3 11.6v-.2c2.2-.2 4.4-.5 6.5-.7 2.2-.3 4.3-.6 6.5-1s4.3-.7 6.5-1.2c2.1-.4 4.3-.9 6.4-1.4 2.1-.5 4.3-1 6.4-1.6l6.3-1.8c2.1-.6 4.2-1.3 6.3-2l6.2-2.2v.2l-4.1-.7-4.1-.6-4.1-.5-4.1-.3-4.1-.2-4.1-.1h-4.1l-4.1.1-4.1.2-4.1.3-4.1.4-4.1.5-4.1.6-4 .8-4 .9-4 1-.5.1.4-.3 63.5-45.3.1.2c-17.1 7.7-34 15.8-50.6 24.4-8.3 4.3-16.6 8.7-24.8 13.3-4.1 2.3-8.3 4.6-12.9 5.4-2.3.4-4.7.4-7-.2-2.3-.6-4.5-1.7-6-3.6v-.2c2.5-3.2 5-6.4 7.6-9.6 2.6-3.2 5.1-6.4 7.7-9.5 2.6-3.2 5.2-6.3 7.9-9.4l8-9.3c2.7-3.1 5.4-6.1 8.2-9.2 2.7-3 5.5-6 8.3-9 2.8-3 5.6-6 8.4-8.9 2.8-2.9 5.7-5.9 8.6-8.8l.4-.4-.3.5-11.2 21.5-5.6 10.8-2.8 5.4c-.5.9-.9 1.8-1.1 2.8-.2 1-.2 2 .4 2.8h-.1l18.5-24 .2-.3v.3c-.3 1.7-.9 3.3-1.7 4.8-.8 1.5-1.7 2.9-2.7 4.3l-6 8.3-12 16.6-3 4.1c-1 1.4-2 2.8-3.2 4-1.2 1.2-2.8 2.1-4.4 2.6-1.6.5-3.3.9-4.9 1.3l-19.8 4.9h-.1v-.1l-1.9-7.7-1.8-7.7-.8-3.9-.7-3.9-.6-3.9-.5-3.9-.4-3.9-.4-3.6-.1-3.9.1-3.9.2-3.9.4-3.9.7-3.9.9-3.8.1-.3.1.2c9.8 22.8 18.7 46.1 26.7 69.6h-.2l-13.2-61.5h.2l16.5 45.1h-.2l.8-4 .7-4 .7-4 .6-4 .5-4 .5-4.1.4-4.1.3-4.1.2-4.1.2-4.1.1-4.1v-4.1l-.1-4.1-.1-4.1-.2-4.1-.3-4.1.1.1-6.3-.7.1-.1c-4 16.9-8.9 33.6-14.6 50l-.2.7.1-.7c1.8-19.2 4.5-38.3 8-57.2l.1-.6v.7c1.6 24.7 1.7 49.4.3 74.1v.1h-.1l-13.5 5c-10.5-10.1-20.1-21.2-28.6-33.2l-.3-.4.4.3 63.9 48 .2.2h-.3l-5.4-.3-5.3-.7-5.3-1-5.2-1.3-5.1-1.5-5.1-1.7c-3.4-1.2-6.7-2.4-10.1-3.7-3.3-1.3-6.7-2.5-10.1-3.7l-5.1-1.7-5.1-1.6-5.2-1.3-5.3-1.1-5.3-.7-5.2-.3v-.1c18 12.6 37 24.1 56.6 34l-.1.1-87.3-35.1v-.1l53.8 14.7 13.5 3.7c4.5 1.2 9 2.4 13.4 4 2.2.8 4.4 1.7 6.4 2.7 2.1 1.1 4.1 2.2 6 3.6 1.8 1.4 3.6 3 5 4.9 1.4 1.9 2.4 4 3.1 6.2v.1h-.1l-12.3 2.2-12.3 2-12.3 1.8c-4.1.6-8.2 1.1-12.4 1.6-4.1.5-8.2.9-12.4 1.4l-12.4 1.2c-4.1.4-8.3.7-12.4 1-4.1.3-8.3.6-12.4.8v-.1c2.1-.4 4.2-.9 6.3-1.2l6.3-1.1c2.1-.3 4.2-.6 6.4-.9l6.4-.8c8.5-.9 17.1-1.5 25.6-1.9l12.8-.6c4.3-.2 8.6-.4 12.9-.4 4.3 0 8.6.2 12.8.9 2.1.4 4.2.8 6.3 1.5 2 .7 4 1.5 6 2.4l.2.1h-.2l-5 1.3-5 1.2-5 1.1-5.1 1-5.1.7-5.1.8-5.1.7-5.1.6-5.1.5-5.1.4-5.2.3-5.2.2-5.2.1-5.2.1h-5.2l-5.2-.1h-.2l.2-.1c16.8-10.2 33.9-19.8 51.4-28.8v.1l-4.6-1.9-4.7-1.6-4.8-1.3c-1.6-.4-3.2-.8-4.9-1.1-1.6-.3-3.3-.6-4.9-.8l-4.9-.6-5-.4c-1.7-.1-3.3-.2-5-.2-1.7 0-3.3-.1-5 0-1.7 0-3.3 0-5 .1l-5 .2-5 .3c-3.3.2-6.6.5-9.9.8l-9.9 1v-.1c22.1-3.1 44-7.4 65.7-12.7v.1c-1.6-.2-3.3-.4-4.9-.5l-4.9-.3c-1.6 0-3.3-.1-4.9 0-1.6 0-3.3.1-4.9.2l-4.9.4c-1.6.2-3.3.4-4.9.7-1.6.3-3.2.6-4.9.9-1.6.3-3.2.7-4.8 1.1l-4.1 9.2-.1-.1 3.9.2 3.9.4 3.9.5 3.8.6 3.8.7 3.8.8 3.8.9 3.7 1 3.7 1.1 3.7 1.3 3.6 1.4 3.6 1.5 3.5 1.6 3.5 1.7 3.4 1.8 3.4 1.9h.1l-.1.1-2.7 2.9-2.8 2.9-2.8 2.8-2.9 2.7-3 2.6-3.1 2.6-3.1 2.5-3.2 2.4-3.2 2.3-3.3 2.2-3.4 2.1-3.4 2-3.5 1.9-3.5 1.8-3.6 1.8-3.6 1.7-.1-.1 6.3-3.9c2.1-1.3 4.2-2.5 6.4-3.7 2.1-1.2 4.3-2.3 6.5-3.5l6.6-3.3c2.2-1.1 4.4-2.1 6.7-3.1 2.2-1 4.5-1.9 6.8-2.9l6.9-2.7c2.3-.8 4.6-1.7 6.9-2.4h.1v.1c.4 1.9.5 3.9.2 5.8s-.8 3.8-1.5 5.6c-1.5 3.6-3.5 6.9-5.8 10.1-2.3 3.2-4.7 6.2-7.1 9.2-2.4 3-4.9 6.1-7.4 9.1-9.9 12-20.3 23.6-31.2 34.8l-.3.3.2-.4 43.6-92.8.2-.5-.1.5c-6 30.5-12.5 60.9-19.6 91.2h-.1c13.1-32 27.2-63.5 42.5-94.5v-.1h.1l5.5 2.1h.1v.1l-30 87.6-.1-.1c12.7-23 24.9-46.3 36.5-69.9v-.1h.1l5.6 4.4-7.1 35.7v.1l-.1-.1c-1-.8-1.8-1.8-2.5-2.9-.7-1.1-1.2-2.3-1.6-3.5-.8-2.4-1.1-5-1.3-7.6-.2-2.6-.1-5.1-.2-7.7l-.1-7.7-.1-15.4c0-2.6.2-5.2.9-7.6.4-1.2 1-2.4 1.8-3.4s1.9-1.8 3.2-2.1h.1v.1c7.8 32.6 16.3 65 25.4 97.3h-.1l-13.5-38.9-6.7-19.4c-1.1-3.2-2.3-6.5-2.9-9.9-.3-1.7-.4-3.4-.3-5.1.1-1.7.6-3.4 1.4-4.9v-.1l.1.1 33.2 55.1-.1.1-36.2-53-.1-.1h.1c2.5.1 5 1.4 6.4 3.6l.2.3-.3-.2-50.9-40.7-.3-.3.4.2 31.3 13.2.2.1h-.2l-13 1.3c-4.3.5-8.7.9-13 1.5l-6.5.8-6.5.9-6.5 1-6.4 1.1-6.4 1.2-6.4 1.4-6.4 1.6-6.3 1.7-6.3 1.9-6.2 2.1-6.1 2.4-6 2.6v-.1l71.9-20.9 36-10.5 9-2.6c3-.9 6-1.8 9-2.6s6.1-1.5 9.2-1.6c3.1-.2 6.3.2 9.2 1.6l.2.1h-.2l-138 13.4v-.1c8.3-.8 16.5-1.5 24.8-2.2l12.4-1 12.4-.8 6.2-.3 6.2-.2 6.2-.1h6.2l6.2.1 6.2.2 6.2.3 6.2.4h.2l-.2.1c-26.2 12.6-52.9 24.1-80 34.6v-.1c17.7-7.3 35.8-13.4 54.3-18.3l.2-.1-.2.1c-4.4 3.9-9 7.6-13.6 11.2-2.3 1.8-4.7 3.6-7 5.3l-7.2 5.1c-4.8 3.4-9.7 6.6-14.7 9.6-2.5 1.5-5 3-7.6 4.5-1.3.7-2.5 1.5-3.9 2-.7.2-1.4.4-2.2.4-.7 0-1.5-.3-2-.9l2.7-3.2 2.7-3.1 2.8-3.1 2.8-3 2.9-3 2.9-2.9 3-2.9 3-2.8 3.1-2.7 3.1-2.7 3.2-2.6 3.2-2.6 3.3-2.5 3.3-2.5 3.3-2.4 3.4-2.3.1.1-28.5 28.5-.1-.1c16.6-8.4 32.4-18.2 47.3-29.3v.1l-47.8 15.7c-.1-.7-.2-1.4-.1-2 .1-.7.4-1.3.8-1.9.7-1.2 1.7-2.1 2.8-3 1.1-.8 2.2-1.6 3.4-2.2l3.6-1.9c4.8-2.5 9.7-5 14.6-7.2l3.7-1.6 3.8-1.6c1.3-.5 2.5-1 3.8-1.4 1.3-.5 2.6-.9 3.9-1.3 1.3-.4 2.6-.8 3.9-1.1 1.3-.3 2.6-.7 4-1l4-.8 4-.6h.3l-.3.1c-16.5 7.9-33.6 14.7-51.1 20.2l-.3.1.2-.2c20.8-15.4 41-31.7 60.3-48.8 0-1.3-.3-2.7-.9-3.9-.6-1.2-1.5-2.2-2.5-3.1-1-.9-2.1-1.6-3.3-2.2-1.2-.6-2.5-1.1-3.7-1.5-1.3-.4-2.6-.7-3.9-.9l-4-.5c-1.3-.1-2.7-.2-4-.2h-4c-1.3.1-2.7.1-4 .3-1.3.1-2.7.3-4 .5-1.3.2-2.7.4-4 .7l-3.9.9c-1.3.4-2.6.7-3.9 1.2-1.3.4-2.5.9-3.8 1.4-1.2.5-2.5 1-3.7 1.6-1.2.5-2.4 1.2-3.6 1.8v-.1l2.2 3.2 2.3 3.2 2.4 3.1 2.4 3.1 2.5 3 2.6 3 2.7 2.9 2.7 2.8 2.8 2.8 2.9 2.7 2.9 2.6 3 2.6 3 2.5 3.1 2.4 3.2 2.3 3.2 2.3 6-3.1v.1c-14.9-20.4-31.5-40.1-49.2-58.7l.1-.1c17.2 20.4 34.8 40.3 53 59.8h-.1c1-3.4 1.5-7 1.4-10.6-.1-3.6-.6-7.2-1.2-10.7-.7-3.5-1.4-7-2.1-10.6l-2.2-10.6-8.7-42.3h.1c5.7 24.4 10.3 49.1 14 73.9.8.1 1.6 0 2.4-.3.8-.3 1.5-.7 2.1-1.3 1.2-1.1 2.1-2.5 2.8-4 .7-1.5 1.3-3 1.7-4.6l1.3-4.7 5.4-18.9 10.7-37.9h.1c-11.2 20.4-21.4 41.4-30.5 62.9v-.1l4.7-.8 4.6-1.2 4.5-1.5c1.5-.6 3-1.2 4.4-1.8 1.4-.7 2.9-1.3 4.3-2.1s2.8-1.5 4.2-2.2c1.4-.8 2.8-1.6 4.1-2.4l4.1-2.5 8.1-5.1c2.7-1.7 5.4-3.4 8.1-5l4.1-2.4 4.2-2.3 4.3-2.1 4.4-1.9v.1l-3.9 1.7-3.9 1.8-3.8 1.9-3.8 2-3.8 2.1-3.7 2.2-3.6 2.2-3.6 2.3-3.5 2.4-3.5 2.5-3.4 2.6-3.3 2.7-3.3 2.8-3.2 2.8-3.1 2.9-3.1 3v-.1l4.1.6 4.2.5 4.2.5 4.2.4 4.2.3 4.2.2 4.2.1h4.2l4.2-.1 4.2-.2 4.2-.3 4.2-.4 4.2-.5 4.2-.5 4.1-.6 4.1-.7v.1l-5.2-.3-2.6-.1h-2.6l-5.2-.1-5.2.1-5.2.1-5.2.2-10.4.6c-6.9.4-13.9 1-20.8 1.5-3.5.3-6.9.5-10.4.7-3.5.3-6.9.4-10.4.6l-5.2.2c-1.7.1-3.5.1-5.2.1l-5.2.1-5.8-.1h-2.6l-2.6-.1-5.2-.3-5.2-.5c-1.7-.2-3.5-.3-5.2-.7-.8-.2-1.7-.6-2.4-1.1-.7-.5-1.3-1.1-1.8-1.8-1-1.4-1.7-3-2.4-4.6-1.5-3.1-3.1-6.2-5-9.1-3.7-5.9-8.3-11.2-13.5-15.8l-.2-.2.2.1 73.2 40.6v.1l-40-13-20-6.5-10-3.3c-1.7-.5-3.3-1.1-5.1-1.4-1.7-.3-3.5-.3-5.1.5v-.1l86.6 48.5c-2 1-4 1.7-6.1 2.3-2.1.6-4.3.9-6.4 1.1-2.2.2-4.3.2-6.5.1s-4.3-.3-6.5-.5c-4.3-.5-8.6-1.2-12.9-1.8l-12.9-2c-8.6-1.4-17.1-2.8-25.6-4.5-4.3-.8-8.5-1.7-12.7-2.7-4.2-1-8.4-2-12.6-3.1l-.2-.1h.2l59.7 1 29.9.5c9.9.2 19.9.4 29.8-1v.1l-6.3-1.8-6.3-2-6.2-2.1-6.2-2.2-6.2-2.4-6.1-2.5-6.1-2.6-6-2.7-5.9-2.9-5.9-3-5.8-3.1-5.7-3.2-5.7-3.3-5.6-3.5-5.5-3.6-5.5-3.7h-.2.2c1.7.5 3.4 1 5.1 1.7 1.7.6 3.3 1.3 5 2 1.6.7 3.3 1.5 4.9 2.3 1.6.8 3.2 1.7 4.7 2.6 6.2 3.6 12.2 7.5 18.3 11.4l36.3 23.2-76.5-71.6 80.7 68.6-48.7-79.3 6 13.4c2 4.5 4.1 8.9 6.1 13.3l3.2 6.6 3.2 6.6 3.3 6.5 3.4 6.5 3.5 6.4 3.7 6.4 3.8 6.3 4 6.2 4.1 6.1 4.3 5.9 4.5 5.8 4.7 5.6-15-114.8c3.7 32.6 8.5 65 14.4 97.3l16.7-107.5c-2.8 7.2-5.6 14.5-8.3 21.7-1.4 3.6-2.7 7.3-4 10.9-.6 1.8-1.3 3.7-1.8 5.5-.6 1.9-1.2 3.7-1.7 5.6l-.8 2.8-.7 2.8-1.4 5.7-1.1 5.7c-.3 1.9-.6 3.8-.8 5.8-.2 1.9-.5 3.9-.5 5.8l-.2 2.9v2.9c-.1 1.9.1 3.9.2 5.8 0 1 .2 1.9.3 2.9l.3 2.9c22.1-9.1 43.8-18.9 65.2-29.4-24 12.4-48.9 23.2-74.4 32.2 6.8-2 13.6-4 20.4-5.9 3.4-1 6.8-1.9 10.3-2.8 3.4-.9 6.9-1.8 10.3-2.6 3.4-.8 6.9-1.7 10.4-2.4l5.2-1.1 5.2-1 5.2-1 5.2-.9 5.3-.8 5.3-.7-10 3.4c-3.4 1.1-6.7 2.3-10 3.4l-5 1.8-5 1.8-4.9 1.9-4.9 2-4.9 2.1-4.8 2.2-4.8 2.3-4.7 2.5-4.6 2.6-4.5 2.7-4.4 2.9-4.3 3.1 4.6-.1 4.6-.2c3.1-.1 6.2-.3 9.3-.5 3.1-.2 6.2-.5 9.3-.8 3.1-.3 6.2-.7 9.2-1 3.1-.4 6.1-.8 9.2-1.3l9.2-1.5 9.1-1.8 4.5-1 4.5-1.1c-31.5 1.5-63 3.9-94.5 7.1l12 .9c4 .2 8 .5 12 .6 4 .2 8 .3 12 .4 4 .1 8 .2 12 .2h12c4-.1 8-.1 12-.3 4-.1 8-.3 12-.5s8-.4 12-.7c-12.3-9.4-25.5-17.5-39.4-24.2-1 2-1.7 4-2.1 6.2-.3 2.2-.3 4.4 0 6.6.3 2.2.9 4.3 1.6 6.4.8 2.1 1.7 4.1 2.6 6 1 1.9 2.1 3.9 3.2 5.7l3.5 5.6 7.1 11.1 28.4 44.4-69.1-75.7 32.7 67.5-1.5-.7-1.4-.9-1.4-1-1.3-1.1c-.8-.8-1.6-1.6-2.3-2.5-.7-.9-1.4-1.8-2-2.7-2.5-3.8-4.3-7.9-6.3-11.9-.5-1-1-2-1.6-3l-1.8-2.9c-.6-.9-1.3-1.8-2-2.7-.7-.9-1.5-1.7-2.3-2.5-.8-.8-1.7-1.5-2.6-2.1-.5-.3-1-.6-1.4-.9l-1.5-.8-1.6-.6-1.7-.3-1.7-.2h-1.7l.3 68.1-6-80.3-3.4 3.1-3.4 3.1-3.3 3.2-3.3 3.3-3.2 3.3-3.2 3.4-3.1 3.4-3 3.5-3 3.5-2.9 3.6-2.8 3.6-2.8 3.7-2.7 3.7-2.7 3.8-2.6 3.8-2.5 3.9-7.9-1.7c8.2-22.8 17.1-45.3 26.7-67.6l-4.7 6.3 4.7-6.3c-9.6 22.2-18.5 44.8-26.7 67.6l7.9 1.7 2.5-3.9 2.6-3.8 2.7-3.8 2.7-3.7 2.8-3.7 2.8-3.6 2.9-3.6 3-3.5 3-3.5 3.1-3.4 3.2-3.4 3.2-3.3 3.3-3.3 3.3-3.2 3.4-3.1 3.4-3.1 6 80.3-.3-68.1h1.7l1.7.2 1.6.4 1.6.6 1.5.8c.5.3 1 .6 1.4.9.9.6 1.8 1.4 2.6 2.1.8.8 1.6 1.6 2.3 2.5.7.9 1.4 1.8 2 2.7.6.9 1.2 1.9 1.8 2.9.6 1 1.1 2 1.6 3 2 4 3.9 8.2 6.3 11.9.6.9 1.3 1.9 2 2.7.7.9 1.5 1.7 2.3 2.5.4.4.8.7 1.3 1.1.4.3.9.7 1.4 1l1.4.9 1.5.7-32.6-67.6 69.4 75.7-28.4-44.4-7.1-11.1c-1.2-1.9-2.4-3.7-3.5-5.6-1.2-1.9-2.2-3.8-3.2-5.7-1-2-1.9-4-2.6-6-.7-2.1-1.3-4.2-1.6-6.4-.3-2.2-.3-4.4 0-6.6.4-2.2 1.1-4.3 2.1-6.2 13.9 6.7 27.2 14.8 39.4 24.2-4 .3-8 .5-12 .7-4 .2-8 .4-12 .5l-12 .3c-4 0-8 .1-12 0-4 0-8-.1-12-.2s-8-.2-12-.4l-12-.6-12-.9c31.4-3.2 62.9-5.6 94.5-7.1l-4.5 1.1-4.5 1-9.1 1.8c-3 .5-6.1 1.1-9.2 1.5-3.1.5-6.1.9-9.2 1.3-3.1.4-6.1.7-9.2 1-3.1.3-6.2.6-9.3.8-3.1.2-6.2.4-9.3.5l-4.6.2-4.6.1 4.3-3.1 4.4-2.9 4.5-2.7 4.6-2.6 4.7-2.5 4.8-2.3 4.8-2.2 4.9-2.1 4.9-2 4.9-1.9 5-1.8 5-1.8c3.3-1.2 6.7-2.3 10-3.4l10.1-3.3-5.3.7-5.3.8-5.2.9-5.2 1-5.2 1-5.2 1.1-10.4 2.4-10.3 2.6c-3.4.9-6.8 1.9-10.3 2.8-6.8 1.9-13.6 3.9-20.4 5.9 25.5-9 50.4-19.7 74.4-32.2-21.4 10.5-43.2 20.3-65.2 29.4l-.3-2.9c-.1-1-.3-1.9-.3-2.9-.1-1.9-.3-3.9-.2-5.8v-2.9l.2-2.9c.1-1.9.3-3.9.5-5.8s.5-3.8.8-5.8l1.1-5.7c.4-1.9.8-3.8 1.4-5.7l.7-2.8.8-2.8c.5-1.9 1.1-3.7 1.7-5.6.6-1.9 1.2-3.7 1.8-5.5 1.3-3.7 2.6-7.3 4-10.9 2.7-7.3 5.6-14.5 8.3-21.7l.1-.1v.1l-17.1 107.3v.1-.1c-5.9-32.2-10.7-64.7-14.4-97.3l15 114.8v.1-.1l-4.7-5.6-4.5-5.8-4.3-5.9-4.1-6.1-4-6.2-3.8-6.3-3.7-6.4-3.5-6.4-3.4-6.5-3.3-6.5-3.2-6.6-3.2-6.6c-2.2-4.3-4.2-8.8-6.2-13.2l-6-13.4 48.7 79.2.1.1-.1-.1-80.7-68.5 76.5 71.6-36.4-23.2c-6.1-3.8-12.1-7.8-18.3-11.4l-4.7-2.6c-1.6-.8-3.2-1.6-4.8-2.3-1.6-.7-3.3-1.4-5-2-1.7-.6-3.4-1.2-5.1-1.7l5.5 3.7 5.5 3.6 5.6 3.5 5.7 3.3 5.7 3.2 5.8 3.1 5.9 3 5.9 2.9 6 2.7 6.1 2.6 6.1 2.5 6.2 2.4 6.2 2.2 6.2 2.1 6.3 2 6.3 1.8h.1-.1c-9.9 1.4-19.9 1.1-29.8 1l-29.9-.5-59.7-1v-.1c4.2 1.1 8.4 2.2 12.6 3.1 4.2 1 8.5 1.9 12.7 2.7 8.5 1.7 17.1 3.1 25.6 4.5l12.9 2c4.3.6 8.6 1.3 12.9 1.8 2.2.2 4.3.4 6.5.5 2.2.1 4.3.1 6.5-.1s4.3-.5 6.4-1.1c2.1-.6 4.1-1.3 6.1-2.3v.1l-86.6-48.5h-.1.1c1.6-.7 3.5-.8 5.2-.5 1.7.3 3.4.9 5.1 1.4l10 3.3 20 6.5 40 13v.1l-73.3-40.7v-.1c5.2 4.6 9.8 10 13.5 15.8 1.9 2.9 3.6 6 5 9.1.7 1.6 1.4 3.2 2.4 4.6.5.7 1.1 1.3 1.8 1.8s1.5.8 2.4 1.1c1.7.4 3.4.6 5.2.7l5.2.5 5.2.3 2.6.1h2.6l5.2.1 5.2-.1 5.2-.1 5.2-.2 10.4-.6 10.4-.7c6.9-.5 13.9-1.1 20.8-1.5 3.5-.3 6.9-.4 10.4-.6l5.2-.2c1.7-.1 3.5-.1 5.2-.1l5.2-.1 5.2.1h2.6l2.6.1 5.2.3h.3l-.3.1-4.1.7-4.1.6-4.2.5-4.2.5-4.2.4-4.2.3-4.2.2-4.2.1h-4.2l-4.2-.1-4.2-.2-4.2-.3-4.2-.4-4.2-.5-4.2-.5-4.1-.6h-.1l3.1-3 3.1-2.9 3.2-2.8 3.3-2.8 3.3-2.7 3.4-2.6 3.5-2.5 3.5-2.4 3.6-2.3 3.6-2.2 3.7-2.2 3.8-2.1 3.8-2 3.9-1.9 3.9-1.8 3.9-1.7v.1l-4.4 1.9-4.3 2.1-4.2 2.3-4.1 2.4-8.1 5-8.1 5.1-4.1 2.5c-1.4.8-2.8 1.6-4.1 2.4l-4.2 2.3-4.3 2.1-4.4 1.8-4.5 1.5-4.6 1.2-4.7.8h-.1v-.1c9.1-21.5 19.2-42.5 30.5-62.9l.2-.3-.1.3-10.7 37.9-5.4 18.9-1.3 4.7c-.4 1.6-1 3.1-1.7 4.6-.7 1.5-1.6 2.9-2.9 4-.6.6-1.3 1-2.1 1.3-.8.3-1.6.4-2.4.3-3.7-24.8-8.4-49.5-14-73.9h.1l8.7 42.3 2.2 10.6c.7 3.5 1.5 7 2.1 10.6.6 3.5 1.2 7.1 1.2 10.7.1 3.6-.3 7.2-1.4 10.7v.1-.1c-17.7-19.5-35.4-39.4-52.6-59.8l.1-.1c17.7 18.6 34.3 38.2 49.6 58.8l-6 3.1-3.2-2.3-3.2-2.4-3.1-2.4-3-2.5-3-2.6-2.9-2.6-3-2.5-2.8-2.8-2.7-2.8-2.7-2.9-2.6-3-2.5-3-2.4-3.1-2.4-3.1-2.3-3.2-2.2-3.2 3.6-1.8c1.2-.6 2.5-1.1 3.7-1.6 1.3-.5 2.5-1 3.8-1.4l3.9-1.2c1.3-.3 2.6-.7 3.9-.9 1.3-.3 2.6-.5 4-.7 1.3-.2 2.7-.4 4-.5 1.3-.2 2.7-.2 4-.3 1.3 0 2.7-.1 4 0 1.3 0 2.7.1 4 .2 1.3.1 2.7.2 4 .5 1.3.2 2.6.5 3.9.9 1.3.4 2.5.9 3.7 1.5 1.2.6 2.4 1.3 3.3 2.3 1 .9 1.9 1.9 2.5 3.2.6 1.2.9 2.6.9 3.9-19.1 17-39.3 33.3-60.1 48.7v-.1c17.5-5.5 34.6-12.3 51.1-20.2v.1c-1.3.2-2.7.3-4 .6-1.3.2-2.7.5-4 .8-1.3.3-2.6.6-4 1l-3.9 1.1c-1.3.4-2.6.8-3.9 1.3-1.3.5-2.6.9-3.8 1.4l-3.8 1.5c-1.3.5-2.5 1.1-3.7 1.6-5 2.3-9.8 4.7-14.6 7.2-2.4 1.3-4.9 2.4-7 4.1-1.1.8-2.1 1.8-2.8 3-.4.6-.6 1.2-.7 1.9-.1.7-.1 1.3.1 2h-.1l47.8-15.7.3-.1-.2.2c-14.9 11.1-30.8 20.9-47.4 29.3l-.3.1.2-.2 28.5-28.5.1.1-3.4 2.3-3.3 2.4-3.3 2.5-3.3 2.5-3.2 2.6-3.2 2.6-3.1 2.7-3.1 2.7-3 2.8-3 2.9-2.9 2.9-2.9 3-2.8 3-2.8 3.1-2.7 3.1-2.7 3.2v-.1c.5.6 1.2.8 1.9.8s1.4-.2 2.1-.4c1.4-.5 2.6-1.3 3.9-2l7.6-4.5c5-3.1 9.9-6.3 14.7-9.6l7.2-5.1c2.4-1.7 4.7-3.5 7-5.3 4.6-3.6 9.2-7.3 13.6-11.2v.1c-18.5 4.9-36.7 11-54.3 18.3v-.1c27.1-10.5 53.8-22 80-34.6v.1l-6.2-.4-6.2-.3-6.2-.2-6.2-.1h-6.2l-6.4.1-6.2.2-6.2.3c-4.1.2-8.3.5-12.4.8-4.1.3-8.3.6-12.4 1l-24.8 2.2v-.1l137.8-13.5v.1c-2.8-1.3-6-1.7-9.1-1.6-3.1.2-6.2.8-9.2 1.6-3 .8-6 1.7-9 2.6l-9 2.6-36 10.5-71.9 20.8v-.1l6-2.6 6.1-2.3 6.2-2.1 6.3-1.9 6.3-1.7 6.4-1.6 6.4-1.4 6.4-1.2 6.5-1.1 6.5-1 6.5-.9 6.5-.8 13-1.5 13-1.3v.1l-31.5-13.2.1-.1 50.9 40.6-.1.1c-1.3-2.1-3.8-3.5-6.3-3.5v-.1l36.6 53.5-.1.1-33.2-55.1h.1c-.8 1.5-1.2 3.2-1.3 4.9-.1 1.7 0 3.4.3 5.1.6 3.4 1.8 6.6 2.9 9.8l6.7 19.4 13.5 38.9h-.1c-9.1-32.3-17.6-64.7-25.4-97.3h.1c-1.2.3-2.3 1.1-3.1 2.1-.8 1-1.4 2.2-1.8 3.4-.8 2.4-1 5-.9 7.6l.1 15.4.1 7.7c0 2.6 0 5.1.2 7.7.2 2.6.5 5.1 1.3 7.5.4 1.2.9 2.4 1.6 3.5.7 1.1 1.5 2.1 2.5 2.9h-.1l7.1-35.7v.1l-5.6-4.4h.1c-11.7 23.6-23.8 46.9-36.6 69.9l-.1-.1 29.9-87.6v.1l-5.5-2.1h.1c-15.2 31-29.4 62.5-42.5 94.5h-.1c7.1-30.3 13.7-60.7 19.6-91.2h.1l-43.6 92.8-.1-.1c10.8-11.2 21.2-22.8 31.2-34.7 2.5-3 4.9-6 7.4-9.1 2.4-3.1 4.9-6.1 7.1-9.2 2.3-3.1 4.3-6.5 5.8-10.1.7-1.8 1.2-3.7 1.5-5.6.3-1.9.2-3.9-.2-5.8h.1l-6.9 2.4c-2.3.9-4.6 1.7-6.9 2.7-2.3.9-4.5 1.9-6.8 2.9-2.2 1-4.5 2-6.7 3.1l-6.6 3.3c-2.2 1.1-4.3 2.3-6.5 3.5-2.1 1.2-4.3 2.4-6.4 3.7l-6.3 3.9-.1-.1 3.6-1.7 3.6-1.8 3.5-1.8 3.5-1.9 3.4-2 3.4-2.1 3.3-2.2 3.2-2.3 3.2-2.4 3.1-2.5 3-2.6 3-2.6 2.9-2.7 2.8-2.8 2.8-2.9 2.7-2.9v.1l-3.4-1.9-3.3-2.1-3.5-1.7-3.5-1.6-3.6-1.5-3.6-1.4-3.7-1.3-3.7-1.1-3.7-1-3.8-.9-3.8-.8-3.9-.7-3.8-.6-3.9-.5-3.9-.4-3.9-.2h-.1v-.1l4.1-9.2c1.6-.4 3.2-.8 4.8-1.1 1.6-.3 3.2-.6 4.9-.9 1.6-.3 3.3-.5 4.9-.7 1.6-.2 3.3-.3 4.9-.4 1.6-.1 3.3-.2 4.9-.2h4.9c1.6.1 3.3.1 4.9.3 1.6.1 3.3.3 4.9.5h.4l-.4.1c-21.7 5.4-43.6 9.6-65.7 12.7v-.1l9.9-1c3.3-.3 6.6-.6 9.9-.8l5-.3 5-.2c1.7-.1 3.3-.1 5-.1h5c1.7 0 3.3.1 5 .2l5 .4c1.7.2 3.3.4 4.9.6l4.9.8c1.6.3 3.2.7 4.9 1.1 1.6.4 3.2.9 4.8 1.4l4.7 1.6 4.6 2 .1.1-.1.1c-17.5 9-34.6 18.6-51.4 28.8v-.1l5.2.1h5.2l5.2-.1 5.2-.1 5.2-.2 5.1-.3 5.1-.4 5.1-.5 5.1-.6 5.1-.7 5.1-.8 5.1-.9 5.1-1 5-1.1 5-1.2 5-1.3v.1c-1.9-1-3.9-1.8-5.9-2.4-2-.6-4.1-1.1-6.2-1.5-4.2-.7-8.5-.9-12.8-.9-4.3 0-8.6.2-12.8.4l-12.8.6c-8.6.4-17.1 1-25.6 1.9-2.1.2-4.3.5-6.4.8-2.1.3-4.2.6-6.4.9-2.1.3-4.2.7-6.3 1.1l-6.3 1.2v-.1c4.1-.2 8.3-.5 12.4-.8 4.1-.3 8.3-.6 12.4-1l12.4-1.2c4.1-.4 8.3-.9 12.4-1.4 4.1-.5 8.2-1 12.4-1.6l12.3-1.8c4.1-.6 8.2-1.3 12.3-2 4.1-.7 8.2-1.4 12.3-2.2l-.1.1c-.7-2.2-1.7-4.3-3.1-6.2-1.4-1.9-3.1-3.5-4.9-4.9-1.8-1.4-3.9-2.6-5.9-3.6-2.1-1-4.2-1.9-6.4-2.7-4.4-1.6-8.9-2.8-13.4-4l-13.7-3.8-53.8-14.7v-.1l87.4 35.2-.1.1c-19.6-10-38.6-21.4-56.6-34.2l-.2-.2h.3l5.4.3 5.3.7 5.3 1.1 5.2 1.3 5.1 1.6 5.1 1.7c3.4 1.2 6.7 2.4 10.1 3.7 3.3 1.3 6.7 2.5 10.1 3.7l5.1 1.7 5.1 1.5 5.2 1.3 5.3 1 5.3.7 5.4.3v.1l-63.9-48 .1-.1c8.5 11.9 18.1 23.1 28.6 33.2h-.1l13.5-5-.1.1c1.4-24.7 1.3-49.4-.3-74.1h.2c-3.5 18.9-6.2 38-8 57.2h-.2c5.7-16.4 10.6-33.1 14.6-50v-.1h.1l6.3.7h.1v.1l.3 4.1.2 4.1.1 4.1.1 4.1v4.1l-.1 4.1-.2 4.1-.2 4.1-.3 4.1-.4 4.1-.5 4.1-.5 4-.6 4-.7 4-.8 4-.8 4-.1.3-.1-.3-16.5-45.1h.2l13.2 61.5h-.2c-8-23.5-16.9-46.7-26.7-69.6h.2l-.9 3.8-.8 3.8-.4 3.9-.2 3.9-.2 4 .1 3.9.3 3.9.4 3.9.5 3.9.6 3.9.7 3.9.8 3.9c.6 2.6 1.1 5.1 1.8 7.7l1.9 7.7-.1-.1 19.8-4.9c1.6-.4 3.3-.8 4.9-1.3 1.6-.5 3.1-1.3 4.3-2.6 1.2-1.2 2.2-2.6 3.2-4l3-4.1 12-16.6 6-8.3c1-1.4 1.9-2.8 2.7-4.3.8-1.5 1.4-3.1 1.6-4.8l.2.1-18.5 24-.1.1-.1-.1c-.7-.8-.7-2-.4-3 .2-1 .7-1.9 1.1-2.8l2.8-5.4 5.6-10.8 11.2-21.5.1.1c-2.9 2.9-5.7 5.8-8.6 8.8-2.8 2.9-5.6 5.9-8.4 8.9-2.8 3-5.6 6-8.3 9-2.7 3-5.5 6.1-8.2 9.2-2.7 3.1-5.4 6.2-8 9.3l-7.9 9.4c-2.6 3.2-5.2 6.3-7.7 9.5l-7.6 9.6v-.1c1.5 1.8 3.6 3 5.9 3.5 2.3.6 4.6.6 6.9.2 2.3-.4 4.5-1.2 6.6-2.2 2.1-1 4.2-2.1 6.2-3.2 8.2-4.5 16.5-9 24.8-13.3 16.6-8.6 33.5-16.8 50.6-24.4l.1.2-63.4 44.9-.1-.2 4-1 4-.9 4.1-.8 4.1-.6 4.1-.5 4.1-.4 4.1-.3 4.1-.2 4.1-.1h4.1l4.1.1 4.1.2 4.1.3 4.1.5 4.1.6 4.1.7.3.1-.3.1c-2.1.8-4.1 1.5-6.2 2.2-2.1.7-4.2 1.4-6.3 2l-6.3 1.8c-2.1.6-4.2 1.1-6.4 1.6-2.1.5-4.3 1-6.4 1.4l-6.5 1.2-6.5 1c-2.2.3-4.4.5-6.5.7v-.2c17.8-5.2 36-9.1 54.3-11.6v.2l-36.4 11-9.1 2.8c-3 .9-6.1 1.8-9.1 2.8-6 2-11.9 4.5-17 8.4l-.1-.2c19.2.9 38.4 2.5 57.5 4.8v.2c-14.7.9-29.4 1-44.1.3l.1-.1c.5 1.2 1.2 2.3 2.2 3.2 1 .9 2.1 1.6 3.3 2.2 2.4 1.2 4.9 2 7.4 3l15 5.5 29.9 11-.1.2-29.3-8.7-14.7-4.3c-2.4-.7-4.9-1.4-7.4-1.8-2.5-.5-5.1-.7-7.6-.5v-.2l49 32.1-.1.2-20.9-10-5.2-2.5c-1.7-.9-3.5-1.7-5.3-2.2-.9-.3-1.9-.5-2.8-.6-1-.1-1.9-.2-2.9-.1-.9.1-1.9.4-2.7.8-.8.5-1.5 1.1-2.1 1.9v-.1c10.2 14 19.2 28.9 27.1 44.3l.2.4-.3-.2-3.3-2.4-3.2-2.6-3.1-2.7-3-2.9-2.8-3-2.7-3.1-2.6-3.2-2.5-3.3-2.4-3.3-2.4-3.4-2.3-3.4-2.2-3.5c-1.5-2.3-2.9-4.7-4.3-7l-4.2-7.1.2-.1 15.4 52.9h-.2l-.5-3.2-.4-3.2-.3-3.2-.2-3.2-.1-3.2-.1-3.2v-3.2l.1-3.2.2-3.2.3-3.2.4-3.2.4-3.2.5-3.2.6-3.1.7-3.1.8-3.1v-.1l.1.1c3.7 1.9 7.1 4.3 10 7.2l-.2.1-.8-3.5-.9-3.4-1-3.4-1.1-3.4-1.2-3.4-1.3-3.3-1.3-3.3-1.4-3.3-1.5-3.2-1.6-3.2-1.7-3.1-1.8-3.1-1.8-3.1-1.9-3-2-3-2.1-2.9h.1c-1.4 1.1-2.8 2.3-3.9 3.7-1.2 1.4-2.1 2.9-2.9 4.5-.7 1.6-1.4 3.3-1.9 5.1-.5 1.7-.8 3.5-1.1 5.3-.2 1.8-.5 3.6-.6 5.4-.1 1.8-.2 3.6-.2 5.4 0 3.6 0 7.2.1 10.8.1 7.2.3 14.5.9 21.7.1 1.8.3 3.6.5 5.4.2 1.8.4 3.6.7 5.4.3 1.8.6 3.6.9 5.3.3 1.8.7 3.5 1.1 5.3h-.2l10.7-66.2.1.1c-1.7.7-3.2 1.7-4.5 2.9-1.3 1.2-2.4 2.7-3.4 4.1-2 3-3.5 6.3-5.2 9.5-3.2 6.4-6.4 12.9-9.6 19.4-6.3 13-12.4 26-18.4 39.2l-.2-.1c8.3-8.7 16.1-17.9 23.4-27.6l.1-.1.1.1 3.2 2.3h.1v.1l-1 2.5-1.1 2.4-1.2 2.4-1.3 2.3-1.4 2.3-1.5 2.2-1.6 2.1-1.6 2.1-1.7 2-1.8 1.9-1.9 1.8-2 1.8-2 1.7-2.1 1.6-2.2 1.5-2.2 1.4-.1.1v-.1l-.8-3.8-.5-3.9-.3-3.9-.1-3.9c0-1.3 0-2.6.1-3.9l.2-3.9c.1-1.3.2-2.6.4-3.9l.5-3.9c.4-2.6.9-5.1 1.4-7.7.5-2.5 1.1-5.1 1.7-7.6l1.9-7.5 2.1-7.5.2.1c-12.6 18.2-24.4 36.9-35.3 56.1l-.2-.1 48.8-87.1.2.1-44.1 66.1-.2-.1c10.2-13.7 21.1-27 32.5-39.8h.1l6.4 1h.1v.1c-5.6 14.5-11.7 28.8-18.3 42.9l-.2-.1 3-5.8c1-1.9 2.1-3.8 3.2-5.7 1.1-1.9 2.2-3.7 3.4-5.6l3.5-5.4c1.2-1.8 2.5-3.6 3.7-5.3 1.3-1.8 2.6-3.5 3.9-5.2l4-5.1c1.4-1.7 2.8-3.3 4.2-4.9l.2-.3v.4l-.6 5.3-.7 5.3-.9 5.2-1 5.2-1.2 5.2-1.3 5.1-1.4 5.1-1.5 5.1-1.6 5.1-1.6 5c-1.1 3.4-2.3 6.7-3.4 10-2.4 6.7-4.8 13.3-7.3 19.9l-.4 1 .1-1c2.4-17.2 4.9-34.3 7.9-51.4.7-4.3 1.5-8.5 2.3-12.8l1.3-6.4 1.3-6.4 1.4-6.4 1.5-6.3 1.6-6.3 1.6-6.3.2-.8v.8l2.1 75.7h-.2l6.2-65.5h.2c1.5 18.7 2.5 37.4 2.9 56.1h-.2l-10.7-60.5-.1-.5.3.4c15.6 22 29.9 44.9 42.8 68.5l.5.9-.7-.8c-16.3-18.7-32-37.9-47.2-57.5l-.3-.4.4.2 2.3 1 2.3.9c1.6.6 3.2 1.2 4.8 1.7 1.6.5 3.2 1 4.8 1.4l4.9 1.2c1.6.3 3.3.7 5 .9 1.7.3 3.3.5 5 .7 1.7.2 3.4.3 5 .4l2.5.1h2.5l-.1.1 5.6-10.3v.2l-3.2-2.6-3.3-2.5-3.3-2.4-3.4-2.3-3.4-2.3-3.5-2.2-3.5-2.1-3.6-2.1-3.6-2-3.6-1.9-3.7-1.8-3.7-1.8-3.8-1.7-3.8-1.6-3.8-1.5-3.9-1.4-.5-.2.5-.1c14.5-1.4 29-3.3 43.4-5.7 7.2-1.2 14.4-2.5 21.6-3.9 3.6-.7 7.2-1.4 10.7-2.2 1.8-.4 3.6-.8 5.3-1.4 1.7-.7 3.3-1.6 4.5-3l.1.2-44.7 12.1-.1-.2 57.5-28 .1.2-4.5.9-4.5 1-4.4 1.1-4.4 1.2-4.4 1.3-4.4 1.4-4.3 1.5-4.3 1.6-4.3 1.6-4.2 1.7-4.2 1.8-4.2 1.9-4.1 2-4.1 2.1-4 2.1-4 2.2-.1-.2 4.2.2 4.2.1c2.8.1 5.6.1 8.5.1 2.8 0 5.6-.1 8.5-.2 2.8-.1 5.6-.3 8.5-.4 2.8-.2 5.6-.4 8.4-.7 2.8-.3 5.6-.6 8.4-1l8.4-1.2 4.2-.7 4.2-.8v.2c-2.7.4-5.3.9-8 1.4l-8 1.6c-2.6.6-5.3 1.2-7.9 1.9-2.6.7-5.2 1.4-7.9 2.1-2.6.7-5.2 1.5-7.8 2.3-2.6.8-5.2 1.7-7.7 2.5-2.6.9-5.1 1.8-7.7 2.8-2.5 1-5.1 1.9-7.6 3v-.2c1.4.8 2.9 1.5 4.4 2.1 1.5.6 3 1.1 4.6 1.5 3.1.8 6.3 1.4 9.6 1.7 3.2.3 6.5.4 9.7.5 3.2.1 6.5.1 9.7 0 13-.1 26-.8 38.9-2v.2l-5.7-.6-5.7-.5-5.7-.4-5.7-.3-5.7-.2-5.7-.1-5.7.1-5.7.2-5.7.3-5.7.4-5.7.5-5.7.6-5.7.7-5.7.8-5.7.9-5.6 1v-.2l4.1 1.4 4.2 1.3 4.2 1.2 4.2 1.2c2.8.8 5.6 1.5 8.4 2.2 2.8.7 5.6 1.3 8.5 2 11.3 2.5 22.8 4.6 34.2 6.5l-.1.2-2.8-1.3-2.9-1.3-2.9-1.2-2.9-1.1-3-1.1-3-1-3-.9-3-.8-3-.8-3.1-.7-3.1-.6-3.1-.6-3.1-.5-3.1-.4-3.1-.3-3.1-.3.1-.2c11.9 12.6 25.2 23.9 39.5 33.7l-.1.2-46.7-34 .2-.2c16.7 20.9 33.1 42.2 49 63.8l-.2.2c-23-21.2-44.8-43.6-65.3-67.2l.2-.1c15.1 23.1 31.6 45.2 49.4 66.3l-.2.1c-14.9-19.2-28.5-39.4-40.7-60.4l-.2-.3.4.2 2.8 1.4 2.8 1.3c1.9.9 3.8 1.7 5.7 2.5l5.8 2.3c2 .7 3.9 1.4 5.9 2l6 1.8 6 1.5c2 .5 4.1.9 6.1 1.3l3.1.5 3.1.5v.2l-5.4-1.2-5.5-1-5.5-.9-5.5-.8-5.5-.6-5.5-.5-5.5-.4-5.5-.2-5.6-.1-5.6.1-5.5.2-5.5.3-5.5.5-5.5.6-5.5.7-5.5.9v-.2c39.9-6.3 80-11.2 120.2-14.6v.2l-99 12.8-.7.1.7-.3 82.6-37.2v.2c-.6-.6-1.2-1-2-1.4-.7-.3-1.5-.5-2.3-.7-1.6-.2-3.2-.1-4.8.2-1.6.3-3.2.7-4.7 1.1l-4.7 1.4c-6.2 1.9-12.4 3.8-18.6 5.9-12.3 4.2-24.5 8.8-36.5 13.8l-.6.3.5-.4 54.3-47.6.1.2-70.5 59.9-.5.4.4-.6 58.3-94.6.2.1-42.5 46.9-.1-.2c2.3-2 4.7-3.9 7-5.8 2.4-1.9 4.8-3.8 7.2-5.6l7.3-5.4c2.5-1.8 5-3.5 7.5-5.2 2.5-1.7 5-3.4 7.6-5 2.6-1.6 5.1-3.3 7.7-4.8 2.6-1.6 5.2-3.1 7.8-4.6 2.6-1.5 5.3-3 8-4.4l.1.2-5.4 4.5-5.4 4.6-5.3 4.7-5.2 4.8-5.1 4.9-5.1 4.9-5 5-4.9 5.1-4.8 5.2-4.7 5.3-4.7 5.3-4.6 5.4-4.5 5.5-4.4 5.5-4.3 5.6-4.2 5.7-.1-.2c4-2.3 7.5-5.2 10.8-8.4 3.3-3.2 6.4-6.5 9.6-9.8 3.2-3.3 6.4-6.5 9.7-9.7 3.3-3.2 6.6-6.3 10-9.4 3.4-3.1 6.8-6.1 10.3-9.1 3.5-3 7-5.9 10.5-8.8 3.6-2.9 7.1-5.7 10.8-8.5 1.8-1.4 3.6-2.8 5.5-4.1l5.5-4.1.1.2-79.4 81.4-.1.1v-.2c-.9-4.1-.3-8.4.8-12.3 1.1-4 2.8-7.8 4.5-11.6l9.9-22.9 20.3-45.4.2.1-2.8 4.1-2.7 4.2-2.5 4.3-2.3 4.4-2.2 4.5-2 4.5-1.9 4.6-1.7 4.6-1.6 4.7-1.5 4.7-1.5 4.7-1.4 4.8c-.9 3.2-1.8 6.4-2.6 9.6l-2.5 9.6-.2.6v-.6c-1.7-27.5-2-55.1-.8-82.6h.2l.9 9.9c.4 3.3.7 6.6 1.2 9.9.4 3.3.9 6.6 1.4 9.8.5 3.3 1 6.5 1.6 9.8l1.8 9.8c.7 3.2 1.3 6.5 2.1 9.7.7 3.2 1.5 6.5 2.3 9.7.8 3.2 1.6 6.4 2.5 9.6l.2.9-.4-.8-35.4-67.3h.2c-.4 4.2 0 8.5.9 12.6.9 4.2 2.2 8.2 3.7 12.2 3 7.9 6.3 15.8 9.9 23.5 3.6 7.7 7.5 15.3 11.7 22.6 4.2 7.4 8.6 14.6 13.3 21.7l-.2.1-72.8-82 .1-.1.6.6.5.7.9 1.5c.5 1 .9 2.1 1.3 3.2.8 2.1 1.5 4.3 2.8 6.2.2.2.3.4.5.7l.6.6c.4.4.9.7 1.4.9.5.3 1 .5 1.6.6.5.2 1.1.3 1.7.3h.8c.3 0 .6 0 .8-.1.6-.1 1.1-.2 1.6-.5.5-.2.9-.6 1.3-1l.5-.7.3-.8.1-.1.1.1c15.9 13.3 30.9 27.6 44.9 42.8l-.1.1c-17.7-19.6-35-39.7-51.7-60.1l.1-.1 38.4 46.7.3.4-.4-.2c-17.2-9.1-33.7-19.4-49.4-30.7l.1-.1c9 6.6 18 13.1 26.6 20.1 2.2 1.7 4.3 3.5 6.4 5.3l3.2 2.7 3.1 2.8 3.1 2.8 3 2.9 3 2.9 2.9 3 .2.2-.3-.1-4.5-1.2-4.5-1.4-4.4-1.5-4.4-1.7-4.3-1.8-4.3-2-4.2-2.1-4-2.4-4-2.4-4-2.5-3.9-2.7-3.8-2.7-3.7-2.9-3.6-3-3.5-3.2-3.4-3.3.1-.1 47.6 31.7.6.4-.6-.3c-1.7-.6-3.3-1.2-5-1.9l-4.9-2-4.8-2.2-4.7-2.4c-1.5-.8-3.1-1.7-4.6-2.6-1.5-.9-3-1.8-4.5-2.8-1.5-1-2.9-1.9-4.4-3l-4.3-3.1.1-.1 3.1 1.7 3.1 1.7 3.1 1.6 3.2 1.5c2.1 1 4.3 2 6.4 2.9l6.5 2.7 6.6 2.4c2.2.8 4.5 1.5 6.7 2.2l3.4 1 3.4.9 3.4.9 3.4.8v.2l-5.2-1.8-5.3-1.6-5.3-1.5c-1.8-.5-3.6-1-5.4-1.4-1.8-.4-3.6-.9-5.4-1.2-1.8-.4-3.6-.8-5.4-1.1-1.8-.4-3.6-.7-5.4-1-1.8-.3-3.6-.6-5.5-.8-1.8-.3-3.6-.5-5.5-.7l-5.5-.6-5.5-.5-5.5-.3-5.5-.2-5.3-.2-5.5.1c-.9.1-1.8.3-2.6.7-.4.2-.8.5-1 .8-.3.4-.3.8-.2 1.2l-.1-.1c22.9 8.3 46.2 15.7 69.6 22.4v.2l-52.3-9.2-.5-.1.5-.1c25.1-3.8 50.2-7 75.4-9.6l.5-.1-.4.2-79.4 38-.1-.1c22.9-12.3 46.5-23.4 70.6-33.1l.1.2c-3.3 1.3-6.6 2.6-9.9 4l-9.8 4.2c-3.2 1.5-6.5 2.9-9.7 4.5-3.2 1.5-6.4 3.1-9.6 4.7-3.2 1.6-6.3 3.2-9.4 4.9l-9.3 5.1c-3.1 1.7-6.2 3.5-9.2 5.3l-9.1 5.5-.1-.1 11.8-2.3 11.8-2.4 5.9-1.3 5.9-1.4 5.8-1.4 5.8-1.5 5.8-1.6 5.7-1.8 5.7-1.9 5.7-2 5.6-2.2 5.5-2.3 5.5-2.5 5.4-2.7.1.1-4.9 3.7-4.9 3.8-4.8 3.9-4.7 3.9-4.7 4-4.6 4.1-4.5 4.2-4.5 4.2-4.4 4.3-4.3 4.4-4.3 4.4-4.2 4.5-4.1 4.6-4 4.7-4 4.7-3.9 4.8-.1-.1c16.1-19.7 33.4-38.5 51.8-56l.1.1-4.8 2.4-4.7 2.4-4.7 2.5-4.7 2.6-4.6 2.7-4.5 2.8-4.5 2.9-4.4 3-4.4 3.1-4.3 3.1-4.3 3.2-4.2 3.3-4.1 3.4-4.1 3.5-4 3.5-3.9 3.6-.1-.1 87.9-73 .1.1c-26.4 21.8-51.9 44.9-76.2 69l-.1-.1c14.9-13.9 30.9-26.5 47.9-37.8l.1.1c-4.5 3.4-8.8 7-12.9 10.9-4 3.9-7.8 8.1-11.3 12.5l-2.6 3.3-2.5 3.4c-1.6 2.3-3.1 4.7-4.3 7.3-.6 1.3-1.1 2.6-1.5 3.9-.4 1.3-.7 2.7-.9 4.1-.2 1.4-.1 2.8.1 4.2.3 1.4.8 2.7 1.5 3.9h-.1l4.3-2.7 4.2-2.8 4.2-2.9 4.1-2.9 4.1-3 4-3.1 3.9-3.2 3.9-3.3 3.8-3.3 3.7-3.4 3.7-3.5 3.6-3.5 3.5-3.6 3.5-3.7 3.4-3.8 3.3-3.8.1.1c-20.3 17.3-39.8 35.7-58.3 55l-.1-.1 25.3-32 12.7-16c2.1-2.7 4.3-5.3 5.9-8.3.8-1.5 1.4-3.1 1.7-4.8.3-1.7.1-3.4-.7-4.9h.1c-23.2 14.8-45.4 31.2-66.3 49.1l-.1-.1 76-58.8.1.1-11.8 5c-3.9 1.7-7.8 3.4-11.7 5.2-3.9 1.8-7.8 3.6-11.6 5.4l-5.8 2.8-5.8 2.9-5.7 2.9-5.7 3-5.6 3.1-5.6 3.1-5.6 3.2-5.5 3.3-5.5 3.4-5.4 3.5-.1-.1 6-3.4 6-3.5 5.9-3.6 5.9-3.7 5.8-3.7 5.8-3.8 5.8-3.9 5.7-3.9 5.7-4 5.6-4 5.6-4.1 5.5-4.2 5.5-4.2 5.4-4.3 5.4-4.4 5.3-4.4.1.1-11.2 4.8c-3.8 1.6-7.5 3.1-11.3 4.6-3.8 1.5-7.6 3-11.4 4.4-3.8 1.4-7.6 2.8-11.5 4.2-3.8 1.4-7.7 2.7-11.6 4l-11.6 3.8-11.7 3.6c-3.9 1.1-7.8 2.3-11.8 3.3v-.1c7.5-3.6 15.5-5.6 23.6-7.3l12.1-2.4 12.1-2.4 48.6-9.5v.1c-7.1-.6-14.3-1.2-21.4-2l-10.7-1.1c-3.6-.4-7.1-.8-10.6-1.3l-5.2-.7-5.3-.8-5.3-.9-5.3-1-5.3-1.1-5.2-1.2-5.1-1.2-5.2-1.4v-.1c7.5 1.6 15.1 3.2 22.6 4.7l11.3 2.2 11.4 2.1c3.8.7 7.6 1.3 11.4 1.9l5.7.8 5.7.8 5.7.7 5.7.6 5.7.5 5.8.4v.1l-10.9-5.2c-3.6-1.8-7.2-3.5-10.8-5.4l-5.2-2.7-5.3-2.8-5.3-2.9-5.2-3.1-5.1-3.2-5-3.3-4.9-3.5-4.8-3.6-4.6-3.8-4.5-4-4.3-4.2-4.1-4.4.1-.1c27 21.3 54.9 41.5 83.5 60.6l-.1.1-4.7-4.1-4.6-4.2-4.6-4.2-4.5-4.3-4.5-4.4-4.4-4.4-4.4-4.5-4.3-4.5-4.2-4.6-4.2-4.6-4.1-4.7-4.1-4.7-4-4.8-4-4.8-3.9-5-3.8-4.9.1-.1 4.1 5.1 4.2 5.1 4.2 5 4.3 5 4.3 4.9 4.4 4.9 4.5 4.9 4.5 4.8 4.6 4.8 4.6 4.7 4.7 4.7 4.7 4.6 4.7 4.6 4.8 4.5 4.8 4.5 4.9 4.4.3.2-.3-.1-6.7-2.9-6.6-3.1-6.5-3.2-6.4-3.4-6.3-3.5-6.2-3.7-6.2-4-6-4-6-4.2-5.8-4.3-5.7-4.5-5.6-4.6-5.5-4.7-5.4-4.9-5.2-5-5.1-5.2.1-.1 4.7 4.7 4.8 4.6 4.9 4.5 5 4.3 5.1 4.2 5.2 4.1 5.3 3.9 5.5 3.7 5.6 3.5 5.7 3.3 5.9 3.1 6 2.8 6.1 2.5 6.2 2.2 6.3 1.9 6.4 1.6v.1c-27.3-4-54.5-8.8-81.5-14.5v-.1l8.9 2.7c3 .9 6 1.7 8.9 2.5 3 .8 6 1.6 9 2.3l9 2.1c3 .7 6.1 1.3 9.1 1.9 3 .6 6.1 1.2 9.1 1.7s6.1 1 9.2 1.5c3.1.5 6.1.9 9.2 1.3v.1l-3.9-.3-3.9-.3-3.9-.2-3.9-.1h-7.8l-3.9.1-3.9.2-3.9.3-3.9.3-3.9.4-3.9.5-3.9.6-3.9.6-3.8.7-3.8.8v-.1c9.7-1.1 19.4-2.2 29.2-2.4h3.7c1.2 0 2.4 0 3.7.1 1.2 0 2.4.1 3.7.2l3.6.3c1.2.1 2.4.3 3.6.5l3.6.6c1.2.2 2.4.6 3.5 1.1 1.1.5 2.1 1.4 2.6 2.5v.1h-.1l-4.7.8-4.6 1-4.6 1.1-4.6 1.3-4.5 1.4-4.5 1.6-4.4 1.7-4.4 1.8-4.3 2-4.3 2.1-4.2 2.2-4.1 2.4-4 2.5-4 2.6-3.9 2.7-3.8 2.9-.1-.1 4.9-3.6 5-3.5 5.1-3.4 5.1-3.3 5.2-3.2 5.3-3 5.3-2.9 5.4-2.8 5.5-2.7 5.5-2.6 5.6-2.5 5.6-2.4 5.7-2.3 5.7-2.1 5.8-2 5.8-1.9v.1l-5 2.7-5 2.8-4.9 2.8-4.9 2.9-4.9 3-4.8 3-4.8 3.1-4.7 3.1-4.7 3.2-4.6 3.3-4.6 3.3-4.6 3.4-4.5 3.5-4.5 3.5-4.4 3.6-4.4 3.6-.1-.1 72.2-47.8.1.1c-21.3 20.2-41.9 41.1-61.7 62.8 24.8-24.1 50.8-47 77.8-68.6l.1-.1-.1.2c-1.5 4-3.9 7.6-6.7 10.9-2.7 3.3-5.8 6.3-8.8 9.3l-18.2 18.2-36.4 36.3-.1-.1 13.1-16.1 6.7-8c2.2-2.6 4.5-5.3 6.8-7.9 2.3-2.6 4.6-5.2 6.9-7.7l3.5-3.8 3.6-3.8 3.6-3.7 3.7-3.6 3.8-3.6 3.8-3.5.1.1-3.1 3.1-3 3.2-3 3.3-2.9 3.4-2.7 3.5-2.6 3.6-2.5 3.6-2.4 3.7-2.3 3.8-2.2 3.9-2.1 3.9-2 4-1.8 4-1.7 4.1-1.6 4.1-1.5 4.2h-.1c5.7-23 13.3-45.4 22.7-67.2h.1l-2.5 4.8-2.3 4.9-2.1 5-1.8 5.1c-.6 1.7-1.1 3.5-1.6 5.2-.5 1.7-.9 3.5-1.3 5.3-.4 1.8-.7 3.6-1.1 5.3-.3 1.8-.6 3.6-.8 5.4l-.6 5.4-.3 5.4-.1 5.4c0 1.8.1 3.6.2 5.4.1 1.8.3 3.6.5 5.4.2 1.8.5 3.6.8 5.4l1.1 5.3 1.3 5.3h-.1c2.5-11.3 5-22.6 8-33.8l2.4-8.4 1.3-4.2 1.3-4.1 1.4-4.1 1.5-4.1 1.6-4.1 1.7-4 .1-.4-.1.4-9.8 53h-.1c2.6-16.7 3.6-33.7 3-50.6v-.2l.1.2 25 64.1h-.1l-19.2-77.8v-.1h.1c2.3 1.1 4.6 2.2 6.9 3.4l6.8 3.6c2.2 1.2 4.5 2.5 6.7 3.8l6.6 3.9c2.2 1.4 4.3 2.7 6.4 4.1l6.3 4.3c2.1 1.5 4.2 3 6.2 4.5s4.1 3.1 6.1 4.7v.1l-6.3-4.6-6.2-4.8c-2-1.6-4.1-3.3-6.1-5-2-1.7-4-3.4-5.9-5.1-1.9-1.7-3.9-3.5-5.8-5.3-1.9-1.8-3.8-3.6-5.6-5.4-1.9-1.8-3.7-3.7-5.5-5.6-1.8-1.9-3.6-3.8-5.3-5.7l.1-.1 53.7 53.3v.1l-9.3-6.2-9.2-6.3-4.6-3.2-4.5-3.3-4.5-3.3-4.4-3.4-4.3-3.5-4.3-3.6-4.2-3.7-4.1-3.8-4-3.9-3.8-4.1-3.7-4.2-3.5-4.3h.1c16.7 28.4 35 56 54.7 82.4h-.1c-19.6-23.1-38.8-46.5-57.7-70.1l-.1-.1h.1c11.6 3.3 23.4 6 35.3 8.1 5.9 1 11.9 2 17.9 2.7 3 .4 6 .6 9 .3s6-1.2 8.4-3v.1c-21.7-1.5-43.2-4.4-64.4-8.9l3-4.1 3.1-4 3.2-3.9 3.3-3.9 3.4-3.8 3.5-3.7 3.6-3.6 3.7-3.5 3.8-3.4 3.9-3.3 3.9-3.2 4-3.1 4.1-3 4.2-2.9 4.2-2.8 4.3-2.7c-2.7 2.1-5.4 4.2-8 6.4-2.6 2.2-5.2 4.4-7.7 6.7s-5 4.6-7.5 7l-3.6 3.6c-1.2 1.2-2.4 2.4-3.5 3.7l-3.5 3.7c-1.2 1.2-2.3 2.5-3.4 3.8l-6.6 7.8-3.2 4c-1 1.4-2.1 2.7-3 4.1-1 1.4-1.8 2.9-2.5 4.4-.7 1.6-1 3.3-.9 5l71-43.7v.1l-4.1.9-4.1 1.2-4 1.4-3.9 1.6-3.9 1.8c-1.3.7-2.5 1.3-3.8 1.9l-3.7 2.1-3.6 2.2-3.6 2.3-3.5 2.4-3.5 2.5-3.4 2.5c-2.3 1.7-4.5 3.5-6.7 5.2l-6.6 5.3 4.3-.5 4.3-.6 4.3-.7 4.3-.8 4.2-.8 4.2-.9 4.2-1 4.2-1.1 4.2-1.1 4.2-1.2 4.1-1.3 4.1-1.4 4.1-1.4 4.1-1.5 4-1.6 4-1.6v.1l-82.9 15.6 3.4 1.8 3.4 1.7 3.5 1.6 3.5 1.5 3.6 1.3 3.6 1.2 3.6 1.1 3.7 1 3.7.9 3.7.8 3.8.7 3.8.6 3.8.5 3.8.4 3.8.2 3.8.1-77.3-8.4 70.3 5.7h-7.5c-2.5 0-5-.1-7.5-.2s-5-.2-7.5-.4-5-.4-7.4-.6c-2.5-.2-4.9-.5-7.4-.8l-7.4-1c-2.5-.4-4.9-.8-7.4-1.3-2.4-.5-4.9-.9-7.3-1.5l4.1-3.2 4.2-3.1 4.2-3 4.3-2.9 4.3-2.9 4.4-2.8 4.4-2.7 4.5-2.6 4.5-2.5 4.6-2.4 4.6-2.3 4.7-2.2 4.7-2.2 4.8-2.1 4.8-2 4.8-1.9c-1.9-.1-3.8-.1-5.7.1-1.9.3-3.7.6-5.6 1.2-3.6 1.1-7.1 2.8-10.4 4.7-3.3 1.9-6.4 4-9.5 6.3-1.5 1.1-3.1 2.2-4.6 3.4l-4.5 3.5c-5.9 4.7-11.7 9.7-17.2 15-5.5 5.2-10.7 10.7-15.7 16.5l68.7-57.7-37.6 25.6-18.8 12.8c-6.3 4.2-12.7 8.4-19.4 11.9h-.1v-.1l2.9-4.7 3.1-4.6 3.3-4.5 3.5-4.3 3.7-4.2 3.8-4.1 3.9-3.9 4.1-3.8 4.1-3.7 4.2-3.6 4.3-3.6 4.3-3.5c2.9-2.3 5.8-4.6 8.8-6.8l8.9-6.7-3.3 3-3.2 3.1-3.1 3.2-2.9 3.4-2.8 3.5-2.7 3.6-2.6 3.6-2.5 3.7-2.4 3.8-2.3 3.8-2.3 3.8-2.2 3.9c-1.5 2.6-2.9 5.2-4.3 7.8l-4.2 7.9 2.4-5 2.3-5 2.2-5.1 2.1-5.1 2.1-5.2 2-5.2 1.9-5.2 1.8-5.3 1.7-5.3 1.6-5.3 1.5-5.4 1.4-5.4 1.3-5.4 1.2-5.4 1.1-5.4 1-5.5-33 77.8 1.6-4.8 1.4-4.9 1.3-4.9 1.1-4.9c.7-3.3 1.4-6.6 2-9.9l2-9.9 1.1-4.9 1.2-4.9 1.3-4.9 1.5-4.8 1.8-4.7 2.1-4.6 2.1-4.5 2.7-4.3-2.9 5.3-2.8 5.4-2.6 5.5-2.5 5.6-2.3 5.6-2.2 5.7-2 5.7-1.8 5.8-1.7 5.8-1.5 5.9-1.3 5.9-1.1 6-1 6-.8 6-.6 6-.4 6.1c.4-4.5.9-8.9 1.4-13.3.5-4.4 1.1-8.9 1.7-13.3.6-4.4 1.2-8.9 1.9-13.3l2.1-13.2c.7-4.4 1.5-8.8 2.3-13.2.8-4.4 1.7-8.8 2.6-13.2.9-4.4 1.8-8.8 2.8-13.1l3-13.1-2.2 6.6-2 6.6-1.8 6.7-1.7 6.7-1.5 6.7-1.4 6.8-1.2 6.8-1 6.8-.9 6.9-.7 6.9-.5 6.9-.4 6.9-.2 6.9v6.9l.2 6.9.3 6.9-8.8-83.2-.1 4.9v4.9l.1 4.9.2 4.9.3 4.9.3 4.9.4 4.9.5 4.9.6 4.9.7 4.9.8 5 .8 4.9.9 4.9 1 4.8 1.1 4.8 1.2 4.8c-4.9-25.3-9.5-50.8-13.5-76.3.3 2.9.7 5.8 1 8.6l1.2 8.6c.4 2.9.9 5.7 1.4 8.6.5 2.9 1 5.7 1.6 8.6l1.8 8.5c.6 2.8 1.3 5.7 2 8.5s1.4 5.6 2.2 8.4l2.4 8.4c-10-27.2-18.9-54.8-26.6-82.8l8.2 35.3 4.1 17.7c1.4 5.9 2.7 11.8 5.4 17.3l-30.1-68.1 33.7 80.4-2.1-4.9-2.3-4.8-2.5-4.7-2.6-4.6-2.7-4.5-2.8-4.5-5.6-9-2.7-4.5-2.7-4.6-2.6-4.6-2.4-4.7-2.2-4.8-2-4.9-1.7-5-1.4-5.1c12.5 21.6 24 43.8 34.3 66.6-1-1.9-2.1-3.8-3.2-5.6-1.1-1.9-2.2-3.7-3.4-5.5-1.2-1.8-2.3-3.6-3.6-5.4l-3.7-5.3-3.9-5.1c-1.3-1.7-2.7-3.4-4.1-5l-4.2-4.9c-1.4-1.6-2.9-3.2-4.4-4.7l24.1 31.6zm-19.3 95.6s2.7-26.8 6.4-33.5c0 0 4.9-12.3 6.3-24 1.5-11.6 21.9 4.5 21.9 4.5s-8 10-8.9 19.6c-1 9.5-21.1 33.8-21.1 33.8l-4.6-.4zm24.9-64.3c42.9 13.7 38.8 15.5.2-.1 38.6 15.6 39.5 20-.1-.3 39.5 20.2 35.1 20.7.3 0 34.8 20.7 34.4 25.1 0-.3 34.4 25.4 30 24.6.3 0 29.8 24.6 28.4 28.8.1-.3 28.3 29 24.2 27.4.3.1 23.9 27.3 21.7 31.1.1-.2 21.6 31.3 17.8 29 .2.1 17.6 28.9 14.8 32.3.2-.2 14.6 32.5 11.2 29.7.2.2 11 29.5 7.8 32.6.2-.2 7.6 32.8 4.6 29.5.2.2 4.4 29.3.9 32 .2-.2.7 32.2-2 28.6.2.2-2.1 28.4-5.9 30.6.2-.1-6.2 30.7-8.4 26.9.1.2-8.5 26.7-12.6 28.5.2-.1-12.8 28.6-14.6 24.6.1.2-14.7 24.3-19 25.7.3-.1-19.2 25.8-20.6 21.6.1.3-20.6 21.3-25 22.2.3-.1-25.3 22.2-26.1 17.9.1.3-26.1 17.6-30.5 18 .3 0-30.8 18-31.1 13.5 0 .3-31.1 13.3-35.5 13 .3 0-35.8 13-35.3 8.6 0 .3-35.3 8.3-39.6 7.2.3.1-39.9 7.2-38.6 2.9-.1.3-38.5 2.7-42.5.7.2.1-42.8.6-40.5-3.2-.1.2-40.4-3.4-43.7-6.3.2.2-43.9-6.5-40.7-9.5-.2.2-40.5-9.7-42.7-13.5.1.2-42.9-13.7-38.8-15.5-.2.1-38.6-15.6-39.5-20 .1.3-39.5-20.2-35.1-20.7-.3 0-35-20.6-34.6-25-.2.4-34.4-25.4-30-24.6-.3 0-29.8-24.6-28.4-28.8-.1.3-28.3-29-24.2-27.4-.3-.1-23.9-27.3-21.7-31.1-.1.2-21.6-31.3-17.8-29-.2-.1-17.6-28.9-14.8-32.3-.2.2-14.6-32.5-11.2-29.7-.2-.2-11-29.5-7.8-32.6-.2.2-7.6-32.8-4.6-29.5-.2-.2-4.4-29.3-.9-32-.2.2-.7-32.2 2-28.6-.2-.2 2.1-28.4 5.9-30.6-.2.1 6.2-30.7 8.4-26.9-.1-.2 8.5-26.7 12.6-28.5-.2.1 12.8-28.6 14.6-24.6-.1-.2 14.7-24.3 19-25.7-.3.1 19.2-25.8 20.6-21.6-.1-.3 20.6-21.3 25-22.2-.3.1 25.3-22.2 26.1-17.9-.1-.3 26.1-17.6 30.5-18-.3 0 30.8-18 31.1-13.5 0-.3 31.1-13.3 35.5-13-.3 0 35.8-13 35.3-8.6 0-.3 35.3-8.3 39.6-7.2-.3-.1 39.9-7.2 38.6-2.9.1-.3 38.5-2.7 42.5-.7-.2-.1 42.8-.6 40.5 3.2.1-.2 40.4 3.4 43.7 6.3-.2-.2 43.9 6.5 40.7 9.5.2-.2 40.7 9.6 42.9 13.4.1-.3zm-13.4-26.9l-30.8-25.1 5.4 3.6 5.3 3.7 5.1 3.9c1.7 1.3 3.4 2.7 5 4.1 1.6 1.4 3.3 2.8 4.9 4.3 1.6 1.4 3.2 2.9 4.7 4.4 1.5 1.5 3.1 3 4.6 4.6 1.5 1.6 3 3.1 4.4 4.7-15.4-19.8-31.7-38.7-49-56.8l2.6 4.6 2.9 4.4 3.1 4.3 3.3 4.1 3.4 4 3.6 3.9 3.7 3.8 3.7 3.8 7.5 7.5 3.7 3.7 3.7 3.8 3.6 3.9 3.5 4 3.4 4.1 3.2 4.2-51.6-70.3 45.1 59.3c-3.9-4.7-6.5-10.2-9.2-15.6l-8.1-16.2-16.3-32.5c14 25.4 29.1 50.2 45.2 74.3-1.4-2.5-2.9-5-4.3-7.6-1.4-2.5-2.7-5.1-4.1-7.7l-3.9-7.8c-1.3-2.6-2.5-5.2-3.7-7.9-1.2-2.6-2.4-5.3-3.5-7.9l-3.4-8-3.2-8.1c-1-2.7-2-5.4-3-8.2 9.9 23.8 20.2 47.5 30.9 71l-2.3-4.4-2.2-4.4-2.1-4.5-2-4.5-1.9-4.5-1.9-4.6-1.8-4.6-1.7-4.6-1.6-4.7-1.5-4.6-1.5-4.7-1.4-4.7-1.3-4.8-1.2-4.8-1.2-4.8-1.1-4.8 27.9 78.8-1.9-6.6-1.8-6.7-1.6-6.7-1.4-6.8-1.3-6.8-1.1-6.8-.9-6.8-.8-6.9-.6-6.9-.4-6.9-.3-6.9-.1-6.9.1-6.9.2-6.9.4-6.9.6-6.9.1 13.4c.1 4.5.2 8.9.4 13.4l.6 13.4c.2 4.5.5 8.9.8 13.4l1 13.4c.4 4.5.8 8.9 1.3 13.4l1.5 13.3c.5 4.4 1.1 8.9 1.7 13.3l-1-6-.8-6-.6-6-.4-6.1-.3-6.1-.1-6.1.1-6.1.3-6.1.4-6.1.6-6 .8-6 .9-6 1.1-6 1.3-5.9 1.4-5.9 1.6-5.9-1.6 4.8-1.3 4.9-.9 5-.6 5-.4 5-.2 5.1v5.1l.1 5.1.4 10.1c.2 3.4.3 6.7.4 10.1l.1 5.1-.1 5.1-.3 5.1-.5 5 14-83.3v-.1.1l.3 5.6.2 5.6.1 5.6v5.6l-.1 5.6-.2 5.6-.3 5.5-.4 5.5-.5 5.5-.6 5.5-.7 5.5-.8 5.5-.9 5.5-1 5.5-1.1 5.5-1.2 5.4 2.3-8.6 2.4-8.6 1.3-4.3 1.3-4.3 1.4-4.2 1.5-4.2 1.6-4.2 1.7-4.1 1.8-4.1 1.9-4 2.1-4 2.2-3.9 2.4-3.8 2.6-3.7-7.1 8.6-7 8.7-3.4 4.4-3.3 4.5-3.3 4.5-3.2 4.6-3 4.7-2.9 4.7-2.8 4.8-2.6 4.9-2.4 5-2.2 5.1-2 5.2-1.7 5.3c5.7-5 11-10.5 16.1-16.1l15.3-16.8 30.6-33.7-53.5 72.1c3.5-6.7 7.4-13.3 11.5-19.7 4.1-6.4 8.5-12.6 13.2-18.6l3.6-4.5c1.2-1.5 2.4-2.9 3.7-4.4 2.5-2.9 5-5.7 7.8-8.3 2.8-2.6 5.7-5 9-7 1.6-1 3.4-1.8 5.1-2.5 1.8-.7 3.6-1.1 5.5-1.4h.1l-.1.1-4.3 2.9-4.2 3-4.1 3.1-4.1 3.2-4 3.3-4 3.3-3.9 3.4-3.8 3.5-3.8 3.6-3.7 3.6-3.6 3.7-3.5 3.8-3.5 3.8-3.4 3.9-3.3 4-3.2 4 7.5-.3c2.5-.1 5-.3 7.4-.5 2.5-.2 5-.4 7.4-.7l7.4-.9c2.5-.3 4.9-.7 7.4-1.1 2.5-.4 4.9-.9 7.3-1.3l7.3-1.5c2.4-.5 4.8-1.1 7.3-1.7l-69.7 10.8 77.2-9.9-3.7.8-3.8.6-3.8.5-3.8.4-3.8.3-3.8.2-3.8.1h-3.8l-3.8-.1-3.8-.2-3.8-.4-3.8-.5-3.8-.6-3.8-.7-3.7-.8-3.7-.9h-.1.1l77-34.4.2-.1-.2.2-3.5 2.5-3.6 2.5-3.6 2.4-3.6 2.3-3.7 2.3-3.7 2.2-3.8 2.1-3.8 2.1-3.8 2-3.9 1.9-3.9 1.9-3.9 1.8-4 1.7-4 1.7-4 1.6-4.1 1.5h-.1l.1-.1 5.2-6.7 5.3-6.6 2.7-3.3 2.8-3.2 2.9-3.2 2.9-3.1 3-3 3.1-2.9c1.1-.9 2.2-1.9 3.2-2.8 1.1-.9 2.2-1.8 3.3-2.6 1.1-.8 2.3-1.7 3.5-2.5l3.6-2.3 3.7-2.1 3.8-1.9.2-.1-.1.1-58.9 59.1c-.5-1.6-.5-3.4-.3-5.1.3-1.7.8-3.3 1.4-4.9.6-1.6 1.3-3.1 2-4.7s1.4-3.1 2.1-4.6c1.4-3.1 3-6.1 4.5-9.2l2.4-4.5c.8-1.5 1.6-3 2.5-4.5.8-1.5 1.7-2.9 2.6-4.4l2.7-4.4c1.8-2.9 3.7-5.7 5.6-8.5 1.9-2.8 3.9-5.6 6-8.3 2-2.7 4.2-5.4 6.3-8.1l-3.6 3.6-3.5 3.7-3.4 3.8-3.3 3.9-3.2 4-3.1 4-3 4.1-2.9 4.2-2.8 4.3-2.3 4.7-2.5 4.4-2.4 4.5-2.3 4.5-2.2 4.6-2.1 4.6-2 4.7c21.7-.6 43.3-2.7 64.7-6.3h.1l-.1.1c-1.9 2.4-4.6 3.9-7.5 4.9-2.9 1-5.9 1.5-8.9 1.8-6 .7-12 1.2-18.1 1.5-12.1.7-24.1.8-36.2.4v-.1c23.9 18.6 48.1 36.8 72.5 54.8v.1c-25.3-21.1-49.5-43.6-72.4-67.4v-.1l4.4 3.4 4.6 3.2 4.7 3.1 4.8 2.9 4.8 2.8 4.9 2.6 5 2.5 5 2.4 5.1 2.3 5.1 2.2 5.2 2.1 5.2 2.1c3.5 1.4 6.9 2.7 10.4 4l10.5 3.9v.1l-64.7-39.6v-.1c2.2 1.5 4.3 2.9 6.5 4.3s4.4 2.8 6.6 4.1c2.2 1.3 4.5 2.7 6.8 4l6.9 3.8c2.3 1.2 4.6 2.4 7 3.6 2.3 1.2 4.7 2.3 7 3.4 2.4 1.1 4.7 2.2 7.1 3.2l7.2 3v.1c-2.3-1.1-4.6-2.1-7-3.1-2.3-1-4.7-2-7.1-2.9l-7.2-2.7c-2.4-.9-4.8-1.7-7.2-2.5-2.4-.8-4.9-1.6-7.3-2.3-2.4-.7-4.9-1.4-7.4-2.1-2.5-.7-4.9-1.3-7.4-1.9-2.5-.6-5-1.2-7.5-1.7v-.1l36.8 71.2h-.1l-39.3-56.5h.1c4.6 16.3 7.5 33 8.9 49.9h-.1l-2.8-53.8h.1l-.7 4.3-.6 4.3-.5 4.3-.4 4.3-.3 4.3-.3 4.3c-.2 2.9-.3 5.8-.4 8.7-.3 11.6-.1 23.2.1 34.7v.2l-.1-.2-2.5-4.8-2.3-4.9c-.7-1.7-1.4-3.4-2-5.1-.6-1.7-1.2-3.4-1.7-5.2l-1.5-5.2-1.2-5.3-1-5.4-.7-5.4-.4-5.4c-.1-1.8-.2-3.6-.2-5.4 0-1.8 0-3.6.1-5.4l.3-5.4.6-5.4.8-5.4 1.1-5.3 1.4-5.3h.1c-4 23.3-6.2 46.9-6.4 70.6h-.1l.4-4.4.6-4.4.7-4.4.9-4.4 1-4.3 1.1-4.3 1.2-4.3 1.4-4.2 1.5-4.2 1.6-4.1 1.7-4.1 1.9-4 2-4 2.1-3.9 2.2-3.9 2.3-3.8h.1l-2.9 4.3-2.8 4.4-2.7 4.4-2.7 4.4-2.6 4.5-2.5 4.5c-1.7 3-3.3 6.1-4.9 9.1l-4.8 9.2-4.6 9.3-9 18.7h-.1l26.9-43.8 13.6-21.7c2.2-3.6 4.5-7.3 6.4-11.1 1.9-3.8 3.4-7.9 3.9-12.2h.1c-21.2 27.3-41.1 55.6-59.6 84.8h-.1c14.2-25.7 29.4-50.8 45.4-75.4l.1.1-59 63.3-.1-.1 3.4-4.6 3.5-4.5 3.5-4.5 3.6-4.4 3.6-4.4 3.7-4.3 3.8-4.3 3.8-4.2 3.9-4.2 3.9-4.1 4-4.1 4-4 4.1-3.9 4.1-3.9 4.2-3.8 4.2-3.8.1.1-5.2 3.2-5.1 3.3-5.1 3.4-5 3.5-4.9 3.6-4.8 3.7-4.8 3.8-4.7 3.9-4.6 4-4.5 4.1-4.4 4.2-4.3 4.3-4.2 4.4-4.2 4.5-4.1 4.5-4 4.6-.1-.1 3-3.7 3.1-3.6 3.2-3.5 3.4-3.4 3.5-3.3 3.6-3.2 3.7-2.7 3.7-2.9 3.8-2.8 3.9-2.7 4-2.6 4.1-2.5 4.2-2.3 4.2-2.2 4.3-2.1 4.4-1.9v.1c-.7-1-1.9-1.6-3-1.8-1.2-.3-2.4-.3-3.6-.2-1.2.1-2.4.1-3.7.2-1.2.1-2.4.2-3.6.4l-3.6.5c-1.2.2-2.4.4-3.6.7-1.2.2-2.4.5-3.6.8l-3.6.9c-9.5 2.4-18.6 5.8-27.8 9.1v-.1l3.5-1.7 3.6-1.6 3.6-1.5 3.6-1.4 3.7-1.4 3.7-1.3 3.7-1.2 3.7-1.2 3.8-1.1 3.8-1 3.8-.9 3.8-.9 3.8-.8 3.8-.7 3.9-.6 3.9-.6v.1c-3.1.3-6.2.6-9.2.9-3.1.3-6.2.5-9.3.7l-9.3.5-9.3.3c-3.1.1-6.2.1-9.3.1l-9.3-.1-9.3-.3c-3.1-.1-6.2-.3-9.3-.5v-.1c27.6-.8 55.2-2.5 82.6-4.9v.1h-6.6l-6.6-.4-6.6-.7-6.5-1-6.5-1.3-6.3-2.1-6.4-1.9-6.2-2.1-6.2-2.3-6.1-2.6-6-2.7-5.9-2.9-5.9-3.1-5.8-3.2-5.7-3.3-5.7-3.4.1-.1 6.2 3.8 6.3 3.7 6.3 3.5 6.4 3.3 6.5 3.2 6.6 3 6.7 2.8 6.7 2.7 6.8 2.5 6.9 2.3 6.9 2.2 7 2 7 1.8 7.1 1.6 7.1 1.4 7.1 1.3v.1l-5.8-3.1-5.8-3.2-5.7-3.3-5.7-3.3-5.6-3.4-5.6-3.4-5.6-3.5-5.5-3.6-5.6-3.8-5.5-3.7-5.4-3.7-5.4-3.8-5.3-3.8-5.3-3.9-5.3-4-5.2-4 .1-.1 4.9 3.9 4.9 3.8 5 3.8 5 3.7 5.1 3.7 5.1 3.6 5.2 3.5 5.2 3.5 5.2 3.4 5.3 3.3 5.3 3.3 5.4 3.2 5.4 3.1 5.4 3.1 5.5 3 5.5 2.9v.1c-32.4-12-64.2-25.2-95.4-39.6l.1-.1 5 3.3 5.2 3.1 5.3 2.9 5.4 2.6 5.5 2.4 5.6 2.2 5.7 2.1 5.7 1.9 5.8 1.8 5.8 1.6 5.8 1.5 5.8 1.4 11.7 2.7 11.8 2.5.3.1-.3.1-5.7.9-5.7.8-5.7.7-5.7.7-5.7.6-5.7.5c-3.8.3-7.7.6-11.5.8l-11.5.6-11.5.5c-7.7.3-15.4.5-23.1.7v-.1l5.4.2h5.4l5.4-.1 5.4-.2 5.4-.3 5.4-.4 5.3-.4 5.3-.5 10.7-1.2c3.5-.4 7.1-.9 10.6-1.4 7.1-1 14.2-2 21.2-3.1l.5-.1-.4.2-45 20.5-11.3 5.1-11.3 5.2c-7.5 3.5-14.8 7.4-21.2 12.6l-.1-.1 10.7-6c3.5-2 7-4.1 10.5-6.2 3.5-2.1 7-4.2 10.4-6.4 3.5-2.2 6.9-4.3 10.3-6.6l10.2-6.7 10.1-6.9c3.3-2.3 6.6-4.7 9.9-7.1 3.3-2.4 6.6-4.8 9.8-7.3l.4-.3-.3.4-4.2 5.5-4.2 5.5-4.3 5.4-4.3 5.4-4.4 5.3-4.5 5.3-4.5 5.2-4.6 5.2-4.6 5.1-4.7 5.1-4.8 5-4.8 5-4.9 4.9-4.9 4.9-5 4.8-5 4.8-.1-.1 4.5-4.6 4.5-4.6 4.6-4.5 4.7-4.4 4.7-4.4 4.8-4.3 4.8-4.2 4.9-4.2 4.9-4.1 5-4.1c3.3-2.7 6.7-5.3 10.1-8l10.2-7.8 10.3-7.7.4-.3-.3.4-60.8 75.5-.1-.1c16.2-22.2 34-43.4 53.1-63.2l.1-.1.1.1c1.1 1.3 1.8 3 1.9 4.7.1 1.7-.1 3.4-.6 5.1-.9 3.3-2.4 6.4-3.8 9.4l-8.6 18.5-17.2 37-.1-.1c13.5-23.1 28.2-45.4 43.9-67l.1.1-2.3 4.5-2.4 4.4-2.5 4.4-2.6 4.3-2.7 4.3-2.8 4.2-2.9 4.2-2.9 4.1-3 4.1-3.1 4-3.2 3.9-3.2 3.9-3.3 3.8-3.4 3.8-3.5 3.7-3.5 3.6-.1.1-.1-.1c-1-1-1.8-2.2-2.4-3.5-.6-1.3-.9-2.7-1.1-4.1-.2-1.4-.2-2.8-.1-4.2.1-1.4.3-2.8.6-4.2.6-2.8 1.4-5.5 2.5-8.1.5-1.3 1-2.6 1.6-3.9l1.7-3.9c2.4-5.1 5.1-10 8.1-14.8 3-4.8 6.4-9.3 10-13.6l.1.1c-13.9 14.9-26.5 31-37.8 47.9l-.1-.1c18-29 37.4-57.3 58-84.7l.1.1-68.5 91.4-.1-.1 3-4.4 3.1-4.4 3.2-4.3 3.2-4.3 3.3-4.2 3.4-4.1 3.5-4.1 3.5-4 3.6-3.9 3.7-3.9 3.8-3.8 3.8-3.7 3.9-3.6 4-3.6 4.1-3.5 4.1-3.4.4-.3-.3.4c-13.8 21.3-26.3 43.6-37.3 66.5l-.1-.1 2.7-5.6 2.7-5.5 2.8-5.5 2.9-5.4 3-5.4 3.1-5.3 3.2-5.3 3.3-5.2 3.4-5.2 3.4-5.1 3.5-5 3.6-5 3.7-4.9 3.8-4.9 3.8-4.8 3.9-4.7.1.1-4.6 3.9-4.7 3.7-4.8 3.6-4.9 3.4-5 3.3-5.1 3.2-5.2 3-5.2 2.9-5.3 2.8-5.3 2.8-5.4 2.7-5.4 2.6c-3.6 1.7-7.2 3.4-10.9 5.1l-10.9 5-.6.5.3-.3 7.5-7.5c2.5-2.5 5.1-4.9 7.7-7.3 2.6-2.4 5.2-4.8 7.9-7.2 2.7-2.4 5.3-4.7 8-7s5.4-4.6 8.2-6.8c2.8-2.2 5.5-4.4 8.4-6.6 2.8-2.2 5.6-4.3 8.5-6.4 2.9-2.1 5.7-4.2 8.7-6.2l.1.1c-21.2 15.1-41.5 31.4-61 48.7l-.1-.1 68.4-55.4.1.1c-23.9 8.4-47.6 17.4-71.1 26.9v-.2l53-3.3v.2c-24.4-1-48.7-2.9-73-5.6-.3-.4-.3-1-.1-1.4.2-.5.5-.8.8-1.1.7-.6 1.5-1.1 2.4-1.3l5.4-1.4 5.4-1.2c1.8-.4 3.6-.8 5.4-1.1l5.4-1c1.8-.3 3.6-.6 5.5-.8 1.8-.2 3.6-.5 5.5-.7l5.5-.6 5.5-.5 5.5-.3 5.5-.2 5.5-.1 5.5.1c1.8 0 3.7.1 5.5.2 1.8.1 3.7.2 5.5.4l5.5.5v.2h-7l-3.5-.1-3.5-.2c-2.3-.1-4.7-.3-7-.5s-4.7-.5-7-.8c-2.3-.3-4.7-.7-7-1.1l-6.9-1.3-3.5-.8-3.4-.8-3.4-.9-3.4-1 .1-.2c1.6.7 3.2 1.4 4.9 2.1l4.9 1.9 5 1.7 5.1 1.5 5.1 1.3c1.7.4 3.4.7 5.2 1.1l5.2.9 5.2.7v.2l-53.7-20.1.1-.2 4 2.4 4.1 2.3 4.2 2.1 4.3 2 4.3 1.8 4.4 1.7 4.4 1.5 4.5 1.4 4.5 1.2 4.6 1.1 4.6.9 4.6.8 4.6.6 4.7.5 4.7.3 4.7.2-.1.2-3.5-2.2-3.6-2.2-3.6-2.1-3.6-2-3.7-2-3.7-1.9-7.5-3.7c-10.1-4.7-20.3-9-30.6-13.3l.1-.2c17.9 7.3 36.3 13.5 55 18.4l-.1.2-48.1-36.4.1-.1c21.1 16 42.5 31.4 64.3 46.4l-.1.2c-17.2-11.7-35.2-22.1-53.7-31.3l.1-.1-.1.9c-.1.3-.2.6-.3.8-.3.5-.6 1-1.1 1.3-.4.4-1 .7-1.5.9l-.8.3c-.3.1-.6.1-.8.2-.6.1-1.1.1-1.7.1-.6 0-1.1-.1-1.7-.3-.6-.1-1.1-.4-1.6-.6l-.7-.4-.7-.5c-.8-.8-1.6-1.7-2.2-2.6-.7-.9-1.3-1.9-1.9-2.8-.6-.9-1.3-1.9-2-2.7l-1.2-1.2-.6-.5-.9-.8.1-.2 89.9 62.8-.1.1c-6.2-5.8-12.3-11.8-18-18-5.8-6.2-11.3-12.7-16.6-19.3-5.3-6.6-10.4-13.4-15.1-20.5-2.4-3.5-4.6-7.1-6.5-11-1.8-3.8-3.2-7.9-3.8-12.1v-.3l.2.2 50.1 57.1-.2.1c-1.6-2.9-3.1-5.8-4.7-8.8-1.5-2.9-3-5.9-4.5-8.9s-2.9-6-4.3-9-2.7-6-4.1-9.1c-1.3-3-2.6-6.1-3.9-9.2l-3.7-9.3c-1.2-3.1-2.3-6.2-3.4-9.3-1.1-3.1-2.2-6.3-3.2-9.4h.2c5.3 27 11.9 53.8 20 80.1h-.2l.2-9.9.3-9.9.2-5 .3-5 .4-4.9.5-4.9.6-4.9.7-4.9.9-4.9 1.1-4.8 1.2-4.8 1.4-4.8 1.6-4.7 2-4.6.2.1-9.1 48.9-4.6 24.5c-.8 4.1-1.5 8.2-1.6 12.3-.2 4.1.3 8.3 2.1 12.1h-.2l58.2-97.7.2.1c-1.5 1.7-3 3.5-4.4 5.2l-4.4 5.3c-2.9 3.5-5.7 7.1-8.5 10.8-2.8 3.6-5.5 7.3-8.2 11-2.7 3.7-5.3 7.5-7.8 11.2-2.6 3.8-5.1 7.6-7.5 11.5l-7.2 11.7-7 11.8c-2.5 3.8-5.2 7.5-8.6 10.7l-.4.3.2-.5 2.8-6.5 2.9-6.5 3-6.4 3.1-6.4 3.2-6.3 3.3-6.3 3.4-6.2 3.5-6.2 3.6-6.1 3.7-6.1 3.8-6 3.9-5.9 4-5.9 4-5.8 4.1-5.8 4.2-5.7.2.1c-2.3 2-4.5 4.1-6.7 6.2-2.2 2.1-4.4 4.2-6.5 6.3-2.1 2.1-4.3 4.3-6.4 6.5-2.1 2.2-4.2 4.4-6.2 6.7l-6 6.8c-2 2.3-3.9 4.6-5.9 7l-5.7 7.1c-1.9 2.4-3.7 4.8-5.5 7.3l-.2-.1 30.4-55.5.2.1-34.6 105.9-.2-.1 54.6-74.7.2.1-41.8 58.9-.2-.2c10.5-7.7 21.3-15 32.3-21.9 5.5-3.5 11.1-6.8 16.7-10.1l4.2-2.4c1.4-.8 2.9-1.6 4.4-2.2 1.5-.6 3.1-1.1 4.7-1.3.8-.1 1.6 0 2.5.1.8.2 1.6.5 2.3.9l.1.1-.1.1-71.9 55.7-.1-.2 93.3-35.4.1.2c-38.3 12.7-76.2 26.7-113.5 42.2l-.1-.2 5.1-2.1 5.2-2 5.2-1.9 5.3-1.7 5.3-1.6 5.4-1.5 5.4-1.3 5.4-1.2 5.5-1.1 5.5-.9 5.5-.8 5.5-.7 5.5-.5 5.5-.4 5.6-.3 5.6-.1v.2l-3.1.3-3.1.2c-2.1.1-4.2.2-6.2.2-2.1 0-4.2 0-6.2-.1-2.1-.1-4.2-.2-6.2-.3-2.1-.2-4.1-.3-6.2-.6-2.1-.2-4.1-.5-6.2-.8-2.1-.3-4.1-.7-6.1-1.1l-3.1-.6-3-.7.1-.2c16.7 17.6 34.7 34 53.6 49.2l-.1.2c-22.2-16.4-43.4-34.1-63.5-53l.1-.2c25.4 18.2 51.9 34.9 79.1 50.1l-.1.2c-20.5-17.3-41.3-34.2-62.5-50.7l-.7-.5.8.3 53.3 22.2-.1.2c-16.2-6.2-31.7-14.1-46.3-23.6l-.3-.2h.3l3.1-.5 3.1-.4 3.1-.3 3.1-.3 3.1-.2 3.1-.1h6.2l3.1.1 3.1.2 3.1.3 3.1.3 3.1.4 3.1.5 3.1.6 3.1.6.9.2-.9.1c-11.6.8-23.2 1.5-34.8 1.7l-8.7.1c-2.9 0-5.8-.1-8.7-.2l-4.4-.2-4.4-.2-4.3-.3-4.3-.4h-.5l.4-.2 5.3-2.3 5.3-2.2 5.3-2.1 5.4-2 5.4-1.9 5.4-1.8 5.5-1.7 5.5-1.6 5.5-1.5 5.6-1.4 5.6-1.3 5.6-1.2 5.6-1.1 5.6-1 5.7-.9 5.7-.8.1.2c-12.3 4.2-24.8 7.9-37.4 11.1-3.2.8-6.3 1.5-9.5 2.2-3.2.7-6.4 1.3-9.6 1.8-3.2.5-6.5.7-9.7.6-1.6-.1-3.3-.2-4.9-.4-1.6-.2-3.2-.6-4.8-1.1l-.2-.1.2-.2c2.2-1.6 4.4-3.1 6.7-4.7l6.8-4.5c2.3-1.5 4.6-2.9 6.9-4.3 2.3-1.4 4.7-2.7 7.1-4.1l7.2-3.9c2.4-1.3 4.8-2.5 7.3-3.7 2.4-1.2 4.9-2.3 7.4-3.5 2.5-1.1 5-2.2 7.5-3.2l.1.2-3.9 1.7-3.9 1.7c-2.6 1.1-5.2 2.1-7.9 3.1-2.6 1-5.3 2-8 2.9-2.7.9-5.4 1.8-8 2.6l-8.1 2.4c-2.7.8-5.5 1.5-8.2 2.1-2.7.7-5.5 1.3-8.3 1.9l-4.1.9-4.2.8-.4.1.3-.3 3.4-3.1 3.4-3 3.5-3 3.6-2.9 3.6-2.8 3.7-2.7 3.7-2.7 3.8-2.6 3.8-2.5 3.9-2.4 3.9-2.4 4-2.3 4-2.2 4.1-2.1 4.1-2 4.1-2 .9-.4-.8.6-49.4 40.6-.1-.2 40.6-22.2.3-.2-.2.4c-.8 1.7-2.2 3-3.7 4-1.5 1.1-3.2 1.9-4.8 2.7-3.3 1.6-6.6 3.1-9.9 4.6-6.6 3-13.3 6-20.1 8.8-13.5 5.6-27.1 10.8-40.9 15.6v-.2l4.1.5 4.1.6 4.1.7 4 .8 4 .8 4 .9 4 1 4 1.1 3.9 1.2 3.9 1.3 3.9 1.3 3.9 1.4 3.8 1.5 3.8 1.6 3.8 1.7 3.7 1.7h.1v.1l-3 11.3v.1h-.1l-2.2.9-2.5.5c-1.7.3-3.3.6-5 .8-1.7.2-3.4.4-5 .5l-5.1.3h-5.1c-1.7-.1-3.4-.1-5.1-.3-1.7-.1-3.4-.3-5-.5l-2.5-.4-2.5-.4.1-.2c19.3 15.6 39.1 30.6 59.3 44.9l-.2.2c-18-20-37.3-39-57.6-56.7l.2-.1 24.5 56.3-.2.1c-4.8-18.1-10-36.1-15.9-53.9l.2-.1 9.9 65.1h-.2l-19.7-73.1h.2l-.1 6.5v13l.1 6.5.2 6.5.3 6.5c.2 4.3.4 8.7.7 13 1.1 17.3 2.7 34.6 4.3 51.8h-.2c.9-7 1.7-14 2.4-21.1.4-3.5.7-7 1-10.5l.4-5.3.3-5.3.2-5.3.2-5.3v-5.3l-.1-5.3-.2-5.3-.4-5.3-.5-5.3-.7-5.3h.2c-1 1.9-2 3.8-2.9 5.8-.9 1.9-1.9 3.9-2.8 5.9l-2.6 6-2.4 6c-.8 2-1.5 4.1-2.2 6.1l-2 6.2c-.6 2.1-1.2 4.2-1.8 6.2-.6 2.1-1.1 4.2-1.6 6.3h-.2c3.1-15.2 5.7-30.6 7.8-46l.1.1-6.4.5.1-.1c-8.1 15.1-15.5 30.5-22.3 46.3l-.2-.1 27.5-74.5.2.1-27.2 96-.2-.1c6.1-21.3 13.3-42.2 21.3-62.8l.2-.6v.6l-.3 7.8c-.1 2.6-.1 5.2-.1 7.8 0 2.6 0 5.2.1 7.8.1 2.6.2 5.2.4 7.8l.4 3.9c.1 1.3.3 2.6.5 3.8.2 1.3.4 2.5.7 3.8l.8 3.8c.3 1.3.7 2.5 1 3.7l1.2 3.7 1.4 3.6 1.6 3.5h-.2l1.8-1.9 1.8-1.9 1.7-2 1.6-2.1 1.5-2.2 1.4-2.2 1.3-2.3 1.2-2.3 1.1-2.4 1-2.4.9-2.5.8-2.5.7-2.5.6-2.6.5-2.6.4-2.6.1.1-3.6-1.5.1-.1c-4.8 11.1-10.3 21.8-16.4 32.3l-.3.5.1-.6c2.7-14.2 5.7-28.3 8.8-42.4l4.8-21.1c.9-3.5 1.6-7.1 2.8-10.5.6-1.7 1.4-3.4 2.4-4.9 1-1.5 2.2-2.9 3.7-3.9l.2-.1v.2l5 66.9v.5l-.2-.5c-.8-1.6-1.6-3.2-2.3-4.9-.7-1.6-1.5-3.3-2.1-5-.7-1.7-1.3-3.4-1.9-5.1l-1.8-5.1c-2.3-6.9-4.1-13.9-5.9-20.9-.9-3.5-1.8-7-2.6-10.5-.4-1.8-.8-3.5-1.1-5.3-.3-1.8-.5-3.6-.7-5.4-.1-1.8-.2-3.6-.1-5.4 0-1.8.3-3.6.7-5.4.4-1.8 1-3.5 1.8-5.1.8-1.7 1.8-3.1 3-4.5l.1-.1.1.1 2.7 2.3 2.6 2.4 2.6 2.5 2.5 2.6 2.4 2.6 2.4 2.7 2.3 2.7 2.2 2.8 2.1 2.9 2.1 2.9 2 3 1.9 3 1.8 3.1 1.8 3.1 1.7 3.1 1.6 3.2.2.3-.3-.2c-3.5-2.1-7.4-3.7-11.4-4.7l.1-.1v3.2l.1 3.2.2 3.2.2 3.2.3 3.2.4 3.2.5 3.2.6 3.1.6 3.1.7 3.1.8 3.1.9 3.1 1 3.1 1 3 1.1 3 1.2 3-.2.1-26.9-47.7-.4-.7.5.6 5.8 5.9 5.8 5.8 3 2.8 3 2.8 3.1 2.7 3.1 2.7 3.2 2.6 3.3 2.5 3.4 2.4 3.4 2.2 3.5 2.1 3.6 1.9 3.7 1.8 3.8 1.6-.1.2c-11.2-13.2-23.5-25.5-36.6-36.7h-.1v-.1c.4-.9.9-1.8 1.6-2.4.7-.7 1.6-1.1 2.5-1.5.9-.3 1.9-.5 2.8-.6 1-.1 1.9-.1 2.9-.1 1.9.1 3.9.5 5.7.9l5.7 1.2 22.6 4.9-.1.2-55.2-19.8-.3-.1.3-.1c2.4-.8 5-1.2 7.5-1.3 2.6-.1 5.1-.1 7.7.1l15.3.8 30.5 1.6v.2l-31.7-3.7-15.8-1.9c-2.6-.3-5.3-.5-7.9-1.2-1.3-.3-2.6-.8-3.7-1.4-1.2-.7-2.2-1.6-3-2.7l-.1-.1h.1c14.5-2.7 28.8-6.2 42.9-10.5v.2c-19.1 2.2-38.1 5.1-57 8.7l-.3.1.2-.2c4-4.9 9.2-8.8 14.6-12.2 2.7-1.7 5.4-3.3 8.2-4.9l8.2-4.8 33.3-19.5.1.2c-17.3 6.7-34 14.7-50.1 23.9l-.1-.2 6.2-2.2 6.1-2.4 6-2.6c2-.9 4-1.9 5.9-2.8 2-1 3.9-2 5.8-3s3.8-2.1 5.7-3.2c1.9-1.1 3.8-2.3 5.6-3.4l5.5-3.6.1.2-4.1.3-4.1.4-4.1.5-4.1.6-4.1.7-4 .8-4 1-4 1.1-4 1.2-3.9 1.3-3.9 1.4-3.8 1.5-3.8 1.6-3.8 1.7-3.7 1.8-3.7 1.9-.4.2.3-.4 51.3-58.8.1.1c-14.8 11.4-29.4 23.3-43.6 35.6-7.1 6.1-14.1 12.4-21 18.7-3.5 3.1-7 6.4-11.3 8.3-2.2.9-4.5 1.5-6.9 1.5-2.3 0-4.8-.7-6.6-2.1h-.1v-.1l5.1-11.1c1.7-3.7 3.5-7.4 5.3-11.1 1.8-3.7 3.6-7.3 5.5-11l5.6-10.9c1.9-3.6 3.8-7.2 5.8-10.8 2-3.6 4-7.2 6-10.7 2-3.6 4.1-7.1 6.1-10.6l6.3-10.5.3-.5-.1.6-5.9 23.5-2.9 11.8-1.5 5.9c-.2 1-.4 2-.4 3s.3 2 1.1 2.7h-.1l12.4-27.6.1-.3v.3c.2 1.7-.1 3.4-.5 5.1-.4 1.7-1 3.3-1.6 4.8l-3.9 9.4-7.8 18.9-1.9 4.7c-.7 1.6-1.3 3.2-2.2 4.6-.9 1.5-2.2 2.7-3.7 3.5-1.5.9-3 1.6-4.5 2.4l-18.2 9.4h-.1v-.1l-3.6-7c-1.2-2.3-2.4-4.7-3.5-7.1l-1.7-3.6-1.6-3.6-1.5-3.6-1.4-3.7-1.3-3.7-1.2-3.8-1-3.8-.9-3.9-.7-3.9-.5-3.9-.3-3.9v-4.2l.2.2c14.8 19.9 28.9 40.4 42.2 61.4l-.2.1-27.1-56.6.1-.1 26.5 40.1h-.2l-.1-4.1-.2-4.1-.3-4.1-.3-4.1-.4-4.1-.5-4-.6-4-.6-4-.7-4-.8-4-.9-4-.9-4-1-4-1.1-3.9-1.1-3.9-1.2-3.9.1.1-6.3.8.1-.1c.1 17.4-.8 34.7-2.5 52l-.1.7-.1-.7c-2.7-19.1-4.6-38.2-5.5-57.5v-.7l.2.6c7.3 23.6 13.2 47.7 17.6 72v.1l-12 8c-12.6-7.4-24.6-16-35.6-25.6l-.4-.3.5.2 73.3 31.8.2.1h-.3l-5.3 1-5.3.6-5.4.2-5.4-.1-5.4-.3-5.3-.5-10.7-1.2c-3.5-.4-7.1-.9-10.7-1.2l-5.3-.5-5.4-.3-5.4-.1-5.4.2-5.3.5-5.3.9v-.2c20.5 8.2 41.5 14.9 63 20v.2l-93.1-13.7v-.2l55.8 1.8 13.9.4c4.6.1 9.3.2 13.9.8 2.3.3 4.6.6 6.9 1.1 2.3.5 4.5 1.2 6.6 2.1 2.1 1 4.2 2.1 6 3.6 1.8 1.5 3.3 3.3 4.5 5.3v.1h-.1l-11.4 5-11.5 4.8c-3.8 1.6-7.7 3.1-11.6 4.6-3.9 1.5-7.8 3-11.6 4.4l-11.7 4.2c-3.9 1.4-7.8 2.7-11.8 4-3.9 1.3-7.9 2.6-11.8 3.8l-11.9 3.7-.1-.1 5.8-2.7c2-.9 3.9-1.7 5.9-2.5l6-2.4c2-.8 4-1.5 6-2.2 8.1-2.9 16.3-5.4 24.5-7.8l12.4-3.6c4.1-1.2 8.2-2.4 12.4-3.4 4.2-1 8.4-1.8 12.7-2.1 2.1-.2 4.3-.2 6.4 0 2.1.2 4.3.5 6.4 1h.2l-.2.1-4.6 2.4-4.6 2.3-4.7 2.2-4.7 2.2-4.7 2.1-4.8 2-4.8 1.9-4.8 1.8-4.9 1.7-4.9 1.6-4.9 1.5-5 1.4-5 1.3-5 1.3-5 1.2-5.1 1.1-.2.1.2-.2c13.9-13.8 28.4-27.2 43.3-40v.1l-4.9-.8c-1.6-.2-3.3-.4-4.9-.5-1.7-.1-3.3-.2-5-.2-1.7 0-3.3 0-5 .1l-5 .3c-1.6.2-3.3.3-4.9.6l-4.9.8c-1.6.3-3.3.6-4.9 1l-4.8 1.1-4.8 1.2-4.8 1.4-4.8 1.4c-3.2 1-6.3 2-9.5 3.1l-9.2 3.4-.1-.1c20.8-8.2 41.1-17.4 60.9-27.7v.1l-4.9.6c-1.6.3-3.2.6-4.9.9-1.6.3-3.2.7-4.8 1.1-1.6.4-3.2.9-4.7 1.4-1.6.5-3.1 1-4.7 1.6l-4.6 1.8c-1.5.6-3 1.3-4.5 2l-4.4 2.2-1.9 9.9-.1-.1 3.8-.7 3.8-.6 3.9-.4 3.9-.3 3.9-.2 3.9-.1h3.9l3.9.1 3.9.3 3.9.4 3.9.5 3.8.6 3.8.7 3.8.8 3.8 1 3.7 1.1h.1v.1l-1.9 3.5-2 3.4-2.1 3.4-2.2 3.3-2.3 3.3-2.4 3.2-2.5 3.1-2.5 3.1-2.6 3-2.7 2.9-2.8 2.9-2.9 2.8-2.9 2.7-3 2.6-3.1 2.5-3.1 2.5-.1-.1c1.7-1.8 3.4-3.5 5.2-5.2l5.3-5.1c1.8-1.7 3.6-3.3 5.5-4.9 1.9-1.6 3.7-3.2 5.6-4.7 1.9-1.5 3.8-3.1 5.8-4.5l5.9-4.4c2-1.4 4-2.8 6.1-4.2 2-1.4 4.1-2.7 6.2-4h.1v.1c.8 1.8 1.4 3.7 1.6 5.6.2 1.9.1 3.9-.2 5.8-.6 3.9-1.8 7.6-3.3 11.2-1.5 3.6-3.2 7.1-4.8 10.6-1.7 3.5-3.3 7-5.1 10.5-6.9 14-14.3 27.7-22.2 41.1l-.2.3.1-.4 20.8-100.4.1-.5v.5c1.3 31.1 2 62.2 2.1 93.3h-.1c5.3-34.1 11.7-68.1 19.3-101.8v-.1h.1l5.9.8h.1v.1l-8.7 92.1h-.1c7-25.3 13.4-50.8 19.3-76.5v-.1h.1l6.5 3 1.4 36.4v.1h-.1c-1.1-.6-2.2-1.4-3.1-2.2-.9-.9-1.7-1.9-2.4-3-1.3-2.2-2.2-4.6-3-7.1-.7-2.5-1.3-5-1.9-7.4l-1.8-7.5-3.7-14.9c-.6-2.5-1-5.1-.9-7.6.1-1.3.4-2.6.9-3.7.6-1.2 1.5-2.2 2.6-2.8h.1v.1c15.2 29.9 30.9 59.5 47.3 88.7l-.1.1-22.2-34.7-11.1-17.3c-1.8-2.9-3.8-5.8-5.1-8.9-.7-1.6-1.2-3.2-1.5-4.9-.3-1.7-.2-3.5.2-5.1v-.1l.1.1 45.1 45.9-.1.1-48.1-43.5-.1-.1h.1c2.5-.5 5.2.2 7 2l.2.2-.3-.1-59-27.7v-.4l.4.1 33.5 5.5h.2l-.2.1-12.4 4.3-12.3 4.4-6.1 2.3-6.1 2.4-6.1 2.5-6 2.6-6 2.7-5.9 2.8-5.8 3-5.7 3.1-5.6 3.3-5.5 3.5-5.4 3.7-5.3 3.9-.1-.1 65.1-37.1 32.5-18.6 8.1-4.6c2.7-1.5 5.4-3.1 8.2-4.6 2.7-1.5 5.6-2.8 8.6-3.7 3-.9 6.2-1.2 9.3-.6h.2l-.2.1-130.9 45.3v-.1c7.9-2.7 15.7-5.4 23.6-7.9 3.9-1.3 7.9-2.6 11.8-3.8 4-1.2 7.9-2.5 11.9-3.6l6-1.7 6-1.7 6-1.6 6-1.5 6.1-1.4 6.1-1.3 6.1-1.2 6.1-1h.2l-.1.1c-22.5 18.4-45.7 35.8-69.7 52.3l-.1-.1c15.5-11.2 31.7-21.4 48.6-30.4l.2-.1-.1.2c-3.4 4.8-6.9 9.5-10.6 14.1-1.8 2.3-3.7 4.6-5.6 6.8-1.9 2.2-3.8 4.5-5.8 6.6-3.9 4.4-7.9 8.6-12.1 12.8-2.1 2.1-4.2 4.1-6.3 6.1-1.1 1-2.1 2.1-3.3 2.9-.6.4-1.3.7-2 .9-.7.2-1.5.1-2.1-.4l1.8-3.7 1.9-3.7 2-3.6 2-3.6 2.1-3.5 2.2-3.5 2.2-3.5 2.3-3.4 2.3-3.4 2.4-3.3 2.5-3.3 2.5-3.3 2.6-3.2 2.6-3.2 2.7-3.1 2.7-3.1.1.1-21 34.4-.1-.1c14.1-12.1 27.3-25.3 39.2-39.5l.1.1-42.8 26.4c-.3-.6-.5-1.3-.5-2s.1-1.4.3-2c.4-1.3 1.2-2.5 2-3.5.8-1.1 1.8-2 2.8-3l3.1-2.7c4.1-3.6 8.3-7.1 12.6-10.4l3.3-2.5 3.3-2.4c1.1-.8 2.2-1.5 3.4-2.3 1.1-.8 2.3-1.4 3.5-2.2 1.2-.7 2.3-1.4 3.5-2l3.6-1.9 3.7-1.7c1.2-.6 2.5-1 3.8-1.5l.3-.1-.2.2c-14.2 11.6-29.3 22.1-45 31.5l-.2.1.2-.2c16.7-19.8 32.5-40.3 47.3-61.6-.3-1.3-.9-2.5-1.8-3.6-.9-1-2-1.8-3.1-2.5-1.2-.7-2.5-1.1-3.8-1.4-1.3-.3-2.6-.5-4-.6-1.3-.1-2.7-.1-4 0-1.3.1-2.7.3-4 .5-1.3.2-2.7.4-4 .8-1.3.3-2.6.6-3.9 1-1.3.4-2.6.8-3.8 1.2-1.3.4-2.5.9-3.8 1.4-1.2.5-2.5 1-3.7 1.6l-3.6 1.8-3.5 2c-1.2.7-2.3 1.5-3.4 2.2-1.1.8-2.2 1.6-3.2 2.4-1.1.8-2.1 1.7-3.1 2.6v-.1l2.9 2.6 3 2.6 3 2.5 3.1 2.4 3.2 2.3 3.2 2.3 3.3 2.2 3.3 2.1 3.4 2 3.4 2 3.5 1.9 3.5 1.8 3.5 1.7 3.6 1.6 3.6 1.6 3.6 1.5 5.1-4.4v.1c-19.9-16.2-40.6-31.5-62.2-45.4v-.1c21.4 15.8 43.3 31.1 65.4 45.8h-.1c.2-3.6-.2-7.2-1.2-10.7-.9-3.5-2.2-6.8-3.7-10.1l-4.5-9.8-4.6-9.8-18-38.9h.1c11.2 22.4 21.5 45.3 30.9 68.6.8-.1 1.6-.4 2.3-.9.7-.5 1.2-1.1 1.7-1.7.9-1.4 1.5-2.9 1.8-4.5.4-1.6.6-3.2.6-4.9l.2-4.9.8-19.7 1.6-39.3h.1c-6.2 22.5-11.2 45.3-15 68.3l4.4-1.8 4.2-2.2 4-2.5c1.3-.9 2.6-1.8 3.9-2.8l3.7-3 3.6-3.2 3.5-3.3 3.4-3.4 6.6-6.8c2.2-2.3 4.4-4.5 6.7-6.8l3.4-3.3 3.5-3.2 3.7-3 3.8-2.9v.1l-3.4 2.6-3.4 2.6-3.3 2.7-3.2 2.8-3.2 2.9-3.1 3-3 3-2.9 3.1-2.9 3.2-2.8 3.2-2.7 3.3-2.6 3.4-2.5 3.4-2.5 3.5-2.4 3.6-2.3 3.6v-.1l4.2-.3 4.2-.4 4.2-.5 4.1-.6 4.1-.7 4.1-.8 4.1-.9 4.1-1 4.1-1.1 4-1.2 4-1.2 4-1.3 3.9-1.4 3.9-1.5 3.9-1.6 3.8-1.7v.1l-5.1.9-2.6.5-2.5.6-5.1 1.1-5.1 1.3c-1.7.4-3.4.9-5 1.3-1.7.5-3.4.9-5 1.4l-10 3-19.9 6.3-9.9 3.2c-3.3 1.1-6.7 2-10 3l-5 1.4c-1.7.5-3.4.9-5 1.3l-5.3 1.1-5.1 1.1-2.5.6-2.6.5-5.1.9-5.2.7c-1.7.2-3.4.5-5.2.5-.9 0-1.7-.2-2.6-.5-.8-.3-1.6-.8-2.2-1.4-1.3-1.1-2.4-2.6-3.4-3.9-2.2-2.7-4.5-5.3-7-7.7-5-4.8-10.7-8.9-16.8-12.2l-.3-.1.3.1 80.6 22.5v.1l-41.9-3.4-21-1.7-10.5-.8c-1.7-.1-3.5-.3-5.2-.2-1.7.1-3.5.6-4.9 1.6v-.1l95.5 27h.1c-1.7 1.4-3.5 2.6-5.4 3.6-1.9 1-3.9 1.8-6 2.5s-4.2 1.2-6.3 1.6c-2.1.4-4.3.8-6.4 1-4.3.5-8.6.8-13 1.2l-13 1.1c-8.6.7-17.3 1.3-26 1.6-4.3.2-8.7.3-13 .4-4.3 0-8.7 0-13-.1h-.2.2l58.3-12.7 29.2-6.5c9.7-2.2 19.5-4.3 28.8-7.9v.1l-6.6-.3-6.6-.5-6.6-.6-6.6-.7-6.5-.9-6.5-1-6.5-1.1-6.5-1.3-6.4-1.4-6.4-1.5-6.4-1.7-6.3-1.7-6.3-2-6.3-2-6.2-2.2-6.2-2.3-.1-.1h.2c1.8.1 3.6.2 5.4.4 1.8.2 3.6.5 5.3.8 1.8.3 3.5.7 5.3 1.1 1.7.4 3.5.9 5.2 1.4 6.9 2 13.6 4.5 20.4 6.8l40.7 14.1-91.1-51.7 94.4 47.9-65.8-65.8 9 11.6c3 3.9 6 7.7 9.1 11.5l4.6 5.7 4.7 5.7 4.7 5.6 4.8 5.5 4.9 5.4 5 5.3 5.2 5.2 5.3 5.1 5.4 4.9 5.6 4.8 5.7 4.6 5.9 4.4-41.3-108.2c11.2 30.8 23.4 61.2 36.7 91.2l-8.8-108.3-3.1 23.1c-.5 3.9-.9 7.7-1.3 11.6-.2 1.9-.4 3.9-.5 5.8l-.4 5.8-.1 2.9-.1 2.9c-.1 1.9 0 3.9 0 5.8l.2 5.8.5 5.8.8 5.8.5 2.9.7 2.8c.4 1.9 1 3.7 1.6 5.6l.9 2.7 1 2.7c19.4-13.9 38.2-28.5 56.6-43.8-20.4 17.7-42.1 33.9-64.8 48.6l18.5-10.5 9.3-5.1 9.4-5 9.5-4.8 4.8-2.3 4.8-2.2 4.9-2.1 4.9-2.1 4.9-2 5-1.9-9 5.6-9 5.7-4.4 2.9-4.4 3-4.4 3-4.3 3.1-4.3 3.2-4.2 3.3-4.1 3.4-4 3.5-3.9 3.6-3.8 3.7-3.6 3.9-3.5 4 4.5-1.2 4.5-1.2c3-.9 5.9-1.7 8.9-2.7 2.9-.9 5.9-1.9 8.8-2.9 2.9-1 5.8-2.1 8.7-3.2 2.9-1.1 5.8-2.2 8.6-3.4 2.9-1.2 5.7-2.4 8.5-3.6 2.8-1.3 5.6-2.5 8.4-3.9l4.2-2 4.2-2.1c-30.3 8.8-60.4 18.4-90.2 28.9l11.9-1.9c4-.7 7.9-1.4 11.8-2.2l11.8-2.4c3.9-.8 7.8-1.7 11.8-2.6l11.7-2.8c3.9-1 7.8-2 11.6-3.1l11.6-3.3c3.9-1.1 7.7-2.3 11.5-3.5-14.1-6.3-28.9-11.1-44-14.4-.5 2.1-.7 4.3-.6 6.5.2 2.2.8 4.3 1.6 6.4.8 2 1.9 4 3.1 5.8 1.2 1.8 2.6 3.6 4 5.2 1.4 1.7 2.9 3.3 4.5 4.8l4.7 4.6 9.5 9.1 37.9 36.5-84.8-57.3 47.6 58-1.7-.4-1.6-.5c-.5-.2-1-.4-1.6-.7l-1.5-.8c-1-.6-1.9-1.2-2.8-1.9-.9-.7-1.7-1.4-2.6-2.2-3.3-3.1-6-6.7-8.9-10.1-.7-.9-1.5-1.7-2.3-2.5l-2.4-2.4c-.8-.7-1.7-1.5-2.6-2.1-.9-.7-1.8-1.3-2.8-1.9-1-.6-2-1-3-1.5-.5-.2-1.1-.4-1.6-.5l-1.6-.4-1.7-.2h-1.7l-1.7.2-1.6.4 16.1 66.2-24.5-76.7-2.6 3.8-2.6 3.9-2.5 3.9-2.4 3.9-2.4 4-2.3 4-2.2 4.1-2.1 4.1-2.1 4.1-2 4.2-1.9 4.2-1.8 4.2-1.8 4.3-1.7 4.3-1.6 4.3-1.5 4.5-8.1.2c2.7-24.1 6.1-48.1 10.2-71.9l-3.1 7.2 3.1-7.2c-4.2 23.9-7.6 47.9-10.2 71.9l8.1-.2 1.5-4.4 1.6-4.3 1.7-4.3 1.8-4.3 1.8-4.2 1.9-4.2 2-4.2 2.1-4.1 2.1-4.1 2.2-4.1 2.3-4 2.4-4 2.4-3.9 2.5-3.9 2.6-3.9 2.6-3.8 24.5 76.7-16.1-66.2 1.6-.4 1.7-.2h1.7l1.7.2c.5.1 1.1.2 1.6.4l1.6.5c1 .4 2.1.9 3 1.5 1 .6 1.9 1.2 2.8 1.9.9.7 1.8 1.4 2.6 2.1.8.8 1.6 1.5 2.4 2.4l2.3 2.5c2.9 3.4 5.6 7 8.9 10.1.8.8 1.7 1.5 2.6 2.2.9.7 1.8 1.3 2.8 1.9l1.5.8c.5.2 1 .4 1.6.7l1.6.5 1.6.4-47.6-58 85.1 57.5-37.9-36.5-9.5-9.1c-1.6-1.5-3.2-3-4.7-4.6-1.6-1.5-3-3.2-4.5-4.8-1.4-1.7-2.8-3.4-4-5.2-1.2-1.8-2.3-3.8-3.1-5.8-.8-2-1.3-4.2-1.6-6.4-.2-2.2.1-4.4.6-6.5 15.1 3.3 29.9 8.1 44 14.4-3.8 1.2-7.7 2.4-11.5 3.5l-11.6 3.3c-3.9 1.1-7.8 2.1-11.6 3.1-3.9 1-7.8 1.9-11.7 2.8-3.9.9-7.8 1.8-11.8 2.6l-11.8 2.4c-3.9.8-7.9 1.5-11.8 2.2-4 .7-7.9 1.3-11.9 1.9 29.8-10.4 59.9-20.1 90.2-28.9l-4.2 2.1-4.2 2-8.4 3.9c-2.8 1.2-5.7 2.5-8.5 3.6-2.9 1.2-5.7 2.3-8.6 3.4l-8.7 3.2c-2.9 1-5.9 2-8.8 2.9l-8.9 2.7-4.5 1.2-4.5 1.2 3.5-4 3.6-3.9 3.8-3.7 3.9-3.6 4-3.5 4.1-3.4 4.2-3.3 4.3-3.2 4.3-3.1 4.4-3 4.4-3 4.4-2.9 9-5.7 9-5.6-5 1.9-4.9 2-4.9 2.1-4.9 2.1-4.8 2.2-4.8 2.3c-3.2 1.6-6.4 3.1-9.5 4.8-3.1 1.6-6.3 3.3-9.4 5l-9.3 5.1c-6.2 3.4-12.4 7-18.5 10.5 22.7-14.7 44.4-30.9 64.8-48.6-18.3 15.1-37.2 29.7-56.6 43.6l-1-2.7c-.3-.9-.7-1.8-.9-2.8-.6-1.9-1.2-3.7-1.6-5.6l-.7-2.8-.5-2.9c-.4-1.9-.6-3.8-.8-5.8-.2-1.9-.4-3.9-.5-5.8-.1-1.9-.2-3.9-.2-5.8s-.1-3.9 0-5.8l.1-2.9.1-2.9c.1-1.9.2-3.9.4-5.8.1-1.9.3-3.9.5-5.8.4-3.9.8-7.7 1.3-11.6 1-7.7 2-15.4 3.1-23.1v-.1.1l8.8 108.3v.1-.1c-13.2-30-25.4-60.4-36.7-91.2l41.4 108.1v.1h-.1l-5.9-4.4-5.7-4.6-5.7-4.7-5.4-4.9-5.3-5.1-5.2-5.2-5-5.3-5-5.5-4.8-5.5-4.7-5.6-4.7-5.7-4.6-5.7-9.1-11.5-9-11.6 65.8 65.7.1.1-.1-.1-94.4-47.8 91.1 51.8-40.8-14.1c-6.8-2.3-13.5-4.8-20.4-6.8-1.7-.5-3.5-1-5.2-1.4-1.7-.4-3.5-.8-5.3-1.1-1.8-.3-3.5-.6-5.3-.8-1.8-.2-3.6-.3-5.4-.4l6.2 2.3 6.2 2.2 6.3 2 6.3 1.9 6.3 1.8 6.4 1.7 6.4 1.5 6.4 1.4 6.5 1.3 6.5 1.1 6.5 1 6.5.9 6.6.7 6.6.6 6.6.5 6.6.3h.1-.1c-9.3 3.6-19.1 5.7-28.8 7.9l-29.2 6.4-58.3 13v-.1c4.3.1 8.7.1 13 .1 4.3-.1 8.7-.2 13-.4 8.7-.4 17.3-.9 26-1.6l13-1.1c4.3-.4 8.6-.7 13-1.2 2.2-.3 4.3-.6 6.4-1 2.1-.4 4.2-.9 6.3-1.6 2.1-.7 4.1-1.5 6-2.5 1.9-1 3.7-2.2 5.4-3.6l-95.5-27h-.1c1.4-1.1 3.2-1.5 4.9-1.7 1.8-.1 3.5.1 5.2.2l10.5.8 21 1.6 41.9 3.3v.1l-80.7-22.4v-.1c6.1 3.3 11.8 7.4 16.8 12.3 2.5 2.4 4.9 5 7 7.7 1.1 1.4 2.1 2.8 3.4 3.9.7.6 1.4 1 2.2 1.4.8.3 1.7.5 2.5.5 1.7 0 3.5-.3 5.2-.5l5.2-.7 5.1-.9 2.6-.5 2.5-.6 5.1-1.1 5.1-1.3c1.7-.4 3.4-.9 5-1.3l5-1.4 10-3c3.3-1 6.6-2.1 9.9-3.2 6.6-2.1 13.2-4.3 19.9-6.3 3.3-1.1 6.7-2 10-3 1.7-.5 3.4-.9 5-1.4 1.7-.5 3.3-.9 5-1.3l5.1-1.3c1.7-.4 3.4-.8 5.1-1.1l2.5-.6 2.6-.5 5.1-.9.3-.1-.3.1-3.9 1.7-3.9 1.6-3.9 1.5-3.9 1.4-4 1.3-4 1.2-4 1.2-4.1 1.1-4.1 1-4.1.9-4.1.8-4.1.7-4.1.6-4.2.5-4.2.4-4.2.3h-.1v-.1l2.3-3.6 2.4-3.6 2.5-3.5 2.5-3.4 2.6-3.4 2.7-3.3 2.8-3.2 2.9-3.2 2.9-3.1 3-3 3.1-3 3.2-2.9 3.2-2.8 3.3-2.7 3.4-2.6 3.4-2.6v.1l-3.8 2.9-3.7 3-3.5 3.2-3.4 3.3c-2.3 2.2-4.5 4.5-6.7 6.8l-6.6 6.8-3.4 3.4c-1.1 1.1-2.3 2.2-3.5 3.3l-3.6 3.2-3.7 3c-1.3 1-2.6 1.9-3.9 2.8-1.3.9-2.7 1.7-4 2.5-1.4.8-2.8 1.5-4.2 2.2l-4.4 1.8h-.1v-.1c3.8-23 8.8-45.8 15-68.3l.1-.3v.3l-1.6 39.3-.8 19.7-.2 4.9c-.1 1.6-.3 3.3-.6 4.9-.4 1.6-.9 3.2-1.9 4.5-.5.7-1 1.3-1.7 1.8s-1.5.7-2.3.9c-8.9-23.3-19.2-46.2-30.4-68.6h.1l18.3 39.1 4.6 9.8c1.5 3.3 3.1 6.5 4.5 9.8 1.4 3.3 2.8 6.6 3.7 10.1.9 3.5 1.4 7.1 1.2 10.7v.1h-.1c-22.2-14.8-44-30-65.5-45.8v-.1c21.6 13.9 42.2 29.2 61.9 45.7l-5.1 4.4-3.7-1.5-3.6-1.6-3.6-1.6-3.5-1.7-3.5-1.8-3.5-1.9-3.4-2-3.4-2-3.3-2.1-3.3-2.2-3.2-2.3-3.1-2.4-3.1-2.4-3-2.5-3-2.6-2.9-2.7c1-.9 2-1.8 3.1-2.6l3.2-2.4c1.1-.7 2.2-1.5 3.4-2.2 1.1-.7 2.3-1.4 3.5-2 1.2-.6 2.4-1.3 3.6-1.8 1.2-.6 2.5-1.1 3.7-1.6 1.3-.5 2.5-1 3.8-1.4 1.3-.5 2.6-.8 3.8-1.2l3.9-1c1.3-.3 2.6-.5 4-.8 1.3-.2 2.7-.4 4-.5 1.3-.1 2.7-.1 4 0 1.3.1 2.7.3 4 .6 1.3.3 2.6.7 3.8 1.4 1.2.6 2.3 1.5 3.2 2.5.9 1 1.5 2.3 1.8 3.6-14.9 21.2-30.7 41.7-47.3 61.5l-.1-.1c15.7-9.4 30.8-20 45-31.5v.1c-1.3.5-2.6.9-3.8 1.5-1.3.5-2.5 1.1-3.7 1.7-1.2.6-2.4 1.2-3.6 1.9-1.2.6-2.4 1.3-3.5 2s-2.3 1.4-3.5 2.2c-1.1.7-2.3 1.5-3.4 2.3l-3.3 2.4c-1.1.8-2.2 1.6-3.3 2.5-4.3 3.4-8.4 6.9-12.6 10.4-2 1.8-4.2 3.5-5.9 5.6-.8 1.1-1.6 2.2-2 3.5-.2.6-.3 1.3-.3 2s.2 1.3.5 1.9h-.1l42.8-26.4.2-.1-.2.2c-12 14.2-25.1 27.5-39.2 39.5l-.2.2.2-.3 21-34.4.1.1-2.6 3-2.7 3.1-2.6 3.2-2.6 3.2-2.5 3.3-2.5 3.3-2.4 3.3-2.3 3.4-2.3 3.4-2.2 3.5-2.2 3.5-2.1 3.5-2 3.6-2 3.6-1.9 3.6-1.8 3.7v-.1c.6.4 1.4.5 2.1.4.7-.1 1.4-.5 2-.9 1.2-.8 2.2-1.9 3.3-2.9l6.3-6.1c4.1-4.2 8.2-8.4 12.1-12.8 2-2.2 3.9-4.4 5.8-6.6 1.9-2.2 3.8-4.5 5.6-6.8 3.7-4.6 7.2-9.3 10.6-14.1l.1.1c-16.8 9-33.1 19.2-48.6 30.4l-.1-.1c23.9-16.5 47.2-33.9 69.7-52.3v.1l-6.1 1-6.1 1.2-6.1 1.3-6.1 1.4-6 1.5-6 1.6-6 1.7-6 1.7-11.9 3.6c-4 1.3-7.9 2.5-11.8 3.8l-23.6 7.9v-.1l130.6-45.1v.1c-3.1-.7-6.2-.3-9.2.6-3 .9-5.8 2.2-8.6 3.7-2.7 1.5-5.4 3.1-8.2 4.6l-8.1 4.6-32.5 18.6-65.1 37.1-.1-.1 5.3-3.9 5.4-3.7 5.5-3.5 5.6-3.3 5.7-3.2 5.8-3 5.9-2.8 6-2.7 6-2.6 6.1-2.5 6.1-2.4 6.1-2.3c4.1-1.5 8.2-3 12.3-4.4l12.4-4.3v.1l-33.5-5.5v-.1l59 27.6-.1.1c-1.8-1.7-4.5-2.5-6.9-2v-.1l48.1 43.5-.1.1-45.1-45.9h.1c-.4 1.7-.4 3.4-.2 5.1.3 1.7.8 3.3 1.5 4.9 1.4 3.1 3.3 6 5.1 8.9l11.1 17.3 22.2 34.7-.1.1c-16.4-29.2-32.1-58.8-47.3-88.7h.1c-1.1.6-2 1.6-2.6 2.7-.6 1.1-.8 2.4-.9 3.7-.2 2.6.2 5.1.9 7.6l3.7 14.9 1.8 7.5c.6 2.5 1.2 5 1.9 7.4.7 2.4 1.6 4.9 3 7 .7 1.1 1.4 2.1 2.3 3 .9.9 2 1.6 3.1 2.2l-.1.1-1.4-36.4v.1l-6.5-3h.1c-5.8 25.6-12.3 51.1-19.3 76.5h-.1l8.7-92.1.1.1-5.9-.8h.1c-7.6 33.7-14 67.7-19.3 101.8h-.1c-.1-31.1-.9-62.2-2.1-93.3h.1l-20.7 100.3h-.1c7.9-13.4 15.3-27.1 22.2-41l5.1-10.5c1.6-3.5 3.3-7 4.8-10.6 1.5-3.6 2.7-7.3 3.3-11.1.3-1.9.4-3.9.1-5.8-.2-1.9-.7-3.8-1.5-5.6h.1c-2.1 1.3-4.1 2.6-6.2 4l-6.1 4.2c-2 1.4-4 2.9-5.9 4.4l-5.8 4.5c-1.9 1.5-3.8 3.1-5.6 4.7-1.9 1.6-3.7 3.2-5.5 4.9-1.8 1.7-3.6 3.3-5.3 5.1-1.8 1.7-3.5 3.5-5.2 5.2l-.1-.1 3.1-2.4 3.1-2.5 3-2.6 2.9-2.7 2.9-2.8 2.8-2.9 2.7-2.9 2.6-3 2.5-3.1 2.5-3.1 2.4-3.2 2.3-3.3 2.2-3.3 2.1-3.4 2-3.4 1.9-3.5v.1l-3.7-1.1-3.8-1-3.8-.8-3.8-.7-3.8-.6-3.9-.5-3.9-.4-3.9-.3-3.9-.1h-3.9l-3.9.1-3.9.2-3.9.3-3.9.4-3.8.6-3.8.7h-.1v-.1l1.9-9.9c1.5-.8 2.9-1.5 4.4-2.2 1.5-.7 3-1.4 4.5-2l4.6-1.8c1.6-.6 3.1-1.1 4.7-1.6l4.8-1.4c1.6-.4 3.2-.8 4.8-1.1 1.6-.3 3.2-.6 4.9-.9 1.6-.2 3.3-.5 4.9-.6h.4l-.3-.2c-19.8 10.3-40.2 19.5-61 27.7l-.1-.1 9.4-3.3c3.1-1.1 6.3-2.1 9.5-3.1l4.8-1.4 4.8-1.4 4.8-1.2c1.6-.4 3.2-.7 4.9-1.1l4.9-1 4.9-.8 4.9-.6c1.7-.2 3.3-.2 5-.3 1.7-.1 3.3-.1 5-.1 1.7 0 3.3.1 5 .2 1.7.1 3.3.3 5 .5l4.9.8h.2l-.1.1c-14.9 12.8-29.3 26.1-43.3 40l-.1-.1 5.1-1.1 5-1.2 5-1.3 5-1.3 5-1.4 4.9-1.5 4.9-1.6 4.7-1.7 4.8-1.8 4.8-1.9 4.8-2 4.7-2.1 4.7-2.2 4.7-2.2 4.6-2.3 4.6-2.4v.1c-2.1-.5-4.2-.8-6.3-1-2.1-.1-4.3-.1-6.4 0-4.3.3-8.5 1.1-12.7 2.1-4.2 1-8.3 2.2-12.4 3.4l-12.4 3.6c-8.2 2.4-16.4 5-24.5 7.8-2 .7-4 1.4-6 2.2l-6 2.3c-2 .8-4 1.6-5.9 2.5-2 .8-3.9 1.8-5.8 2.7l-.1-.1c4-1.2 7.9-2.4 11.9-3.7 4-1.3 7.9-2.5 11.8-3.8l11.8-4 11.7-4.2c3.9-1.4 7.8-2.9 11.6-4.4 3.9-1.5 7.7-3 11.6-4.6l11.5-4.8c3.8-1.6 7.6-3.3 11.4-5v.1c-1.2-2-2.7-3.8-4.4-5.3-1.8-1.5-3.8-2.6-5.9-3.6-2.1-1-4.4-1.6-6.6-2.1-2.3-.5-4.6-.9-6.9-1.1-4.6-.5-9.3-.6-13.9-.8l-13.9-.4-55.9-1.7v-.2l93.2 13.9v.2c-21.5-5.1-42.5-11.8-63-20l-.3-.1h.3l5.3-.9 5.3-.5 5.4-.2 5.4.1 5.4.3 5.3.5 10.7 1.2c3.5.4 7.1.9 10.7 1.2l5.3.5 5.4.3 5.4.1 5.4-.2 5.3-.6 5.3-1v.2l-73.6-32 .1-.1c11 9.6 22.9 18.2 35.6 25.6h-.1l12-8v.1c-4.4-24.3-10.3-48.4-17.6-72h.2c1 19.2 2.8 38.4 5.5 57.5h-.2c1.7-17.3 2.6-34.7 2.5-52v-.1h.1l6.3-.8h.1v.1l1.2 3.9 1.1 3.9 1.1 3.9 1 4 .9 4 .9 4 .8 4 .7 4 .6 4 .6 4 .5 4.1.4 4.1.4 4.1.3 4.1.2 4.1.1 4.1v.3l-.2-.3-26.5-40.2.1-.1 27.1 56.7-.2.1c-13.3-21-27.4-41.5-42.2-61.4l.2-.1v3.9l.3 3.9.5 3.9.7 3.9.9 3.8 1 3.8 1.2 3.8 1.3 3.7 1.4 3.7 1.5 3.6 1.6 3.6 1.7 3.6c1.1 2.4 2.3 4.7 3.5 7.1l3.6 7h-.1l18.2-9.4c1.5-.8 3.1-1.5 4.5-2.4 1.4-.9 2.7-2 3.6-3.5.9-1.4 1.5-3 2.1-4.6l1.9-4.7 7.8-18.9 3.9-9.4c.6-1.6 1.2-3.2 1.6-4.8.4-1.6.6-3.3.5-5h.2l-12.4 27.6v.1l-.1-.1c-.8-.7-1.1-1.8-1.1-2.8 0-1 .2-2 .4-3l1.5-5.9 2.9-11.8 5.9-23.5.2.1-6.3 10.5c-2.1 3.5-4.1 7.1-6.1 10.6l-6 10.7c-2 3.6-3.9 7.2-5.8 10.8-1.9 3.6-3.8 7.2-5.6 10.9-1.8 3.6-3.7 7.3-5.5 11-1.8 3.7-3.6 7.4-5.3 11.1l-5.1 11.1v-.1c1.8 1.4 4.2 2.1 6.5 2.1s4.6-.5 6.8-1.5c2.1-.9 4.1-2.2 6-3.7 1.9-1.4 3.6-3 5.3-4.6 6.9-6.3 13.9-12.6 21-18.7 14.2-12.2 28.7-24.1 43.6-35.5l.1.1-51.2 58.4-.1-.1 3.7-1.9 3.7-1.8 3.8-1.7 3.8-1.6 3.8-1.5 3.9-1.4 3.9-1.3 4-1.2 4-1.1 4-1 4-.8 4.1-.7 4.1-.6 4.1-.5 4.1-.4 4.1-.3h.3l-.3.2-5.5 3.6c-1.9 1.2-3.7 2.3-5.6 3.4-1.9 1.1-3.8 2.2-5.7 3.2-1.9 1-3.9 2.1-5.8 3-2 1-3.9 1.9-5.9 2.8-2 .9-4 1.8-6 2.6s-4.1 1.7-6.1 2.4c-2.1.8-4.1 1.5-6.2 2.2l-.1-.2c16.1-9.2 32.9-17.2 50.1-23.9l.1.2-32.9 19.2-8.2 4.8c-2.7 1.6-5.5 3.2-8.2 4.9-5.4 3.4-10.5 7.2-14.5 12.1l-.1-.2c18.9-3.6 37.9-6.6 57-8.8v.2c-14.1 4.3-28.4 7.8-42.9 10.5l.1-.1c.7 1.1 1.7 2 2.9 2.6 1.1.6 2.4 1.1 3.7 1.4 2.6.6 5.2.8 7.9 1.2l15.8 1.9 31.7 3.7v.2l-30.5-1.6-15.3-.8c-2.5-.1-5.1-.2-7.6-.1s-5.1.5-7.5 1.3v-.2l55.2 19.8-.1.2-22.6-4.9-5.7-1.2c-1.9-.4-3.8-.8-5.7-.9-1 0-1.9 0-2.9.1-.9.1-1.9.3-2.8.6-.9.3-1.7.8-2.5 1.4-.7.7-1.2 1.5-1.6 2.3v-.1c13.1 11.3 25.4 23.6 36.7 36.8l.3.3-.4-.2-3.8-1.6-3.7-1.8-3.6-1.9-3.5-2.1-3.5-2.2-3.4-2.4-3.3-2.5-3.2-2.6-3.1-2.7-3.1-2.7-3-2.8-3-2.8c-2-1.9-3.9-3.8-5.9-5.8l-5.8-5.9.2-.1 27.3 47.8-.2.1-1.2-3-1.1-3-1-3-1-3.1-.9-3.1-.8-3.1-.7-3.1-.6-3.1-.6-3.2-.5-3.2-.4-3.2-.3-3.2-.2-3.2-.2-3.2-.1-3.2v-3.3h.1c4 1 7.9 2.6 11.4 4.7l-.1.1-1.6-3.2-1.7-3.1-1.8-3.1-1.8-3.1-1.9-3-2-3-2.1-2.9-2.1-2.8-2.2-2.8-2.3-2.7-2.4-2.7-2.4-2.6-2.5-2.5-2.6-2.5-2.6-2.4-2.7-2.3h.1c-1.1 1.4-2.2 2.8-3 4.5-.8 1.6-1.3 3.3-1.8 5.1-.3 1.8-.6 3.6-.7 5.4-.1 1.8 0 3.6.1 5.4.2 1.8.4 3.6.7 5.4.3 1.8.7 3.5 1.1 5.3.8 3.5 1.7 7 2.6 10.5 1.8 7 3.6 14 5.9 20.9l1.8 5.1 1.9 5.1 2.1 5c.7 1.7 1.5 3.3 2.3 4.9l-.2.1-5-66.9.2.1c-1.5 1.1-2.7 2.4-3.7 3.9s-1.7 3.1-2.4 4.8c-1.3 3.4-2 6.9-2.8 10.4-1.7 7-3.3 14.1-4.8 21.1-3.1 14.1-6 28.2-8.8 42.4l-.2-.1c6.1-10.4 11.5-21.2 16.4-32.3v-.1h.1l3.6 1.5h.1v.1l-.4 2.6-.5 2.6-.6 2.6-.7 2.5-.8 2.5-.9 2.5-1 2.4-1.1 2.4-1.2 2.3-1.3 2.3-1.4 2.2-1.5 2.2-1.6 2.1-1.7 2-1.8 2-1.9 1.9-.1.1-.1-.1-1.6-3.5-1.4-3.6-1.2-3.7-1-3.8c-.3-1.3-.6-2.5-.8-3.8-.2-1.3-.5-2.6-.7-3.8-.2-1.3-.4-2.6-.5-3.9l-.4-3.9c-.2-2.6-.4-5.2-.4-7.8-.1-2.6-.1-5.2-.1-7.8l.1-7.8.3-7.8h.2c-8 20.6-15.2 41.6-21.3 62.8l-.2-.1 27.2-96 .2.1-27.5 74.5-.2-.1c6.8-15.7 14.2-31.2 22.3-46.3v-.1h.1l6.4-.5h.1v.1c-2.1 15.4-4.7 30.8-7.8 46h-.2c.5-2.1 1-4.2 1.6-6.3.6-2.1 1.2-4.2 1.8-6.2.6-2.1 1.3-4.1 2-6.2.7-2 1.4-4.1 2.2-6.1l2.4-6c.8-2 1.7-4 2.6-6 .9-2 1.8-3.9 2.8-5.9l2.9-5.8.2-.3v.4l.7 5.3.5 5.3.4 5.3.2 5.3.1 5.3v5.3l-.2 5.3-.2 5.3-.3 5.3-.4 5.3c-.3 3.5-.6 7-1 10.6-.7 7-1.6 14-2.4 21.1l-.1 1-.1-1.1c-1.6-17.3-3.2-34.5-4.3-51.8-.3-4.3-.5-8.7-.7-13l-.3-6.5-.2-6.5-.1-6.5v-13l.1-6.5v-.8l.2.8 19.7 73.1h-.2l-9.9-65.1.2-.1c5.8 17.8 11.1 35.8 15.9 53.9l-.2.1-24.5-56.3-.2-.5.4.3c20.3 17.7 39.6 36.6 57.6 56.7l.7.8-.9-.6c-20.2-14.4-40-29.4-59.3-44.9l-.4-.3.5.1 2.5.4 2.5.4c1.7.2 3.3.4 5 .5 1.7.1 3.4.2 5 .3h5c1.7 0 3.4-.1 5-.3 1.7-.1 3.4-.3 5-.5 1.7-.2 3.3-.5 5-.8l2.5-.5 2.5-.5-.1.1 3-11.3.1.1-3.7-1.7-3.8-1.7-3.8-1.6-3.8-1.5-3.9-1.4-3.9-1.3-3.9-1.2-3.9-1.2-4-1.1-4-1-4-.9-4-.8-4-.8-4.1-.7-4.1-.6-4.1-.5-.5-.1.5-.2c13.8-4.8 27.4-10 40.9-15.6 6.7-2.8 13.4-5.7 20.1-8.8l9.9-4.6c1.6-.8 3.3-1.6 4.8-2.6s2.8-2.3 3.6-3.9l.2.2-40.6 22.2-.1-.2 49.4-40.6.1.2-4.1 2-4.1 2-4.1 2.1-4 2.2-4 2.3-3.9 2.4-3.9 2.4-3.8 2.5-3.8 2.6-3.7 2.7-3.7 2.7-3.6 2.8-3.6 2.9-3.5 3-3.4 3-3.4 3.1-.1-.2 4.2-.8 4.1-.9c2.8-.6 5.5-1.2 8.2-1.9l8.2-2.1 8.1-2.4c2.7-.8 5.4-1.7 8-2.6 2.7-.9 5.3-1.9 8-2.9 2.6-1 5.3-2 7.9-3.1l3.9-1.6 3.9-1.7.1.2-7.5 3.2c-2.5 1.1-4.9 2.3-7.4 3.5-2.4 1.2-4.9 2.4-7.3 3.7l-7.2 3.9c-2.4 1.3-4.7 2.7-7 4.1-2.3 1.4-4.6 2.8-6.9 4.3-2.3 1.5-4.6 2.9-6.8 4.5l-6.7 4.6v-.2c1.6.4 3.1.8 4.7 1 1.6.3 3.2.4 4.8.4 3.2.1 6.5-.2 9.7-.6 3.2-.5 6.4-1.1 9.6-1.8 3.2-.7 6.3-1.4 9.5-2.2 12.6-3.1 25.1-6.8 37.4-11.1l.1.2-5.6 1.3-5.7.9-5.6 1-5.6 1.1-5.6 1.2-5.6 1.3-5.6 1.4-5.5 1.5-5.5 1.6-5.5 1.7-5.4 1.8-5.4 1.9-5.4 2-5.3 2.1-5.3 2.2-5.3 2.3v-.2l4.3.4 4.3.3 4.3.2 4.4.2 8.7.2c2.9 0 5.8 0 8.7-.1 11.6-.2 23.2-.9 34.8-1.7v.2l-3.1-.6-3.1-.6-3.1-.5-3.1-.4-3.1-.3-3.1-.3-3.1-.2-3.1-.1h-6.2l-3.1.1-3.1.2-3.1.3-3.1.3-3.1.4-3.1.5v-.2c14.5 9.5 30.1 17.4 46.2 23.6l-.1.2-53.3-22.2.1-.2c21.2 16.5 42 33.4 62.5 50.7l-.1.2c-27.3-15.2-53.7-32-79.2-50.2l.1-.2c20.1 18.9 41.3 36.6 63.5 53l-.1.2c-19-15.2-36.9-31.6-53.6-49.2l-.3-.3.4.1 3 .7 3 .6c2 .4 4.1.8 6.1 1.1 2.1.3 4.1.6 6.2.8l6.2.6 6.2.3c2.1.1 4.2.1 6.2.1 2.1 0 4.2-.1 6.2-.2l3.1-.2 3.1-.3v.2l-5.6.1-5.5.3-5.5.4-5.5.5-5.5.7-5.5.8-5.5.9-5.4 1.1-5.4 1.2-5.4 1.3-5.4 1.5-5.3 1.6-5.3 1.7-5.2 1.9-5.2 2-5.1 2.1-.1-.2c37.3-15.4 75.2-29.5 113.5-42.2l.1.2-93.3 35.5-.7.3.6-.5 71.9-55.7v.2c-.7-.4-1.4-.7-2.2-.9-.8-.1-1.6-.2-2.4-.1-1.6.2-3.2.6-4.7 1.3-1.5.6-2.9 1.4-4.3 2.2l-4.2 2.4c-5.6 3.3-11.2 6.6-16.7 10.1-11 6.9-21.8 14.2-32.3 21.9l-.5.4.4-.6 41.8-58.9.2.1-54.6 74.7-.4.6.2-.7 34.7-105.6.2.1-30.4 55.5-.2-.1c1.8-2.4 3.6-4.9 5.5-7.3 1.9-2.4 3.8-4.8 5.7-7.1 1.9-2.3 3.9-4.7 5.9-7 2-2.3 4-4.6 6-6.8s4.1-4.5 6.2-6.7c2.1-2.2 4.2-4.4 6.4-6.5 2.2-2.1 4.3-4.3 6.5-6.3 2.2-2.1 4.4-4.1 6.7-6.2l.2.1-4.2 5.7-4.1 5.7-4 5.8-4 5.9-3.9 5.9-3.8 6-3.7 6-3.6 6.1-3.5 6.2-3.4 6.2-3.3 6.3-3.2 6.3-3.1 6.4-3 6.4-2.9 6.5-2.8 6.5-.2-.1c3.3-3.1 6.1-6.8 8.5-10.7 2.5-3.8 4.7-7.8 7-11.8 2.3-3.9 4.7-7.8 7.2-11.7 2.5-3.9 5-7.7 7.5-11.5l7.8-11.3c2.7-3.7 5.4-7.4 8.2-11 2.8-3.6 5.6-7.2 8.5-10.8 1.4-1.8 2.9-3.5 4.4-5.3 1.5-1.8 3-3.5 4.4-5.2l.2.1-58.4 97.5-.1.2-.1-.2c-1.8-3.8-2.3-8-2.1-12.2.2-4.2.9-8.3 1.7-12.3l4.6-24.5 9.1-48.9.2.1-1.8 4.6-1.6 4.7-1.4 4.8-1.2 4.8-1.1 4.8-.9 4.9-.7 4.9-.6 4.9-.5 4.9-.4 4.9-.3 4.9-.2 5-.3 9.9-.2 9.9v.6l-.2-.6c-8.3-26.2-14.9-53-20.2-80h.2c1 3.1 2.1 6.3 3.2 9.4l3.4 9.3 3.6 9.3c1.3 3.1 2.5 6.1 3.9 9.2 1.3 3 2.7 6.1 4.1 9.1 1.4 3 2.8 6 4.3 9l4.5 8.9c1.5 2.9 3.1 5.9 4.7 8.8l.4.8-.6-.7-50.1-57.2.2-.1c.6 4.2 2 8.3 3.8 12.1 1.8 3.8 4.1 7.4 6.5 11 4.8 7 9.8 13.9 15.1 20.5 5.3 6.6 10.8 13.1 16.6 19.3 5.8 6.2 11.8 12.2 18 18l-.1.1-90-62.8.1-.2.7.5.7.6 1.2 1.2c.7.9 1.4 1.8 2 2.8 1.3 1.9 2.5 3.8 4.1 5.4.2.2.4.3.7.5.2.2.5.3.7.4.5.2 1 .5 1.6.6.5.1 1.1.2 1.7.3.6 0 1.1 0 1.7-.1.3 0 .6-.1.8-.2l.8-.3c.5-.2 1-.5 1.4-.8.4-.3.8-.8 1-1.3l.3-.8.1-.8v-.1l.1.1c18.5 9.2 36.5 19.7 53.7 31.2l-.1.2c-21.7-15-43.2-30.5-64.2-46.4l.1-.1 48.2 36.4.4.3-.5-.1c-18.7-5-37.2-11.1-55.1-18.4l.1-.2c10.3 4.3 20.5 8.6 30.6 13.3 2.5 1.2 5 2.4 7.5 3.7l3.7 1.9 3.7 2 3.7 2 3.6 2.1 3.6 2.2 3.5 2.2.3.2h-.3l-4.7-.2-4.7-.3-4.7-.5-4.7-.6-4.6-.8-4.6-.9-4.6-1.2-4.5-1.2-4.5-1.4-4.4-1.5-4.5-1.7-4.3-1.8-4.3-2-4.2-2.1-4.1-2.3-4-2.4.1-.2 53.6 19.8.7.3-.7-.1c-1.8-.2-3.5-.4-5.2-.7-1.7-.3-3.5-.5-5.2-.9-1.7-.3-3.5-.7-5.2-1.1-1.7-.4-3.4-.8-5.1-1.3-1.7-.5-3.4-.9-5.1-1.5-1.7-.5-3.4-1.1-5-1.7-1.7-.6-3.3-1.2-5-1.9-1.6-.7-3.3-1.3-4.9-2.1l.1-.2 3.4 1 3.3 1.2 3.4.8 3.4.8c2.3.5 4.6.9 6.9 1.3 2.3.4 4.6.7 7 1.1 2.3.3 4.7.6 7 .8 2.3.2 4.7.4 7 .5l3.5.2 3.5.1h7v.2l-5.5-.5-5.5-.4c-1.8-.1-3.7-.2-5.5-.2l-5.5-.1c-1.8 0-3.7 0-5.5.1-1.8 0-3.7.1-5.5.2l-5.5.3c-1.8.1-3.7.3-5.5.5l-5.5.6-5.5.7c-1.8.2-3.6.6-5.5.8l-5.4 1c-1.8.3-3.6.7-5.4 1.1l-5.4 1.2-5.4 1.4c-.9.3-1.7.7-2.4 1.3-.3.3-.6.7-.8 1.1-.2.4-.1.9.1 1.2h-.1c24.2 2.7 48.6 4.6 72.9 5.6v.2l-53 3.3h-.5l.5-.2c23.5-9.5 47.2-18.5 71.1-26.9l.5-.2-.4.3-68.4 55.4-.1-.1c19.4-17.3 39.8-33.5 61-48.7l.1.1c-2.9 2-5.8 4.1-8.6 6.2-2.9 2.1-5.7 4.2-8.5 6.4l-8.4 6.6c-2.8 2.2-5.5 4.5-8.2 6.8-2.7 2.3-5.4 4.6-8 7-2.7 2.4-5.3 4.7-7.9 7.2-2.6 2.4-5.2 4.9-7.7 7.3-2.5 2.5-5.1 5-7.5 7.5l-.1-.1 10.9-5 10.9-5.1 5.4-2.6 5.4-2.7 5.3-2.8 5.3-2.8 5.2-2.9 5.2-3 5.1-3.2 5-3.3 4.9-3.4 4.8-3.6 4.7-3.7 4.6-3.9.1.1-3.9 4.7-3.8 4.8-3.8 4.9-3.7 4.9-3.6 5-3.5 5-3.4 5.1-3.4 5.2-3.3 5.2-3.2 5.3-3.1 5.3-3 5.4-2.9 5.4-2.8 5.5-2.7 5.5-2.7 5.6-.1-.1c11-22.9 23.5-45.2 37.3-66.5l.1.1-4.1 3.4-4 3.5-4 3.6-3.9 3.6-3.8 3.7-3.8 3.8-3.7 3.9-3.6 3.9-3.5 4-3.5 4.1-3.4 4.1-3.3 4.2-3.2 4.3-3.1 4.3-3.1 4.4-3 4.4-.1-.1 68.6-91.8.1.1c-20.6 27.4-40 55.7-58.1 84.9l-.1-.1c11.3-17 23.9-33 37.8-47.9l.1.1c-3.6 4.3-6.9 8.9-10 13.6-3 4.7-5.7 9.7-8.1 14.8-.6 1.3-1.2 2.6-1.7 3.8l-1.6 3.9c-1 2.6-1.9 5.3-2.5 8.1-.3 1.4-.5 2.8-.6 4.2-.1 1.4-.1 2.8.1 4.2.2 1.4.6 2.7 1.1 4 .6 1.3 1.4 2.4 2.4 3.4h-.1l3.5-3.6 3.5-3.7 3.4-3.8 3.3-3.8 3.2-3.9 3.2-3.9 3.1-4 3-4.1 2.9-4.1 2.9-4.2 2.8-4.2 2.7-4.3 2.6-4.3 2.5-4.4 2.4-4.4 2.3-4.5.1.1c-15.7 21.6-30.4 44-43.9 67l-.1-.1 17.2-37 8.6-18.5c1.4-3.1 3-6.1 3.8-9.4.4-1.6.7-3.3.6-5-.1-1.7-.7-3.3-1.9-4.6h.1c-19.1 19.8-36.9 40.9-53.1 63.2l-.1-.1 60.2-74.9.1.1c-3.5 2.5-6.9 5.1-10.3 7.6l-10.2 7.8c-3.4 2.6-6.7 5.3-10.1 8l-5 4.1-4.9 4.1-4.9 4.2-4.8 4.2-4.8 4.3-4.7 4.3-4.7 4.4-4.6 4.5-4.5 4.6-4.5 4.6-.1-.1 5-4.8 5-4.8 4.9-4.9 4.9-4.9 4.8-5 4.8-5 4.7-5.1 4.6-5.1 4.6-5.2 4.5-5.2 4.5-5.3 4.4-5.3 4.3-5.4 4.3-5.4 4.2-5.5 4.2-5.5.1.1c-3.3 2.5-6.5 4.9-9.8 7.3-3.3 2.4-6.6 4.8-9.9 7.1-3.3 2.3-6.7 4.6-10.1 6.9-3.4 2.3-6.8 4.5-10.2 6.7l-10.3 6.6-10.4 6.4-10.5 6.2c-3.5 2-7.1 4-10.7 6l-.1-.1c6.4-5.2 13.8-9.1 21.2-12.6l11.3-5.2 11.3-5.1 45.1-20.5v.1c-7.1 1.1-14.1 2.1-21.2 3.1l-10.6 1.4-10.7 1.2-5.3.5-5.3.4-5.4.4-5.4.3-5.4.2-5.4.1h-5.4l-5.4-.2v-.1c7.7-.2 15.4-.4 23.1-.7l11.5-.5 11.5-.6c3.8-.2 7.7-.5 11.5-.8l5.7-.5 5.7-.6 5.7-.7 5.7-.7 5.7-.8 5.7-.9v.1l-11.8-2.5-11.7-2.7-5.8-1.4-5.8-1.5-5.8-1.6-5.8-1.8-5.7-1.9-5.2-2.6-5.6-2.2-5.5-2.4-5.4-2.6-5.3-2.9-5.2-3.2-5-3.3.1-.1c31.2 14.4 63 27.6 95.3 39.5v.1l-5.5-2.9-5.5-3-5.4-3.1-5.4-3.1-5.4-3.2-5.3-3.3-5.3-3.3-5.2-3.4-5.4-3.4-5.2-3.5-5-3.6-5.1-3.7-5-3.7-5-3.8-4.9-3.8-4.9-3.9.1-.1 5.2 4 5.3 4 5.3 3.9 5.3 3.9 5.4 3.8 5.4 3.7 5.5 3.7 5.5 3.6 5.5 3.6 5.6 3.5 5.6 3.4 5.6 3.4 5.7 3.3 5.7 3.3 5.7 3.2 5.8 3.1.3.2-.4-.1-7.1-1.3-7.1-1.4-7.1-1.6-7-1.8-7-2-6.9-2.2-6.8-2.3-6.8-2.5-6.7-2.7-6.7-2.8-6.6-3-6.5-3.2-6.4-3.3-6.4-3.5-6.3-3.7-6.2-3.8.1-.1 5.7 3.4 5.7 3.3 5.8 3.2 5.9 3.1 5.9 2.9 6 2.7 6.1 2.5 6.2 2.3 6.3 2.1 6.3 1.9 6.4 1.6 6.5 1.3 6.5 1 6.6.7 6.6.7h6.6v.1c-27.5 2.5-55.1 4.1-82.6 4.9v-.1c3.1.2 6.2.4 9.3.5l9.3.3c3.1.1 6.2.1 9.3.1 3.1 0 6.2 0 9.3-.1l9.3-.3c3.1-.1 6.2-.3 9.3-.5 3.1-.2 6.2-.4 9.3-.7 3.1-.3 6.2-.5 9.2-.9v.1l-3.9.6-3.9.6-3.8.7-3.8.8-3.8.9-3.8.9-3.8 1-3.8 1.1-3.7 1.2-3.7 1.2-3.7 1.3-3.7 1.4-3.6 1.4-3.6 1.5-3.7 2-3.5 1.6v-.1c9.2-3.4 18.3-6.7 27.8-9.1l3.6-.9 3.6-.8 3.6-.7c1.2-.2 2.4-.4 3.6-.5 1.2-.2 2.4-.3 3.6-.4 1.2-.1 2.4-.2 3.7-.2 1.2 0 2.5 0 3.7.3 1.2.3 2.4.8 3.1 1.9v.1h-.1l-4.4 1.9-4.3 2.1-4.2 2.2-4.1 2.3-4.1 2.4-4 2.6-3.9 2.7-3.8 2.8-3.7 2.9-3.6 3-3.6 3.2-3.5 3.3-3.4 3.4-3.2 3.5-3.1 3.6-3 3.7-.1-.1 4-4.6 4.1-4.5 4.2-4.5 4.2-4.4 4.3-4.3 4.4-4.2 4.5-4.1 4.6-4 4.7-3.9 4.8-3.8 4.8-3.7 4.9-3.6 5-3.5 5.1-3.4 5.1-3.3 5.2-3.2.1.1-4.2 3.8-4.2 3.8-4.1 3.9-4.1 3.9-4 4-4 4.1-3.9 4.1-3.9 4.2-3.8 4.2-3.8 4.3-3.7 4.3-3.6 4.4-3.6 4.4-3.5 4.5-3.5 4.5-3.4 4.6-.1-.1 59-63.3.1.1c-16 24.6-31.2 49.7-45.4 75.4h-.1c18.5-29.2 38.4-57.5 59.6-84.8l.1-.1v.2c-.5 4.3-2 8.3-3.9 12.2-1.9 3.8-4.2 7.5-6.4 11.1l-13.5 21.9-26.9 43.8h-.1l9-18.7 4.6-9.3c1.6-3.1 3.2-6.2 4.8-9.2 1.6-3.1 3.3-6.1 4.9-9.1l2.5-4.5 2.6-4.5 2.7-4.4 2.7-4.4 2.8-4.4 2.9-4.3h.1l-2.3 3.8-2.2 3.9-2.1 3.9-2 4-1.9 4-1.7 4.1-1.6 4.1-1.5 4.2-1.4 4.2-1.2 4.3-1.1 4.3-1 4.3-.9 4.4-.7 4.4-.6 4.4-.4 4.4h-.1c.2-23.7 2.4-47.3 6.4-70.6h.1l-1.4 5.3-1.1 5.3-.8 5.4-.6 5.4-.3 5.4-.1 5.4c0 1.8.1 3.6.2 5.4l.4 5.4.7 5.4c.3 1.8.6 3.6 1 5.4l1.2 5.3c.5 1.8 1 3.5 1.5 5.2.6 1.7 1.2 3.4 1.7 5.2.6 1.7 1.3 3.4 2 5.1l2.3 4.9 2.5 4.8h-.1c-.2-11.6-.4-23.2-.1-34.7.1-2.9.2-5.8.4-8.7l.3-4.3.3-4.3.4-4.3.5-4.3.6-4.3.7-4.3.1-.4v.4l2.8 53.8h-.1c-1.3-16.9-4.3-33.6-8.9-49.9l-.1-.2.1.2 39.3 56.5h-.1l-36.8-71.2v-.1h.1c2.5.5 5 1.1 7.5 1.7 2.5.6 5 1.2 7.4 1.9l7.4 2.1c2.4.7 4.9 1.5 7.3 2.3l7.2 2.5 7.2 2.7c2.4.9 4.7 1.9 7.1 2.9l7 3.1v.1l-7.2-3c-2.4-1-4.8-2.1-7.1-3.2-2.4-1.1-4.7-2.2-7-3.4l-7-3.6c-2.3-1.2-4.6-2.5-6.9-3.8-2.3-1.3-4.5-2.6-6.8-4l-6.6-4.1c-2.2-1.4-4.4-2.9-6.5-4.3v-.1l64.6 39.4v.1l-10.5-3.9c-3.5-1.3-7-2.6-10.4-4l-5.2-2.1-5.2-2.1-5.1-2.2-5.1-2.3-5-2.4-5-2.5-4.9-2.6-4.8-2.8-4.8-2.9-4.7-3.1-4.6-3.2-4.4-3.4v-.1c22.9 23.7 47.1 46.3 72.4 67.4v.1c-24.4-17.9-48.6-36.2-72.5-54.8l-.1-.1h.1c12.1.5 24.2.4 36.2-.4 6-.4 12-.9 18-1.5 3-.4 6-.8 8.8-1.8 2.8-1 5.5-2.6 7.5-4.9v.1c-21.4 3.6-43 5.8-64.7 6.3l2-4.7 2.1-4.6 2.2-4.6 2.3-4.5 2.4-4.5 2.5-4.4 2.7-4.3 2.8-4.3 2.9-4.2 3-4.1 3.1-4.1 3.2-4 3.3-3.9 3.4-3.8 3.5-3.7 3.6-3.6c-2.1 2.7-4.3 5.3-6.3 8.1-2.1 2.7-4 5.5-6 8.3-1.9 2.8-3.8 5.7-5.6 8.5l-2.7 4.4c-.9 1.5-1.8 2.9-2.6 4.4-.9 1.5-1.7 3-2.5 4.5l-2.4 4.5c-1.6 3-3.1 6.1-4.5 9.2l-2.1 4.6c-.7 1.6-1.4 3.1-2 4.7-.6 1.6-1.1 3.2-1.4 4.9-.3 1.7-.2 3.4.3 5l58.5-59.6-3.8 1.9-3.7 2.1-3.6 2.3c-1.2.8-2.3 1.6-3.5 2.5l-3.3 2.6c-1.1.9-2.2 1.8-3.2 2.8l-3.1 2.9-3 3-2.9 3.1-2.9 3.2-2.8 3.2-2.7 3.3c-1.8 2.2-3.6 4.4-5.3 6.6l-5.2 6.7 4.1-1.5 4-1.6 4-1.7 4-1.7 3.9-1.8 3.9-1.9 3.9-1.9 3.8-2 3.8-2.1 3.8-2.1 3.7-2.2 3.7-2.3 3.6-2.3 3.6-2.4 3.6-2.5 3.5-2.5-77 34.4 3.7.9 3.7.8 3.8.7 3.8.6 3.8.5 3.8.4 3.8.2 3.8.1h3.8l3.8-.1 3.8-.2 3.8-.3 3.8-.4 3.8-.5 3.8-.6 3.7-.8-77.2 9.9 69.7-10.8c-2.4.6-4.8 1.2-7.3 1.7l-7.3 1.5c-2.4.5-4.9.9-7.3 1.3-2.5.4-4.9.8-7.4 1.1l-7.4.9c-2.5.3-5 .5-7.4.7-2.5.2-5 .4-7.4.5l-7.5.3 3.2-4 3.3-4 3.4-3.9 3.5-3.9 3.5-3.8 3.6-3.7 3.7-3.6 3.8-3.6 3.8-3.5 3.9-3.4 4-3.3 4-3.3 4.1-3.2 4.1-3.1 4.2-3 4.3-2.9c-1.9.3-3.7.8-5.5 1.4-1.8.7-3.5 1.5-5.1 2.5-3.3 1.9-6.2 4.4-9 7-2.7 2.6-5.3 5.4-7.8 8.3-1.2 1.4-2.5 2.9-3.7 4.4l-3.6 4.4c-4.7 6-9.1 12.2-13.2 18.6-4.1 6.4-7.9 12.9-11.5 19.7l53.4-72.1-30.6 33.7-15.3 16.8c-5.1 5.6-10.4 11.1-16.1 16.1h-.1v-.1l1.7-5.3 2-5.2 2.2-5.1 2.4-5 2.6-4.9 2.8-4.8 2.9-4.7 3-4.7 3.2-4.6 3.3-4.5 3.3-4.5 3.4-4.4c2.3-2.9 4.6-5.8 7-8.7l7.1-8.6-2.6 3.7-2.4 3.8-2.2 3.9-2.1 4-1.9 4-1.8 4.1-1.7 4.1-1.6 4.2-1.5 4.2-1.4 4.2-1.3 4.3-1.3 4.3-2.4 8.6-2.3 8.6 1.2-5.4 1.1-5.5 1-5.5.9-5.5.8-5.5.7-5.5.6-5.5.5-5.5.4-5.5.3-5.5.2-5.6.1-5.6v-5.6l-.1-5.6-.2-5.6-.3-5.6-14 83.3.5-5 .3-5.1.1-5.1-.1-5.1c-.1-3.4-.2-6.7-.4-10.1l-.4-10.1-.1-5.1v-5.1l.2-5.1.4-5 .6-5 .9-5 1.3-4.9 1.6-4.8-1.6 5.9-1.4 5.9-1.3 5.9-1.1 6-.9 6-.8 6-.6 6-.4 6.1-.3 6.1-.1 6.1.1 6.1.3 6.1.4 6.1.6 6 .8 6 1 6c-.6-4.4-1.2-8.9-1.7-13.3l-1.5-13.3c-.5-4.4-.9-8.9-1.3-13.4s-.7-8.9-1-13.4c-.3-4.5-.6-8.9-.8-13.4l-.6-13.4-.4-13.4c-.1-4.5-.1-8.9-.1-13.4l-.6 6.9-.4 6.9-.2 6.9-.1 6.9.1 6.9.3 6.9.4 6.9.6 6.9.8 6.9.9 6.8 1.1 6.8 1.3 6.8 1.4 6.8 1.6 6.7 1.8 6.7 1.9 6.6-27.7-78.8 1.1 4.8 1.2 4.8 1.2 4.8 1.3 4.8 1.4 4.7 1.5 4.7 1.6 4.7 1.6 4.7 1.7 4.6 1.8 4.6 1.9 4.6 1.9 4.5 2 4.5 2.1 4.5 2.2 4.4 2.3 4.4c-10.7-23.5-21-47.2-30.9-71l3 8.2c1 2.7 2.1 5.4 3.2 8.1 1.1 2.7 2.2 5.4 3.4 8 1.2 2.7 2.3 5.3 3.5 7.9l3.7 7.9 3.9 7.8c1.3 2.6 2.7 5.1 4.1 7.7 1.4 2.5 2.8 5.1 4.3 7.6-16.2-24.2-31.3-49-45.3-74.4l16.2 32.5 8.1 16.2c2.7 5.4 5.4 10.9 9.2 15.6l-45-59.3 51.5 70.3-3.2-4.2-3.4-4.1-3.4-4-3.6-3.9-3.7-3.8-3.7-3.7-7.5-7.5-3.7-3.8-3.7-3.8-3.6-3.9-3.4-4-3.3-4.1-3.1-4.3-2.9-4.5-2.6-4.6c17.3 18.2 33.6 37.1 48.9 56.9-1.4-1.6-2.9-3.2-4.4-4.7-1.5-1.5-3-3.1-4.6-4.6-1.6-1.5-3.1-3-4.7-4.4-1.6-1.4-3.2-2.9-4.9-4.3-1.6-1.4-3.3-2.7-5-4.1l-5.1-3.9c-1.7-1.3-3.5-2.5-5.3-3.7l-5.4-3.6 30.9 25.1zm3.8 75.4c.1-.1-.1 0 0 0l-.2.1c-.3.2-.7.4-1.3 1-1.2 1-3 3-4.8 6.1-1.8 3.1-3.6 7.3-5.2 12.3-1.6 5-2.9 10.9-3.9 17.5-1 6.5-1.7 13.7-2.1 21.4-.4 7.6-.5 15.7-.4 24.1.2 8.4.5 17.1 1.2 25.9l.5 6.6c.2 2.2.4 4.4.6 6.7l1.3 13.4c.4 4.5 1 8.9 1.6 13.4.5 4.5 1.1 8.9 1.6 13.3s.9 8.8 1.4 13.1c.4 4.3.8 8.6 1.1 12.8.3 4.2.6 8.4.7 12.4.1 2 .2 4 .2 6s.1 4 .1 5.9c.1 7.8-.1 15.1-.8 21.9-.7 6.7-1.8 12.9-4 18.1l-.8 1.9c-.3.6-.6 1.2-1 1.7-.2.3-.3.6-.5.8l-.6.8c-.4.5-.7 1-1.2 1.4-1.6 1.8-3.7 2.9-5.7 3.2-2 .3-3.8 0-5.2-.6-1.5-.5-2.6-1.1-3.5-1.7-.9-.6-1.5-1.1-2-1.4-.4-.3-.6-.5-.6-.5s.2.2.6.5c.4.3 1.1.8 2 1.3.9.5 2.1 1.1 3.5 1.6s3.2.8 5.1.4c1.9-.3 3.8-1.5 5.3-3.3.4-.4.7-.9 1.1-1.4.2-.2.3-.5.5-.8.2-.3.3-.5.4-.8l.9-1.7c.2-.6.5-1.2.7-1.9 1.9-5.1 2.8-11.2 3.4-17.9.5-6.7.5-14 .2-21.7-.1-1.9-.2-3.9-.3-5.9l-.4-6c-.2-4-.7-8.2-1.1-12.4-.4-4.2-.9-8.4-1.4-12.7-.6-4.3-1.1-8.6-1.8-13l-2-13.2c-.6-4.4-1.4-8.9-1.9-13.4-.6-4.5-1.2-8.9-1.7-13.4l-.8-6.7-.7-6.7c-.9-8.9-1.5-17.6-1.9-26.1-.4-8.5-.5-16.7-.3-24.5.2-7.8.7-15.2 1.6-22.1.9-6.8 2.1-13.1 3.6-18.6 1.5-5.5 3.4-10.2 5.5-14 2.1-3.8 4.3-6.6 6.3-8.3.9-.9 1.9-1.5 2.5-1.9l.5-.3c.1-.1.4-.2.5-.2.2-.1.3-.1.3-.1l3.3 7.6z"/></svg>